<svg width="12" height="10" viewBox="0 0 12 10" fill="none" xmlns="http://www.w3.org/2000/svg">
<path d="M0.75 9.28571C0.75 9.6875 1.07812 10 1.5 10H10.5C10.8984 10 11.25 9.6875 11.25 9.28571V2.85714H0.75V9.28571ZM4.5 4.55357C4.5 4.41964 4.61719 4.28571 4.78125 4.28571H7.21875C7.35938 4.28571 7.5 4.41964 7.5 4.55357V4.73214C7.5 4.88839 7.35938 5 7.21875 5H4.78125C4.61719 5 4.5 4.88839 4.5 4.73214V4.55357ZM11.25 0H0.75C0.328125 0 0 0.334821 0 0.714286V1.78571C0 1.98661 0.164062 2.14286 0.375 2.14286H11.625C11.8125 2.14286 12 1.98661 12 1.78571V0.714286C12 0.334821 11.6484 0 11.25 0Z" fill="#02122F"/>
</svg>
