<svg width="16" height="18" viewBox="0 0 16 18" fill="none"
    xmlns="http://www.w3.org/2000/svg">
    <path
        d="M1.71106 15.7405C3.59663 17.628 6.65257 17.628 8.53814 15.7405C10.2937 13.9831 13.1546 11.1193 14.9101 9.3619C15.0726 9.19918 15.0726 8.97137 14.9101 8.80865L14.3574 8.25541C14.1949 8.09269 13.9673 8.09269 13.8048 8.25541C12.0492 10.0128 9.18834 12.8766 7.4328 14.634C6.16492 15.9032 4.08428 15.9032 2.81639 14.634C1.54851 13.3648 1.54851 11.282 2.81639 10.0128L10.1311 2.69043C10.9764 1.8443 12.3418 1.8443 13.1871 2.69043C14.0323 3.53657 14.0323 4.90341 13.1871 5.74954L7.04269 11.9003C6.62006 12.3234 5.93735 12.3234 5.51472 11.9003C5.1246 11.5098 5.1246 10.8264 5.51472 10.4033L10.7488 5.1963C10.9114 5.03358 10.9114 4.80577 10.7488 4.64306L10.1961 4.08981C10.0336 3.92709 9.80603 3.92709 9.64348 4.08981L4.44189 9.29681C3.40157 10.3382 3.40157 11.9979 4.44189 13.0068C5.4497 14.0482 7.10771 14.0482 8.11551 13.0068L14.2924 6.85603C15.7553 5.39156 15.7553 3.04841 14.2924 1.58395C12.8295 0.119479 10.4887 0.119479 9.02579 1.58395L1.71106 8.90628C-0.174519 10.7938 -0.174519 13.8529 1.71106 15.7405Z"
        fill="current" />
</svg>