<svg width="13" height="20" viewBox="0 0 13 20" fill="none" xmlns="http://www.w3.org/2000/svg">
<path d="M6.16063 13.3372C7.97862 13.3372 9.45359 11.7988 9.45359 9.82077V3.96004C9.45359 2.01867 7.97862 0.443604 6.16063 0.443604C4.30834 0.443604 2.86767 2.01867 2.86767 3.96004V9.82077C2.86767 11.7988 4.30834 13.3372 6.16063 13.3372ZM11.6489 7.47648H11.1001C10.7914 7.47648 10.5512 7.76952 10.5512 8.06255V9.82077C10.5512 12.568 8.32163 14.7658 5.71471 14.5094C3.4165 14.2529 1.77002 12.0918 1.77002 9.63762V8.06255C1.77002 7.76952 1.4956 7.47648 1.22119 7.47648H0.672362C0.363647 7.47648 0.123535 7.76952 0.123535 8.06255V9.56436C0.123535 12.8244 2.28454 15.7548 5.33739 16.1943V17.4397H3.4165C3.10778 17.4397 2.86767 17.7328 2.86767 18.0258V18.6119C2.86767 18.9415 3.10778 19.1979 3.4165 19.1979H8.90476C9.17918 19.1979 9.45359 18.9415 9.45359 18.6119V18.0258C9.45359 17.7328 9.17918 17.4397 8.90476 17.4397H6.98387V16.2309C9.89951 15.7914 12.1977 13.0808 12.1977 9.82077V8.06255C12.1977 7.76952 11.9233 7.47648 11.6489 7.47648Z" fill="#9A9A9A"/>
</svg>
