<svg width="26" height="26" version="1.1" viewBox="0 0 6.8792 6.8792" xmlns="http://www.w3.org/2000/svg">
 <g transform="translate(-76.43 -121.92)">
  <g transform="matrix(.26458 0 0 .26458 76.43 121.92)" style="fill:none">
   <circle cx="13" cy="13" r="13" fill="#1aba17"/>
  </g>
  <g transform="matrix(.26458 0 0 .26458 78.546 124.3)" style="fill:none">
   <path d="m3.3887 7.8429c0.19531 0.20943 0.52735 0.20943 0.72266 0l5.7422-6.1571c0.19528-0.20942 0.19528-0.56544 0-0.77486l-0.70313-0.75393c-0.19531-0.20942-0.50781-0.20942-0.70312 0l-4.6875 5.0262-2.207-2.3456c-0.19531-0.20943-0.50781-0.20943-0.70312 0l-0.70312 0.75392c-0.19531 0.20943-0.19531 0.56545 0 0.77487z" fill="#fff"/>
  </g>
 </g>
</svg>
