<svg width="12" height="12" viewBox="0 0 12 12" fill="none" xmlns="http://www.w3.org/2000/svg">
<path d="M6.53809 10.9492C6.79199 10.6953 6.7666 10.3145 6.53809 10.0605L3.46582 7.14062H10.7783C11.1084 7.14062 11.3877 6.88672 11.3877 6.53125V5.71875C11.3877 5.38867 11.1084 5.10938 10.7783 5.10938H3.46582L6.53809 2.21484C6.7666 1.96094 6.79199 1.58008 6.53809 1.32617L5.97949 0.767578C5.75098 0.539062 5.34473 0.539062 5.11621 0.767578L0.19043 5.71875C-0.0634766 5.94727 -0.0634766 6.32812 0.19043 6.55664L5.11621 11.5078C5.34473 11.7363 5.72559 11.7363 5.97949 11.5078L6.53809 10.9492Z" fill="#02122F"/>
</svg>
