<svg width="18" height="14" viewBox="0 0 18 14" fill="none" xmlns="http://www.w3.org/2000/svg">
<path d="M12.9762 4.96428C12.9762 2.3125 10.1437 0.142853 6.70839 0.142853C3.24299 0.142853 0.440533 2.3125 0.440533 4.96428C0.440533 6.01897 0.862408 6.95312 1.58562 7.7366C1.16375 8.67075 0.5008 9.39397 0.5008 9.39397C0.440533 9.45424 0.410399 9.57477 0.440533 9.66517C0.5008 9.75558 0.561068 9.78571 0.681604 9.78571C1.76643 9.78571 2.67044 9.4241 3.33339 9.03236C4.29768 9.5145 5.4729 9.78571 6.70839 9.78571C10.1437 9.78571 12.9762 7.6462 12.9762 4.96428ZM16.6526 11.5937C17.3457 10.8103 17.7977 9.87611 17.7977 8.82142C17.7977 6.83258 16.1704 5.08482 13.8803 4.3616C13.9104 4.57254 13.9405 4.78348 13.9405 4.96428C13.9405 8.15848 10.6861 10.75 6.70839 10.75C6.37692 10.75 6.04544 10.75 5.7441 10.7199C6.67826 12.4375 8.90817 13.6429 11.5298 13.6429C12.7653 13.6429 13.9104 13.3716 14.8747 12.8895C15.5376 13.2812 16.4416 13.6429 17.5566 13.6429C17.647 13.6429 17.7374 13.6127 17.7675 13.5223C17.7977 13.4319 17.7977 13.3114 17.7073 13.2511C17.7073 13.2511 17.0443 12.5279 16.6526 11.5937Z" fill="white"/>
</svg>
