<svg width="28" height="28" viewBox="0 0 28 28" fill="none" xmlns="http://www.w3.org/2000/svg">
<circle cx="14" cy="14" r="14" fill="#FEA828"/>
<path fill-rule="evenodd" clip-rule="evenodd" d="M17.9276 7.11932L20.8648 9.71193C21.0451 9.87103 21.0451 10.129 20.8648 10.2881L17.9276 12.8807C17.7474 13.0398 17.4551 13.0398 17.2749 12.8807C17.0946 12.7216 17.0946 12.4636 17.2749 12.3045L19.4242 10.4074H15V9.59261H19.4242L17.2749 7.69546C17.0946 7.53636 17.0946 7.27842 17.2749 7.11932C17.4551 6.96023 17.7474 6.96023 17.9276 7.11932Z" fill="white"/>
<path d="M7.51909 6.7744L10.3604 6.02406C10.661 5.93027 10.9888 6.11785 11.1254 6.46176L12.4368 9.96333C12.5461 10.276 12.4641 10.6199 12.2456 10.8387L10.579 12.4019C11.5626 14.778 13.2838 16.7789 15.4148 17.9357L16.7808 16.0286C16.9721 15.7785 17.2726 15.6847 17.5458 15.8097L20.6057 17.3104C20.9062 17.4667 21.0429 17.8419 20.9882 18.1858L20.3325 21.4372C20.2506 21.7812 20.0047 22 19.6768 22C12.6827 22 7 15.5283 7 7.49347C7 7.14957 7.21857 6.86819 7.51909 6.7744Z" fill="white"/>
</svg>
