<svg width="11" height="12" viewBox="0 0 11 12" fill="#F4266E" xmlns="http://www.w3.org/2000/svg">
<path d="M0.40786 0.5808L2.64035 0.0180463C2.87648 -0.0522978 3.13408 0.0883905 3.24141 0.346319L4.27179 2.9725C4.35766 3.20698 4.29326 3.46491 4.12153 3.62905L2.81208 4.80145C3.58487 6.5835 4.93724 8.08418 6.61162 8.95175L7.68493 7.52142C7.83519 7.33384 8.07132 7.26349 8.28598 7.35729L10.6902 8.48279C10.9263 8.60003 11.0337 8.88141 10.9907 9.13934L10.4755 11.5779C10.4111 11.8359 10.218 12 9.96036 12C4.46499 12 0 7.14625 0 1.1201C0 0.862176 0.17173 0.651144 0.40786 0.5808Z" />
</svg>
