<svg width="11" height="11" viewBox="0 0 11 11" fill="none" xmlns="http://www.w3.org/2000/svg">
<path d="M11 5.5C11 2.48387 8.51613 0 5.5 0C2.46169 0 0 2.48387 0 5.5C0 8.53831 2.46169 11 5.5 11C8.51613 11 11 8.53831 11 5.5ZM4.85685 8.42742C4.72379 8.56048 4.47984 8.56048 4.34677 8.42742L2.04032 6.12097C1.90726 5.9879 1.90726 5.74395 2.04032 5.61089L2.5504 5.12298C2.68347 4.96774 2.90524 4.96774 3.03831 5.12298L4.6129 6.6754L7.93952 3.34879C8.07258 3.19355 8.29435 3.19355 8.42742 3.34879L8.9375 3.83669C9.07056 3.96976 9.07056 4.21371 8.9375 4.34677L4.85685 8.42742Z" fill="#1ABA17"/>
</svg>
