<svg width="9" height="9" viewBox="0 0 9 9" fill="none" xmlns="http://www.w3.org/2000/svg">
<path d="M4.5 0C2.01411 0 0 2.01411 0 4.5C0 6.98589 2.01411 9 4.5 9C6.98589 9 9 6.98589 9 4.5C9 2.01411 6.98589 0 4.5 0ZM4.5 8.12903C2.48589 8.12903 0.870968 6.51411 0.870968 4.5C0.870968 2.50403 2.48589 0.870968 4.5 0.870968C6.49597 0.870968 8.12903 2.50403 8.12903 4.5C8.12903 6.51411 6.49597 8.12903 4.5 8.12903ZM5.60685 6.24194C5.71573 6.31452 5.84274 6.29637 5.91532 6.1875L6.26008 5.73387C6.33266 5.625 6.31452 5.49798 6.20565 5.4254L5.00806 4.53629V1.95968C5.00806 1.85081 4.89919 1.74194 4.79032 1.74194H4.20968C4.08266 1.74194 3.99194 1.85081 3.99194 1.95968V4.95363C3.99194 5.00806 4.01008 5.08065 4.06452 5.11694L5.60685 6.24194Z" fill="current"/>
</svg>
