<svg width="18" height="13" viewBox="0 0 18 13" fill="none"
    xmlns="http://www.w3.org/2000/svg">
    <path
        d="M14.6836 5.95703C14.793 5.65625 14.875 5.35547 14.875 5C14.875 3.55078 13.6992 2.375 12.25 2.375C11.7031 2.375 11.1836 2.53906 10.7734 2.83984C10.0352 1.52734 8.61328 0.625 7 0.625C4.56641 0.625 2.625 2.59375 2.625 5C2.625 5.08203 2.625 5.16406 2.625 5.24609C1.09375 5.76562 0 7.24219 0 8.9375C0 11.125 1.75 12.875 3.9375 12.875H14C15.9141 12.875 17.5 11.3164 17.5 9.375C17.5 7.70703 16.2969 6.28516 14.6836 5.95703ZM10.7461 7.625H8.96875V10.6875C8.96875 10.9336 8.75 11.125 8.53125 11.125H7.21875C6.97266 11.125 6.78125 10.9336 6.78125 10.6875V7.625H4.97656C4.59375 7.625 4.40234 7.16016 4.67578 6.88672L7.54688 4.01562C7.71094 3.85156 8.01172 3.85156 8.17578 4.01562L11.0469 6.88672C11.3203 7.16016 11.1289 7.625 10.7461 7.625Z"
        fill="#FFFFFF" />
</svg>