<svg width="18" height="19" viewBox="0 0 18 19" fill="none" xmlns="http://www.w3.org/2000/svg">
<path d="M2.79138 14.8385H5.83567V17.5578C5.83567 17.9227 6.23289 18.154 6.52851 17.9272L6.52856 17.9272L10.5441 14.8385H15.1685C16.3248 14.8385 17.2814 13.8924 17.2814 12.6784V3.18338C17.2814 2.00292 16.3253 1.02336 15.1685 1.02336H2.79138C1.60184 1.02336 0.678516 2.00344 0.678516 3.18338V12.6784C0.678516 13.8919 1.60234 14.8385 2.79138 14.8385ZM9.96139 9.77717C9.96139 9.91142 9.85793 9.99092 9.75353 9.99092H5.11209C5.04186 9.99092 4.99143 9.96961 4.95848 9.93591C4.9254 9.90207 4.90424 9.84988 4.90424 9.77717V9.24967C4.90424 9.14011 4.98356 9.03592 5.11209 9.03592H9.75353C9.80133 9.03592 9.85361 9.0609 9.89505 9.10329C9.93643 9.14562 9.96139 9.1996 9.96139 9.24967V9.77717ZM13.0557 6.61215C13.0557 6.7464 12.9522 6.8259 12.8478 6.8259H5.11209C5.04186 6.8259 4.99143 6.80459 4.95848 6.77089C4.9254 6.73705 4.90424 6.68486 4.90424 6.61215V6.08465C4.90424 5.97509 4.98356 5.8709 5.11209 5.8709H12.8478C12.8956 5.8709 12.9479 5.89587 12.9893 5.93827C13.0307 5.9806 13.0557 6.03458 13.0557 6.08465V6.61215Z" fill="#F4266E" stroke="white" stroke-width="0.1"/>
</svg>
