<svg width="18" height="14" viewBox="0 0 18 14" fill="none"
    xmlns="http://www.w3.org/2000/svg">
    <path
        d="M0.739062 2.46822V2.51822H0.789062H17.1706H17.2206V2.46822V2.00278C17.2206 1.21989 16.5736 0.556445 15.8055 0.556445H2.15419C1.35696 0.556445 0.739062 1.22058 0.739062 2.00278V2.46822ZM17.2206 3.39911V3.34911H17.1706H0.789062H0.739062V3.39911V12.2426C0.739062 13.0545 1.35763 13.6889 2.15419 13.6889H15.8055C16.5729 13.6889 17.2206 13.0552 17.2206 12.2426V3.39911ZM2.74041 11.2443L2.74073 11.2445L2.74243 11.2388C2.96401 10.5022 3.6281 9.96533 4.4294 9.96533H4.64497C4.99278 10.1405 5.36787 10.1981 5.79453 10.1981C6.19333 10.1981 6.56802 10.1404 6.91566 9.96533H7.15966C7.93206 9.96533 8.59647 10.5017 8.81819 11.2388L8.81803 11.2388L8.8195 11.2426C8.86903 11.3692 8.83864 11.4884 8.76376 11.5777C8.6879 11.6682 8.56682 11.7271 8.43947 11.7271H3.12116C2.99561 11.7271 2.87427 11.6625 2.79741 11.5675C2.72091 11.4729 2.69263 11.3543 2.74041 11.2443ZM10.85 5.49361C10.85 5.39957 10.918 5.31089 11.0275 5.31089H15.1229C15.1631 5.31089 15.2078 5.33199 15.2436 5.36857C15.2793 5.40508 15.3004 5.4513 15.3004 5.49361V5.95905C15.3004 6.07391 15.2121 6.14178 15.1229 6.14178H11.0275C10.9668 6.14178 10.9239 6.12337 10.8962 6.09501C10.8683 6.0665 10.85 6.02207 10.85 5.95905V5.49361ZM10.85 7.35539C10.85 7.26135 10.918 7.17267 11.0275 7.17267H15.1229C15.1631 7.17267 15.2078 7.19377 15.2436 7.23034C15.2793 7.26685 15.3004 7.31307 15.3004 7.35539V7.82083C15.3004 7.93568 15.2121 8.00355 15.1229 8.00355H11.0275C10.9668 8.00355 10.9239 7.98515 10.8962 7.95678C10.8683 7.92828 10.85 7.88385 10.85 7.82083V7.35539ZM10.85 9.21716C10.85 9.12312 10.918 9.03444 11.0275 9.03444H15.1229C15.1631 9.03444 15.2078 9.05554 15.2436 9.09212C15.2793 9.12863 15.3004 9.17485 15.3004 9.21716V9.68261C15.3004 9.79746 15.2121 9.86533 15.1229 9.86533H11.0275C10.9668 9.86533 10.9239 9.84692 10.8962 9.81856C10.8683 9.79006 10.85 9.74562 10.85 9.68261V9.21716ZM5.79453 5.31089C6.76126 5.31089 7.5647 6.13105 7.5647 7.12267C7.5647 8.14286 6.76177 8.93444 5.79453 8.93444C4.79936 8.93444 4.02436 8.14337 4.02436 7.12267C4.02436 6.13053 4.79986 5.31089 5.79453 5.31089Z"
        fill="#000000" stroke="white" stroke-width="0.1" />
</svg>