<svg width="8" height="11" viewBox="0 0 8 11" fill="none" xmlns="http://www.w3.org/2000/svg">
<path d="M7 1.375H5.33333C5.33333 0.623047 4.72917 0 4 0C3.25 0 2.66667 0.623047 2.66667 1.375H1C0.4375 1.375 0 1.84766 0 2.40625V9.96875C0 10.5488 0.4375 11 1 11H7C7.54167 11 8 10.5488 8 9.96875V2.40625C8 1.84766 7.54167 1.375 7 1.375ZM4 0.859375C4.27083 0.859375 4.5 1.0957 4.5 1.375C4.5 1.67578 4.27083 1.89062 4 1.89062C3.70833 1.89062 3.5 1.67578 3.5 1.375C3.5 1.0957 3.70833 0.859375 4 0.859375ZM6.52083 5.84375L3.54167 8.89453C3.4375 9.00195 3.27083 9.00195 3.1875 8.89453L1.45833 7.11133C1.35417 7.00391 1.375 6.83203 1.45833 6.74609L2.0625 6.12305C2.14583 6.03711 2.3125 6.03711 2.41667 6.14453L3.375 7.13281L5.58333 4.87695C5.66667 4.76953 5.83333 4.76953 5.9375 4.87695L6.52083 5.47852C6.625 5.58594 6.60417 5.75781 6.52083 5.84375Z" fill="#9A9A9A"/>
</svg>
