<svg width="28" height="28" viewBox="0 0 28 28" fill="none" xmlns="http://www.w3.org/2000/svg">
<circle cx="14" cy="14" r="14" fill="#B4B4B4"/>
<path d="M22.3237 19.5508L19.8628 17.6367C19.8628 17.582 19.8901 17.5547 19.8901 17.5C19.8901 17.3086 19.8081 17.0898 19.644 16.9258C19.1245 16.3516 18.1128 15.5039 18.1128 12.6875C18.1128 10.582 16.6362 8.88672 14.6128 8.44922V7.875C14.6128 7.41016 14.23 7 13.7651 7C13.2729 7 12.8901 7.41016 12.8901 7.875V8.44922C11.769 8.69531 10.8393 9.29688 10.2104 10.1719L6.24558 7.10938C6.05418 6.94531 5.78074 7 5.64402 7.19141L5.09714 7.875C4.93308 8.06641 4.98777 8.33984 5.17918 8.47656L21.2573 20.918C21.4487 21.082 21.7221 21.0273 21.8589 20.8359L22.4057 20.1523C22.5698 19.9609 22.5151 19.6875 22.3237 19.5508ZM9.30808 13.8906C9.06199 15.75 8.29636 16.4336 7.85886 16.9258C7.6948 17.0898 7.61277 17.3086 7.64011 17.5C7.64011 17.9648 7.96824 18.375 8.51511 18.375H15.1323L9.30808 13.8906ZM13.7651 21C14.7221 21 15.4878 20.2344 15.4878 19.25H12.0151C12.0151 20.2344 12.7807 21 13.7651 21Z" fill="white"/>
</svg>
