<svg width="11" height="12" viewBox="0 0 11 12" fill="none" xmlns="http://www.w3.org/2000/svg">
<path d="M7.83259 7.5L5.5 9.75L3.14286 7.5C1.39955 7.59375 0 8.95312 0 10.6406C0 11.3906 0.638393 12 1.42411 12H9.55134C10.3371 12 11 11.3906 11 10.6406C11 8.95312 9.57589 7.59375 7.83259 7.5ZM5.5 7.125C7.21875 7.125 8.64286 5.78906 8.64286 4.125V1.54688C8.64286 1.26562 8.39732 0.960938 8.12723 0.84375L6.04018 0.117188C5.89286 0.046875 5.64732 0 5.5 0C5.32813 0 5.08259 0.046875 4.93527 0.117188L2.84821 0.84375C2.57813 0.960938 2.35714 1.26562 2.35714 1.54688V4.125C2.35714 5.78906 3.7567 7.125 5.5 7.125ZM4.51786 1.6875C4.51786 1.61719 4.56696 1.57031 4.64063 1.57031H5.15625V1.05469C5.15625 1.00781 5.20536 0.9375 5.27902 0.9375H5.69643C5.77009 0.9375 5.8192 1.00781 5.8192 1.05469V1.57031H6.35938C6.40848 1.57031 6.48214 1.61719 6.48214 1.6875V2.08594C6.48214 2.15625 6.40848 2.20312 6.35938 2.20312H5.8192V2.69531C5.8192 2.76562 5.77009 2.8125 5.69643 2.8125H5.27902C5.20536 2.8125 5.15625 2.76562 5.15625 2.69531V2.20312H4.64063C4.56696 2.20312 4.51786 2.15625 4.51786 2.08594V1.6875ZM3.53571 3.75H7.46429V4.125C7.46429 5.17969 6.58036 6 5.5 6C4.39509 6 3.53571 5.17969 3.53571 4.125V3.75Z" fill="#FDB528"/>
</svg>
