<svg width="14" height="14" viewBox="0 0 14 14" fill="#02122F" xmlns="http://www.w3.org/2000/svg">
<path d="M5.90625 0C5.52344 0 5.25 0.300781 5.25 0.65625V5.25H2.84375C2.35156 5.25 2.10547 5.85156 2.46094 6.20703L6.61719 10.3633C6.80859 10.5547 7.16406 10.5547 7.35547 10.3633L11.5117 6.20703C11.8672 5.85156 11.6211 5.25 11.1289 5.25H8.75V0.65625C8.75 0.300781 8.44922 0 8.09375 0H5.90625ZM14 10.2812C14 9.92578 13.6992 9.625 13.3438 9.625H9.32422L7.98438 10.9648C7.4375 11.5391 6.53516 11.5391 5.98828 10.9648L4.64844 9.625H0.65625C0.273438 9.625 0 9.92578 0 10.2812V13.3438C0 13.7266 0.273438 14 0.65625 14H13.3438C13.6992 14 14 13.7266 14 13.3438V10.2812ZM10.6094 12.6875C10.6094 12.9883 10.3633 13.2344 10.0625 13.2344C9.76172 13.2344 9.51562 12.9883 9.51562 12.6875C9.51562 12.3867 9.76172 12.1406 10.0625 12.1406C10.3633 12.1406 10.6094 12.3867 10.6094 12.6875ZM12.3594 12.6875C12.3594 12.9883 12.1133 13.2344 11.8125 13.2344C11.5117 13.2344 11.2656 12.9883 11.2656 12.6875C11.2656 12.3867 11.5117 12.1406 11.8125 12.1406C12.1133 12.1406 12.3594 12.3867 12.3594 12.6875Z" fill="current"/>
</svg>
