<svg width="26" height="24" viewBox="0 0 26 24" fill="none" xmlns="http://www.w3.org/2000/svg">
<g clip-path="url(#clip0_26253_178146)">
<path d="M22.3584 7.08564V14.4366H22.4618C22.9396 14.4359 23.3976 14.2428 23.7354 13.8996C24.0732 13.5564 24.2633 13.0911 24.264 12.6058V3.47927C24.2633 2.99393 24.0732 2.52867 23.7354 2.18548C23.3976 1.84229 22.9396 1.64917 22.4618 1.64844H6.97454C6.4968 1.64917 6.03882 1.84229 5.70101 2.18548C5.36319 2.52867 5.17308 2.99393 5.17236 3.47927V3.58437H18.9228C19.3748 3.58473 19.8223 3.67562 20.2396 3.85184C20.657 4.02806 21.0361 4.28615 21.3552 4.61135C21.6743 4.93654 21.9271 5.32246 22.0993 5.74703C22.2714 6.17159 22.3595 6.62647 22.3584 7.08564V7.08564Z" fill="white"/>
<path d="M22.462 0H6.97467C6.06325 -2.90225e-07 5.18912 0.36763 4.54439 1.02209C3.89966 1.67655 3.5371 2.56429 3.53638 3.49021V3.5953H5.16977V3.49021C5.17049 3.00487 5.36059 2.53961 5.69841 2.19642C6.03623 1.85323 6.4942 1.6601 6.97195 1.65937H22.4592C22.937 1.6601 23.395 1.85323 23.7328 2.19642C24.0706 2.53961 24.2607 3.00487 24.2614 3.49021V12.6167C24.2607 13.1021 24.0706 13.5673 23.7328 13.9105C23.395 14.2537 22.937 14.4468 22.4592 14.4476H22.3558V16.1069H22.4592C23.3702 16.1062 24.2436 15.7383 24.8878 15.0839C25.5319 14.4295 25.8941 13.5422 25.8948 12.6167V3.49021C25.8941 2.56525 25.5323 1.67835 24.8887 1.02404C24.2452 0.369742 23.3724 0.00146441 22.462 0V0Z" fill="#434E69"/>
<path d="M20.725 7.08572C20.7242 6.60038 20.5341 6.13512 20.1963 5.79193C19.8585 5.44874 19.4005 5.25561 18.9228 5.25488H3.43548C2.95773 5.25561 2.49976 5.44874 2.16194 5.79193C1.82412 6.13512 1.63402 6.60038 1.6333 7.08572V16.2123C1.63402 16.6976 1.82412 17.1629 2.16194 17.506C2.49976 17.8492 2.95773 18.0424 3.43548 18.0431H4.50263C4.71923 18.0431 4.92696 18.1305 5.08012 18.2861C5.23328 18.4417 5.31933 18.6527 5.31933 18.8728V22.2855L11.2649 18.1869C11.4005 18.0931 11.5609 18.043 11.725 18.0431H18.9228C19.4005 18.0424 19.8585 17.8492 20.1963 17.506C20.5341 17.1629 20.7242 16.6976 20.725 16.2123V7.08572ZM6.36742 9.02165H15.9908C16.2074 9.02165 16.4152 9.10907 16.5683 9.26466C16.7215 9.42026 16.8075 9.63129 16.8075 9.85134C16.8075 10.0714 16.7215 10.2824 16.5683 10.438C16.4152 10.5936 16.2074 10.681 15.9908 10.681H6.36742C6.15082 10.681 5.94309 10.5936 5.78993 10.438C5.63677 10.2824 5.55072 10.0714 5.55072 9.85134C5.55072 9.63129 5.63677 9.42026 5.78993 9.26466C5.94309 9.10907 6.15082 9.02165 6.36742 9.02165V9.02165ZM6.36742 12.617H13.2685C13.4851 12.617 13.6928 12.7044 13.846 12.86C13.9992 13.0156 14.0852 13.2266 14.0852 13.4466C14.0852 13.6667 13.9992 13.8777 13.846 14.0333C13.6928 14.1889 13.4851 14.2763 13.2685 14.2763H6.36742C6.15082 14.2763 5.94309 14.1889 5.78993 14.0333C5.63677 13.8777 5.55072 13.6667 5.55072 13.4466C5.55072 13.2266 5.63677 13.0156 5.78993 12.86C5.94309 12.7044 6.15082 12.617 6.36742 12.617V12.617Z" fill="white"/>
<path d="M22.3585 14.4369V7.08591C22.3577 6.16048 21.9956 5.27315 21.3514 4.61877C20.7073 3.96439 19.8338 3.59644 18.9229 3.5957H3.43561C2.52419 3.5957 1.65006 3.96333 1.00533 4.61779C0.360602 5.27225 -0.00196392 6.16 -0.00268555 7.08591V16.2124C-0.00196457 17.1379 0.360227 18.0252 1.00436 18.6796C1.6485 19.334 2.52194 19.7019 3.43288 19.7026H3.68334V22.4268C3.68272 22.7147 3.75948 22.9974 3.90535 23.2443C4.05121 23.4912 4.26065 23.693 4.51107 23.8278C4.7615 23.9627 5.04342 24.0256 5.32643 24.0097C5.60945 23.9938 5.88282 23.8998 6.11709 23.7377L11.9755 19.6916H18.9229C19.8338 19.6908 20.7073 19.3229 21.3514 18.6685C21.9956 18.0141 22.3577 17.1268 22.3585 16.2014V14.4369V14.4369ZM18.9229 18.0322H11.7251C11.561 18.0321 11.4007 18.0822 11.265 18.176L5.31945 22.2747V18.8619C5.31945 18.6418 5.23341 18.4308 5.08025 18.2752C4.92709 18.1196 4.71936 18.0322 4.50276 18.0322H3.43561C2.95786 18.0315 2.49989 17.8384 2.16207 17.4952C1.82425 17.152 1.63415 16.6867 1.63343 16.2014V7.07485C1.63415 6.5895 1.82425 6.12425 2.16207 5.78106C2.49989 5.43787 2.95786 5.24474 3.43561 5.24401H18.9229C19.4006 5.24474 19.8586 5.43787 20.1964 5.78106C20.5342 6.12425 20.7243 6.5895 20.7251 7.07485V16.2014C20.7243 16.6867 20.5342 17.152 20.1964 17.4952C19.8586 17.8384 19.4006 18.0315 18.9229 18.0322V18.0322Z" fill="#434E69"/>
<path d="M6.36748 10.6779H15.9909C16.2075 10.6779 16.4152 10.5905 16.5684 10.4349C16.7215 10.2793 16.8076 10.0683 16.8076 9.84824C16.8076 9.62819 16.7215 9.41716 16.5684 9.26156C16.4152 9.10597 16.2075 9.01855 15.9909 9.01855H6.36748C6.15088 9.01855 5.94315 9.10597 5.78999 9.26156C5.63683 9.41716 5.55078 9.62819 5.55078 9.84824C5.55078 10.0683 5.63683 10.2793 5.78999 10.4349C5.94315 10.5905 6.15088 10.6779 6.36748 10.6779V10.6779Z" fill="#434E69"/>
<path d="M6.36748 14.2678H13.2686C13.4852 14.2678 13.6929 14.1804 13.8461 14.0248C13.9992 13.8692 14.0853 13.6581 14.0853 13.4381C14.0853 13.218 13.9992 13.007 13.8461 12.8514C13.6929 12.6958 13.4852 12.6084 13.2686 12.6084H6.36748C6.15088 12.6084 5.94315 12.6958 5.78999 12.8514C5.63683 13.007 5.55078 13.218 5.55078 13.4381C5.55078 13.6581 5.63683 13.8692 5.78999 14.0248C5.94315 14.1804 6.15088 14.2678 6.36748 14.2678V14.2678Z" fill="#434E69"/>
</g>
<defs>
<clipPath id="clip0_26253_178146">
<rect width="25.8947" height="24" fill="white"/>
</clipPath>
</defs>
</svg>
