<svg width="15" height="10" viewBox="0 0 15 10" fill="none" xmlns="http://www.w3.org/2000/svg">
<path d="M10.6957 9.34508C10.6313 9.27946 10.5953 9.19105 10.5957 9.09908C10.5978 9.01114 10.6336 8.92736 10.6957 8.86507L13.0957 6.46507H11.7677C11.6759 6.46455 11.5881 6.4278 11.5233 6.36281C11.4585 6.29782 11.422 6.20983 11.4217 6.11806V5.77107C11.4217 5.67922 11.4581 5.59111 11.523 5.52606C11.5879 5.46102 11.6759 5.42434 11.7677 5.42407H14.5097C14.6017 5.42434 14.6898 5.46098 14.7548 5.526C14.8198 5.59102 14.8564 5.67912 14.8567 5.77107V8.51308C14.8564 8.60503 14.8198 8.69311 14.7548 8.75813C14.6898 8.82315 14.6017 8.8598 14.5097 8.86006H14.1677C14.0758 8.8598 13.9877 8.82315 13.9226 8.75813C13.8576 8.69311 13.821 8.60503 13.8207 8.51308V7.19307L11.4207 9.59306C11.3899 9.62645 11.3524 9.6531 11.3108 9.67134C11.2691 9.68958 11.2242 9.69904 11.1787 9.69908C11.135 9.69918 11.0916 9.69037 11.0514 9.67317C11.0112 9.65598 10.9749 9.63077 10.9447 9.59908L10.6957 9.34508Z" fill="#F4803F"/>
<path d="M0.971 0.000976562H1.53C1.78735 0.0012416 2.03407 0.10366 2.21595 0.285729C2.39784 0.467798 2.5 0.714625 2.5 0.971977V8.02998C2.5 8.28733 2.39784 8.53415 2.21595 8.71622C2.03407 8.89829 1.78735 9.00071 1.53 9.00098H0.97C0.71274 9.00098 0.466017 8.89878 0.284106 8.71687C0.102196 8.53496 0 8.28824 0 8.03098L0 0.971977C0 0.714451 0.102301 0.467474 0.284399 0.285376C0.466497 0.103278 0.713475 0.000976563 0.971 0.000976563V0.000976562Z" fill="#9A9A9A"/>
<path d="M11.0754 0H4.53642C4.2789 0 4.03192 0.102295 3.84982 0.284393C3.66773 0.466491 3.56543 0.713468 3.56543 0.970993V8.02899C3.56543 8.28652 3.66773 8.53351 3.84982 8.71561C4.03192 8.8977 4.2789 9 4.53642 9H9.50842V5.87399C9.50895 5.49012 9.66168 5.12213 9.93312 4.85069C10.2046 4.57925 10.5725 4.42652 10.9564 4.42599H12.0464V0.970993C12.0464 0.713468 11.9441 0.466491 11.762 0.284393C11.5799 0.102295 11.3329 0 11.0754 0ZM6.10243 7.12399C6.10243 7.15709 6.0959 7.18985 6.08324 7.22043C6.07057 7.251 6.05201 7.27878 6.02861 7.30219C6.00521 7.32559 5.97744 7.34415 5.94687 7.35681C5.91629 7.36948 5.88353 7.37601 5.85043 7.37601H5.05643C5.02333 7.37601 4.99057 7.36948 4.95999 7.35681C4.92942 7.34415 4.90164 7.32559 4.87823 7.30219C4.85483 7.27878 4.83627 7.251 4.82361 7.22043C4.81094 7.18985 4.80443 7.15709 4.80443 7.12399V6.32999C4.80443 6.29689 4.81094 6.26412 4.82361 6.23355C4.83627 6.20298 4.85483 6.17519 4.87823 6.15179C4.90164 6.12839 4.92942 6.10983 4.95999 6.09717C4.99057 6.0845 5.02333 6.078 5.05643 6.078H5.85043C5.88353 6.078 5.91629 6.0845 5.94687 6.09717C5.97744 6.10983 6.00521 6.12839 6.02861 6.15179C6.05201 6.17519 6.07057 6.20298 6.08324 6.23355C6.0959 6.26412 6.10243 6.29689 6.10243 6.32999V7.12399ZM6.10243 4.89699C6.10256 4.93017 6.09613 4.96305 6.08353 4.99374C6.07092 5.02443 6.05239 5.05233 6.02898 5.07584C6.00556 5.09934 5.97774 5.118 5.9471 5.13072C5.91646 5.14345 5.88361 5.14999 5.85043 5.14999H5.05643C5.02325 5.14999 4.9904 5.14345 4.95976 5.13072C4.92912 5.118 4.9013 5.09934 4.87788 5.07584C4.85447 5.05233 4.83592 5.02443 4.82332 4.99374C4.81071 4.96305 4.8043 4.93017 4.80443 4.89699V4.09999C4.80443 4.03316 4.83098 3.96906 4.87823 3.9218C4.92549 3.87454 4.98959 3.84799 5.05643 3.84799H5.85043C5.91727 3.84799 5.98135 3.87454 6.02861 3.9218C6.07587 3.96906 6.10243 4.03316 6.10243 4.09999V4.89699ZM6.10243 2.67099C6.10243 2.70408 6.0959 2.73685 6.08324 2.76743C6.07057 2.798 6.05201 2.82578 6.02861 2.84918C6.00521 2.87258 5.97744 2.89114 5.94687 2.90381C5.91629 2.91647 5.88353 2.92299 5.85043 2.92299H5.05643C5.02333 2.92299 4.99057 2.91647 4.95999 2.90381C4.92942 2.89114 4.90164 2.87258 4.87823 2.84918C4.85483 2.82578 4.83627 2.798 4.82361 2.76743C4.81094 2.73685 4.80443 2.70408 4.80443 2.67099V1.87599C4.80443 1.80916 4.83098 1.74506 4.87823 1.6978C4.92549 1.65054 4.98959 1.62399 5.05643 1.62399H5.85043C5.91727 1.62399 5.98135 1.65054 6.02861 1.6978C6.07587 1.74506 6.10243 1.80916 6.10243 1.87599V2.67099ZM8.45543 7.12399C8.45543 7.15717 8.44887 7.19003 8.43614 7.22067C8.42342 7.25131 8.40478 7.27914 8.38127 7.30255C8.35777 7.32596 8.32985 7.34448 8.29916 7.35709C8.26847 7.36969 8.2356 7.37614 8.20242 7.37601H7.40843C7.37534 7.37601 7.34257 7.36948 7.312 7.35681C7.28142 7.34415 7.25364 7.32559 7.23024 7.30219C7.20684 7.27878 7.18828 7.251 7.17561 7.22043C7.16295 7.18985 7.15643 7.15709 7.15643 7.12399V6.32999C7.15643 6.29689 7.16295 6.26412 7.17561 6.23355C7.18828 6.20298 7.20684 6.17519 7.23024 6.15179C7.25364 6.12839 7.28142 6.10983 7.312 6.09717C7.34257 6.0845 7.37534 6.078 7.40843 6.078H8.20242C8.2356 6.07787 8.26847 6.08429 8.29916 6.09689C8.32985 6.1095 8.35777 6.12805 8.38127 6.15146C8.40478 6.17487 8.42342 6.2027 8.43614 6.23334C8.44887 6.26398 8.45543 6.29681 8.45543 6.32999V7.12399ZM8.45543 4.89699C8.45543 4.96409 8.42876 5.02845 8.38132 5.0759C8.33387 5.12334 8.26952 5.14999 8.20242 5.14999H7.40843C7.37525 5.14999 7.34239 5.14345 7.31175 5.13072C7.28111 5.118 7.25329 5.09934 7.22987 5.07584C7.20646 5.05233 7.18793 5.02443 7.17532 4.99374C7.16272 4.96305 7.1563 4.93017 7.15643 4.89699V4.09999C7.15643 4.03316 7.18298 3.96906 7.23024 3.9218C7.2775 3.87454 7.3416 3.84799 7.40843 3.84799H8.20242C8.2356 3.84786 8.26847 3.85428 8.29916 3.86688C8.32985 3.87949 8.35777 3.89803 8.38127 3.92145C8.40478 3.94486 8.42342 3.97269 8.43614 4.00333C8.44887 4.03397 8.45543 4.06681 8.45543 4.09999V4.89699ZM8.45543 2.67C8.45543 2.7371 8.42876 2.80145 8.38132 2.84889C8.33387 2.89634 8.26952 2.92299 8.20242 2.92299H7.40843C7.37525 2.92299 7.34239 2.91644 7.31175 2.90372C7.28111 2.89099 7.25329 2.87234 7.22987 2.84883C7.20646 2.82532 7.18793 2.79743 7.17532 2.76674C7.16272 2.73605 7.1563 2.70318 7.15643 2.67V1.87599C7.15643 1.80916 7.18298 1.74506 7.23024 1.6978C7.2775 1.65054 7.3416 1.62399 7.40843 1.62399H8.20242C8.2356 1.62386 8.26847 1.63028 8.29916 1.64288C8.32985 1.65549 8.35777 1.67404 8.38127 1.69745C8.40478 1.72086 8.42342 1.74869 8.43614 1.77933C8.44887 1.80997 8.45543 1.84281 8.45543 1.87599V2.67ZM10.8074 2.67C10.8074 2.7371 10.7808 2.80145 10.7333 2.84889C10.6859 2.89634 10.6215 2.92299 10.5544 2.92299H9.76143C9.69433 2.92299 9.62998 2.89634 9.58253 2.84889C9.53509 2.80145 9.50842 2.7371 9.50842 2.67V1.87599C9.50842 1.84281 9.51498 1.80997 9.52771 1.77933C9.54044 1.74869 9.55909 1.72086 9.5826 1.69745C9.6061 1.67404 9.634 1.65549 9.66469 1.64288C9.69538 1.63028 9.72825 1.62386 9.76143 1.62399H10.5544C10.5876 1.62386 10.6205 1.63028 10.6512 1.64288C10.6819 1.65549 10.7098 1.67404 10.7333 1.69745C10.7568 1.72086 10.7754 1.74869 10.7881 1.77933C10.8009 1.80997 10.8074 1.84281 10.8074 1.87599V2.67Z" fill="#9A9A9A"/>
</svg>
