<svg width="17" height="22" viewBox="0 0 17 22" fill="none" xmlns="http://www.w3.org/2000/svg">
<path d="M15.8555 4.21093L12.2891 0.601555C11.9023 0.214836 11.3438 -7.62939e-06 10.8281 -7.62939e-06H2.0625C0.902344 -7.62939e-06 0 0.945305 0 2.06249V19.9375C0 21.0976 0.902344 22 2.0625 22H14.4375C15.5547 22 16.5 21.0976 16.5 19.9375V5.67187C16.5 5.15624 16.2422 4.59765 15.8555 4.21093ZM14.9102 5.19921C14.9961 5.28515 15.0391 5.41405 15.082 5.49999H11V1.41796C11.0859 1.46093 11.2148 1.5039 11.3008 1.58984L14.9102 5.19921ZM14.4375 20.625H2.0625C1.67578 20.625 1.375 20.3242 1.375 19.9375V2.06249C1.375 1.71874 1.67578 1.37499 2.0625 1.37499H9.625V5.84374C9.625 6.4453 10.0547 6.87499 10.6562 6.87499H15.125V19.9375C15.125 20.3242 14.7812 20.625 14.4375 20.625ZM12.375 10.1406C12.375 9.8828 12.1172 9.62499 11.8594 9.62499H4.64062C4.33984 9.62499 4.125 9.8828 4.125 10.1406V10.4844C4.125 10.7851 4.33984 11 4.64062 11H11.8594C12.1172 11 12.375 10.7851 12.375 10.4844V10.1406ZM12.375 12.8906C12.375 12.6328 12.1172 12.375 11.8594 12.375H4.64062C4.33984 12.375 4.125 12.6328 4.125 12.8906V13.2344C4.125 13.5351 4.33984 13.75 4.64062 13.75H11.8594C12.1172 13.75 12.375 13.5351 12.375 13.2344V12.8906ZM12.375 15.6406C12.375 15.3828 12.1172 15.125 11.8594 15.125H4.64062C4.33984 15.125 4.125 15.3828 4.125 15.6406V15.9844C4.125 16.2851 4.33984 16.5 4.64062 16.5H11.8594C12.1172 16.5 12.375 16.2851 12.375 15.9844V15.6406Z" fill="#9A9A9A"/>
</svg>
