<svg width="14" height="12" viewBox="0 0 14 12" fill="none" xmlns="http://www.w3.org/2000/svg">
<path d="M6.11083 1.625H7.73583C7.93895 1.625 8.14208 1.44727 8.14208 1.21875V0.40625C8.14208 0.203125 7.93895 0 7.73583 0H6.11083C5.88231 0 5.70458 0.203125 5.70458 0.40625V1.21875C5.70458 1.44727 5.88231 1.625 6.11083 1.625ZM6.11083 4.875H9.36083C9.56395 4.875 9.76708 4.69727 9.76708 4.46875V3.65625C9.76708 3.45312 9.56395 3.25 9.36083 3.25H6.11083C5.88231 3.25 5.70458 3.45312 5.70458 3.65625V4.46875C5.70458 4.69727 5.88231 4.875 6.11083 4.875ZM12.6108 9.75H6.11083C5.88231 9.75 5.70458 9.95312 5.70458 10.1562V10.9688C5.70458 11.1973 5.88231 11.375 6.11083 11.375H12.6108C12.814 11.375 13.0171 11.1973 13.0171 10.9688V10.1562C13.0171 9.95312 12.814 9.75 12.6108 9.75ZM6.11083 8.125H10.9858C11.189 8.125 11.3921 7.94727 11.3921 7.71875V6.90625C11.3921 6.70312 11.189 6.5 10.9858 6.5H6.11083C5.88231 6.5 5.70458 6.70312 5.70458 6.90625V7.71875C5.70458 7.94727 5.88231 8.125 6.11083 8.125ZM0.423328 3.25H1.64208V10.9688C1.64208 11.1973 1.81981 11.375 2.04833 11.375H2.86083C3.06395 11.375 3.26708 11.1973 3.26708 10.9688V3.25H4.48583C4.8413 3.25 5.01903 2.81836 4.76512 2.56445L2.73387 0.126953C2.6577 0.0761719 2.53075 0.0253906 2.45458 0.0253906C2.35302 0.0253906 2.22606 0.0761719 2.14989 0.126953L0.11864 2.56445C-0.135266 2.81836 0.0424685 3.25 0.423328 3.25Z" fill="#243656"/>
</svg>
