<svg width="14" height="14" viewBox="0 0 14 14" fill="none" xmlns="http://www.w3.org/2000/svg">
<path d="M7 14C10.866 14 14 10.866 14 7C14 3.13401 10.866 0 7 0C3.13401 0 0 3.13401 0 7C0 10.866 3.13401 14 7 14Z" fill="#D2D2D2"/>
<path d="M14 7.00006C14.0022 7.82593 13.8566 8.64552 13.57 9.42006C13.0749 10.7639 12.1796 11.9235 11.0047 12.7425C9.8299 13.5615 8.43214 14.0004 7.00003 14.0001C5.56791 14.0004 4.17015 13.5615 2.99533 12.7425C1.8205 11.9235 0.925121 10.7639 0.430018 9.42006C0.143426 8.64552 -0.00219716 7.82593 2.50541e-05 7.00006C-0.0016763 6.17099 0.143912 5.34821 0.430018 4.57006C0.926754 3.22812 1.82283 2.07064 2.99752 1.25354C4.17221 0.436443 5.5691 -0.00102605 7.00003 6.0111e-05C8.43317 -0.0058777 9.83361 0.428223 11.0121 1.24371C12.1907 2.0592 13.0905 3.21678 13.59 4.56006C13.8705 5.3426 14.0093 6.16884 14 7.00006Z" fill="#EF3827"/>
<path d="M14 7.00007C14.0022 7.82593 13.8566 8.64552 13.57 9.42007H0.430018C0.143426 8.64552 -0.00219716 7.82593 2.50541e-05 7.00007C-0.0016763 6.171 0.143912 5.34821 0.430018 4.57007H13.59C13.8693 5.34945 14.0081 6.1722 14 7.00007Z" fill="#FFD203"/>
</svg>
