<svg width="13" height="11" viewBox="0 0 13 11" fill="none" xmlns="http://www.w3.org/2000/svg">
<path d="M12.2778 0.6875H9.75L9.02778 0H7.22222C6.81597 0 6.5 0.322266 6.5 0.6875V4.125C6.5 4.51172 6.81597 4.8125 7.22222 4.8125H12.2778C12.6615 4.8125 13 4.51172 13 4.125V1.375C13 1.00977 12.6615 0.6875 12.2778 0.6875ZM12.2778 6.875H9.75L9.02778 6.1875H7.22222C6.81597 6.1875 6.5 6.50977 6.5 6.875V10.3125C6.5 10.6992 6.81597 11 7.22222 11H12.2778C12.6615 11 13 10.6992 13 10.3125V7.5625C13 7.19727 12.6615 6.875 12.2778 6.875ZM1.44444 0.34375C1.44444 0.171875 1.26389 0 1.08333 0H0.361111C0.157986 0 0 0.171875 0 0.34375V8.9375C0 9.32422 0.315972 9.625 0.722222 9.625H5.77778V8.25H1.44444V3.4375H5.77778V2.0625H1.44444V0.34375Z" fill="#999999"/>
</svg>
