<svg width="32" height="40" viewBox="0 0 32 40" fill="none" xmlns="http://www.w3.org/2000/svg">
<path d="M32 40L32 0L4.76995e-07 -3.81596e-07L0 40L16 34.9L32 40Z" fill="#F4266E"/>
<path d="M7.25195 26.7143C7.25195 27.4375 7.79883 28 8.50195 28H14.752V21.5714H7.25195V26.7143ZM17.252 28H23.502C24.166 28 24.752 27.4375 24.752 26.7143V21.5714H17.252V28ZM24.752 15.1429H23.0723C23.3457 14.6607 23.502 14.1384 23.502 13.5357C23.502 11.6071 21.9395 10 20.0645 10C18.4238 10 17.3691 10.8839 16.041 12.7723C14.6738 10.8839 13.6191 10 12.0176 10C10.1035 10 8.58008 11.6071 8.58008 13.5357C8.58008 14.1384 8.69727 14.6607 8.9707 15.1429H7.25195C6.54883 15.1429 6.00195 15.7455 6.00195 16.4286V19.6429C6.00195 20.0045 6.27539 20.2857 6.62695 20.2857H25.377C25.6895 20.2857 26.002 20.0045 26.002 19.6429V16.4286C26.002 15.7455 25.416 15.1429 24.752 15.1429ZM11.9785 15.1429C11.1191 15.1429 10.416 14.4598 10.416 13.5357C10.416 12.6518 11.1191 11.9286 11.9785 11.9286C12.7598 11.9286 13.3457 12.0893 15.377 15.1429H11.9785ZM20.0645 15.1429H16.666C18.6973 12.0893 19.2441 11.9286 20.0645 11.9286C20.9238 11.9286 21.627 12.6518 21.627 13.5357C21.627 14.4598 20.9238 15.1429 20.0645 15.1429Z" fill="white"/>
</svg>
