<svg width="14" height="10" viewBox="0 0 14 10" fill="none" xmlns="http://www.w3.org/2000/svg">
<path d="M13.5625 8.33333H1.75V0.416667C1.75 0.208333 1.53125 0 1.3125 0H0.4375C0.191406 0 0 0.208333 0 0.416667V9.16667C0 9.63542 0.382812 10 0.875 10H13.5625C13.7812 10 14 9.81771 14 9.58333V8.75C14 8.54167 13.7812 8.33333 13.5625 8.33333ZM12.6875 0.833333H9.43359C8.85938 0.833333 8.55859 1.51042 8.96875 1.90104L9.87109 2.76042L7.875 4.66146L5.85156 2.76042C5.52344 2.42188 4.94922 2.42188 4.62109 2.76042L2.73438 4.55729C2.57031 4.71354 2.57031 4.97396 2.73438 5.13021L3.36328 5.72917C3.52734 5.88542 3.80078 5.88542 3.96484 5.72917L5.25 4.53125L7.24609 6.43229C7.57422 6.77083 8.14844 6.77083 8.47656 6.43229L11.1016 3.93229L12.0039 4.79167C12.4141 5.18229 13.0977 4.89583 13.0977 4.34896V1.25C13.125 1.04167 12.9062 0.833333 12.6875 0.833333Z" fill="white"/>
</svg>
