<svg width="11" height="11" viewBox="0 0 11 11" fill="none" xmlns="http://www.w3.org/2000/svg">
<path d="M7.43359 5.375L10.3633 2.44531C10.7441 2.09375 10.7441 1.50781 10.3633 1.15625L9.71875 0.511719C9.36719 0.130859 8.78125 0.130859 8.42969 0.511719L5.5 3.44141L2.54102 0.511719C2.18945 0.130859 1.60352 0.130859 1.25195 0.511719L0.607422 1.15625C0.226562 1.50781 0.226562 2.09375 0.607422 2.44531L3.53711 5.375L0.607422 8.33398C0.226562 8.68555 0.226562 9.27148 0.607422 9.62305L1.25195 10.2676C1.60352 10.6484 2.18945 10.6484 2.54102 10.2676L5.5 7.33789L8.42969 10.2676C8.78125 10.6484 9.36719 10.6484 9.71875 10.2676L10.3633 9.62305C10.7441 9.27148 10.7441 8.68555 10.3633 8.33398L7.43359 5.375Z" fill="#9A9A9A"/>
</svg>
