<svg width="10" height="11" viewBox="0 0 10 11" fill="none" xmlns="http://www.w3.org/2000/svg">
<path d="M8.70898 1.91602C7.60156 0.826172 5.86133 0.791016 4.26172 2.37305C2.89062 3.76172 3.18945 3.44531 2.76758 3.88477C1.69531 4.93945 1.51953 6.53906 1.64258 7.59375L4.77148 4.46484C4.89453 4.3418 5.07031 4.3418 5.17578 4.46484C5.28125 4.57031 5.28125 4.74609 5.17578 4.85156L0.623047 9.42188C0.447266 9.58008 0.447266 9.84375 0.623047 10.002C0.78125 10.1777 1.04492 10.1777 1.2207 10.002L2.38086 8.8418C3.29492 9.12305 5.4043 9.17578 6.70508 7.875H4.98242L7.58398 7.01367C8.46289 6.13477 8.2168 6.38086 8.39258 6.1875H6.66992L8.99023 5.43164C9.78125 4.11328 9.58789 2.8125 8.70898 1.91602Z" fill="white"/>
</svg>
