<svg width="14" height="14" viewBox="0 0 14 14" fill="none" xmlns="http://www.w3.org/2000/svg">
<path d="M7 0C3.13306 0 0 3.16129 0 7C0 10.8669 3.13306 14 7 14C10.8387 14 14 10.8669 14 7C14 3.16129 10.8387 0 7 0ZM7 12.6452C3.86694 12.6452 1.35484 10.1331 1.35484 7C1.35484 3.89516 3.86694 1.35484 7 1.35484C10.1048 1.35484 12.6452 3.89516 12.6452 7C12.6452 10.1331 10.1048 12.6452 7 12.6452ZM7 3.10484C6.32258 3.10484 5.81452 3.64113 5.81452 4.29032C5.81452 4.96774 6.32258 5.47581 7 5.47581C7.64919 5.47581 8.18548 4.96774 8.18548 4.29032C8.18548 3.64113 7.64919 3.10484 7 3.10484ZM8.58064 10.2742V9.59677C8.58064 9.42742 8.41129 9.25806 8.24194 9.25806H7.90323V6.43548C7.90323 6.26613 7.73387 6.09677 7.56452 6.09677H5.75806C5.56048 6.09677 5.41935 6.26613 5.41935 6.43548V7.1129C5.41935 7.31048 5.56048 7.45161 5.75806 7.45161H6.09677V9.25806H5.75806C5.56048 9.25806 5.41935 9.42742 5.41935 9.59677V10.2742C5.41935 10.4718 5.56048 10.6129 5.75806 10.6129H8.24194C8.41129 10.6129 8.58064 10.4718 8.58064 10.2742Z" fill="current"/>
</svg>
