<svg width="14" height="15" viewBox="0 0 14 15" fill="none" xmlns="http://www.w3.org/2000/svg">
<path d="M8.60117 5.78446C8.3001 5.46188 7.97165 5.22727 7.61584 5.02199C7.47898 4.96334 7.34213 4.99267 7.23265 5.10997L7.12317 5.22727C6.87683 5.46188 6.73998 5.78446 6.71261 6.10704C6.68524 6.25367 6.76735 6.40029 6.87683 6.48827C7.12317 6.60557 7.34213 6.7522 7.50635 6.95748C8.40958 7.92522 8.40958 9.47947 7.50635 10.4472L5.45357 12.6466C4.55034 13.6144 3.09971 13.6144 2.19648 12.6466C1.29326 11.6789 1.29326 10.1246 2.19648 9.15689L3.45552 7.80792C3.53763 7.71994 3.565 7.60264 3.53763 7.48534C3.45552 7.13343 3.42815 6.7522 3.40078 6.37097C3.40078 6.07771 3.04497 5.93109 2.85337 6.13636C2.52493 6.48827 2.00489 7.04545 1.12903 7.98387C-0.376344 9.59677 -0.376344 12.2067 1.12903 13.7903C2.60704 15.4032 5.04301 15.4032 6.54839 13.7903C8.79277 11.3856 8.68328 11.5029 8.84751 11.2683C10.0792 9.68475 9.99707 7.28006 8.60117 5.78446ZM12.871 1.20968C11.393 -0.403226 8.95699 -0.403226 7.45161 1.20968C5.20723 3.61437 5.31672 3.49707 5.15249 3.73167C3.92082 5.31525 4.00293 7.71994 5.39883 9.21554C5.6999 9.53812 6.02835 9.77273 6.38416 9.97801C6.52102 10.0367 6.65787 10.0073 6.76735 9.89003L6.87683 9.77273C7.12317 9.53812 7.26002 9.21554 7.28739 8.89296C7.31476 8.74633 7.23265 8.59971 7.12317 8.51173C6.87683 8.39443 6.65787 8.2478 6.49365 8.04252C5.59042 7.07478 5.59042 5.52053 6.49365 4.55279L8.54643 2.35337C9.44966 1.38563 10.9003 1.38563 11.8035 2.35337C12.7067 3.32111 12.7067 4.87537 11.8035 5.84311L10.5445 7.19208C10.4624 7.28006 10.435 7.39736 10.4624 7.51466C10.5445 7.86657 10.5718 8.2478 10.5992 8.62903C10.5992 8.92229 10.955 9.06891 11.1466 8.86364C11.4751 8.51173 11.9951 7.95455 12.871 7.01613C14.3763 5.40323 14.3763 2.79326 12.871 1.20968Z" fill="#9A9A9A"/>
</svg>
