<svg width="64" height="63" viewBox="0 0 64 63" fill="none" xmlns="http://www.w3.org/2000/svg">
<path d="M29.8048 62.9999C46.2655 62.9999 59.6095 49.6151 59.6095 33.104C59.6095 16.5929 46.2655 3.20801 29.8048 3.20801C13.344 3.20801 0 16.5929 0 33.104C0 49.6151 13.344 62.9999 29.8048 62.9999Z" fill="#F0F3F8"/>
<path d="M23.6456 14.2698C24.2491 14.2698 24.7384 13.779 24.7384 13.1736C24.7384 12.5682 24.2491 12.0774 23.6456 12.0774C23.042 12.0774 22.5527 12.5682 22.5527 13.1736C22.5527 13.779 23.042 14.2698 23.6456 14.2698Z" fill="#CBD5E7"/>
<path d="M30.2021 10.8814C31.1349 10.8814 31.8911 10.1229 31.8911 9.18727C31.8911 8.25164 31.1349 7.49316 30.2021 7.49316C29.2693 7.49316 28.5132 8.25164 28.5132 9.18727C28.5132 10.1229 29.2693 10.8814 30.2021 10.8814Z" fill="#CBD5E7"/>
<path d="M11.7234 7.09468C12.9156 7.09468 13.8097 7.99156 13.8097 9.18739C13.8097 10.3832 12.9156 11.2801 11.7234 11.2801C10.5312 11.2801 9.63705 10.3832 9.63705 9.18739C9.63705 7.99156 10.6305 7.09468 11.7234 7.09468ZM11.7234 6.09814C10.0344 6.09814 8.64355 7.49329 8.64355 9.18739C8.64355 10.8815 10.0344 12.2766 11.7234 12.2766C13.4123 12.2766 14.8032 10.8815 14.8032 9.18739C14.8032 7.49329 13.4123 6.09814 11.7234 6.09814Z" fill="#EBCCD8"/>
<path d="M53.1516 6.79573H53.2509C53.6483 6.69608 53.9464 6.39712 53.847 5.89885L53.0522 0.617234C53.0522 0.218621 52.6548 -0.0803389 52.2574 0.0193143C51.86 0.118967 51.562 0.417927 51.6613 0.916193L52.4561 6.19781C52.4561 6.49677 52.7542 6.79573 53.1516 6.79573Z" fill="#D2D2D2"/>
<path d="M56.8278 7.59288C57.0265 7.59288 57.2252 7.49322 57.4239 7.29392L60.7024 3.10848C61.0005 2.80952 60.9011 2.31126 60.6031 2.0123C60.305 1.71334 59.8083 1.81299 59.5102 2.11195L56.2317 6.29739C55.9337 6.59635 56.033 7.09461 56.3311 7.39357C56.4304 7.59288 56.6291 7.59288 56.8278 7.59288Z" fill="#D2D2D2"/>
<path d="M57.4238 10.2837C57.5231 10.6823 57.8212 10.8816 58.1192 10.8816H58.2186L63.3847 10.0844C63.7821 9.98477 64.0802 9.68581 63.9808 9.18755C63.8815 8.78893 63.5834 8.48997 63.0867 8.58963L57.9205 9.38685C57.6225 9.4865 57.3244 9.88512 57.4238 10.2837Z" fill="#D2D2D2"/>
<path d="M55.7354 47.4541L12.9159 56.9211C11.0282 57.3197 9.04126 56.1239 8.64386 54.2305L3.17966 29.5165C2.78226 27.5234 3.97445 25.63 5.96144 25.2314L48.7809 15.7643C50.6686 15.3657 52.6556 16.5616 53.053 18.455L58.5172 43.169C58.9146 45.0624 57.623 47.0554 55.7354 47.4541Z" fill="#D0D3D9"/>
<path d="M4.76855 26.6267L31.2948 38.2861C32.0896 38.5851 32.8844 38.3858 33.4805 37.7879L52.6549 16.0635" fill="white"/>
<path d="M59.5103 42.2722L53.9468 16.8606C53.7481 16.0634 53.3507 15.4655 52.6552 15.0669C51.9598 14.6683 51.2643 14.469 50.4695 14.6683L6.25915 24.3346C4.66956 24.6336 3.67607 26.228 4.07347 27.8225L9.63702 53.2341C9.83572 54.0313 10.2331 54.6292 10.9286 55.0278C11.4253 55.3268 11.9221 55.5261 12.5181 55.5261C12.7168 55.5261 12.9155 55.5261 13.1142 55.4264L57.2253 45.6604C58.8149 45.3615 59.8084 43.8667 59.5103 42.2722ZM57.5233 40.5781L37.9515 33.8017L52.4565 17.3589L57.5233 40.5781ZM6.5572 25.8294L50.6682 16.0634C50.7676 16.0634 50.8669 16.0634 50.9663 16.0634C51.165 16.0634 51.3637 16.1631 51.5624 16.1631L32.9841 37.2896C32.5867 37.6882 32.0899 37.7878 31.5932 37.5885L5.7624 26.228C5.9611 26.0287 6.25915 25.9291 6.5572 25.8294ZM10.6305 50.8424L5.56371 27.8225L25.4335 36.592L10.6305 50.8424ZM56.9272 44.2653L12.8162 54.0313C12.4188 54.1309 12.0214 54.0313 11.7234 53.832C11.4253 53.6327 11.2266 53.3337 11.1273 52.9351L11.0279 52.5365L26.9238 37.1899L31.0964 38.9837C31.3945 39.0833 31.6925 39.183 31.9906 39.183C32.686 39.183 33.4808 38.884 34.0769 38.2861L36.958 34.9975L57.9207 42.2722L58.0201 42.5712C58.2188 43.3684 57.722 44.066 56.9272 44.2653Z" fill="#424F69"/>
<path d="M58.0195 42.5712L57.9202 42.2722L36.9575 34.9976L34.0764 38.2861C33.4803 38.884 32.7848 39.183 31.99 39.183C31.692 39.183 31.3939 39.0833 31.0959 38.9837L26.9232 37.1899L11.0273 52.5365L11.1267 52.9351C11.226 53.3337 11.4247 53.6327 11.7228 53.832C12.0208 54.0313 12.4182 54.131 12.8156 54.0313L56.9267 44.2653C57.7215 44.066 58.2182 43.3684 58.0195 42.5712Z" fill="white"/>
<path d="M32.9839 37.2896L51.6615 16.1631C51.4628 16.0635 51.2641 16.0635 51.0654 16.0635C50.9661 16.0635 50.8667 16.0635 50.7674 16.0635L6.557 25.8295C6.25895 25.9291 5.96091 26.0288 5.76221 26.3278L31.593 37.6882C32.0897 37.7879 32.5865 37.6882 32.9839 37.2896Z" fill="white"/>
<path d="M30.3011 39.7807C30.7978 39.8804 31.4933 40.0797 32.4868 39.6811C32.9835 39.4818 33.4803 38.8838 33.8777 38.4852C33.3809 38.8838 32.6855 39.0832 32.0894 39.0832C31.7913 39.0832 31.4933 38.9835 31.1952 38.8838L27.0226 37.0901L26.1284 37.8873C26.1284 37.987 30.003 39.7807 30.3011 39.7807Z" fill="#D0D3D9"/>
<path d="M10.6303 50.8422L25.4333 36.5917L5.56348 27.8223L10.6303 50.8422Z" fill="#D9E2F3"/>
<path d="M52.4569 17.4585L38.0513 33.8016L57.5237 40.578L52.4569 17.4585Z" fill="#D9E2F3"/>
<path d="M50.6683 22.3417C54.3994 22.3417 57.4241 19.3077 57.4241 15.5652C57.4241 11.8227 54.3994 8.78882 50.6683 8.78882C46.9372 8.78882 43.9126 11.8227 43.9126 15.5652C43.9126 19.3077 46.9372 22.3417 50.6683 22.3417Z" fill="#F4266E"/>
<path d="M49.5753 17.7575C49.2772 17.5582 49.0785 17.2592 48.8799 16.8606C48.6812 16.5616 48.6812 16.0634 48.6812 15.5651C48.6812 15.0668 48.7805 14.5686 48.9792 14.17C49.1779 13.7713 49.3766 13.4724 49.6746 13.2731C49.9727 13.0738 50.3701 12.9741 50.7675 12.9741C51.1649 12.9741 51.4629 13.0738 51.761 13.2731C52.059 13.4724 52.2577 13.7713 52.4564 14.17C52.6551 14.5686 52.7545 14.9672 52.7545 15.5651C52.7545 16.0634 52.6551 16.5616 52.4564 16.9602C52.2577 17.3589 52.059 17.6578 51.761 17.8571C51.4629 18.0564 51.0655 18.1561 50.7675 18.1561C50.2707 18.0564 49.8733 17.9568 49.5753 17.7575ZM51.6616 16.9602C51.8603 16.6613 52.059 16.163 52.059 15.5651C52.059 14.9672 51.9597 14.4689 51.6616 14.17C51.4629 13.871 51.0655 13.6717 50.6681 13.6717C50.2707 13.6717 49.9727 13.871 49.6746 14.17C49.4759 14.4689 49.2772 14.9672 49.2772 15.5651C49.2772 16.163 49.3766 16.6613 49.6746 16.9602C49.8733 17.2592 50.2707 17.4585 50.6681 17.4585C51.0655 17.4585 51.3636 17.2592 51.6616 16.9602Z" fill="white"/>
</svg>
