<svg width="18.997" height="21.068" version="1.1" viewBox="0 0 5.0264 5.5741" xmlns="http://www.w3.org/2000/svg">
 <g transform="translate(-11.867 -99.999)">
  <g transform="matrix(.26458 0 0 .26458 11.867 99.999)" style="fill:none">
   <path d="m6.0371 12.894c1.818 0 3.293-1.5384 3.293-3.5164v-5.8607c0-1.9414-1.475-3.5164-3.293-3.5164-1.8523 0-3.293 1.5751-3.293 3.5164v5.8607c0 1.978 1.4407 3.5164 3.293 3.5164zm5.4883-5.8607h-0.5489c-0.3087 0-0.5488 0.29303-0.5488 0.58607v1.7582c0 2.7472-2.2296 4.945-4.8365 4.6886-2.2982-0.2565-3.9447-2.4176-3.9447-4.8718v-1.5751c0-0.29304-0.27441-0.58607-0.54883-0.58607h-0.54882c-0.30872 0-0.54883 0.29303-0.54883 0.58607v1.5018c0 3.26 2.161 6.1904 5.2138 6.6299v1.2454h-1.9209c-0.30871 0-0.54883 0.2931-0.54883 0.5861v0.5861c0 0.3296 0.24012 0.586 0.54883 0.586h5.4883c0.27441 0 0.54882-0.2564 0.54882-0.586v-0.5861c0-0.293-0.27441-0.5861-0.54882-0.5861h-1.9209v-1.2088c2.9156-0.4395 5.2139-3.1501 5.2139-6.4101v-1.7582c0-0.29304-0.2744-0.58607-0.5488-0.58607z" fill="#9a9a9a"/>
  </g>
  <g transform="matrix(.26458 0 0 .26458 13.719 102.4)" style="fill:none">
   <rect x=".5" y=".5" width="11" height="11" rx="1.5" fill="#f00" stroke="#fff"/>
  </g>
  <g transform="matrix(.26458 0 0 .26458 14.446 103.22)" style="fill:none">
   <path d="m3.8906 2.9906 2.025-2.0063c0.1125-0.1125 0.1125-0.31875 0-0.43125l-0.46875-0.46875c-0.1125-0.1125-0.31875-0.1125-0.43126 0l-2.0062 2.025-2.025-2.025c-0.1125-0.1125-0.31875-0.1125-0.43125 0l-0.46875 0.46875c-0.1125 0.1125-0.1125 0.31875 0 0.43125l2.025 2.0063-2.025 2.025c-0.1125 0.11251-0.1125 0.31876 0 0.43126l0.46875 0.46875c0.1125 0.1125 0.31875 0.1125 0.43125 0l2.025-2.025 2.0062 2.025c0.11251 0.1125 0.31876 0.1125 0.43126 0l0.46875-0.46875c0.1125-0.1125 0.1125-0.31875 0-0.43126z" fill="#fff"/>
  </g>
 </g>
</svg>
