<svg width="35.237" height="29.159" version="1.1" viewBox="0 0 9.3232 7.7149" xmlns="http://www.w3.org/2000/svg">
 <g transform="translate(-77.083 -159.37)">
  <g transform="matrix(.26458 0 0 .26458 77.083 159.37)" style="fill:none">
   <circle cx="14" cy="14" r="14" fill="#f00"/>
  </g>
  <g transform="matrix(.26458 0 0 .26458 79.993 160.95)" style="fill:none">
   <path d="m5.5 13.5c0-1.375-1.125-2.5-2.5-2.5-1.4062 0-2.5 1.125-2.5 2.5 0 1.4062 1.0938 2.5 2.5 2.5 1.375 0 2.5-1.0938 2.5-2.5zm-4.7188-12.688 0.40625 8.5c0.03125 0.375 0.375 0.6875 0.75 0.6875h2.0938c0.375 0 0.71875-0.3125 0.75-0.6875l0.40625-8.5c0.03125-0.4375-0.3125-0.8125-0.75-0.8125h-2.9062c-0.4375 0-0.78125 0.375-0.75 0.8125z" fill="#fff"/>
  </g>
  <g transform="matrix(.26458 0 0 .26458 82.173 162.85)" style="fill:none">
   <circle cx="8" cy="8" r="7.5" fill="#f00" stroke="#121414"/>
  </g>
  <g transform="matrix(.26458 0 0 .26458 83.495 164.17)" style="fill:none">
   <path d="m3.8906 2.9906 2.025-2.0063c0.1125-0.1125 0.1125-0.31875 0-0.43125l-0.46875-0.46875c-0.1125-0.1125-0.31875-0.1125-0.43126 0l-2.0062 2.025-2.025-2.025c-0.1125-0.1125-0.31875-0.1125-0.43125 0l-0.46875 0.46875c-0.1125 0.1125-0.1125 0.31875 0 0.43125l2.025 2.0063-2.025 2.025c-0.1125 0.11251-0.1125 0.31876 0 0.43126l0.46875 0.46875c0.1125 0.1125 0.31875 0.1125 0.43125 0l2.025-2.025 2.0062 2.025c0.11251 0.1125 0.31876 0.1125 0.43126 0l0.46875-0.46875c0.1125-0.1125 0.1125-0.31875 0-0.43126z" fill="#fff"/>
  </g>
 </g>
</svg>
