<svg width="51" height="51" viewBox="0 0 51 51" fill="none" xmlns="http://www.w3.org/2000/svg">
<path d="M25.5 51C39.5833 51 51 39.5833 51 25.5C51 11.4167 39.5833 0 25.5 0C11.4167 0 0 11.4167 0 25.5C0 39.5833 11.4167 51 25.5 51Z" fill="#F0F3F8"/>
<path d="M5.32964 26.6593C6.06398 26.6593 6.65928 26.064 6.65928 25.3296C6.65928 24.5953 6.06398 24 5.32964 24C4.5953 24 4 24.5953 4 25.3296C4 26.064 4.5953 26.6593 5.32964 26.6593Z" fill="#CBD5E8"/>
<path d="M18.3296 44.6593C19.064 44.6593 19.6593 44.064 19.6593 43.3296C19.6593 42.5953 19.064 42 18.3296 42C17.5953 42 17 42.5953 17 43.3296C17 44.064 17.5953 44.6593 18.3296 44.6593Z" fill="#CBD5E8"/>
<path d="M44.8089 36.3405C45.3253 36.3405 45.7438 35.9219 45.7438 35.4056C45.7438 34.8893 45.3253 34.4707 44.8089 34.4707C44.2926 34.4707 43.874 34.8893 43.874 35.4056C43.874 35.9219 44.2926 36.3405 44.8089 36.3405Z" fill="#CBD5E8"/>
<path d="M9.9349 11.8698C10.4512 11.8698 10.8698 11.4512 10.8698 10.9349C10.8698 10.4186 10.4512 10 9.9349 10C9.41857 10 9 10.4186 9 10.9349C9 11.4512 9.41857 11.8698 9.9349 11.8698Z" fill="#CBD5E8"/>
<path opacity="0.3" d="M47.4972 15.9945C46.1177 15.9945 45 14.8726 45 13.4972C45 12.1177 46.1219 11 47.4972 11C48.8726 11 49.9945 12.1219 49.9945 13.4972C49.9986 14.8726 48.8767 15.9945 47.4972 15.9945ZM47.4972 11.8269C46.5789 11.8269 45.831 12.5748 45.831 13.4931C45.831 14.4114 46.5789 15.1593 47.4972 15.1593C48.4155 15.1593 49.1634 14.4114 49.1634 13.4931C49.1634 12.5748 48.4197 11.8269 47.4972 11.8269Z" fill="#F71E6C"/>
<g clip-path="url(#clip0_23670_155729)">
<path d="M37.21 14.9599V19.6199H12.89V14.9599C12.8979 14.5541 13.0646 14.1675 13.3544 13.8833C13.6443 13.599 14.0341 13.4399 14.44 13.4399H17.55V15.1899H20.92V13.4399H29.34V15.1899H32.71V13.4399H35.64C35.8417 13.4407 36.0416 13.4779 36.23 13.5499C36.4207 13.6287 36.594 13.7442 36.74 13.8899C36.8813 14.0337 36.9933 14.2035 37.07 14.3899C37.1489 14.5766 37.1897 14.7772 37.19 14.9799L37.21 14.9599Z" fill="#D9E2F3"/>
<path d="M33.34 39.6499C35.0247 39.6479 36.671 39.1465 38.0707 38.2091C39.4705 37.2717 40.561 35.9404 41.2043 34.3834C41.8476 32.8264 42.0149 31.1136 41.6851 29.4616C41.3552 27.8095 40.543 26.2923 39.351 25.1018C38.1591 23.9112 36.6409 23.1008 34.9885 22.7728C33.3361 22.4449 31.6235 22.6142 30.0672 23.2594C28.511 23.9045 27.1809 24.9965 26.2452 26.3974C25.3094 27.7983 24.81 29.4452 24.81 31.1299C24.8087 32.2499 25.0285 33.3592 25.4568 34.3942C25.8852 35.4291 26.5136 36.3693 27.306 37.1609C28.0985 37.9524 29.0395 38.5798 30.0749 39.0069C31.1103 39.434 32.2199 39.6525 33.34 39.6499Z" fill="white"/>
<path d="M41.34 26.7399C40.6355 25.4346 39.6439 24.3063 38.44 23.4399V15.1099C38.4246 14.7325 38.3346 14.3618 38.1752 14.0193C38.0157 13.6769 37.79 13.3694 37.5111 13.1146C37.2322 12.8599 36.9055 12.6629 36.55 12.5351C36.1946 12.4072 35.8173 12.3511 35.44 12.3699H33.44V10.8699C33.4544 10.7774 33.4503 10.6829 33.4279 10.5919C33.4056 10.501 33.3656 10.4153 33.31 10.3399C33.1974 10.1854 33.0286 10.0813 32.84 10.0499H29.5C29.3892 10.0339 29.2762 10.0422 29.169 10.0743C29.0618 10.1064 28.9628 10.1615 28.879 10.2358C28.7953 10.31 28.7287 10.4016 28.684 10.5043C28.6392 10.6069 28.6174 10.718 28.62 10.8299V12.3699H21.81V10.8299C21.81 10.3199 21.28 10.0499 20.81 10.0499H17.65C17.08 10.0499 16.65 10.3599 16.65 10.8299V12.3699H14.86C14.4897 12.3537 14.12 12.4126 13.7731 12.5429C13.4261 12.6732 13.1091 12.8723 12.841 13.1282C12.573 13.3842 12.3594 13.6916 12.2131 14.0322C12.0669 14.3727 11.991 14.7393 11.99 15.1099V34.3599C11.9909 34.7301 12.0669 35.0963 12.2132 35.4363C12.3596 35.7763 12.5733 36.0832 12.8415 36.3383C13.1098 36.5934 13.4269 36.7916 13.7738 36.9208C14.1207 37.0499 14.4902 37.1075 14.86 37.0899H25.86C26.6138 38.0195 27.5409 38.7939 28.59 39.3699C29.668 39.9698 30.8542 40.3505 32.08 40.4899C33.3085 40.6299 34.5525 40.5245 35.74 40.1799C36.9289 39.8406 38.0375 39.2659 39 38.4899C40.0944 37.6168 40.9794 36.5098 41.5903 35.2501C42.2011 33.9904 42.5222 32.6099 42.53 31.2099C42.5008 29.6456 42.0924 28.1117 41.34 26.7399ZM30.43 14.3199V11.8299H31.59V14.3199H30.43ZM16.93 15.8399C17.1056 16.0249 17.3453 16.1358 17.6 16.1499H20.77C21.0257 16.1322 21.2684 16.0302 21.46 15.8599C21.6496 15.6749 21.7727 15.4322 21.81 15.1699V14.1699H28.62V15.1699C28.6102 15.2906 28.6247 15.412 28.6624 15.5271C28.7002 15.6421 28.7606 15.7485 28.84 15.8399C29.0099 16.03 29.246 16.1481 29.5 16.1699H32.66C33.12 16.1699 33.44 15.7599 33.44 15.1699V14.1699H35.44C36.01 14.1699 36.62 14.4899 36.62 15.0799V18.9799H13.85V15.0799C13.8509 14.9529 13.8781 14.8275 13.9299 14.7115C13.9816 14.5955 14.0568 14.4915 14.1508 14.406C14.2447 14.3205 14.3553 14.2554 14.4757 14.2148C14.596 14.1741 14.7235 14.1589 14.85 14.1699H16.64V15.1699C16.6567 15.426 16.7713 15.6659 16.96 15.8399H16.93ZM13.82 20.8399H36.57V22.4399C35.4749 22.017 34.3138 21.7902 33.14 21.7699C31.9083 21.7686 30.6884 22.0098 29.55 22.4799C27.2502 23.4329 25.423 25.2601 24.47 27.5599C23.9665 28.777 23.7258 30.0868 23.7637 31.4034C23.8016 32.72 24.1173 34.0138 24.69 35.1999H14.86C14.7338 35.2095 14.6069 35.1932 14.4872 35.152C14.3676 35.1108 14.2575 35.0456 14.1639 34.9604C14.0703 34.8752 13.9951 34.7718 13.9428 34.6565C13.8905 34.5412 13.8624 34.4165 13.86 34.2899L13.82 20.8399ZM26.04 28.3199C26.4166 27.4003 26.9708 26.564 27.6708 25.8588C28.3709 25.1535 29.2032 24.5932 30.12 24.2099C31.0365 23.8296 32.0177 23.6293 33.01 23.6199C35.0007 23.6299 36.9092 24.4155 38.33 25.8099C39.7506 27.2215 40.5558 29.1373 40.57 31.1399V31.2099C40.5679 32.1987 40.3708 33.1774 39.99 34.0899C39.6133 35.0001 39.0592 35.8261 38.36 36.5199C37.6652 37.2226 36.8351 37.7771 35.92 38.1499C35.0075 38.5307 34.0288 38.7278 33.04 38.7299C32.0488 38.7294 31.0672 38.5358 30.15 38.1599C29.2293 37.791 28.3926 37.24 27.69 36.5399C26.9835 35.8442 26.4226 35.0147 26.04 34.0999C25.656 33.1845 25.4555 32.2026 25.45 31.2099C25.4629 30.2021 25.6736 29.2066 26.07 28.2799L26.04 28.3199ZM18.47 14.3199V11.8299H19.96V14.3199H18.47Z" fill="#434E69"/>
<path d="M32 32.5C32.1838 32.6572 32.4182 32.7424 32.66 32.74H36.24C36.3585 32.741 36.4761 32.7185 36.5859 32.6739C36.6958 32.6293 36.7957 32.5634 36.88 32.48C37.0517 32.3071 37.1486 32.0737 37.15 31.83C37.1417 31.5878 37.0458 31.3568 36.88 31.18C36.7957 31.0967 36.6958 31.0308 36.5859 30.9862C36.4761 30.9416 36.3585 30.9191 36.24 30.92H33.46V27.18C33.4574 26.9395 33.3607 26.7095 33.1906 26.5394C33.0205 26.3693 32.7905 26.2726 32.55 26.27C32.3063 26.2714 32.0729 26.3683 31.9 26.54C31.7289 26.7093 31.6318 26.9394 31.63 27.18V31.87C31.6695 32.1192 31.8016 32.3442 32 32.5Z" fill="#434E69"/>
</g>
<defs>
<clipPath id="clip0_23670_155729">
<rect width="30.52" height="30.5" fill="white" transform="translate(12 10)"/>
</clipPath>
</defs>
</svg>
