<svg width="28" height="28" viewBox="0 0 28 28" fill="none" xmlns="http://www.w3.org/2000/svg">
<circle cx="14" cy="14" r="14" fill="#B4B4B4"/>
<path d="M19.6 20.4V6H8.4V20.4H6V22H22V20.4H19.6ZM13.2 7.60001H14.8V9.20002H13.2V7.60001ZM13.2 10.8H14.8V12.4H13.2V10.8ZM13.2 14H14.8V15.6H13.2V14ZM11.6 15.6H9.99997V14H11.6V15.6ZM11.6 12.4H9.99997V10.8H11.6V12.4ZM11.6 9.19999H9.99997V7.60001H11.6V9.19999ZM15.6 20.4H12.4V17.2H15.6V20.4ZM18 15.6H16.4V14H18V15.6ZM18 12.4H16.4V10.8H18V12.4ZM18 9.19999H16.4V7.60001H18V9.19999Z" fill="white"/>
<circle cx="20" cy="20" r="4" fill="#B4B4B4"/>
<path d="M20 17C18.3458 17 17 18.3458 17 20C17 21.6542 18.3458 23 20 23C21.6542 23 23 21.6542 23 20C23 18.3458 21.6542 17 20 17ZM20 22.25C18.7594 22.25 17.75 21.2406 17.75 20C17.75 19.5265 17.8936 19.0789 18.1665 18.6969L21.3031 21.8335C20.9211 22.1064 20.4735 22.25 20 22.25ZM21.8335 21.3031L18.6969 18.1665C19.0789 17.8936 19.5265 17.75 20 17.75C21.2406 17.75 22.25 18.7594 22.25 20C22.25 20.4735 22.1064 20.9211 21.8335 21.3031Z" fill="white"/>
</svg>
