<svg width="16" height="14" viewBox="0 0 16 14" fill="none" xmlns="http://www.w3.org/2000/svg">
<path d="M11.1812 9.4269C11.1256 9.48166 11.1256 9.53643 11.1256 9.5912V12.6856H1.33507V3.04645H8.03824C8.09387 3.04645 8.1495 3.04645 8.20513 2.99169L9.09518 2.1154C9.23425 1.97848 9.12299 1.73203 8.92829 1.73203H1.33507C0.584094 1.73203 0 2.33447 0 3.04645V12.6856C0 13.4249 0.584094 14 1.33507 14H11.1256C11.8488 14 12.4607 13.4249 12.4607 12.6856V8.71491C12.4607 8.52323 12.2103 8.41369 12.0713 8.55061L11.1812 9.4269ZM15.5202 3.92274C16.1599 3.29291 16.1599 2.27971 15.5202 1.64988L14.3242 0.472372C13.6845 -0.157457 12.6554 -0.157457 12.0156 0.472372L4.72838 7.64694L4.45024 10.1389C4.3668 10.8509 4.9787 11.4533 5.70187 11.3711L8.23294 11.0973L15.5202 3.92274ZM12.7944 4.74425L7.62103 9.83765L5.78531 10.0567L6.00782 8.24939L11.1812 3.15599L12.7944 4.74425ZM14.5745 2.58093C14.7136 2.69046 14.7136 2.85477 14.6023 2.99169L13.7401 3.84059L12.1269 2.22494L12.9613 1.40342C13.0726 1.2665 13.2673 1.2665 13.3785 1.40342L14.5745 2.58093Z" fill="current"/>
</svg>
