<svg fill="#9A9A9A" width="11" height="11" viewBox="0 0 11 11" xmlns="http://www.w3.org/2000/svg">
<path d="M10.6936 3.0582C11.1021 2.64972 11.1021 1.98326 10.6936 1.59628L9.40372 0.306357C9.01674 -0.102119 8.35028 -0.102119 7.9418 0.306357L6.95286 1.2953C6.86686 1.3813 6.86686 1.55329 6.95286 1.66078L9.33922 4.04714C9.44671 4.13314 9.6187 4.13314 9.7047 4.04714L10.6936 3.0582ZM6.11441 2.13375L0.460229 7.78793L0.0087552 10.3893C-0.0557411 10.7548 0.245242 11.0557 0.610721 10.9912L3.21207 10.5398L8.86625 4.8856C8.97374 4.7996 8.97374 4.62761 8.86625 4.52012L6.47988 2.13375C6.37239 2.04776 6.2004 2.04776 6.11441 2.13375ZM2.6746 7.29346C2.54561 7.18596 2.54561 6.99247 2.6746 6.88498L5.98541 3.57417C6.09291 3.44518 6.2864 3.44518 6.39389 3.57417C6.52288 3.68166 6.52288 3.87515 6.39389 3.98265L3.08308 7.29346C2.97559 7.42245 2.7821 7.42245 2.6746 7.29346ZM1.90065 9.09935H2.93259V9.89481L1.53517 10.1313L0.868706 9.46483L1.10519 8.06741H1.90065V9.09935Z" />
</svg>
