<svg width="11" height="14" viewBox="0 0 11 14" fill="none" xmlns="http://www.w3.org/2000/svg">
<path d="M8.36719 4.86328L8.20312 3.6875H8.96875C9.32422 3.6875 9.625 3.41406 9.625 3.03125V0.40625C9.625 0.0507812 9.32422 -0.25 8.96875 -0.25H1.53125C1.14844 -0.25 0.875 0.0507812 0.875 0.40625V3.03125C0.875 3.41406 1.14844 3.6875 1.53125 3.6875H2.26953L2.10547 4.86328C0.792969 5.76562 0 7.16016 0 8.71875C0 9.10156 0.273438 9.375 0.65625 9.375H4.59375V12.2188C4.59375 12.2461 4.59375 12.2734 4.59375 12.3008L5.03125 13.6133C5.08594 13.8047 5.38672 13.8047 5.44141 13.6133L5.87891 12.3008C5.87891 12.2734 5.90625 12.2461 5.90625 12.2188V9.375H9.84375C10.1992 9.375 10.5 9.10156 10.5 8.71875C10.5 7.16016 9.67969 5.76562 8.36719 4.86328ZM1.36719 8.0625C1.58594 7.02344 2.35156 6.14844 3.33594 5.68359L3.77344 2.375H2.1875V1.0625H8.3125V2.375H6.72656L7.16406 5.68359C8.12109 6.14844 8.88672 7.02344 9.10547 8.0625H1.36719Z" fill="#9A9A9A"/>
</svg>
