<svg width="107" height="26" viewBox="0 0 107 26" fill="none" xmlns="http://www.w3.org/2000/svg">
<path d="M35.9492 2.69073V19.3738C35.9492 20.0508 36.0602 20.5098 36.2832 20.7518C36.5063 20.9938 36.8894 21.1148 37.4337 21.1148V21.6229C37.1207 21.6069 36.6629 21.5863 36.0613 21.5624C35.4586 21.5384 34.8454 21.5258 34.2182 21.5258C33.5746 21.5258 32.9276 21.5384 32.2758 21.5624C31.6241 21.5863 31.1335 21.6069 30.8041 21.6229V21.1148C31.3811 21.1148 31.7888 20.9938 32.0282 20.7518C32.2665 20.5098 32.3868 20.0508 32.3868 19.3738V5.59283C32.3868 4.86787 32.2758 4.33129 32.0527 3.98537C31.8296 3.63945 31.4138 3.46591 30.803 3.46591V2.95787C31.3309 3.00582 31.8413 3.03094 32.3366 3.03094C33.0128 3.03094 33.6552 3.0024 34.2661 2.94646C34.877 2.88823 35.4388 2.80375 35.9492 2.69073ZM44.0143 9.12284V9.6069C43.5027 9.70394 42.9911 9.91287 42.4807 10.236C41.9691 10.559 41.4493 10.97 40.9226 11.4689L39.0176 13.4029L39.2652 12.944L43.4957 19.859C43.6767 20.149 43.8671 20.407 44.0645 20.6331C44.2619 20.8591 44.5013 21.0201 44.7817 21.1171V21.6252C44.534 21.6092 44.1638 21.5886 43.6686 21.5646C43.1733 21.5407 42.6793 21.5281 42.184 21.5281C41.5731 21.5281 40.9635 21.5407 40.3538 21.5646C39.7441 21.5886 39.2897 21.6092 38.993 21.6252V21.1171C39.3224 21.1171 39.5455 21.0406 39.6611 20.8876C39.7768 20.7347 39.7604 20.5372 39.6121 20.2951L37.1628 15.9671C36.9654 15.6611 36.7703 15.4636 36.5811 15.3746C36.3919 15.2867 36.1396 15.2341 35.8266 15.217V14.7581C36.1723 14.7261 36.4736 14.6702 36.7294 14.5891C36.9852 14.508 37.22 14.3562 37.4349 14.1302L39.3154 12.3412C39.876 11.8251 40.1564 11.3662 40.1564 10.9632C40.1564 10.5602 39.9788 10.2382 39.6249 9.99621C39.2698 9.75418 38.8038 9.62517 38.2268 9.60919V9.12512C38.6882 9.14111 39.1916 9.15709 39.7359 9.17307C40.2802 9.18905 40.7415 9.19705 41.1211 9.19705C41.4505 9.19705 41.8009 9.19362 42.1723 9.18449C42.5438 9.1765 42.893 9.1685 43.2235 9.16051C43.5518 9.15024 43.8157 9.13882 44.0143 9.12284Z" fill="#9A9A9A"/>
<path d="M49.0601 21.7918C47.9551 21.7918 47.155 21.5098 46.661 20.9459C46.1657 20.3819 45.9193 19.6969 45.9193 18.8909C45.9193 18.1979 46.0805 17.6339 46.4017 17.1978C46.7229 16.7628 47.1399 16.4043 47.6514 16.1224C48.163 15.8404 48.7026 15.6063 49.2715 15.4214C49.8403 15.2364 50.3846 15.0503 50.9043 14.8654C51.4241 14.6804 51.8446 14.4669 52.1658 14.2249C52.487 13.9829 52.6482 13.6769 52.6482 13.3059V11.4199C52.6482 11.0009 52.5781 10.6264 52.4379 10.2953C52.2978 9.96538 52.0829 9.71079 51.7944 9.53384C51.5059 9.35688 51.1309 9.26783 50.6684 9.26783C50.3379 9.26783 50.0085 9.31236 49.6791 9.40026C49.3486 9.48931 49.0764 9.63773 48.8627 9.84779C49.324 10.0088 49.6826 10.2554 49.9384 10.5853C50.1942 10.9164 50.3215 11.2909 50.3215 11.7098C50.3215 12.2578 50.1276 12.6928 49.7398 13.0159C49.3521 13.339 48.8942 13.5 48.3674 13.5C47.7741 13.5 47.3244 13.3184 47.0195 12.9554C46.7147 12.5923 46.5617 12.1539 46.5617 11.6379C46.5617 11.171 46.6808 10.784 46.9203 10.4768C47.1585 10.1709 47.4926 9.8809 47.9224 9.6069C48.3838 9.34889 48.9409 9.14796 49.5927 9.00296C50.2444 8.85797 50.9487 8.78491 51.7079 8.78491C52.466 8.78491 53.1504 8.8614 53.7613 9.01438C54.371 9.16736 54.8826 9.44593 55.2949 9.84894C55.6745 10.22 55.9209 10.6755 56.0366 11.2155C56.1522 11.7555 56.2094 12.4371 56.2094 13.2591V19.8362C56.2094 20.2232 56.2503 20.4972 56.3332 20.6582C56.4162 20.8191 56.5563 20.9002 56.7537 20.9002C56.9184 20.9002 57.0749 20.8602 57.2233 20.7792C57.3716 20.6993 57.5118 20.6022 57.6437 20.4892L57.8914 20.9002C57.5456 21.1902 57.145 21.4117 56.6918 21.5646C56.2386 21.7176 55.7305 21.7941 55.1699 21.7941C54.1806 21.7941 53.5253 21.5966 53.203 21.2016C52.8818 20.8066 52.7124 20.3511 52.6961 19.835C52.2838 20.4961 51.7768 20.9881 51.1753 21.3101C50.5726 21.6309 49.8683 21.7918 49.0601 21.7918ZM50.9651 20.2449C51.2781 20.2449 51.5713 20.173 51.8434 20.0268C52.1156 19.8818 52.383 19.6238 52.647 19.2528V14.2957C52.4496 14.6188 52.1728 14.8882 51.8177 15.1051C51.4626 15.3232 51.1006 15.5561 50.7291 15.8061C50.3577 16.0561 50.0494 16.3747 49.8017 16.7617C49.5541 17.1487 49.4303 17.6647 49.4303 18.3086C49.4303 19.0016 49.5787 19.4971 49.8753 19.7951C50.1732 20.0965 50.5352 20.2449 50.9651 20.2449Z" fill="#9A9A9A"/>
<path d="M63.506 8.78377C64.1986 8.78377 64.8048 8.86825 65.3246 9.03721C65.8443 9.20618 66.2193 9.37172 66.4505 9.53269C67.0112 9.90373 67.3569 9.6617 67.49 8.80774H68.0098C67.9771 9.2587 67.9514 9.81126 67.9362 10.4643C67.9199 11.1173 67.9117 11.9838 67.9117 13.0638H67.3919C67.309 12.4679 67.1525 11.8788 66.9224 11.2988C66.6911 10.7189 66.3571 10.2428 65.9202 9.87177C65.4834 9.50073 64.9181 9.31578 64.2255 9.31578C63.7466 9.31578 63.3436 9.44935 63.0131 9.71422C62.6825 9.98023 62.5178 10.3638 62.5178 10.8627C62.5178 11.3468 62.6662 11.7692 62.9628 12.1323C63.2595 12.4953 63.6426 12.8412 64.1133 13.1723C64.5829 13.5034 65.0734 13.8539 65.585 14.2238C66.4096 14.8209 67.1058 15.4202 67.6758 16.0253C68.2446 16.6293 68.5296 17.4159 68.5296 18.3828C68.5296 19.1078 68.3147 19.7414 67.886 20.2814C67.4573 20.8214 66.892 21.237 66.1912 21.527C65.4904 21.817 64.7114 21.9619 63.854 21.9619C63.3588 21.9619 62.9185 21.914 62.5307 21.817C62.1429 21.7199 61.8089 21.5989 61.5285 21.4539C61.3136 21.3569 61.1116 21.2644 60.9223 21.1753C60.7331 21.0874 60.5556 21.0098 60.3909 20.9459C60.2262 20.8979 60.0814 20.9539 59.9576 21.1148C59.8338 21.2758 59.7392 21.5019 59.6726 21.7918H59.1528C59.1855 21.2758 59.21 20.6479 59.2276 19.9058C59.2439 19.1649 59.2521 18.1808 59.2521 16.9558H59.7719C59.8711 17.8257 60.0522 18.5963 60.3161 19.2653C60.5801 19.9344 60.9387 20.4584 61.3919 20.8374C61.8451 21.2164 62.4186 21.406 63.1112 21.406C63.5398 21.406 63.9358 21.2724 64.299 21.0075C64.6611 20.7415 64.8433 20.3031 64.8433 19.69C64.8433 18.9811 64.6086 18.3931 64.1379 17.925C63.6683 17.4581 63.0703 16.9501 62.345 16.4021C61.817 15.9831 61.3183 15.5675 60.8488 15.1565C60.3792 14.7455 59.9949 14.2946 59.6983 13.8025C59.4016 13.3104 59.2533 12.751 59.2533 12.122C59.2533 11.397 59.4507 10.784 59.8466 10.2839C60.2426 9.78386 60.7658 9.4094 61.4176 9.15937C62.067 8.90935 62.7643 8.78377 63.506 8.78377Z" fill="#9A9A9A"/>
<path d="M75.0833 8.85683V23.6059C75.0833 24.3629 75.2807 24.8675 75.6766 25.1175C76.0726 25.3675 76.6169 25.492 77.3095 25.492V26C76.8808 25.984 76.291 25.9635 75.5411 25.9395C74.7901 25.9155 73.9947 25.903 73.1537 25.903C72.5428 25.903 71.946 25.9155 71.3608 25.9395C70.7757 25.9635 70.3342 25.984 70.0375 26V25.492C70.5818 25.492 70.9649 25.3789 71.188 25.1529C71.4111 24.9268 71.522 24.4919 71.522 23.8468V11.7578C71.522 11.0328 71.4064 10.4963 71.1763 10.1503C70.945 9.80441 70.5327 9.63088 69.9394 9.63088V9.12284C70.4673 9.17079 70.9789 9.19591 71.473 9.19591C72.1492 9.19591 72.7916 9.1685 73.4025 9.11142C74.011 9.05434 74.5717 8.96986 75.0833 8.85683ZM78.9178 8.78377C80.1711 8.78377 81.2223 9.28381 82.0714 10.2828C82.9206 11.2829 83.3457 12.7898 83.3457 14.8037C83.3457 16.3678 83.1063 17.6807 82.6286 18.7447C82.1497 19.8088 81.4863 20.6102 80.6371 21.1502C79.788 21.6902 78.7777 21.9597 77.6073 21.9597C76.9638 21.9597 76.3786 21.8512 75.8506 21.6332C75.3227 21.4151 74.9186 21.1057 74.6382 20.7027L74.8859 20.3887C75.0506 20.6787 75.2853 20.9048 75.5913 21.0657C75.8962 21.2267 76.2466 21.3078 76.6426 21.3078C77.3842 21.3078 77.9694 21.0623 78.3992 20.5703C78.8279 20.0782 79.1374 19.3852 79.3266 18.4913C79.5158 17.5962 79.6116 16.5288 79.6116 15.2878C79.6116 13.9018 79.5205 12.8138 79.3395 12.0238C79.1573 11.2338 78.9108 10.6698 78.5978 10.3307C78.2848 9.99278 77.9052 9.82268 77.4602 9.82268C76.8668 9.82268 76.326 10.0487 75.8401 10.4997C75.3531 10.9506 75.0774 11.5957 75.012 12.4337L74.8882 11.5877C75.1849 10.6686 75.6918 9.97223 76.4101 9.49616C77.1238 9.02237 77.9612 8.78377 78.9178 8.78377Z" fill="#9A9A9A"/>
<path d="M90.7661 8.78377C92.2167 8.78377 93.3555 9.20276 94.1802 10.0407C95.0048 10.8787 95.4171 12.2498 95.4171 14.1507H87.2784L87.2294 13.6918H92.3008C92.3172 12.9017 92.2681 12.1722 92.1525 11.5032C92.0369 10.8342 91.8558 10.2987 91.6082 9.89574C91.3606 9.49274 91.0312 9.2918 90.6189 9.2918C90.0419 9.2918 89.5514 9.64686 89.1472 10.3558C88.7431 11.0648 88.5001 12.2419 88.4172 13.8858L88.492 14.0308C88.4756 14.2238 88.4628 14.4258 88.4546 14.6348C88.4464 14.8448 88.4417 15.0618 88.4417 15.2878C88.4417 16.3998 88.6029 17.3028 88.9241 17.9958C89.2453 18.6888 89.6541 19.1923 90.1482 19.5074C90.6434 19.8213 91.1457 19.9789 91.6573 19.9789C92.1525 19.9789 92.6921 19.8579 93.2773 19.6158C93.8625 19.3738 94.4114 18.8498 94.9219 18.0438L95.3669 18.1888C95.1695 18.8018 94.8553 19.3978 94.4266 19.9777C93.998 20.5577 93.4537 21.0338 92.7937 21.4048C92.1338 21.7759 91.3419 21.9608 90.4192 21.9608C89.2979 21.9608 88.3074 21.7268 87.4501 21.2598C86.5928 20.7929 85.92 20.0839 85.4341 19.1318C84.9471 18.1808 84.7041 16.9718 84.7041 15.5047C84.7041 14.0057 84.9634 12.7567 85.4832 11.7566C86.003 10.7577 86.7201 10.0122 87.6358 9.52014C88.5527 9.03036 89.5946 8.78377 90.7661 8.78377Z" fill="#9A9A9A"/>
<path d="M104.718 8.78377C105.246 8.78377 105.675 8.89222 106.004 9.11028C106.333 9.32834 106.576 9.60576 106.734 9.94483C106.89 10.2839 106.969 10.6378 106.969 11.0089C106.969 11.6059 106.791 12.0934 106.437 12.4713C106.082 12.8504 105.616 13.0399 105.039 13.0399C104.462 13.0399 104.012 12.8995 103.691 12.6163C103.37 12.3343 103.209 11.9599 103.209 11.4918C103.209 11.0408 103.312 10.6664 103.518 10.3672C103.724 10.0693 103.984 9.81583 104.297 9.60576C104.066 9.54183 103.836 9.54982 103.605 9.62974C103.176 9.69481 102.792 9.89232 102.454 10.2223C102.116 10.5533 101.848 10.9438 101.651 11.3947C101.453 11.8457 101.354 12.2898 101.354 12.7248V19.1318C101.354 19.9058 101.548 20.4298 101.936 20.7038C102.324 20.9778 102.904 21.1148 103.68 21.1148V21.6229C103.3 21.6069 102.747 21.5863 102.022 21.5624C101.297 21.5384 100.538 21.5258 99.7469 21.5258C99.0869 21.5258 98.4189 21.5384 97.7426 21.5624C97.0663 21.5863 96.5547 21.6069 96.209 21.6229V21.1148C96.786 21.1148 97.1948 20.9938 97.4331 20.7518C97.6713 20.5098 97.7916 20.0508 97.7916 19.3738V11.7578C97.7916 11.0328 97.6807 10.4963 97.4576 10.1503C97.2345 9.80441 96.8187 9.63088 96.2078 9.63088V9.12284C96.7358 9.17079 97.2473 9.19591 97.7414 9.19591C98.434 9.19591 99.0811 9.1685 99.6826 9.11142C100.284 9.05548 100.841 8.971 101.353 8.85797V11.107C101.55 10.6721 101.814 10.2771 102.145 9.922C102.474 9.56809 102.854 9.28952 103.282 9.08745C103.712 8.88537 104.19 8.78377 104.718 8.78377Z" fill="#9A9A9A"/>
<path d="M6.867 16.482C7.21273 15.4282 7.444 14.7135 7.71147 13.8493C7.78155 13.6324 7.84813 13.4075 7.92755 13.1632C8.0023 12.92 8.08173 12.6586 8.16816 12.372C8.21254 12.2282 8.25459 12.0786 8.30131 11.921C8.31533 11.8742 8.32234 11.8503 8.33635 11.8012C8.34336 11.7795 8.34686 11.7646 8.35621 11.7361C8.36672 11.7041 8.37256 11.687 8.38307 11.655C8.42512 11.5443 8.47885 11.4313 8.5536 11.3103C8.70077 11.0682 8.9005 10.8216 9.1306 10.6218C9.24623 10.5225 9.3677 10.4335 9.49034 10.3581C9.61415 10.285 9.73913 10.2291 9.8606 10.1869C11.4608 9.66627 12.999 8.98926 14.5595 8.36592C15.3315 8.06566 16.0744 7.81678 16.7425 7.70489C16.9434 7.67064 17.0403 7.65923 17.2296 7.64895C17.3101 7.64439 17.3814 7.63754 17.4702 7.64439C17.5543 7.65466 17.6337 7.67864 17.7049 7.71745C17.8498 7.79509 17.9666 7.92181 18.032 8.06908C18.0635 8.14329 18.0834 8.22207 18.0892 8.30198C18.0939 8.3819 18.0845 8.46296 18.0635 8.54173C17.9175 9.06804 17.7844 9.51214 17.6395 9.92657C17.497 10.3398 17.3417 10.7337 17.1805 11.1698C16.9854 11.6939 16.8838 11.969 16.6771 12.6631C16.6245 12.8367 16.5977 12.9268 16.5439 13.1175C16.5299 13.1655 16.5229 13.1894 16.5089 13.2374C16.5019 13.2602 16.4996 13.2739 16.489 13.3036C16.4774 13.3378 16.4715 13.355 16.461 13.3892C16.4178 13.5057 16.3594 13.6278 16.2823 13.7568C16.1293 14.016 15.9202 14.2786 15.6796 14.4978C15.439 14.7158 15.1645 14.8916 14.9029 14.9807C14.1449 15.2353 13.3471 15.5812 12.5494 15.91C12.3099 16.0093 12.1908 16.0596 11.9513 16.1589C11.7131 16.2548 11.5939 16.3027 11.358 16.3952C10.9632 16.5528 10.5743 16.692 10.1947 16.821C9.43311 17.0779 8.71011 17.2629 8.05954 17.3165C7.89718 17.3279 7.74067 17.3314 7.58766 17.3291C7.51057 17.3257 7.43815 17.3257 7.3599 17.3108C7.28515 17.2948 7.2139 17.2663 7.15083 17.2263C7.08892 17.1852 7.03052 17.1384 6.98263 17.0825C6.93591 17.0254 6.89854 16.9626 6.87167 16.8964C6.84714 16.829 6.83313 16.7583 6.83079 16.6886C6.83313 16.6201 6.84598 16.5505 6.867 16.482ZM6.9219 16.4865C6.84014 16.7434 6.96161 17.0345 7.20339 17.1567C7.26295 17.1875 7.32719 17.2069 7.39611 17.2161C7.46385 17.2218 7.54444 17.2183 7.62153 17.2149C7.77804 17.2081 7.93923 17.1864 8.10742 17.1556C8.77552 17.0357 9.52538 16.748 10.3079 16.3986C10.6992 16.224 11.1022 16.0265 11.504 15.8335C11.7458 15.7159 11.8672 15.6566 12.1114 15.5355C12.3543 15.4191 12.4758 15.3597 12.7175 15.2433C13.527 14.8517 14.3247 14.4943 15.0828 14.2101C15.1435 14.185 15.2031 14.1564 15.2626 14.121C15.3222 14.0833 15.3818 14.0411 15.439 13.9932C15.5535 13.895 15.6527 13.7831 15.724 13.6701C15.7602 13.6141 15.7859 13.5582 15.8081 13.5034C15.8139 13.4874 15.8163 13.4794 15.8221 13.4634C15.8268 13.4509 15.8338 13.4235 15.8396 13.4052C15.8548 13.355 15.8618 13.331 15.877 13.2819C15.9377 13.0855 15.9693 12.9931 16.0288 12.8127C16.2741 12.0923 16.3944 11.8023 16.6269 11.2486C16.8219 10.7874 17.0111 10.3672 17.2015 9.93113C17.3907 9.49502 17.58 9.04863 17.7657 8.51776C17.8463 8.30312 17.7657 8.04853 17.5613 7.93094C17.511 7.90012 17.4526 7.88185 17.3907 7.87158C17.3323 7.86359 17.2471 7.86473 17.1712 7.86587C16.9831 7.87272 16.8862 7.88185 16.6864 7.91039C16.0207 8.00629 15.2802 8.25403 14.5034 8.57712C12.9033 9.29979 11.3568 10.1412 9.72161 10.7885C9.4518 10.8867 9.16914 11.147 9.01613 11.3913C8.97759 11.453 8.94956 11.5135 8.9262 11.5717C8.92036 11.5888 8.91802 11.598 8.91218 11.6151C8.90751 11.6288 8.9005 11.6539 8.89466 11.6733C8.88064 11.7224 8.87363 11.7464 8.85845 11.7955C8.81173 11.9553 8.75917 12.1106 8.71011 12.259C8.61083 12.5558 8.50454 12.8287 8.39826 13.0844C8.29547 13.3401 8.18334 13.5799 8.07705 13.8071C7.64022 14.7193 7.25127 15.4294 6.9219 16.4865Z" fill="#9A9A9A"/>
<path d="M6.72451 17.7195C6.75839 16.5733 6.79576 15.4271 6.78058 14.2797C6.78408 14.0411 6.78175 13.7991 6.79226 13.5433C6.7981 13.2876 6.80744 13.017 6.82379 12.7213C6.83314 12.5741 6.83898 12.4188 6.84949 12.2567C6.85299 12.2076 6.85416 12.1836 6.85767 12.1334C6.85883 12.1106 6.86 12.0957 6.86234 12.0672C6.86584 12.0341 6.86818 12.0169 6.87168 11.9838C6.89037 11.872 6.92074 11.7566 6.97096 11.6448C7.06791 11.4187 7.22092 11.1961 7.42181 11.0054C7.52343 10.9118 7.63556 10.825 7.7547 10.752C7.875 10.6801 8.00231 10.6241 8.13079 10.5819C10.0381 9.87062 11.7796 8.92647 13.5562 7.94807C14.4824 7.44003 15.3759 6.97766 16.1807 6.66941C16.4225 6.57693 16.5393 6.53583 16.767 6.46962C16.8651 6.44222 16.9457 6.41368 17.0579 6.39427C17.1642 6.37943 17.2728 6.37829 17.3791 6.40112C17.5905 6.44336 17.7832 6.56894 17.9421 6.72877C18.0203 6.80983 18.0857 6.90117 18.1359 6.99935C18.1838 7.09867 18.213 7.20485 18.2247 7.3133C18.2913 8.04625 18.2212 8.71184 18.199 9.25527C18.1792 9.7987 18.1476 10.2634 18.1184 10.7406C18.0822 11.3125 18.0635 11.5877 18.0297 12.3024C18.0203 12.4816 18.0156 12.5741 18.0063 12.7704C18.004 12.8195 18.0016 12.8446 17.9993 12.8949C17.9981 12.9177 17.9981 12.9326 17.9946 12.9634C17.9911 12.9988 17.9888 13.0159 17.9853 13.0513C17.9666 13.17 17.935 13.2922 17.8836 13.4132C17.782 13.6564 17.6244 13.9007 17.4141 14.1176C17.2027 14.3322 16.9376 14.5138 16.6596 14.6085C15.8525 14.8802 14.9566 15.3437 14.0327 15.8289C13.7559 15.9751 13.6158 16.0516 13.3366 16.2034C13.0563 16.3518 12.9161 16.426 12.6346 16.5767C12.1663 16.829 11.6979 17.0665 11.2365 17.296C10.3138 17.7549 9.41794 18.1465 8.61201 18.3908C8.40995 18.4502 8.21372 18.5004 8.0245 18.5427C7.92873 18.5621 7.83996 18.5826 7.73951 18.5918C7.64023 18.5975 7.53978 18.5906 7.44985 18.5598C7.35991 18.5278 7.2688 18.4867 7.18471 18.4331C7.10061 18.3783 7.02236 18.3132 6.95461 18.2401C6.8892 18.1648 6.83431 18.0826 6.79343 17.9947C6.75255 17.9068 6.73035 17.8132 6.72451 17.7195ZM6.79109 17.7161C6.81211 18.0712 7.12864 18.384 7.45685 18.473C7.54212 18.4924 7.62972 18.4924 7.71615 18.4822C7.80025 18.4696 7.89486 18.4422 7.98713 18.4171C8.17401 18.3657 8.3679 18.2984 8.56529 18.2184C9.3607 17.9056 10.2461 17.3964 11.1735 16.8268C11.6371 16.5413 12.1102 16.2342 12.5856 15.9385C12.8706 15.7593 13.0142 15.6691 13.2992 15.491C13.5842 15.3175 13.7267 15.2319 14.0082 15.064C14.9484 14.5058 15.8583 14.0343 16.6678 13.75C16.7308 13.7249 16.7927 13.6963 16.8535 13.6621C16.913 13.6255 16.9691 13.5833 17.0217 13.5365C17.1256 13.4406 17.2085 13.3299 17.2588 13.2168C17.2845 13.1597 17.2985 13.1027 17.309 13.0479C17.3113 13.0307 17.3113 13.0227 17.3137 13.0056C17.316 12.9931 17.316 12.9645 17.3183 12.9451C17.3218 12.8937 17.323 12.8675 17.3265 12.8172C17.3405 12.6152 17.3487 12.5193 17.3627 12.3355C17.4235 11.6025 17.4538 11.3251 17.5146 10.7543C17.566 10.2782 17.615 9.82153 17.6757 9.28039C17.7341 8.74038 17.8603 8.07137 17.8638 7.33043C17.8708 7.03017 17.6477 6.73448 17.3394 6.66142C17.2634 6.64201 17.1828 6.63858 17.1011 6.64429C17.0252 6.65228 16.9212 6.6774 16.8266 6.69909C16.5953 6.75846 16.4762 6.79613 16.2309 6.88176C15.4145 7.16946 14.5139 7.63868 13.583 8.1764C11.7843 9.26212 10.0498 10.3889 8.12028 11.2406C7.83529 11.3342 7.58767 11.5797 7.48372 11.8229C7.45685 11.8834 7.44167 11.945 7.43233 12.0055C7.42999 12.0238 7.42999 12.0329 7.42765 12.0501C7.42532 12.0638 7.42532 12.0912 7.42415 12.1106C7.42181 12.1619 7.42065 12.1871 7.41714 12.2373C7.40897 12.404 7.39495 12.5615 7.38444 12.7122C7.36108 13.0136 7.33071 13.2876 7.29684 13.5445C7.26764 13.8002 7.22676 14.0411 7.18938 14.2786C6.96746 15.4271 6.86351 16.5505 6.79109 17.7161Z" fill="#9A9A9A"/>
<path d="M7.30501 19.1398C6.59253 17.6533 6.26432 16.3381 5.82165 14.7706C5.74222 14.4692 5.66046 14.169 5.59622 13.8562C5.52731 13.5433 5.46774 13.218 5.41868 12.8686C5.39532 12.6939 5.36963 12.5124 5.35094 12.3252C5.3451 12.2693 5.34276 12.2407 5.33692 12.1825C5.33459 12.1562 5.33225 12.1391 5.32992 12.106C5.32758 12.0683 5.32758 12.0489 5.32524 12.0112C5.32524 11.8845 5.34043 11.7578 5.37547 11.6391C5.44438 11.3993 5.58104 11.1904 5.75273 11.0237C5.83917 10.9415 5.93728 10.873 6.04357 10.8205C6.15102 10.7703 6.26782 10.7406 6.38813 10.7269C8.48237 10.5179 10.4084 8.84655 12.0413 7.68092C12.9663 6.99707 13.9136 6.31778 14.8947 5.7127C15.1529 5.55401 15.279 5.48208 15.5208 5.35193C15.6247 5.29713 15.7088 5.24462 15.8315 5.19553C15.9494 5.151 16.0756 5.12246 16.2099 5.11789C16.4762 5.10648 16.76 5.18068 17.017 5.32225C17.1443 5.39417 17.2669 5.4798 17.3791 5.57456C17.49 5.67046 17.5858 5.77663 17.6652 5.88851C18.1943 6.6363 18.4782 7.5325 18.6394 8.28828C18.8029 9.04406 18.9465 9.65257 19.0785 10.2542C19.235 10.9758 19.3063 11.3103 19.4301 12.1505C19.4605 12.3606 19.4745 12.469 19.5025 12.6962C19.5084 12.7533 19.5119 12.7819 19.5177 12.8389C19.52 12.8652 19.5235 12.8823 19.5259 12.9166C19.5282 12.9565 19.5294 12.9759 19.5317 13.017C19.5329 13.1506 19.5177 13.2853 19.4827 13.4121C19.4126 13.6666 19.2783 13.9007 19.1031 14.0925C18.9267 14.282 18.6966 14.4156 18.4373 14.4521C17.6804 14.5514 16.8126 14.9921 15.8385 15.5995C15.5465 15.7821 15.397 15.8803 15.0968 16.0824C14.7954 16.2788 14.6424 16.3815 14.3364 16.5882C13.8272 16.9375 13.3086 17.2811 12.7982 17.6214C11.8696 18.2527 10.8943 18.8635 9.89449 19.3818C9.67256 19.4948 9.45648 19.5976 9.25091 19.6912C9.14579 19.7368 9.05118 19.7825 8.93672 19.819C8.82342 19.851 8.70545 19.8693 8.58281 19.8647C8.46017 19.859 8.33636 19.8419 8.21372 19.8053C8.09108 19.7688 7.97428 19.7129 7.86215 19.6467C7.75002 19.5793 7.64374 19.5005 7.54913 19.416C7.45102 19.3304 7.37159 19.2368 7.30501 19.1398ZM7.37159 19.1249C7.61454 19.4903 8.10744 19.7802 8.54427 19.7631C8.65289 19.7597 8.75568 19.7368 8.85146 19.7026C8.94373 19.6661 9.04301 19.6124 9.14112 19.561C9.34085 19.456 9.54408 19.335 9.75432 19.1991C10.7331 18.5735 11.6605 17.8303 12.5505 17.0916C13.0528 16.6841 13.5655 16.2559 14.0818 15.8541C14.3913 15.6109 14.5455 15.491 14.8527 15.2593C15.1599 15.0332 15.3129 14.9225 15.613 14.7181C16.6105 14.032 17.5052 13.6084 18.2773 13.492C18.3368 13.4794 18.3952 13.4657 18.4501 13.4429C18.5039 13.4178 18.5541 13.3869 18.5996 13.3504C18.6872 13.2728 18.7526 13.17 18.7818 13.0559C18.797 12.9988 18.8005 12.9383 18.7994 12.8789C18.7982 12.8606 18.797 12.8515 18.7959 12.8332C18.7959 12.8195 18.79 12.7876 18.7877 12.7659C18.7795 12.7088 18.776 12.6802 18.7678 12.6243C18.7375 12.4005 18.7211 12.2944 18.6896 12.09C18.5658 11.2737 18.4969 10.9621 18.3555 10.2805C18.2387 9.71307 18.1161 9.13768 18.0051 8.40016C17.8918 7.66265 17.7587 6.73448 17.3067 5.973C17.1291 5.66246 16.7121 5.41358 16.3092 5.41929C16.2087 5.41929 16.1118 5.43642 16.0172 5.46496C15.9307 5.4935 15.8174 5.54716 15.7135 5.59625C15.4612 5.71955 15.3304 5.78919 15.0617 5.94217C14.0491 6.52328 13.075 7.22882 12.1581 7.9435C10.5147 9.21189 8.64005 11.0853 6.5061 11.4678C6.23278 11.5009 6.02021 11.6996 5.95713 11.9484C5.94078 12.0101 5.93728 12.0763 5.93845 12.1414C5.94078 12.1608 5.94078 12.1711 5.94312 12.1905C5.94429 12.2053 5.94896 12.2361 5.95129 12.2578C5.95947 12.3149 5.96297 12.3435 5.97115 12.3994C5.99918 12.5855 6.02138 12.7624 6.04707 12.9326C6.0973 13.2728 6.14285 13.5844 6.18606 13.8836C6.23395 14.1827 6.27016 14.4692 6.31221 14.7592C6.52829 16.418 6.68948 17.5586 7.37159 19.1249Z" fill="#9A9A9A"/>
<path d="M8.73582 20.5805C6.97096 19.0347 5.91508 17.5837 4.84519 15.523C4.64896 15.1268 4.45975 14.7375 4.3009 14.3345C4.13621 13.9315 3.99021 13.5148 3.86523 13.0718C3.80449 12.8504 3.74259 12.6232 3.69003 12.3891C3.67368 12.3183 3.66667 12.283 3.65149 12.2122C3.64448 12.1802 3.63864 12.1585 3.63163 12.1174C3.62345 12.0706 3.61995 12.0466 3.61177 11.9987C3.59309 11.8411 3.59309 11.6824 3.61761 11.534C3.66433 11.2349 3.79749 10.9735 3.98787 10.7999C4.08365 10.7143 4.19227 10.6504 4.30791 10.607C4.42587 10.5659 4.54034 10.5476 4.66181 10.5465C6.9803 10.6367 8.53375 8.9493 10.1012 7.53821C11.0555 6.62146 12.0004 5.69329 12.9815 4.80394C13.2385 4.57218 13.3635 4.46372 13.6041 4.26507C13.708 4.18059 13.7886 4.10181 13.9136 4.01733C14.0351 3.94198 14.1694 3.88262 14.3189 3.85065C14.6156 3.78558 14.9566 3.8164 15.2965 3.92257C15.4659 3.97737 15.6352 4.05044 15.7976 4.13835C15.9599 4.2274 16.1118 4.33015 16.2531 4.44203C17.1501 5.12703 18.0869 5.97071 18.741 6.88861C19.3892 7.79166 19.7046 8.72554 20.062 9.51899C20.4883 10.4711 20.674 10.905 20.9789 11.9656C21.0536 12.2304 21.0898 12.3674 21.1576 12.6494C21.1739 12.7202 21.1821 12.7556 21.1985 12.8275C21.2055 12.8606 21.2113 12.8812 21.2183 12.9234C21.2265 12.9725 21.2312 12.9976 21.2393 13.0479C21.2592 13.2134 21.2615 13.3801 21.237 13.5376C21.1903 13.8539 21.0536 14.1302 20.8597 14.3242C20.6647 14.516 20.4416 14.6325 20.1823 14.6405C19.4278 14.6576 18.6744 14.8916 17.7914 15.4043C17.5262 15.5595 17.3837 15.6817 17.0952 15.9089C16.8044 16.1303 16.6537 16.2525 16.3489 16.5071C15.8431 16.9352 15.3117 17.3873 14.7896 17.844C13.8131 18.6922 12.8379 19.5451 11.8112 20.3351C11.5846 20.5063 11.365 20.6673 11.1571 20.818C11.0496 20.8922 10.9562 20.9653 10.8371 21.0315C10.7179 21.092 10.5906 21.1365 10.4505 21.1559C10.3103 21.1742 10.1655 21.1776 10.016 21.1605C9.86645 21.1422 9.71344 21.1057 9.56277 21.0543C9.41209 21.0007 9.26493 20.9322 9.1236 20.8522C8.9846 20.7712 8.85495 20.6787 8.73582 20.5805ZM8.79655 20.5463C9.24157 20.915 9.88747 21.1434 10.3769 21.0338C10.4995 21.0075 10.6081 20.9596 10.7074 20.8991C10.8009 20.8374 10.8966 20.7518 10.9947 20.6707C11.1921 20.5075 11.3907 20.3248 11.5974 20.1273C12.568 19.2003 13.4639 18.1967 14.3738 17.2149C14.8784 16.6749 15.3911 16.1212 15.905 15.6292C16.2122 15.3323 16.3641 15.1885 16.6607 14.9282C16.9598 14.6736 17.1058 14.5549 17.3849 14.3573C18.3135 13.6918 19.0972 13.5765 19.9183 13.5742C19.9814 13.5707 20.0421 13.5616 20.0994 13.5433C20.1543 13.5217 20.2045 13.4908 20.2489 13.452C20.3353 13.3687 20.3925 13.2511 20.4089 13.1152C20.4182 13.0479 20.4124 12.9748 20.4019 12.9029C20.3972 12.8812 20.3949 12.8698 20.3902 12.8481C20.3879 12.8321 20.3762 12.7933 20.3692 12.767C20.3505 12.6974 20.3411 12.662 20.3224 12.5935C20.2489 12.3195 20.2103 12.1882 20.1297 11.9347C19.8109 10.9221 19.6193 10.5294 19.2035 9.65142C18.8589 8.91962 18.5763 8.07023 18.0869 7.13863C17.6103 6.20247 16.7355 5.29371 15.9085 4.64639C15.5546 4.33129 14.9917 4.12579 14.5315 4.21141C14.4158 4.23082 14.3107 4.27078 14.2114 4.3233C14.1215 4.37353 14.0082 4.4603 13.9031 4.53793C13.6496 4.73201 13.5188 4.83819 13.2478 5.06538C12.2141 5.9376 11.2622 6.90231 10.3033 7.85103C8.82576 9.30664 7.16135 11.3788 4.84986 11.3628C4.55669 11.3593 4.34528 11.5877 4.31141 11.8879C4.30206 11.9621 4.3079 12.0421 4.31958 12.122C4.32426 12.146 4.32776 12.1585 4.33243 12.1825C4.33594 12.2008 4.34645 12.2384 4.35346 12.2647C4.37215 12.3343 4.38149 12.3697 4.40018 12.4382C4.46325 12.6677 4.52282 12.8869 4.5894 13.0992C4.71904 13.5239 4.8522 13.9189 4.99236 14.3003C5.13719 14.6816 5.27618 15.0526 5.42919 15.4328C6.2538 17.5871 7.05973 18.9582 8.79655 20.5463Z" fill="#9A9A9A"/>
<path d="M10.8009 22.0658C8.35154 20.415 5.85901 19.0187 3.91428 16.7788C3.5557 16.2673 3.22165 15.7799 2.939 15.2798C2.6505 14.782 2.39938 14.2751 2.18213 13.7466C2.07467 13.4817 1.96955 13.2145 1.87378 12.9394C1.84458 12.8572 1.83056 12.8161 1.80253 12.7328C1.78968 12.6951 1.78033 12.67 1.76632 12.622C1.74997 12.5661 1.74179 12.5387 1.72661 12.4827C1.68105 12.2955 1.65302 12.1014 1.65302 11.9085C1.65069 11.5237 1.74646 11.1493 1.93101 10.8662C2.02445 10.7257 2.13658 10.6081 2.26389 10.5168C2.39354 10.4289 2.5372 10.373 2.68671 10.3456C5.19325 10.059 6.20825 9.27582 7.88317 7.41491C8.8059 6.22074 9.71577 5.01857 10.6397 3.82553C10.8931 3.50815 11.0158 3.35745 11.2599 3.07775C11.365 2.95787 11.4456 2.84827 11.5764 2.72726C11.7037 2.61652 11.8474 2.52518 12.0086 2.46696C12.3298 2.34708 12.7024 2.34252 13.0831 2.43042C13.2735 2.47723 13.4639 2.54573 13.6531 2.6325C13.8412 2.72155 14.0234 2.83115 14.1986 2.94988C15.4425 3.75018 16.6981 4.5288 17.9315 5.34508C19.1498 6.27211 20.0608 7.09068 21.0022 8.28257C21.6423 9.22216 22.2391 10.2782 22.6631 11.3297C22.7939 11.647 22.8558 11.8092 22.9762 12.138C23.0054 12.2202 23.0205 12.2613 23.0486 12.3446C23.0614 12.3823 23.0708 12.4062 23.0859 12.4565C23.1035 12.5147 23.1116 12.5432 23.1292 12.6015C23.1782 12.7978 23.2086 13.0022 23.2086 13.2043C23.2121 13.6096 23.1128 14.0011 22.9259 14.306C22.7355 14.6085 22.4552 14.8209 22.1352 14.8757C21.2043 15.0264 20.4544 15.1394 19.6695 15.612C19.4348 15.7547 19.318 15.8392 19.0773 16.0356C18.8344 16.224 18.7106 16.3313 18.4548 16.5744C18.0308 16.9843 17.5519 17.4935 17.0614 18.0586C16.1036 19.1706 15.1423 20.2746 14.1542 21.3614C13.9264 21.6 13.7045 21.8261 13.4908 22.0419C13.381 22.1492 13.284 22.2531 13.1591 22.3524C13.0329 22.4437 12.8963 22.5168 12.7444 22.559C12.5926 22.599 12.4349 22.6241 12.269 22.6218C12.1043 22.6184 11.935 22.5933 11.7668 22.5488C11.5974 22.5008 11.4304 22.4346 11.2669 22.3547C11.1057 22.2725 10.9504 22.1732 10.8009 22.0658ZM10.8639 22.0053C11.4222 22.4095 12.1335 22.6104 12.6603 22.406C12.7923 22.357 12.9068 22.2816 13.0107 22.1914C13.1077 22.1001 13.2046 21.9791 13.3027 21.8649C13.5001 21.6331 13.6963 21.3808 13.8961 21.1091C14.7908 19.8453 15.6457 18.5587 16.5101 17.2731C16.9726 16.6018 17.4363 15.9203 17.8685 15.4511C18.1266 15.1668 18.2516 15.0389 18.498 14.8174C18.7491 14.6017 18.8718 14.5103 19.1159 14.3562C19.93 13.8379 20.8223 13.8253 21.7544 13.6769C21.8257 13.6609 21.8934 13.6381 21.9553 13.6027C22.0149 13.5639 22.0674 13.5137 22.1118 13.4543C22.1971 13.3299 22.245 13.1666 22.2415 12.9919C22.2415 12.9052 22.224 12.815 22.1994 12.7259C22.1913 12.6997 22.1866 12.686 22.1772 12.6597C22.1714 12.6403 22.1527 12.5935 22.141 12.5627C22.1095 12.4793 22.0931 12.4371 22.0604 12.3549C21.932 12.0238 21.8654 11.864 21.7229 11.5511C21.2837 10.5465 20.6588 9.54867 20.0071 8.66389C19.3296 7.51424 18.3999 6.6226 17.4141 5.73096C16.2508 4.88043 15.0454 4.10867 13.8564 3.29466C13.395 2.94417 12.7619 2.75466 12.2667 2.9202C12.1417 2.95901 12.0308 3.02295 11.928 3.10058C11.8357 3.17593 11.7212 3.30037 11.6161 3.40883C11.3627 3.68397 11.233 3.83238 10.9679 4.1452C9.9996 5.34622 9.07687 6.57237 8.15298 7.8065C6.61939 9.74961 5.52964 10.9073 2.98572 11.2749C2.65167 11.3331 2.44843 11.6847 2.45778 12.0717C2.45895 12.1688 2.47763 12.267 2.5045 12.364C2.51384 12.3937 2.51851 12.4074 2.52903 12.4371C2.53603 12.4599 2.55355 12.5033 2.56523 12.5353C2.59677 12.6186 2.61312 12.6597 2.64583 12.7419C2.75562 13.0159 2.86191 13.2842 2.97871 13.5456C3.20997 14.0674 3.45526 14.5628 3.7239 15.0481C3.99838 15.5321 4.28104 16.0116 4.59173 16.5151C5.845 19.0085 8.62836 20.4926 10.8639 22.0053Z" fill="#9A9A9A"/>
<path d="M13.0808 23.7247C10.2087 21.6286 6.79341 20.4367 3.74959 18.6055C2.98455 18.0974 2.29309 17.5608 1.73478 16.998C1.1718 16.4397 0.926518 15.8769 0.6789 15.3335C0.55626 15.0606 0.445299 14.7957 0.348354 14.5309C0.319154 14.451 0.305138 14.4121 0.275938 14.3334C0.26309 14.298 0.253746 14.2751 0.23973 14.2283C0.22221 14.1747 0.214034 14.1484 0.197681 14.0959C0.146289 13.9132 0.103073 13.7157 0.0715368 13.5034C0.0061284 13.081 -0.0277438 12.6083 0.0283205 12.1654C0.0575207 11.945 0.108913 11.7327 0.187169 11.5432C0.267762 11.3548 0.377555 11.1915 0.508371 11.0602C2.58042 9.61603 4.21446 9.23814 5.65578 7.07241C6.44535 5.6168 7.18353 4.13721 8.04552 2.71926C8.30131 2.30598 8.43096 2.10962 8.6996 1.74543C8.81523 1.59016 8.90751 1.4486 9.05818 1.28877C9.20418 1.14263 9.37121 1.01819 9.55692 0.930284C9.92718 0.752185 10.3535 0.701952 10.7658 0.763601C10.9714 0.797851 11.1734 0.860643 11.3685 0.946267C11.5636 1.03646 11.7469 1.15291 11.9256 1.28534C13.2548 2.28087 14.7604 2.99783 16.2473 3.73534C17.9701 4.56305 19.6216 5.42728 21.2218 6.46505C22.5043 7.45601 23.5169 8.31454 24.1932 9.79641C24.3462 10.1229 24.4128 10.285 24.5378 10.6001C24.5681 10.6789 24.5833 10.7189 24.6137 10.7977C24.6277 10.8342 24.6359 10.8547 24.6534 10.9038C24.6721 10.9598 24.6814 10.9872 24.7001 11.0431C24.7574 11.2349 24.8052 11.4404 24.8415 11.663C24.9139 12.106 24.9524 12.5992 24.8975 13.0684C24.8403 13.5354 24.6733 13.9749 24.3813 14.2477C23.5823 14.9784 22.5381 15.4351 21.5932 15.9511C21.3514 16.1052 21.2358 16.1897 21.0092 16.3906C20.7791 16.5824 20.6682 16.6909 20.4497 16.9409C20.0888 17.3633 19.7279 17.8657 19.3553 18.473C18.5377 19.8556 17.7038 21.2256 16.7518 22.5259C16.5159 22.8387 16.2765 23.1367 16.037 23.4198C15.9132 23.5603 15.8022 23.6961 15.6562 23.8286C15.5102 23.9519 15.3502 24.0546 15.1762 24.122C15.001 24.187 14.82 24.235 14.6354 24.251C14.4497 24.2658 14.264 24.2555 14.0818 24.2213C13.9007 24.1825 13.7244 24.1208 13.555 24.0386C13.3868 23.9541 13.2303 23.8457 13.0808 23.7247ZM13.1591 23.6368C13.7244 24.0946 14.4917 24.2475 15.0968 23.9439C15.2474 23.8708 15.3818 23.7669 15.5009 23.647C15.613 23.526 15.724 23.3673 15.8326 23.2178C16.0522 22.9141 16.2578 22.5819 16.4598 22.2279C17.3183 20.7027 17.9981 19.0907 18.7269 17.5049C19.0703 16.7811 19.395 16.1509 19.7501 15.676C19.9615 15.3871 20.069 15.2627 20.2909 15.0458C20.5175 14.8368 20.6039 14.7478 20.8796 14.6051C21.7941 14.1244 22.8745 13.7991 23.761 13.1186C23.8276 13.0604 23.8895 12.9965 23.9398 12.92C23.9888 12.8401 24.0274 12.7522 24.0577 12.6551C24.1126 12.4599 24.1243 12.2396 24.0904 12.0329C24.0752 11.929 24.0449 11.832 24.0087 11.7372C23.997 11.7098 23.99 11.6961 23.9783 11.6687C23.9701 11.647 23.9456 11.6014 23.9292 11.5694C23.886 11.4838 23.865 11.4415 23.8206 11.3559C23.6478 11.0123 23.5566 10.841 23.3581 10.4997C22.5884 9.17307 21.6446 8.12274 20.4871 7.11237C19.0259 6.0472 17.5169 5.15671 15.9109 4.31645C14.3726 3.57893 12.8402 2.85855 11.511 1.78196C11.0274 1.37211 10.3547 1.20428 9.8022 1.45659C9.66321 1.51596 9.5394 1.605 9.42493 1.71118C9.32215 1.81279 9.196 1.97719 9.08388 2.12332C8.81173 2.48865 8.67858 2.68502 8.41344 3.09715C7.50707 4.5345 6.74786 6.05063 5.96179 7.55191C4.58471 9.83637 3.12237 10.4335 0.97791 11.9268C0.67306 12.1848 0.580788 12.7202 0.654372 13.1712C0.671892 13.2842 0.703428 13.3904 0.740805 13.492C0.753653 13.5217 0.759493 13.5365 0.772341 13.5662C0.781685 13.589 0.803877 13.6324 0.819061 13.6644C0.859941 13.7477 0.879797 13.7899 0.921846 13.8733C1.06201 14.1518 1.2045 14.4373 1.36452 14.7193C1.68105 15.2844 2.0443 15.8518 2.46945 16.434C2.90162 17.0117 3.5265 17.6225 4.22847 18.1739C7.06439 20.2358 10.3313 21.5749 13.1591 23.6368Z" fill="#9A9A9A"/>
<path d="M64.5701 0.309C65.2525 0.309 65.7894 0.468405 66.1808 0.787215C66.5722 1.10603 66.7679 1.545 66.7679 2.10415C66.7679 2.66329 66.5722 3.10227 66.1808 3.42108C65.7894 3.73989 65.2525 3.89929 64.5701 3.89929H63.2679V5.45901H62.5152V0.309H64.5701ZM64.5475 3.25922C65.0242 3.25922 65.388 3.16112 65.6389 2.96493C65.8898 2.76384 66.0152 2.47691 66.0152 2.10415C66.0152 1.73138 65.8898 1.44691 65.6389 1.25072C65.388 1.04962 65.0242 0.949073 64.5475 0.949073H63.2679V3.25922H64.5475Z" fill="#9A9A9A"/>
<path d="M69.4623 5.50315C69.0659 5.50315 68.7096 5.41732 68.3934 5.24565C68.0773 5.07398 67.8289 4.83856 67.6483 4.53936C67.4726 4.23527 67.3848 3.89193 67.3848 3.50936C67.3848 3.12679 67.4726 2.78591 67.6483 2.48672C67.8289 2.18262 68.0773 1.94719 68.3934 1.78043C68.7096 1.60876 69.0659 1.52293 69.4623 1.52293C69.8587 1.52293 70.2125 1.60876 70.5236 1.78043C70.8397 1.94719 71.0856 2.18262 71.2612 2.48672C71.4419 2.78591 71.5322 3.12679 71.5322 3.50936C71.5322 3.89193 71.4419 4.23527 71.2612 4.53936C71.0856 4.83856 70.8397 5.07398 70.5236 5.24565C70.2125 5.41732 69.8587 5.50315 69.4623 5.50315ZM69.4623 4.88515C69.7182 4.88515 69.9465 4.82875 70.1472 4.71594C70.353 4.59822 70.5135 4.43636 70.6289 4.23036C70.7444 4.01946 70.8021 3.77913 70.8021 3.50936C70.8021 3.2396 70.7444 3.00172 70.6289 2.79572C70.5135 2.58481 70.353 2.42296 70.1472 2.31015C69.9465 2.19734 69.7182 2.14093 69.4623 2.14093C69.2064 2.14093 68.9755 2.19734 68.7698 2.31015C68.5691 2.42296 68.4085 2.58481 68.2881 2.79572C68.1727 3.00172 68.115 3.2396 68.115 3.50936C68.115 3.77913 68.1727 4.01946 68.2881 4.23036C68.4085 4.43636 68.5691 4.59822 68.7698 4.71594C68.9755 4.82875 69.2064 4.88515 69.4623 4.88515Z" fill="#9A9A9A"/>
<path d="M78.4578 1.55972L76.9675 5.45901H76.275L75.1234 2.50143L73.9567 5.45901H73.2643L71.7815 1.55972H72.4664L73.6256 4.66444L74.8299 1.55972H75.4395L76.6213 4.67915L77.8105 1.55972H78.4578Z" fill="#9A9A9A"/>
<path d="M82.6862 3.53143C82.6862 3.58539 82.6812 3.65651 82.6712 3.74479H79.4346C79.4797 4.08813 79.6328 4.36524 79.8937 4.57615C80.1597 4.78215 80.4884 4.88515 80.8798 4.88515C81.3565 4.88515 81.7403 4.7282 82.0314 4.41429L82.4303 4.87044C82.2497 5.07644 82.0239 5.23339 81.7529 5.34129C81.4869 5.4492 81.1884 5.50315 80.8572 5.50315C80.4357 5.50315 80.0618 5.41977 79.7357 5.25301C79.4095 5.08134 79.1561 4.84346 78.9754 4.53936C78.7998 4.23527 78.712 3.89193 78.712 3.50936C78.712 3.1317 78.7973 2.79081 78.9679 2.48672C79.1435 2.18262 79.3819 1.94719 79.683 1.78043C79.9891 1.60876 80.3328 1.52293 80.7142 1.52293C81.0955 1.52293 81.4342 1.60876 81.7303 1.78043C82.0314 1.94719 82.2647 2.18262 82.4303 2.48672C82.6009 2.79081 82.6862 3.13905 82.6862 3.53143ZM80.7142 2.11886C80.3679 2.11886 80.0769 2.22186 79.841 2.42786C79.6102 2.63386 79.4747 2.90362 79.4346 3.23715H81.9937C81.9536 2.90853 81.8156 2.64122 81.5798 2.43522C81.3489 2.22431 81.0604 2.11886 80.7142 2.11886Z" fill="#9A9A9A"/>
<path d="M84.3821 2.2145C84.5075 1.98888 84.6932 1.81722 84.9391 1.6995C85.185 1.58179 85.4835 1.52293 85.8348 1.52293V2.20715C85.7946 2.20224 85.7394 2.19979 85.6692 2.19979C85.2778 2.19979 84.9692 2.31505 84.7434 2.54558C84.5226 2.77119 84.4122 3.09491 84.4122 3.51672V5.45901H83.6896V1.55972H84.3821V2.2145Z" fill="#9A9A9A"/>
<path d="M90.294 3.53143C90.294 3.58539 90.289 3.65651 90.279 3.74479H87.0424C87.0875 4.08813 87.2406 4.36524 87.5015 4.57615C87.7675 4.78215 88.0961 4.88515 88.4875 4.88515C88.9643 4.88515 89.3481 4.7282 89.6392 4.41429L90.0381 4.87044C89.8575 5.07644 89.6316 5.23339 89.3607 5.34129C89.0947 5.4492 88.7962 5.50315 88.465 5.50315C88.0435 5.50315 87.6696 5.41977 87.3435 5.25301C87.0173 5.08134 86.7639 4.84346 86.5832 4.53936C86.4076 4.23527 86.3198 3.89193 86.3198 3.50936C86.3198 3.1317 86.4051 2.79081 86.5757 2.48672C86.7513 2.18262 86.9897 1.94719 87.2908 1.78043C87.5969 1.60876 87.9406 1.52293 88.322 1.52293C88.7033 1.52293 89.042 1.60876 89.3381 1.78043C89.6392 1.94719 89.8725 2.18262 90.0381 2.48672C90.2087 2.79081 90.294 3.13905 90.294 3.53143ZM88.322 2.11886C87.9757 2.11886 87.6847 2.22186 87.4488 2.42786C87.218 2.63386 87.0825 2.90362 87.0424 3.23715H89.6015C89.5614 2.90853 89.4234 2.64122 89.1876 2.43522C88.9567 2.22431 88.6682 2.11886 88.322 2.11886Z" fill="#9A9A9A"/>
<path d="M95.0609 0V5.45901H94.3684V4.84101C94.2078 5.05682 94.0046 5.22113 93.7587 5.33394C93.5128 5.44675 93.2419 5.50315 92.9458 5.50315C92.5594 5.50315 92.2132 5.41977 91.9071 5.25301C91.601 5.08625 91.3601 4.85327 91.1845 4.55408C91.0139 4.24998 90.9286 3.90174 90.9286 3.50936C90.9286 3.11698 91.0139 2.7712 91.1845 2.472C91.3601 2.17281 91.601 1.93984 91.9071 1.77307C92.2132 1.60631 92.5594 1.52293 92.9458 1.52293C93.2318 1.52293 93.4953 1.57688 93.7361 1.68479C93.977 1.78779 94.1777 1.94229 94.3383 2.14829V0H95.0609ZM93.006 4.88515C93.2569 4.88515 93.4852 4.82875 93.691 4.71594C93.8967 4.59822 94.0573 4.43636 94.1727 4.23036C94.2881 4.01946 94.3458 3.77913 94.3458 3.50936C94.3458 3.2396 94.2881 3.00172 94.1727 2.79572C94.0573 2.58481 93.8967 2.42296 93.691 2.31015C93.4852 2.19734 93.2569 2.14093 93.006 2.14093C92.7501 2.14093 92.5193 2.19734 92.3135 2.31015C92.1128 2.42296 91.9522 2.58481 91.8318 2.79572C91.7164 3.00172 91.6587 3.2396 91.6587 3.50936C91.6587 3.77913 91.7164 4.01946 91.8318 4.23036C91.9522 4.43636 92.1128 4.59822 92.3135 4.71594C92.5193 4.82875 92.7501 4.88515 93.006 4.88515Z" fill="#9A9A9A"/>
<path d="M100.565 1.52293C100.951 1.52293 101.297 1.60631 101.603 1.77307C101.909 1.93984 102.148 2.17281 102.318 2.472C102.494 2.7712 102.582 3.11698 102.582 3.50936C102.582 3.90174 102.494 4.24998 102.318 4.55408C102.148 4.85327 101.909 5.08625 101.603 5.25301C101.297 5.41977 100.951 5.50315 100.565 5.50315C100.268 5.50315 99.9975 5.44675 99.7516 5.33394C99.5057 5.22113 99.3025 5.05682 99.1419 4.84101V5.45901H98.4495V0H99.172V2.14829C99.3326 1.94229 99.5333 1.78779 99.7742 1.68479C100.015 1.57688 100.278 1.52293 100.565 1.52293ZM100.504 4.88515C100.76 4.88515 100.989 4.82875 101.189 4.71594C101.395 4.59822 101.556 4.43636 101.671 4.23036C101.791 4.01946 101.852 3.77913 101.852 3.50936C101.852 3.2396 101.791 3.00172 101.671 2.79572C101.556 2.58481 101.395 2.42296 101.189 2.31015C100.989 2.19734 100.76 2.14093 100.504 2.14093C100.253 2.14093 100.025 2.19734 99.8194 2.31015C99.6136 2.42296 99.453 2.58481 99.3376 2.79572C99.2222 3.00172 99.1645 3.2396 99.1645 3.50936C99.1645 3.77913 99.2222 4.01946 99.3376 4.23036C99.453 4.43636 99.6136 4.59822 99.8194 4.71594C100.025 4.82875 100.253 4.88515 100.504 4.88515Z" fill="#9A9A9A"/>
<path d="M107 1.55972L105.066 5.84894C104.895 6.24622 104.694 6.5258 104.463 6.68765C104.238 6.84951 103.964 6.93044 103.643 6.93044C103.447 6.93044 103.257 6.89856 103.071 6.8348C102.89 6.77594 102.74 6.68765 102.619 6.56994L102.928 6.04022C103.134 6.23151 103.372 6.32715 103.643 6.32715C103.819 6.32715 103.964 6.28056 104.08 6.18737C104.2 6.09908 104.308 5.94458 104.403 5.72387L104.531 5.45165L102.77 1.55972H103.523L104.915 4.67915L106.292 1.55972H107Z" fill="#9A9A9A"/>
</svg>
