<svg width="12" height="12" viewBox="0 0 12 12" fill="none" xmlns="http://www.w3.org/2000/svg">
<path d="M0 5.14286H5.14286V0H0V5.14286ZM1.07143 1.07143H4.07143V4.07143H1.07143V1.07143ZM6.85714 0V5.14286H12V0H6.85714ZM10.9286 4.07143H7.92857V1.07143H10.9286V4.07143ZM0 12H5.14286V6.85714H0V12ZM1.07143 7.92857H4.07143V10.9286H1.07143V7.92857ZM1.92857 8.78571V10.0714H3.21429V8.78571H1.92857ZM1.92857 1.92857V3.21429H3.21429V1.92857H1.92857ZM10.0714 3.21429V1.92857H8.78571V3.21429H10.0714ZM11.1429 6.85714V7.71429H9.42857V6.85714H6.85714V12H7.71429V9.42857H8.57143V10.2857H12V6.85714H11.1429ZM11.1429 11.1429V12H12V11.1429H11.1429ZM9.42857 11.1429V12H10.2857V11.1429H9.42857Z" fill="black"/>
</svg>
