<svg width="13" height="14" viewBox="0 0 13 14" fill="none" xmlns="http://www.w3.org/2000/svg">
<path d="M6.5 0.828125C3.02148 0.828125 0.177734 3.67188 0.203125 7.15039C0.203125 10.6035 3.02148 13.4219 6.5 13.4219C8.09961 13.4219 9.59766 12.8125 10.7148 11.8223C10.8418 11.6953 10.8418 11.4922 10.7148 11.3652L9.69922 10.3496C9.59766 10.248 9.41992 10.248 9.29297 10.3496C8.50586 11.0352 7.54102 11.3906 6.5 11.3906C4.11328 11.3906 2.23438 9.48633 2.23438 7.17578C2.20898 4.73828 4.18945 2.85938 6.52539 2.88477C7.5918 2.88477 8.60742 3.29102 9.39453 4.02734L8.32812 5.09375C7.94727 5.47461 8.22656 6.10938 8.75977 6.10938H12.1875C12.5176 6.10938 12.7969 5.85547 12.7969 5.5V2.09766C12.7969 1.56445 12.1367 1.28516 11.7559 1.66602L10.8418 2.58008C9.69922 1.51367 8.17578 0.853516 6.5 0.828125Z" fill="#9A9A9A"/>
</svg>
