<svg width="11" height="11" viewBox="0 0 11 11" fill="none" xmlns="http://www.w3.org/2000/svg">
<path d="M11 3.96C11 3.84313 10.957 3.73313 10.8834 3.65063L7.74051 0.130625C7.66685 0.0481252 7.56864 0 7.46429 0C7.24944 0 7.07143 0.199375 7.07143 0.44V2.2H5.69643C3.68304 2.2 1.17857 2.59875 0.325335 4.97063C0.0675223 5.69938 0 6.49 0 7.26C0 8.2225 0.429687 9.48063 0.779576 10.3606C0.847098 10.5188 0.914621 10.7388 1.0067 10.8831C1.04967 10.9519 1.09263 11 1.17857 11C1.30134 11 1.375 10.89 1.375 10.7594C1.375 10.6494 1.35045 10.5256 1.34431 10.4156C1.32589 10.1338 1.31362 9.85188 1.31362 9.57C1.31362 6.29063 3.05078 5.72 5.69643 5.72H7.07143V7.48C7.07143 7.72063 7.24944 7.92 7.46429 7.92C7.56864 7.92 7.66685 7.87188 7.74051 7.78938L10.8834 4.26938C10.957 4.18688 11 4.07688 11 3.96Z" fill="#999999"/>
</svg>
