<svg width="63" height="60" viewBox="0 0 63 60" fill="none" xmlns="http://www.w3.org/2000/svg">
<path d="M33 60C49.5685 60 63 46.5685 63 30C63 13.4315 49.5685 0 33 0C16.4315 0 3 13.4315 3 30C3 46.5685 16.4315 60 33 60Z" fill="#F0F3F8"/>
<path d="M50.9792 22.4495H14.0082C12.883 22.4495 11.9746 21.5411 11.9746 20.4159V15.0336C11.9746 13.9083 12.883 13 14.0082 13H50.9656C52.0909 13 52.9992 13.9083 52.9992 15.0336V20.4159C53.0128 21.5411 52.1044 22.4495 50.9792 22.4495Z" fill="white" stroke="#424F69" stroke-width="1.3" stroke-miterlimit="10"/>
<path d="M46.5034 19.6435C47.5591 19.6435 48.415 18.7876 48.415 17.7319C48.415 16.6762 47.5591 15.8203 46.5034 15.8203C45.4476 15.8203 44.5918 16.6762 44.5918 17.7319C44.5918 18.7876 45.4476 19.6435 46.5034 19.6435Z" fill="#424F69"/>
<path d="M41.8548 17.7319H16.5703" stroke="#424F69" stroke-width="1.3" stroke-miterlimit="10"/>
<path d="M50.9792 35.1531H14.0082C12.883 35.1531 11.9746 34.2448 11.9746 33.1195V27.7372C11.9746 26.612 12.883 25.7036 14.0082 25.7036H50.9656C52.0909 25.7036 52.9992 26.612 52.9992 27.7372V33.1195C53.0128 34.2448 52.1044 35.1531 50.9792 35.1531Z" fill="white" stroke="#424F69" stroke-width="1.3" stroke-miterlimit="10"/>
<path d="M46.5034 32.3329C47.5591 32.3329 48.415 31.4771 48.415 30.4214C48.415 29.3656 47.5591 28.5098 46.5034 28.5098C45.4476 28.5098 44.5918 29.3656 44.5918 30.4214C44.5918 31.4771 45.4476 32.3329 46.5034 32.3329Z" fill="#424F69"/>
<path d="M41.8548 30.4214H16.5703" stroke="#424F69" stroke-width="1.3" stroke-miterlimit="10"/>
<path d="M50.9792 47.8562H14.0082C12.883 47.8562 11.9746 46.9479 11.9746 45.8226V40.4403C11.9746 39.3151 12.883 38.4067 14.0082 38.4067H50.9656C52.0909 38.4067 52.9992 39.3151 52.9992 40.4403V45.8226C53.0128 46.9479 52.1044 47.8562 50.9792 47.8562Z" fill="white" stroke="#424F69" stroke-width="1.3" stroke-miterlimit="10"/>
<path d="M46.5034 45.0361C47.5591 45.0361 48.415 44.1802 48.415 43.1245C48.415 42.0687 47.5591 41.2129 46.5034 41.2129C45.4476 41.2129 44.5918 42.0687 44.5918 43.1245C44.5918 44.1802 45.4476 45.0361 46.5034 45.0361Z" fill="#424F69"/>
<path d="M41.8548 43.1245H16.5703" stroke="#424F69" stroke-width="1.3" stroke-miterlimit="10"/>
<path d="M12 55C18.0751 55 23 50.0751 23 44C23 37.9249 18.0751 33 12 33C5.92487 33 1 37.9249 1 44C1 50.0751 5.92487 55 12 55Z" fill="#1ABA17" stroke="#F0F3F8" stroke-miterlimit="10"/>
<path d="M7 43.3893L10.5385 46.9278L17.4663 40" stroke="white" stroke-width="2" stroke-miterlimit="10"/>
</svg>
