<svg width="13" height="14" viewBox="0 0 13 14" fill="none" xmlns="http://www.w3.org/2000/svg">
<path d="M12.3652 8.64844L11.2734 8.03906C11.4004 7.42969 11.4004 6.8457 11.2734 6.23633L12.3652 5.62695C12.4922 5.55078 12.543 5.39844 12.4922 5.27148C12.2129 4.35742 11.7305 3.54492 11.1211 2.85938C11.0195 2.75781 10.8672 2.73242 10.7402 2.80859L9.64844 3.41797C9.19141 3.03711 8.68359 2.73242 8.125 2.5293V1.28516C8.125 1.1582 8.02344 1.03125 7.87109 1.00586C6.93164 0.777344 5.99219 0.802734 5.10352 1.00586C4.95117 1.03125 4.875 1.1582 4.875 1.28516V2.5293C4.29102 2.73242 3.7832 3.03711 3.32617 3.44336L2.23438 2.80859C2.10742 2.73242 1.95508 2.75781 1.85352 2.85938C1.24414 3.54492 0.761719 4.35742 0.482422 5.27148C0.431641 5.39844 0.482422 5.55078 0.609375 5.62695L1.70117 6.23633C1.59961 6.8457 1.59961 7.42969 1.70117 8.03906L0.609375 8.64844C0.482422 8.72461 0.431641 8.87695 0.482422 9.00391C0.761719 9.91797 1.24414 10.7305 1.85352 11.416C1.95508 11.5176 2.10742 11.543 2.23438 11.4668L3.32617 10.8574C3.7832 11.2383 4.29102 11.543 4.875 11.7461V12.9902C4.875 13.1172 4.97656 13.2441 5.10352 13.2949C6.04297 13.498 6.98242 13.4727 7.87109 13.2949C8.02344 13.2441 8.125 13.1172 8.125 12.9902V11.7461C8.68359 11.543 9.19141 11.2383 9.64844 10.8574L10.7402 11.4668C10.8672 11.543 11.0195 11.5176 11.1211 11.416C11.7559 10.7305 12.2129 9.91797 12.5176 9.00391C12.543 8.87695 12.4922 8.72461 12.3652 8.64844ZM6.5 9.15625C5.35742 9.15625 4.46875 8.26758 4.46875 7.125C4.46875 6.00781 5.35742 5.09375 6.5 5.09375C7.61719 5.09375 8.53125 6.00781 8.53125 7.125C8.53125 8.26758 7.61719 9.15625 6.5 9.15625Z" fill="#9A9A9A"/>
</svg>
