<svg width="14" height="12" viewBox="0 0 14 12" fill="#566F9F" xmlns="http://www.w3.org/2000/svg">
<path d="M9.89453 4.52539C9.61523 4.01758 9.08203 3.6875 8.47266 3.6875H5.50195C4.89258 3.6875 4.35938 4.01758 4.08008 4.52539L1.41406 9.19727C1.33789 9.32422 1.3125 9.45117 1.3125 9.60352V11C1.3125 11.457 1.66797 11.8125 2.125 11.8125H11.875C12.3066 11.8125 12.6875 11.457 12.6875 11V9.60352C12.6621 9.45117 12.6367 9.32422 12.5605 9.19727L9.89453 4.52539ZM7 9.375C5.98438 9.375 5.17188 8.5625 5.17188 7.54688C5.17188 6.55664 5.98438 5.71875 7 5.71875C7.99023 5.71875 8.82812 6.55664 8.82812 7.54688C8.82812 8.5625 7.99023 9.375 7 9.375ZM13.3477 2.74805C11.5703 1.27539 9.31055 0.4375 7 0.4375C4.66406 0.4375 2.4043 1.27539 0.626953 2.74805C0.550781 2.84961 0.474609 2.95117 0.474609 3.07812H0.5V4.5C0.5 4.72852 0.677734 4.90625 0.90625 4.90625H2.68359C2.83594 4.90625 2.96289 4.83008 3.03906 4.70312L3.75 2.875C4.74023 2.44336 5.85742 2.26562 7 2.26562C8.11719 2.26562 9.23438 2.44336 10.25 2.875L10.9355 4.70312C11.0117 4.83008 11.1387 4.90625 11.291 4.90625H13.0938C13.2969 4.90625 13.5 4.72852 13.5 4.5V3.07812C13.5 2.95117 13.4238 2.84961 13.3477 2.74805Z"/>
</svg>
