<svg width="5" height="4" viewBox="0 0 5 4" fill="none" xmlns="http://www.w3.org/2000/svg">
<path opacity="0.5" d="M3.32663 1.99375L4.75845 0.65625C4.838 0.58125 4.838 0.44375 4.75845 0.36875L4.42701 0.05625C4.34747 -0.01875 4.20163 -0.01875 4.12209 0.05625L2.70353 1.40625L1.27171 0.05625C1.19216 -0.01875 1.04633 -0.01875 0.966782 0.05625L0.635343 0.36875C0.555797 0.44375 0.555797 0.58125 0.635343 0.65625L2.06716 1.99375L0.635343 3.34375C0.555797 3.41875 0.555797 3.55625 0.635343 3.63125L0.966782 3.94375C1.04633 4.01875 1.19216 4.01875 1.27171 3.94375L2.70353 2.59375L4.12209 3.94375C4.20163 4.01875 4.34747 4.01875 4.42701 3.94375L4.75845 3.63125C4.838 3.55625 4.838 3.41875 4.75845 3.34375L3.32663 1.99375Z" fill="white"/>
</svg>
