<svg width="22" height="18" viewBox="0 0 22 18" fill="none" xmlns="http://www.w3.org/2000/svg">
<path opacity="0.4" d="M11 3.5C14.5625 3.5 17.5 5.75 17.5 8.5C17.5 9.3125 17.25 10.0625 16.8125 10.7188L18 11.625C18.625 10.7188 19 9.65625 19 8.5C19 4.9375 15.4062 2 11 2C9.46875 2 8.09375 2.34375 6.875 2.9375L8.21875 4C9.0625 3.6875 10 3.5 11 3.5ZM11 13.5C10.1562 13.5 9.3125 13.375 8.53125 13.125L7.8125 12.9062L7.21875 13.3438C6.78125 13.6562 6.15625 14 5.40625 14.25C5.65625 13.875 5.875 13.4375 6.03125 13L6.375 12.125L5.71875 11.4375C5.15625 10.8438 4.5 9.84375 4.5 8.5C4.5 8 4.59375 7.5 4.78125 7.03125L3.5625 6.0625C3.1875 6.84375 3 7.65625 3 8.5C3 10 3.59375 11.375 4.625 12.4688C4.1875 13.6875 3.21875 14.75 3.1875 14.75C2.96875 14.9688 2.9375 15.2812 3.03125 15.5625C3.15625 15.8438 3.4375 16 3.75 16C5.65625 16 7.1875 15.2188 8.09375 14.5625C9 14.8438 9.96875 15 11 15C12.1562 15 13.2812 14.8125 14.2812 14.4375L12.8125 13.3125C12.25 13.4375 11.625 13.5 11 13.5ZM20.8125 15.7188L16.0312 12L15.8125 11.8438L2.125 1.125C1.90625 0.9375 1.59375 1 1.40625 1.1875L1.09375 1.59375C0.9375 1.8125 0.96875 2.125 1.1875 2.28125L19.875 16.9062C20.0625 17.0625 20.4062 17.0312 20.5625 16.8125L20.875 16.4375C21.0625 16.2188 21 15.9062 20.8125 15.7188Z" fill="white"/>
</svg>
