<svg width="15" height="14" viewBox="0 0 15 14" fill="none" xmlns="http://www.w3.org/2000/svg">
<g clip-path="url(#clip0_24594_4008)">
<path d="M4.91016 6.36328L6.58594 4.6875V12.2031C6.58594 12.5586 6.83984 12.8125 7.19531 12.8125H7.80469C8.13477 12.8125 8.41406 12.5586 8.41406 12.2031V4.6875L10.0645 6.36328C10.293 6.5918 10.6992 6.5918 10.9277 6.36328L11.3594 5.93164C11.5879 5.70312 11.5879 5.29688 11.3594 5.06836L7.90625 1.64062C7.67773 1.38672 7.29688 1.38672 7.06836 1.64062L3.61523 5.06836C3.38672 5.29688 3.38672 5.70312 3.61523 5.93164L4.04688 6.36328C4.27539 6.5918 4.68164 6.5918 4.91016 6.36328Z" fill="#9A9A9A"/>
</g>
<defs>
<clipPath id="clip0_24594_4008">
<rect width="15" height="14" fill="white"/>
</clipPath>
</defs>
</svg>
