<svg width="11" height="11" viewBox="0 0 11 11" fill="none" xmlns="http://www.w3.org/2000/svg">
<path d="M4.64062 0C4.33984 0 4.125 0.236328 4.125 0.515625V4.125H2.23438C1.84766 4.125 1.6543 4.59766 1.93359 4.87695L5.19922 8.14258C5.34961 8.29297 5.62891 8.29297 5.7793 8.14258L9.04492 4.87695C9.32422 4.59766 9.13086 4.125 8.74414 4.125H6.875V0.515625C6.875 0.236328 6.63867 0 6.35938 0H4.64062ZM11 8.07812C11 7.79883 10.7637 7.5625 10.4844 7.5625H7.32617L6.27344 8.61523C5.84375 9.06641 5.13477 9.06641 4.70508 8.61523L3.65234 7.5625H0.515625C0.214844 7.5625 0 7.79883 0 8.07812V10.4844C0 10.7852 0.214844 11 0.515625 11H10.4844C10.7637 11 11 10.7852 11 10.4844V8.07812ZM8.33594 9.96875C8.33594 10.2051 8.14258 10.3984 7.90625 10.3984C7.66992 10.3984 7.47656 10.2051 7.47656 9.96875C7.47656 9.73242 7.66992 9.53906 7.90625 9.53906C8.14258 9.53906 8.33594 9.73242 8.33594 9.96875ZM9.71094 9.96875C9.71094 10.2051 9.51758 10.3984 9.28125 10.3984C9.04492 10.3984 8.85156 10.2051 8.85156 9.96875C8.85156 9.73242 9.04492 9.53906 9.28125 9.53906C9.51758 9.53906 9.71094 9.73242 9.71094 9.96875Z" fill="#9A9A9A"/>
</svg>
