<svg width="10" height="14" viewBox="0 0 10 14" fill="none" xmlns="http://www.w3.org/2000/svg">
<path d="M5.83333 3.71875V0H0.625C0.260417 0 0 0.300781 0 0.65625V13.3438C0 13.7266 0.260417 14 0.625 14H9.375C9.71354 14 10 13.7266 10 13.3438V4.375H6.45833C6.09375 4.375 5.83333 4.10156 5.83333 3.71875ZM7.91667 11.2109V11.7305C7.91667 12.0312 7.63021 12.25 7.31771 12.25H2.65625C2.34375 12.25 2.08333 12.0312 2.08333 11.7305V11.2109C2.08333 10.3359 2.86458 9.625 3.82812 9.625H3.95833C4.27083 9.78906 4.60938 9.84375 5 9.84375C5.36458 9.84375 5.70312 9.78906 6.01562 9.625H6.14583C7.10938 9.625 7.91667 10.3359 7.91667 11.2109ZM5 8.75C4.0625 8.75 3.33333 7.98438 3.33333 7C3.33333 6.04297 4.0625 5.25 5 5.25C5.91146 5.25 6.66667 6.04297 6.66667 7C6.66667 7.98438 5.91146 8.75 5 8.75ZM9.81771 2.87109L7.26562 0.191406C7.13542 0.0820312 6.97917 0 6.82292 0H6.66667V3.5H10V3.33594C10 3.17188 9.92188 3.00781 9.81771 2.87109Z" fill="#02122F"/>
</svg>
