<svg width="14" height="6" viewBox="0 0 14 6" fill="#9A9A9A" xmlns="http://www.w3.org/2000/svg">
<path d="M10.85 0H10.8281C9.1 0 7.67812 1.35417 7.67812 3C7.67812 3.52083 7.91875 4.25 8.225 4.66667H5.75313C6.05938 4.25 6.3 3.52083 6.3 3C6.3 1.35417 4.87813 0 3.15 0C1.4 0 0 1.35417 0 3C0 4.66667 1.4 6 3.15 6H10.85C12.5781 6 14 4.66667 14 3C14 1.35417 12.5781 0 10.85 0ZM1.4 3C1.4 2.08333 2.16563 1.33333 3.15 1.33333C4.1125 1.33333 4.9 2.08333 4.9 3C4.9 3.9375 4.1125 4.66667 3.15 4.66667C2.16563 4.66667 1.4 3.9375 1.4 3ZM10.85 4.66667C9.86563 4.66667 9.1 3.9375 9.1 3C9.1 2.08333 9.86563 1.33333 10.85 1.33333C11.8125 1.33333 12.6 2.08333 12.6 3C12.6 3.9375 11.8125 4.66667 10.85 4.66667Z" />
</svg>
