<svg width="26" height="26" version="1.1" viewBox="0 0 6.8792 6.8792" xmlns="http://www.w3.org/2000/svg">
 <g transform="translate(-76.496 -121.89)">
  <g transform="matrix(.26458 0 0 .26458 76.496 121.89)" style="fill:none">
   <circle cx="13" cy="13" r="13" fill="#f0f3f8"/>
  </g>
  <g transform="matrix(.26458 0 0 .26458 78.878 124.27)" style="fill:none">
   <path d="m4.8388 3.9875 2.579-2.554 0.52582-0.52582c0.07512-0.075117 0.07512-0.20031 0-0.30047l-0.55086-0.55086c-0.10016-0.075117-0.22535-0.075117-0.30047 0l-3.0798 3.1049-3.1049-3.1049c-0.075117-0.075117-0.20031-0.075117-0.30047 0l-0.55086 0.55086c-0.075117 0.10016-0.075117 0.22535 0 0.30047l3.1049 3.0798-3.1049 3.1048c-0.075117 0.07512-0.075117 0.20031 0 0.30047l0.55086 0.55086c0.10016 0.07512 0.22535 0.07512 0.30047 0l3.1049-3.1048 2.554 2.579 0.52582 0.52582c0.07512 0.07512 0.20031 0.07512 0.30047 0l0.55086-0.55086c0.07512-0.10016 0.07512-0.22535 0-0.30047z" fill="#9a9a9a"/>
  </g>
 </g>
</svg>
