<svg width="20" height="24" viewBox="0 0 20 24" fill="none" xmlns="http://www.w3.org/2000/svg">
<path d="M19.5984 17.0156C18.7505 16.0312 17.0994 14.5781 17.0994 9.75C17.0994 6.14062 14.6897 3.23438 11.3876 2.48438V1.5C11.3876 0.703125 10.7628 0 10.0042 0C9.201 0 8.57626 0.703125 8.57626 1.5V2.48438C5.27409 3.23438 2.86439 6.14062 2.86439 9.75C2.86439 14.5781 1.2133 16.0312 0.365448 17.0156C0.0977042 17.2969 -0.0361677 17.6719 0.00845626 18C0.00845626 18.7969 0.543944 19.5 1.43642 19.5H18.5274C19.4199 19.5 19.9554 18.7969 20 18C20 17.6719 19.8661 17.2969 19.5984 17.0156ZM10.0042 24C11.5661 24 12.8155 22.6875 12.8155 21H7.14829C7.14829 22.6875 8.39777 24 10.0042 24Z" fill="#D3D3D4"/>
</svg>
