<svg width="31" height="31" viewBox="0 0 31 31" fill="none" xmlns="http://www.w3.org/2000/svg">
<g clip-path="url(#clip0_21569_271940)">
<path d="M25.2099 4.95995V9.61993H0.889893V4.95995C0.897749 4.55408 1.06451 4.16749 1.35434 3.88327C1.64417 3.59905 2.03396 3.43987 2.4399 3.43994H5.5499V5.18994H8.91989V3.43994H17.3399V5.18994H20.7099V3.43994H23.6399C23.8416 3.44068 24.0415 3.47795 24.2299 3.54994C24.4206 3.62867 24.5939 3.7442 24.7399 3.88994C24.8812 4.03372 24.9932 4.20352 25.0699 4.38994C25.1488 4.57664 25.1896 4.77723 25.1899 4.97993L25.2099 4.95995Z" fill="#D9E2F3"/>
<path d="M21.3401 29.65C23.0247 29.648 24.671 29.1466 26.0708 28.2092C27.4706 27.2718 28.5611 25.9405 29.2044 24.3835C29.8477 22.8265 30.015 21.1138 29.6851 19.4617C29.3553 17.8096 28.543 16.2924 27.3511 15.1019C26.1591 13.9114 24.641 13.1009 22.9886 12.773C21.3361 12.445 19.6235 12.6143 18.0673 13.2595C16.5111 13.9046 15.181 14.9967 14.2452 16.3976C13.3095 17.7984 12.8101 19.4453 12.8101 21.13C12.8087 22.2501 13.0286 23.3594 13.4569 24.3943C13.8852 25.4293 14.5136 26.3695 15.3061 27.161C16.0986 27.9526 17.0395 28.5799 18.075 29.007C19.1104 29.4341 20.22 29.6526 21.3401 29.65Z" fill="white"/>
<path d="M29.34 16.74C28.6355 15.4348 27.6439 14.3064 26.44 13.44V5.11004C26.4246 4.73259 26.3346 4.36192 26.1752 4.01945C26.0157 3.67698 25.79 3.3695 25.5111 3.11474C25.2322 2.85998 24.9055 2.663 24.55 2.53518C24.1946 2.40736 23.8173 2.35123 23.44 2.37003H21.44V0.870035C21.4544 0.777485 21.4503 0.683012 21.4279 0.59205C21.4056 0.501089 21.3656 0.415438 21.31 0.340036C21.1974 0.185551 21.0286 0.0814314 20.84 0.0500429H17.5C17.3892 0.0340206 17.2762 0.042345 17.169 0.0744417C17.0618 0.106538 16.9628 0.161642 16.879 0.235895C16.7953 0.310148 16.7287 0.401759 16.684 0.504373C16.6392 0.606988 16.6174 0.718129 16.62 0.830042V2.37003H9.81V0.830042C9.81 0.320042 9.28 0.0500429 8.81 0.0500429H5.64999C5.07999 0.0500429 4.64999 0.360042 4.64999 0.830042V2.37003H2.86C2.48974 2.35386 2.12002 2.41271 1.77307 2.54302C1.42612 2.67334 1.10909 2.87243 0.841019 3.12835C0.572952 3.38428 0.359378 3.69175 0.213135 4.0323C0.0668915 4.37284 -0.00901514 4.73942 -0.0100098 5.11004V24.36C-0.00907567 24.7302 0.06687 25.0964 0.213226 25.4364C0.359583 25.7764 0.573316 26.0833 0.841537 26.3384C1.10976 26.5936 1.4269 26.7917 1.77382 26.9209C2.12073 27.0501 2.49023 27.1076 2.86 27.09H13.86C14.6138 28.0197 15.5409 28.794 16.59 29.37C17.668 29.97 18.8542 30.3506 20.08 30.49C21.3085 30.63 22.5525 30.5246 23.74 30.18C24.9289 29.8407 26.0375 29.266 27 28.49C28.0944 27.6169 28.9794 26.5099 29.5903 25.2502C30.2011 23.9905 30.5222 22.61 30.53 21.21C30.5008 19.6457 30.0924 18.1118 29.34 16.74ZM18.43 4.32005V1.83004H19.59V4.32005H18.43ZM4.92999 5.84004C5.10561 6.02504 5.34529 6.13595 5.59999 6.15005H8.76999C9.02571 6.13228 9.26835 6.03029 9.45999 5.86004C9.64964 5.67499 9.77271 5.43237 9.81 5.17004V4.17004H16.62V5.17004C16.6102 5.29074 16.6247 5.41217 16.6624 5.52722C16.7002 5.64226 16.7606 5.74861 16.84 5.84004C17.0099 6.03015 17.246 6.1482 17.5 6.17004H20.66C21.12 6.17004 21.44 5.76004 21.44 5.17004V4.17004H23.44C24.01 4.17004 24.62 4.49004 24.62 5.08004V8.98004H1.84999V5.08004C1.85089 4.95303 1.87809 4.82759 1.92986 4.7116C1.98162 4.59562 2.05683 4.49161 2.15077 4.40612C2.24471 4.32064 2.35534 4.25553 2.47568 4.2149C2.59602 4.17427 2.72346 4.15899 2.84999 4.17004H4.64V5.17004C4.65673 5.42616 4.77129 5.66605 4.95999 5.84004H4.92999ZM1.81999 10.84H24.57V12.44C23.4749 12.0171 22.3138 11.7903 21.14 11.77C19.9083 11.7687 18.6884 12.01 17.55 12.48C15.2502 13.433 13.423 15.2603 12.47 17.56C11.9665 18.7772 11.7258 20.0869 11.7637 21.4035C11.8016 22.7202 12.1173 24.0139 12.69 25.2H2.86C2.73378 25.2096 2.60694 25.1933 2.48724 25.1521C2.36755 25.1109 2.25753 25.0457 2.16391 24.9605C2.07029 24.8753 1.99505 24.7719 1.94279 24.6566C1.89054 24.5414 1.86236 24.4166 1.86 24.29L1.81999 10.84ZM14.04 18.32C14.4166 17.4004 14.9708 16.5641 15.6708 15.8589C16.3709 15.1536 17.2032 14.5934 18.12 14.21C19.0365 13.8297 20.0177 13.6294 21.01 13.62C23.0007 13.63 24.9092 14.4156 26.33 15.81C27.7506 17.2216 28.5558 19.1374 28.57 21.14V21.21C28.5679 22.1988 28.3708 23.1775 27.99 24.09C27.6133 25.0002 27.0592 25.8263 26.36 26.52C25.6652 27.2227 24.8351 27.7772 23.92 28.15C23.0075 28.5308 22.0288 28.7279 21.04 28.73C20.0488 28.7296 19.0672 28.536 18.15 28.16C17.2293 27.7911 16.3926 27.2401 15.69 26.54C14.9835 25.8443 14.4226 25.0148 14.04 24.1C13.656 23.1846 13.4555 22.2027 13.45 21.21C13.4629 20.2022 13.6736 19.2067 14.07 18.28L14.04 18.32ZM6.47 4.32005V1.83004H7.95999V4.32005H6.47Z" fill="#434E69"/>
<path d="M20.0001 22.5C20.1839 22.6572 20.4183 22.7424 20.6601 22.74H24.2401C24.3587 22.741 24.4762 22.7185 24.5861 22.6739C24.6959 22.6293 24.7958 22.5634 24.8801 22.48C25.0518 22.3071 25.1487 22.0737 25.1501 21.83C25.1419 21.5878 25.0459 21.3568 24.8801 21.18C24.7958 21.0967 24.6959 21.0308 24.5861 20.9862C24.4762 20.9416 24.3587 20.9191 24.2401 20.92H21.4601V17.18C21.4575 16.9395 21.3608 16.7095 21.1907 16.5394C21.0206 16.3693 20.7907 16.2726 20.5501 16.27C20.3064 16.2714 20.073 16.3683 19.9001 16.54C19.729 16.7093 19.632 16.9394 19.6301 17.18V21.87C19.6696 22.1192 19.8017 22.3442 20.0001 22.5Z" fill="#434E69"/>
</g>
<defs>
<clipPath id="clip0_21569_271940">
<rect width="30.52" height="30.5" fill="white"/>
</clipPath>
</defs>
</svg>
