<svg width="16" height="18" viewBox="0 0 16 18" fill="none" xmlns="http://www.w3.org/2000/svg">
<path d="M15.2498 6.64181V6.59181H15.1998H0.759766H0.709766V6.64181V15.6094C0.709766 16.5261 1.40797 17.2419 2.30691 17.2419H13.6526C14.5187 17.2419 15.2498 16.5268 15.2498 15.6094V6.64181ZM13.6526 2.37178H12.1555V0.839271C12.1555 0.691529 12.0838 0.547693 11.9801 0.441659C11.8765 0.335695 11.7354 0.261768 11.5898 0.261768H10.5584C10.2376 0.261768 9.99264 0.551024 9.99264 0.839271V2.37178H5.96692V0.839271C5.96692 0.691529 5.89517 0.547693 5.79151 0.441659C5.68791 0.335695 5.5468 0.261768 5.4012 0.261768H4.36977C4.04905 0.261768 3.80406 0.551024 3.80406 0.839271V2.37178H2.30691C1.4073 2.37178 0.709766 3.12124 0.709766 4.00429V5.5868V5.6368H0.759766H15.1998H15.2498V5.5868V4.00429C15.2498 3.12056 14.5194 2.37178 13.6526 2.37178ZM11.1241 9.14745C11.1241 8.97342 11.2665 8.80182 11.4609 8.80182H12.7501C12.8302 8.80182 12.9147 8.84329 12.9803 8.91041C13.0459 8.97746 13.0869 9.06441 13.0869 9.14745V10.4662C13.0869 10.6678 12.9176 10.8118 12.7501 10.8118H11.4609C11.2639 10.8118 11.1241 10.6705 11.1241 10.4662V9.14745ZM11.1241 13.3675C11.1241 13.1935 11.2665 13.0219 11.4609 13.0219H12.7501C12.8302 13.0219 12.9147 13.0633 12.9803 13.1304C13.0459 13.1975 13.0869 13.2844 13.0869 13.3675V14.6862C13.0869 14.8878 12.9176 15.0319 12.7501 15.0319H11.4609C11.2639 15.0319 11.1241 14.8905 11.1241 14.6862V13.3675ZM6.99835 9.14745C6.99835 8.97342 7.1408 8.80182 7.33513 8.80182H8.62442C8.70445 8.80182 8.78896 8.84329 8.85458 8.91041C8.92014 8.97746 8.96121 9.06441 8.96121 9.14745V10.4662C8.96121 10.6678 8.79184 10.8118 8.62442 10.8118H7.33513C7.13818 10.8118 6.99835 10.6705 6.99835 10.4662V9.14745ZM6.99835 13.3675C6.99835 13.1935 7.1408 13.0219 7.33513 13.0219H8.62442C8.70445 13.0219 8.78896 13.0633 8.85458 13.1304C8.92014 13.1975 8.96121 13.2844 8.96121 13.3675V14.6862C8.96121 14.8878 8.79184 15.0319 8.62442 15.0319H7.33513C7.13818 15.0319 6.99835 14.8905 6.99835 14.6862V13.3675ZM2.87263 9.14745C2.87263 8.97342 3.01508 8.80182 3.20941 8.80182H4.4987C4.57873 8.80182 4.66324 8.84329 4.72886 8.91041C4.79442 8.97746 4.83549 9.06441 4.83549 9.14745V10.4662C4.83549 10.6678 4.66612 10.8118 4.4987 10.8118H3.20941C3.01246 10.8118 2.87263 10.6705 2.87263 10.4662V9.14745ZM2.87263 13.3675C2.87263 13.1935 3.01508 13.0219 3.20941 13.0219H4.4987C4.57873 13.0219 4.66324 13.0633 4.72886 13.1304C4.79442 13.1975 4.83549 13.2844 4.83549 13.3675V14.6862C4.83549 14.8878 4.66612 15.0319 4.4987 15.0319H3.20941C3.01246 15.0319 2.87263 14.8905 2.87263 14.6862V13.3675Z" fill="#D3D3D5" stroke="white" stroke-width="0.1"/>
</svg>
