<svg width="11" height="11" viewBox="0 0 11 11" fill="none" xmlns="http://www.w3.org/2000/svg">
<path d="M9.49898 7.39724L7.35642 6.48482C7.16904 6.40335 6.94908 6.46038 6.81874 6.61517L5.87373 7.77199C4.38289 7.07138 3.17719 5.85753 2.49287 4.39113L3.64969 3.44612C3.81263 3.31578 3.86151 3.09582 3.78004 2.90844L2.86762 0.765879C2.778 0.570359 2.55804 0.456306 2.33809 0.505186L0.358452 0.961398C0.14664 1.01028 0 1.19765 0 1.40946C0 6.30559 3.96741 10.2649 8.86354 10.2649C9.07536 10.2649 9.26273 10.1182 9.31161 9.90641L9.76782 7.91863C9.8167 7.71496 9.70265 7.48686 9.49898 7.39724Z" fill="#9A9A9A"/>
<path d="M9.93817 0.334012L9.70192 0.0977597C9.57157 -0.0325866 9.35976 -0.0325866 9.23756 0.0977597L6.92391 2.40326V1.13238C6.92391 0.953157 6.77727 0.798371 6.5899 0.798371H6.25589C6.07666 0.798371 5.92188 0.94501 5.92188 1.13238V3.77189C5.92188 3.95112 6.06851 4.10591 6.25589 4.10591H8.8954C9.07462 4.10591 9.22941 3.95927 9.22941 3.77189V3.43788C9.22941 3.25866 9.08277 3.10387 8.8954 3.10387H7.62452L9.93817 0.790224C10.0685 0.668024 10.0685 0.456212 9.93817 0.334012Z" fill="#1ABA17"/>
</svg>
