<svg width="12" height="11" viewBox="0 0 12 11" fill="none" xmlns="http://www.w3.org/2000/svg">
<path d="M10.7165 7.27609L8.51694 6.33104C8.32458 6.2474 8.09877 6.30594 7.96496 6.46485L6.99481 7.66081C5.46432 6.9332 4.22655 5.68706 3.52403 4.18166L4.71162 3.21151C4.87052 3.0777 4.92907 2.85189 4.84543 2.65953L3.90874 0.468335C3.81674 0.259251 3.59093 0.142164 3.36512 0.192344L1.33283 0.660691C1.11538 0.710872 0.964844 0.903228 0.964844 1.12068C0.964844 6.14704 5.03779 10.22 10.0642 10.22C10.2816 10.22 10.474 10.0694 10.5241 9.852L10.9925 7.81135C11.0427 7.5939 10.9256 7.36809 10.7165 7.27609Z" fill="#F4266E"/>
<path d="M9.82976 1.89848L10.9254 0.802881C11.0174 0.710884 11.0174 0.55198 10.9254 0.459984L10.5406 0.07527C10.4487 -0.0167267 10.2897 -0.0167267 10.1978 0.07527L9.10215 1.17087L7.99819 0.07527C7.9062 -0.02509 7.74729 -0.02509 7.6553 0.07527L7.27058 0.459984C7.17859 0.55198 7.17859 0.710884 7.27058 0.802881L8.36618 1.89848L7.27058 3.00244C7.17022 3.09444 7.17022 3.25334 7.27058 3.34534L7.6553 3.73005C7.74729 3.82205 7.9062 3.82205 7.99819 3.73005L9.09379 2.63445L10.1894 3.73005C10.2814 3.82205 10.4403 3.82205 10.5323 3.73005L10.9254 3.34534C11.0174 3.25334 11.0174 3.09444 10.9254 3.00244L9.82976 1.89848Z" fill="#F4266E"/>
</svg>
