<svg width="10" height="11" viewBox="0 0 10 11" fill="none" xmlns="http://www.w3.org/2000/svg">
<path d="M9.49898 7.28318L7.35642 6.37076C7.16904 6.28929 6.94908 6.34632 6.81874 6.5011L5.87373 7.65792C4.38289 6.95731 3.17719 5.73532 2.49287 4.26892L3.64969 3.32391C3.80448 3.19357 3.86151 2.97361 3.78004 2.78624L2.86762 0.651816C2.778 0.44815 2.55804 0.334097 2.33809 0.391123L0.358452 0.847335C0.14664 0.896215 0 1.07544 0 1.2954C0 6.19153 3.96741 10.1508 8.86354 10.1508C9.07536 10.1508 9.26273 10.0042 9.31161 9.79234L9.76782 7.80456C9.8167 7.59275 9.70265 7.37279 9.49898 7.28318Z" fill="#9A9A9A"/>
<path d="M9.91417 0.334012C9.91417 0.154786 9.76753 0 9.58015 0H6.94879C6.76142 0 6.61478 0.14664 6.61478 0.334012V0.668024C6.61478 0.847251 6.76142 1.00204 6.94879 1.00204H8.22781L5.91417 3.29939C5.78382 3.42974 5.78382 3.64155 5.91417 3.76375L6.15042 4C6.28076 4.13035 6.49258 4.13035 6.61478 4L8.92842 1.68635V2.96538C8.92842 3.1446 9.07506 3.29939 9.26243 3.29939H9.59645C9.77567 3.29939 9.93046 3.15275 9.93046 2.96538L9.91417 0.334012Z" fill="#F4803F"/>
</svg>
