<svg width="20" height="17" viewBox="0 0 20 17" fill="none" xmlns="http://www.w3.org/2000/svg">
<path d="M10.2907 0.0683594C5.14001 0.0683594 1.00496 3.47796 1.00496 7.613C1.00496 9.35407 1.69414 10.9501 2.89113 12.2196C2.38331 13.6342 1.25887 14.8675 1.2226 14.8675C0.968693 15.1214 0.93242 15.4841 1.04124 15.8105C1.18633 16.137 1.51278 16.3184 1.8755 16.3184C4.08811 16.3184 5.86546 15.4116 6.91735 14.6498C7.96925 14.9763 9.09369 15.1576 10.2907 15.1576C15.4051 15.1576 19.5764 11.7843 19.5764 7.613C19.5764 3.47796 15.4051 0.0683594 10.2907 0.0683594ZM10.2907 13.4166C9.31133 13.4166 8.33197 13.2715 7.42517 12.9813L6.5909 12.7274L5.90173 13.2352C5.39392 13.5979 4.66847 13.9969 3.79793 14.2871C4.08811 13.8518 4.34202 13.344 4.52338 12.8362L4.92238 11.8206L4.16066 11.0226C3.50776 10.3334 2.74604 9.17271 2.74604 7.613C2.74604 4.42104 6.11936 1.80943 10.2907 1.80943C14.4257 1.80943 17.8353 4.42104 17.8353 7.613C17.8353 10.8412 14.4257 13.4166 10.2907 13.4166Z" fill="#999999"/>
</svg>
