<svg width="29" height="21" viewBox="0 0 29 21" fill="none" xmlns="http://www.w3.org/2000/svg">
<path d="M24.2232 9.33036C24.4018 8.83929 24.5357 8.34821 24.5357 7.76786C24.5357 5.40179 22.6161 3.48214 20.25 3.48214C19.3571 3.48214 18.5089 3.75 17.8393 4.24107C16.6339 2.09821 14.3125 0.625 11.6786 0.625C7.70536 0.625 4.53571 3.83929 4.53571 7.76786C4.53571 7.90179 4.53571 8.03571 4.53571 8.16964C2.03571 9.01786 0.25 11.4286 0.25 14.1964C0.25 17.7679 3.10714 20.625 6.67857 20.625H23.1071C26.2321 20.625 28.8214 18.0804 28.8214 14.9107C28.8214 12.1875 26.8571 9.86607 24.2232 9.33036ZM17.9732 12.1875L17.4821 12.6786C17.0804 13.0804 16.3661 13.0804 15.9643 12.6339L14.5357 11.1161V16.6964C14.5357 17.3214 14.0446 17.7679 13.4643 17.7679H12.75C12.125 17.7679 11.6786 17.3214 11.6786 16.6964V11.1161L10.2054 12.6339C9.80357 13.0804 9.08929 13.0804 8.6875 12.6786L8.19643 12.1875C7.75 11.7411 7.75 11.0714 8.19643 10.6696L12.3482 6.51786C12.75 6.11607 13.4196 6.11607 13.8214 6.51786L17.9732 10.6696C18.4196 11.0714 18.4196 11.7411 17.9732 12.1875Z" fill="#F4266E"/>
</svg>
