<svg width="11" height="13" viewBox="0 0 11 13" fill="none" xmlns="http://www.w3.org/2000/svg">
<path d="M10.7054 4.0625C10.8527 4.0625 11 3.93555 11 3.75781V2.74219C11 2.58984 10.8527 2.4375 10.7054 2.4375H10.2143V1.21875C10.2143 0.558594 9.67411 0 9.03571 0H1.17857C0.515625 0 0 0.558594 0 1.21875V11.7812C0 12.4668 0.515625 13 1.17857 13H9.03571C9.67411 13 10.2143 12.4668 10.2143 11.7812V10.5625H10.7054C10.8527 10.5625 11 10.4355 11 10.2578V9.24219C11 9.08984 10.8527 8.9375 10.7054 8.9375H10.2143V7.3125H10.7054C10.8527 7.3125 11 7.18555 11 7.00781V5.99219C11 5.83984 10.8527 5.6875 10.7054 5.6875H10.2143V4.0625H10.7054ZM5.10714 3.25C5.96652 3.25 6.67857 3.98633 6.67857 4.875C6.67857 5.78906 5.96652 6.5 5.10714 6.5C4.22321 6.5 3.53571 5.78906 3.53571 4.875C3.53571 3.98633 4.22321 3.25 5.10714 3.25ZM7.85714 9.26758C7.85714 9.54688 7.61161 9.75 7.29241 9.75H2.89732C2.60268 9.75 2.35714 9.54688 2.35714 9.26758V8.78516C2.35714 7.97266 3.09375 7.3125 4.00223 7.3125H4.125C4.41964 7.46484 4.73884 7.51562 5.10714 7.51562C5.45089 7.51562 5.77009 7.46484 6.06473 7.3125H6.1875C7.09598 7.3125 7.85714 7.97266 7.85714 8.78516V9.26758Z" fill="#F4266E"/>
</svg>
