<svg width="11" height="12" viewBox="0 0 11 12" fill="none" xmlns="http://www.w3.org/2000/svg">
<path d="M10.1484 1.54688L8.95312 0.351562C8.76562 0.164062 8.41406 0 8.15625 0H4.125C3.49219 0 3 0.515625 3 1.125V2.25H1.125C0.492188 2.25 0 2.76562 0 3.375V10.875C0 11.5078 0.492188 12 1.125 12H6.375C6.98438 12 7.5 11.5078 7.5 10.875V9.75H9.375C9.98438 9.75 10.5 9.25781 10.5 8.625V2.34375C10.5 2.08594 10.3359 1.73438 10.1484 1.54688ZM6.23438 10.875H1.26562C1.17188 10.875 1.125 10.8281 1.125 10.7344V3.51562C1.125 3.44531 1.17188 3.375 1.26562 3.375H3V8.625C3 9.25781 3.49219 9.75 4.125 9.75H6.375V10.7344C6.375 10.8281 6.30469 10.875 6.23438 10.875ZM9.23438 8.625H4.26562C4.17188 8.625 4.125 8.57812 4.125 8.48438V1.26562C4.125 1.19531 4.17188 1.125 4.26562 1.125H6.75V3.1875C6.75 3.51562 6.98438 3.75 7.3125 3.75H9.375V8.48438C9.375 8.57812 9.30469 8.625 9.23438 8.625ZM9.375 2.625H7.875V1.125H8.08594C8.13281 1.125 8.15625 1.14844 8.17969 1.17188L9.32812 2.32031C9.35156 2.34375 9.375 2.36719 9.375 2.41406V2.625Z" fill="#9A9A9A"/>
</svg>
