<svg width="13" height="14" viewBox="0 0 13 14" fill="none" xmlns="http://www.w3.org/2000/svg">
<path d="M0.909091 12.6875C0.909091 13.4258 1.50568 14 2.27273 14H10.4545C11.1932 14 11.8182 13.4258 11.8182 12.6875V3.5H0.909091V12.6875ZM8.63636 5.6875C8.63636 5.46875 8.83523 5.25 9.09091 5.25C9.31818 5.25 9.54545 5.46875 9.54545 5.6875V11.8125C9.54545 12.0586 9.31818 12.25 9.09091 12.25C8.83523 12.25 8.63636 12.0586 8.63636 11.8125V5.6875ZM5.90909 5.6875C5.90909 5.46875 6.10795 5.25 6.36364 5.25C6.59091 5.25 6.81818 5.46875 6.81818 5.6875V11.8125C6.81818 12.0586 6.59091 12.25 6.36364 12.25C6.10795 12.25 5.90909 12.0586 5.90909 11.8125V5.6875ZM3.18182 5.6875C3.18182 5.46875 3.38068 5.25 3.63636 5.25C3.86364 5.25 4.09091 5.46875 4.09091 5.6875V11.8125C4.09091 12.0586 3.86364 12.25 3.63636 12.25C3.38068 12.25 3.18182 12.0586 3.18182 11.8125V5.6875ZM12.2727 0.875H8.86364L8.57955 0.382812C8.46591 0.164062 8.21023 0 7.98295 0H4.71591C4.48864 0 4.20455 0.164062 4.11932 0.382812L3.86364 0.875H0.454545C0.198864 0.875 0 1.09375 0 1.3125V2.1875C0 2.43359 0.198864 2.625 0.454545 2.625H12.2727C12.5 2.625 12.7273 2.43359 12.7273 2.1875V1.3125C12.7273 1.09375 12.5 0.875 12.2727 0.875Z" fill="#02122F"/>
</svg>
