<svg width="13" height="13" viewBox="0 0 13 13" fill="none" xmlns="http://www.w3.org/2000/svg">
<path d="M12.1875 4.0625V1.98047C12.1621 1.77734 12.0605 1.52344 11.9336 1.39648L10.791 0.253906C10.6641 0.126953 10.4102 0.0253906 10.207 0H4.0625C3.60547 0 3.25 0.380859 3.25 0.8125V12.1875C3.25 12.6445 3.60547 13 4.0625 13H12.1875C12.6191 13 13 12.6445 13 12.1875V4.875C13 4.44336 12.6191 4.0625 12.1875 4.0625ZM7.3125 10.9688C7.3125 11.1973 7.10938 11.375 6.90625 11.375H6.09375C5.86523 11.375 5.6875 11.1973 5.6875 10.9688V10.1562C5.6875 9.95312 5.86523 9.75 6.09375 9.75H6.90625C7.10938 9.75 7.3125 9.95312 7.3125 10.1562V10.9688ZM7.3125 7.71875C7.3125 7.94727 7.10938 8.125 6.90625 8.125H6.09375C5.86523 8.125 5.6875 7.94727 5.6875 7.71875V6.90625C5.6875 6.70312 5.86523 6.5 6.09375 6.5H6.90625C7.10938 6.5 7.3125 6.70312 7.3125 6.90625V7.71875ZM10.5625 10.9688C10.5625 11.1973 10.3594 11.375 10.1562 11.375H9.34375C9.11523 11.375 8.9375 11.1973 8.9375 10.9688V10.1562C8.9375 9.95312 9.11523 9.75 9.34375 9.75H10.1562C10.3594 9.75 10.5625 9.95312 10.5625 10.1562V10.9688ZM10.5625 7.71875C10.5625 7.94727 10.3594 8.125 10.1562 8.125H9.34375C9.11523 8.125 8.9375 7.94727 8.9375 7.71875V6.90625C8.9375 6.70312 9.11523 6.5 9.34375 6.5H10.1562C10.3594 6.5 10.5625 6.70312 10.5625 6.90625V7.71875ZM10.5625 4.875H4.875V1.625H8.9375V2.84375C8.9375 3.07227 9.11523 3.25 9.34375 3.25H10.5625V4.875ZM1.625 3.25H0.8125C0.355469 3.25 0 3.63086 0 4.0625V12.1875C0 12.6445 0.355469 13 0.8125 13H1.625C2.05664 13 2.4375 12.6445 2.4375 12.1875V4.0625C2.4375 3.63086 2.05664 3.25 1.625 3.25Z" fill="white"/>
</svg>
