<svg width="17" height="22" viewBox="0 0 17 22" fill="none" xmlns="http://www.w3.org/2000/svg">
<path d="M15.8555 4.21094L12.2891 0.601562C11.9023 0.214844 11.3438 0 10.8281 0H2.0625C0.902344 0 0 0.945312 0 2.0625V19.9375C0 21.0977 0.902344 22 2.0625 22H14.4375C15.5547 22 16.5 21.0977 16.5 19.9375V5.67188C16.5 5.15625 16.2422 4.59766 15.8555 4.21094ZM14.9102 5.19922C14.9961 5.28516 15.0391 5.41406 15.082 5.5H11V1.41797C11.0859 1.46094 11.2148 1.50391 11.3008 1.58984L14.9102 5.19922ZM14.4375 20.625H2.0625C1.67578 20.625 1.375 20.3242 1.375 19.9375V2.0625C1.375 1.71875 1.67578 1.375 2.0625 1.375H9.625V5.84375C9.625 6.44531 10.0547 6.875 10.6562 6.875H15.125V19.9375C15.125 20.3242 14.7812 20.625 14.4375 20.625ZM13.4922 13.2773C12.8906 12.7188 11.1289 12.8906 10.3125 13.0195C9.41016 12.4609 8.80859 11.6875 8.37891 10.5703C8.55078 9.79688 8.89453 8.55078 8.63672 7.77734C8.46484 6.57422 6.91797 6.70312 6.74609 7.47656C6.53125 8.29297 6.70312 9.41016 7.08984 10.8281C6.57422 12.0312 5.80078 13.707 5.28516 14.6523C4.38281 15.082 2.96484 15.8984 2.75 16.8867C2.62109 17.6172 3.73828 18.5625 5.02734 17.1445C5.41406 16.7578 5.84375 16.1133 6.35938 15.2109C7.51953 14.8242 8.80859 14.3516 9.88281 14.1797C10.8281 14.6953 11.9453 15.0391 12.6758 15.0391C13.8789 15.0391 13.9219 13.75 13.4922 13.2773ZM3.60938 17.1016C3.86719 16.4141 4.85547 15.6406 5.15625 15.3398C4.21094 16.8867 3.60938 17.1445 3.60938 17.1016ZM7.73438 7.5625C8.07812 7.5625 8.03516 9.15234 7.82031 9.625C7.5625 8.89453 7.60547 7.5625 7.73438 7.5625ZM6.48828 14.3945C6.96094 13.5352 7.39062 12.5469 7.73438 11.6875C8.16406 12.418 8.67969 13.0195 9.23828 13.4492C8.20703 13.6641 7.30469 14.0938 6.48828 14.3945ZM13.1055 14.1367C13.1055 14.1367 12.8477 14.4375 11.2148 13.75C12.9766 13.6211 13.2773 14.0508 13.1055 14.1367Z" fill="#9A9A9A"/>
</svg>
