<svg width="27" height="27" viewBox="0 0 27 27" fill="none" xmlns="http://www.w3.org/2000/svg">
<path d="M21.475 25.9947H1.04321V1.00208H13.7L21.475 8.55117V25.9947Z" fill="white"/>
<path d="M21.4784 26.9972H1.04315C0.766486 26.9972 0.501152 26.8905 0.305524 26.7007C0.109896 26.5108 0 26.2533 0 25.9848V1.0124C0 0.743892 0.109896 0.486384 0.305524 0.296523C0.501152 0.106662 0.766486 0 1.04315 0H13.7C13.9766 0.000236296 14.2417 0.107056 14.4371 0.296971L22.2155 7.84269C22.4112 8.03237 22.5213 8.2897 22.5215 8.55812V25.9848C22.5215 26.2533 22.4116 26.5108 22.216 26.7007C22.0204 26.8905 21.755 26.9972 21.4784 26.9972ZM2.08629 24.9724H20.4352V8.96983L13.2827 2.02479H2.08629V24.9724Z" fill="#434E69"/>
<path d="M17.7506 13.5593H4.77044C4.49378 13.5593 4.22845 13.4527 4.03282 13.2628C3.83719 13.073 3.72729 12.8154 3.72729 12.5469C3.72729 12.2784 3.83719 12.0209 4.03282 11.8311C4.22845 11.6412 4.49378 11.5345 4.77044 11.5345H17.7506C18.0273 11.5345 18.2926 11.6412 18.4882 11.8311C18.6839 12.0209 18.7938 12.2784 18.7938 12.5469C18.7938 12.8154 18.6839 13.073 18.4882 13.2628C18.2926 13.4527 18.0273 13.5593 17.7506 13.5593Z" fill="#434E69"/>
<path d="M17.7506 17.3051H4.77044C4.49378 17.3051 4.22845 17.1984 4.03282 17.0085C3.83719 16.8187 3.72729 16.5612 3.72729 16.2927C3.72729 16.0242 3.83719 15.7667 4.03282 15.5768C4.22845 15.3869 4.49378 15.2803 4.77044 15.2803H17.7506C18.0273 15.2803 18.2926 15.3869 18.4882 15.5768C18.6839 15.7667 18.7938 16.0242 18.7938 16.2927C18.7938 16.5612 18.6839 16.8187 18.4882 17.0085C18.2926 17.1984 18.0273 17.3051 17.7506 17.3051Z" fill="#434E69"/>
<path d="M12.7088 21.0509H4.77044C4.49378 21.0509 4.22845 20.9442 4.03282 20.7544C3.83719 20.5645 3.72729 20.307 3.72729 20.0385C3.72729 19.77 3.83719 19.5125 4.03282 19.3226C4.22845 19.1328 4.49378 19.0261 4.77044 19.0261H12.7088C12.9854 19.0261 13.2508 19.1328 13.4464 19.3226C13.642 19.5125 13.7519 19.77 13.7519 20.0385C13.7519 20.307 13.642 20.5645 13.4464 20.7544C13.2508 20.9442 12.9854 21.0509 12.7088 21.0509Z" fill="#434E69"/>
<path d="M21.4785 9.5603H13.7001C13.4235 9.5603 13.1581 9.45364 12.9625 9.26377C12.7669 9.07391 12.657 8.81641 12.657 8.5479V1.0123C12.657 0.812239 12.7182 0.616678 12.8327 0.450308C12.9471 0.283937 13.1099 0.154214 13.3002 0.0775232C13.4909 0.000837916 13.7007 -0.0192511 13.903 0.0197942C14.1054 0.0588396 14.2914 0.155268 14.4373 0.296879L22.2157 7.8426C22.3616 7.98422 22.4609 8.16465 22.5012 8.36108C22.5414 8.55751 22.5207 8.7611 22.4417 8.94611C22.3611 9.129 22.2267 9.28479 22.0554 9.39402C21.8841 9.50325 21.6835 9.56108 21.4785 9.5603ZM14.7433 7.53551H18.9576L14.7433 3.44543V7.53551Z" fill="#434E69"/>
<path d="M24.0862 10.0936L15.8489 21.23L15.8871 22.9173L17.5457 22.4111L25.7796 11.2747C25.8596 11.1667 25.9169 11.0443 25.9482 10.9147C25.9794 10.7851 25.9841 10.6508 25.9618 10.5195C25.9395 10.3881 25.8907 10.2624 25.8183 10.1493C25.7459 10.0363 25.6512 9.93825 25.5397 9.86077C25.315 9.70497 25.0358 9.64199 24.7634 9.68564C24.4909 9.72929 24.2474 9.876 24.0862 10.0936Z" fill="#434E69"/>
<path d="M24.9347 9.6717C25.1517 9.67208 25.3632 9.73814 25.5397 9.86068C25.6513 9.93815 25.7459 10.0362 25.8184 10.1492C25.8908 10.2623 25.9395 10.388 25.9618 10.5194C25.9841 10.6507 25.9795 10.785 25.9482 10.9146C25.917 11.0442 25.8597 11.1666 25.7797 11.2747L17.5458 22.411L15.8872 22.9172L15.8489 21.2299L24.0863 10.0935C24.183 9.96285 24.3104 9.85641 24.458 9.78305C24.6055 9.70969 24.7689 9.67152 24.9347 9.6717ZM24.9347 8.6593C24.6032 8.65895 24.2763 8.73529 23.9812 8.88201C23.6861 9.02873 23.4313 9.2416 23.2379 9.50297L15.004 20.6393L14.7988 20.9127V21.2501L14.8371 22.9375L14.8649 24.2873L16.1932 23.8823L17.8518 23.3762L18.1821 23.2749L18.3838 23.0016L26.6211 11.8652C26.9389 11.4259 27.064 10.8821 26.9689 10.3534C26.8792 9.82377 26.5765 9.35039 26.1274 9.03726C25.7734 8.79151 25.3491 8.65936 24.9139 8.6593H24.9347Z" fill="white"/>
<path d="M23.5524 10.4245L22.9441 11.2467L25.11 12.7561L25.7183 11.9339L23.5524 10.4245Z" fill="white"/>
</svg>
