<svg width="126.91" height="126.91" version="1.1" viewBox="0 0 33.578 33.578" xmlns="http://www.w3.org/2000/svg">
 <g transform="translate(-107.38 -106)">
  <g transform="matrix(.26458 0 0 .26458 107.32 106)" style="fill:none">
   <path d="m63.675 0c-35.046 0-63.454 28.409-63.454 63.454 0 35.046 28.409 63.454 63.454 63.454 35.046 0 63.455-28.409 63.455-63.454 0-35.046-28.409-63.454-63.455-63.454zm0 123.48c-33.099 0-60.025-26.925-60.025-60.024 0-33.099 26.925-60.025 60.025-60.025 33.099 0 60.025 26.925 60.025 60.025 0 33.099-26.926 60.024-60.025 60.024z" fill="#1aba17"/>
  </g>
  <g transform="matrix(.26458 0 0 .26458 117.38 117.74)" style="fill:none">
   <path d="m15.6 32.963-12.511-12.502-2.4181 2.4181 14.929 14.938 35.08-35.089-2.4181-2.4181z" fill="#1aba17"/>
  </g>
 </g>
</svg>
