<svg width="21" height="18" viewBox="0 0 21 18" fill="none" xmlns="http://www.w3.org/2000/svg">
<path d="M17.011 10.362L16.5776 10.1144C16.4228 10.1298 16.268 10.1608 16.1133 10.1608C15.3858 10.1608 14.7048 10.006 14.0858 9.77386C14.0393 10.006 13.9929 10.2691 13.931 10.5942L15.5251 11.5073C15.293 12.1419 14.7358 13.1169 14.3024 13.6432L12.7083 12.7145C11.5475 13.7206 11.3772 13.7979 9.95334 14.3087V16.1505C9.61284 16.2124 9.05566 16.2588 8.71516 16.2588C8.37466 16.2588 7.83296 16.2124 7.49246 16.1505V14.3087C6.06856 13.7979 5.89831 13.7206 4.73752 12.7145L3.14336 13.6432C2.69453 13.1169 2.15282 12.1419 1.92066 11.4918L3.49934 10.5787C3.22075 9.07739 3.22075 8.89166 3.49934 7.39037L1.92066 6.49269C2.19925 5.71883 2.61714 4.9914 3.14336 4.35684L4.73752 5.28547C5.89831 4.29493 6.06856 4.18659 7.49246 3.69132V1.84953C7.83296 1.78762 8.37466 1.74119 8.71516 1.74119C9.05566 1.74119 9.61284 1.78762 9.95334 1.84953V3.69132C10.17 3.7687 10.3403 3.83061 10.5105 3.89252C10.6343 2.82459 11.0367 1.84953 11.6713 1.01376C11.6094 0.704213 11.3618 0.394669 11.0367 0.301806C9.51998 -0.100602 7.91035 -0.100602 6.39358 0.301806C6.02213 0.410146 5.75901 0.750645 5.75901 1.15305V2.46862C5.40304 2.62339 4.87681 2.93293 4.55179 3.14961L3.40648 2.49957C3.06598 2.31384 2.63262 2.36028 2.35403 2.63887C1.25514 3.73775 0.45033 5.11522 0.0324447 6.66294C-0.0758958 7.04987 0.0943536 7.45228 0.434852 7.63801L1.59564 8.30353C1.58017 8.50473 1.56469 8.81427 1.56469 9C1.56469 9.18573 1.58017 9.49527 1.59564 9.69648L0.434852 10.362C0.0943536 10.5477 -0.0758958 10.9501 0.0324447 11.3371C0.45033 12.8848 1.25514 14.2623 2.35403 15.3611C2.63262 15.6397 3.06598 15.6862 3.40648 15.5004L4.55179 14.8349C4.87681 15.0516 5.40304 15.3611 5.75901 15.5159V16.8469C5.75901 17.2184 6.0376 17.6053 6.39358 17.6982C7.91035 18.1006 9.51998 18.1006 11.0367 17.6982C11.4237 17.5899 11.6868 17.2494 11.6868 16.8469V15.5159C12.0428 15.3611 12.569 15.0516 12.8785 14.8349L14.0393 15.5004C14.3798 15.6862 14.8132 15.6397 15.0918 15.3611C16.1752 14.2623 16.9955 12.8848 17.4134 11.3371C17.5062 10.9501 17.3514 10.5477 17.011 10.362Z" fill="#9A9A9A"/>
<path d="M8.7148 5.5177C6.79562 5.5177 5.23242 7.0809 5.23242 9.00007C5.23242 10.9192 6.79562 12.4824 8.7148 12.4824C10.634 12.4824 12.1972 10.9192 12.1972 9.00007C12.1972 8.8453 12.1817 8.69053 12.1507 8.53576C11.4852 7.88571 11.0054 7.06542 10.7268 6.16774C10.1542 5.76534 9.47318 5.5177 8.7148 5.5177ZM8.7148 10.749C7.75521 10.749 6.98135 9.95966 6.98135 9.00007C6.98135 8.04049 7.75521 7.26663 8.7148 7.26663C9.67438 7.26663 10.4637 8.04049 10.4637 9.00007C10.4637 9.94418 9.67438 10.749 8.7148 10.749Z" fill="#9A9A9A"/>
<path d="M11.6384 4.92944C11.6229 4.77467 11.6074 4.63538 11.6074 4.49608C11.6074 4.65086 11.6229 4.79015 11.6384 4.94492C11.6384 5.00683 11.6384 5.08422 11.6539 5.14613C11.7622 5.91999 12.0872 6.63194 12.5515 7.22007C12.9694 7.76178 13.4956 8.21061 14.1147 8.52016C14.4398 8.67493 14.7957 8.78327 15.1517 8.86066C15.3839 8.90709 15.616 8.95352 15.8482 8.969C15.616 8.95352 15.3993 8.90709 15.1672 8.86066C15.3839 8.90709 15.616 8.95352 15.8482 8.969C15.941 8.98448 16.0184 8.99995 16.1113 8.99995C17.3495 8.99995 18.4638 8.50468 19.2841 7.68439C20.1044 6.8641 20.5997 5.74974 20.5997 4.49608C20.5997 2.01973 18.5876 0.00769043 16.1113 0.00769043C14.8731 0.00769043 13.7433 0.518439 12.923 1.32325C12.1182 2.11259 11.6074 3.24243 11.6074 4.49608C11.6074 4.63538 11.6229 4.77467 11.6384 4.92944ZM11.6539 5.13065C11.7622 5.88903 12.0717 6.57003 12.5051 7.15816C12.0717 6.57003 11.7622 5.88903 11.6539 5.13065ZM15.5232 1.89591C15.5232 1.72566 15.6625 1.60184 15.8172 1.60184H16.3899C16.5601 1.60184 16.6839 1.72566 16.6839 1.89591V4.49608L17.7364 5.26994C17.7983 5.31638 17.8447 5.42472 17.8447 5.5021C17.8447 5.54853 17.8138 5.6414 17.7828 5.68783L17.4269 6.13667C17.3649 6.19858 17.2721 6.24501 17.1947 6.24501C17.1328 6.24501 17.0554 6.21405 17.009 6.1831L15.8017 5.28542C15.647 5.1616 15.5232 4.89849 15.5232 4.71276V1.89591Z" fill="#9A9A9A"/>
</svg>
