<svg width="22" height="20" viewBox="0 0 22 20" fill="none" xmlns="http://www.w3.org/2000/svg">
<path d="M10.9442 8.73816C10.3276 8.06137 9.45527 7.64026 8.47769 7.64026C6.61276 7.64026 5.09375 9.15927 5.09375 11.0242C5.09375 12.8891 6.61276 14.4081 8.47769 14.4081C10.3426 14.4081 11.8616 12.8891 11.8616 11.0242C11.8616 10.5429 11.7563 10.0917 11.5759 9.68566C11.2751 9.44503 11.0495 9.11415 10.9442 8.73816ZM8.47769 12.7237C7.54523 12.7237 6.7782 11.9567 6.7782 11.0242C6.7782 10.0917 7.54523 9.33975 8.47769 9.33975C9.41015 9.33975 10.1621 10.0917 10.1621 11.0242C10.1621 11.9567 9.41015 12.7237 8.47769 12.7237Z" fill="#9A9A9A"/>
<path d="M16.5244 12.3474L15.3964 11.7007C15.3964 11.6857 15.3964 11.6857 15.3964 11.6857C14.855 11.3097 14.4489 10.7532 14.3286 10.0915H13.6518C13.8022 11.0089 13.7721 11.3548 13.5465 12.573L15.0806 13.4604C14.855 14.092 14.3286 15.0245 13.8924 15.5358L12.3433 14.6335C11.2154 15.611 11.0499 15.7013 9.66626 16.1826V17.9723C9.33539 18.0324 8.809 18.0776 8.47812 18.0776C8.14725 18.0776 7.60582 18.0324 7.27494 17.9723V16.1826C5.89129 15.7013 5.72585 15.611 4.59787 14.6335L3.04878 15.5358C2.62766 15.0245 2.08624 14.092 1.86064 13.4604L3.40973 12.573C3.13902 11.1142 3.13902 10.9337 3.40973 9.47483L1.86064 8.58749C2.13135 7.8355 2.53743 7.12863 3.04878 6.512L4.59787 7.41439C5.72585 6.45185 5.89129 6.34657 7.27494 5.8653V4.07557C7.60582 4.01541 8.14725 3.97029 8.47812 3.97029C8.809 3.97029 9.33539 4.01541 9.66626 4.07557V5.8653C10.6589 6.21121 11.0349 6.36161 11.5763 6.78272C11.847 6.48193 12.1027 6.06081 12.1929 5.15843C11.9222 4.97795 11.6064 4.79747 11.3507 4.6922V3.39878C11.3507 3.03783 11.08 2.66183 10.7341 2.5716C9.26019 2.18056 7.69605 2.18056 6.22216 2.5716C5.84617 2.67687 5.59049 3.00775 5.59049 3.39878V4.6922C5.24458 4.84259 4.73323 5.14339 4.43243 5.35395L3.30445 4.70724C2.97358 4.52676 2.55247 4.57188 2.28175 4.84259C1.22897 5.91042 0.431863 7.24895 0.0257907 8.75292C-0.0644477 9.12892 0.08595 9.51995 0.416824 9.70043L1.5448 10.3471C1.52976 10.5427 1.51473 10.8434 1.51473 11.0239C1.51473 11.2044 1.52976 11.5052 1.5448 11.7007L0.416824 12.3474C0.08595 12.5279 -0.0644477 12.9189 0.0257907 13.2949C0.431863 14.7989 1.22897 16.1374 2.28175 17.2053C2.55247 17.476 2.97358 17.5211 3.30445 17.3406L4.43243 16.6939C4.73323 16.9045 5.24458 17.2053 5.59049 17.3556V18.6491C5.59049 19.01 5.87625 19.386 6.22216 19.4763C7.69605 19.8673 9.26019 19.8673 10.7341 19.4763C11.095 19.371 11.3507 19.0401 11.3507 18.6491V17.3556C11.6966 17.2053 12.208 16.9045 12.5088 16.6939L13.6367 17.3406C13.9676 17.5211 14.3887 17.476 14.6595 17.2053C15.7273 16.1374 16.5093 14.7989 16.9154 13.2949C17.0207 12.9189 16.8553 12.5279 16.5244 12.3474Z" fill="#9A9A9A"/>
<path d="M21.5778 8.03122C21.5477 7.94098 21.5026 7.86578 21.4424 7.80562C21.1717 7.51987 20.7807 7.15891 20.5099 6.37685C20.4648 6.22645 20.4047 6.06101 20.3746 5.86549C20.2844 5.4895 20.2392 5.03831 20.2392 4.48184C20.2392 3.85017 20.0738 3.27866 19.788 2.78235C19.3068 1.94013 18.4796 1.35358 17.487 1.14302V0.691828C17.487 0.601589 17.4719 0.511351 17.4418 0.421112C17.3366 0.180477 17.0809 0 16.7951 0C16.7049 0 16.6147 0.0150397 16.5244 0.0601589C16.4492 0.0902384 16.374 0.150397 16.3139 0.210556C16.1935 0.330874 16.1183 0.511351 16.1183 0.691828V1.14302C15.1257 1.35358 14.2985 1.94013 13.8173 2.78235C13.5315 3.27866 13.3661 3.85017 13.3661 4.48184C13.3661 4.63224 13.351 4.75255 13.336 4.88791C13.321 5.24887 13.2909 5.59478 13.2307 5.86549C13.1856 6.06101 13.1405 6.22645 13.0954 6.37685C12.8246 7.15891 12.4186 7.51987 12.1629 7.80562C12.0426 7.94098 11.9824 8.10641 11.9824 8.27185C11.9824 8.45233 12.0576 8.61777 12.1779 8.75312C12.2983 8.87344 12.4637 8.96368 12.6743 8.96368H20.9311C21.2469 8.96368 21.4725 8.76816 21.5778 8.52753C21.6078 8.45233 21.6229 8.36209 21.6229 8.27185C21.6229 8.18161 21.6078 8.10641 21.5778 8.03122Z" fill="#9A9A9A"/>
<path d="M16.7963 11.024C17.5634 11.024 18.18 10.4074 18.18 9.64038H15.4277C15.4277 10.4074 16.0444 11.024 16.7963 11.024Z" fill="#9A9A9A"/>
</svg>
