<svg width="14" height="14" viewBox="0 0 14 14" fill="none" xmlns="http://www.w3.org/2000/svg">
<path d="M13.5625 6.78125C13.5625 3.0625 10.5 0 6.78125 0C3.03516 0 0 3.0625 0 6.78125C0 10.5273 3.03516 13.5625 6.78125 13.5625C10.5 13.5625 13.5625 10.5273 13.5625 6.78125ZM5.98828 10.3906C5.82422 10.5547 5.52344 10.5547 5.35938 10.3906L2.51562 7.54688C2.35156 7.38281 2.35156 7.08203 2.51562 6.91797L3.14453 6.31641C3.30859 6.125 3.58203 6.125 3.74609 6.31641L5.6875 8.23047L9.78906 4.12891C9.95312 3.9375 10.2266 3.9375 10.3906 4.12891L11.0195 4.73047C11.1836 4.89453 11.1836 5.19531 11.0195 5.35938L5.98828 10.3906Z" fill="#3BAA53"/>
</svg>
