<svg width="34" height="34" viewBox="0 0 34 34" fill="none" xmlns="http://www.w3.org/2000/svg">
<circle cx="17" cy="17" r="17" fill="#1ABA17"/>
<path d="M11.7529 11.1503L14.053 10.5429C14.2963 10.467 14.5617 10.6188 14.6723 10.8972L15.7339 13.7319C15.8224 13.9849 15.756 14.2633 15.5791 14.4405L14.23 15.706C15.0262 17.6294 16.4195 19.2492 18.1446 20.1856L19.2505 18.6418C19.4053 18.4393 19.6486 18.3634 19.8698 18.4646L22.3468 19.6795C22.5901 19.806 22.7007 20.1097 22.6565 20.3881L22.1257 23.0203C22.0593 23.2987 21.8603 23.4758 21.5949 23.4758C15.933 23.4758 11.3327 18.2369 11.3327 11.7324C11.3327 11.454 11.5096 11.2263 11.7529 11.1503Z" fill="white"/>
</svg>
