<svg width="11" height="10" viewBox="0 0 11 10" fill="none" xmlns="http://www.w3.org/2000/svg">
<path d="M6.88402 4.72656L5.80993 6.95871C5.68104 7.22656 5.31584 7.20424 5.18695 6.93638L3.96248 4.12388L3.31803 5.70871H1.29873L5.22992 9.88281C5.38029 10.0391 5.61659 10.0391 5.76696 9.88281L9.69815 5.70871H7.35663L6.88402 4.72656ZM10.1708 0.93192L10.1278 0.887277C9.01073 -0.295759 7.20625 -0.295759 6.08919 0.887277L5.50918 1.51228L4.90769 0.887277C3.79063 -0.295759 1.98615 -0.295759 0.869087 0.887277L0.826123 0.93192C-0.226491 2.04799 -0.269455 3.81138 0.675749 4.99442H2.8669L3.64025 3.07478C3.74766 2.7846 4.13434 2.7846 4.26323 3.07478L5.50918 5.95424L6.56179 3.76674C6.69069 3.49888 7.05588 3.49888 7.18477 3.76674L7.78626 4.99442H10.3426C11.2663 3.81138 11.2234 2.04799 10.1708 0.93192Z" fill="#F4266E"/>
</svg>
