<svg width="8" height="11" viewBox="0 0 8 11" fill="none" xmlns="http://www.w3.org/2000/svg">
<path d="M7.1875 1.1875H7.26562C7.38281 1.1875 7.5 1.08984 7.5 0.953125V0.484375C7.5 0.367188 7.38281 0.25 7.26562 0.25H0.234375C0.0976562 0.25 0 0.367188 0 0.484375V0.953125C0 1.08984 0.0976562 1.1875 0.234375 1.1875H0.3125C0.3125 2.76953 0.9375 4.42969 2.20703 5.25C0.917969 6.08984 0.3125 7.75 0.3125 9.3125H0.234375C0.0976562 9.3125 0 9.42969 0 9.54688V10.0156C0 10.1523 0.0976562 10.25 0.234375 10.25H7.26562C7.38281 10.25 7.5 10.1523 7.5 10.0156V9.54688C7.5 9.42969 7.38281 9.3125 7.26562 9.3125H7.1875C7.1875 7.75 6.54297 6.08984 5.27344 5.25C6.5625 4.42969 7.1875 2.76953 7.1875 1.1875ZM6.25 1.1875C6.25 1.75391 6.15234 2.28125 5.99609 2.75H1.48438C1.32812 2.28125 1.25 1.75391 1.25 1.1875H6.25ZM5.99609 7.75H1.48438C1.89453 6.55859 2.75391 5.71875 3.75 5.71875C4.72656 5.71875 5.58594 6.55859 5.99609 7.75Z" fill="current"/>
</svg>
