<svg width="16" height="16" viewBox="0 0 16 16" fill="none" xmlns="http://www.w3.org/2000/svg">
<path d="M7.00929 12.2517L7.00919 12.2516L7.00672 12.2546C6.83331 12.4615 6.51544 12.4615 6.34203 12.2546L6.34214 12.2545L6.33946 12.2517L2.98731 8.82297C2.81291 8.64459 2.81291 8.34594 2.98731 8.16756L3.72865 7.40928C3.90243 7.23152 4.19247 7.23152 4.36625 7.40928L4.3665 7.40953L6.65499 9.71736L6.69074 9.75342L6.72624 9.7171L11.5611 4.77176C11.7349 4.59401 12.0249 4.59401 12.1987 4.77176L12.94 5.53004C13.1144 5.70843 13.1144 6.00707 12.94 6.18545L7.00929 12.2517ZM13.6526 15.5677C14.5187 15.5677 15.2498 14.8525 15.2498 13.9351V2.33007C15.2498 1.44633 14.5194 0.697559 13.6526 0.697559H2.30691C1.4073 0.697559 0.709766 1.44702 0.709766 2.33007V13.9351C0.709766 14.8519 1.40797 15.5677 2.30691 15.5677H13.6526Z" fill="#D3D3D5" stroke="white" stroke-width="0.1"/>
</svg>
