<svg width="28" height="28" viewBox="0 0 28 28" fill="none" xmlns="http://www.w3.org/2000/svg">
<circle cx="14" cy="14" r="14" fill="#B4B4B4"/>
<path d="M13.3889 14.3125C15.6691 14.3125 17.5451 12.4653 17.5451 10.1562C17.5451 7.87609 15.6691 6 13.3889 6C11.0799 6 9.23264 7.87609 9.23264 10.1562C9.23264 12.4653 11.0799 14.3125 13.3889 14.3125ZM17.0833 15.2361H15.467C14.832 15.5536 14.1393 15.6979 13.3889 15.6979C12.6385 15.6979 11.9169 15.5536 11.2819 15.2361H9.69444C7.64518 15.2361 6 16.9102 6 18.9306V19.3924C6 20.1717 6.60612 20.7778 7.38542 20.7778H19.3924C20.1428 20.7778 20.7778 20.1717 20.7778 19.3924V18.9306C20.7778 16.9102 19.1037 15.2361 17.0833 15.2361Z" fill="white"/>
<circle cx="18.5" cy="20.5" r="4.5" fill="#B4B4B4"/>
<path d="M18.5 17.125C16.6391 17.125 15.125 18.6391 15.125 20.5C15.125 22.3609 16.6391 23.875 18.5 23.875C20.3609 23.875 21.875 22.3609 21.875 20.5C21.875 18.6391 20.3609 17.125 18.5 17.125ZM18.5 23.0312C17.1043 23.0312 15.9688 21.8957 15.9688 20.5C15.9688 19.9673 16.1302 19.4637 16.4373 19.034L19.966 22.5627C19.5363 22.8698 19.0327 23.0312 18.5 23.0312ZM20.5627 21.966L17.034 18.4373C17.4637 18.1302 17.9673 17.9688 18.5 17.9688C19.8957 17.9688 21.0312 19.1043 21.0312 20.5C21.0312 21.0327 20.8698 21.5363 20.5627 21.966Z" fill="white"/>
</svg>
