<svg width="66" height="65" viewBox="0 0 66 65" fill="none" xmlns="http://www.w3.org/2000/svg">
<path d="M33 64.9034C49.5685 64.9034 63 51.4935 63 34.9517C63 18.4098 49.5685 5 33 5C16.4315 5 3 18.4098 3 34.9517C3 51.4935 16.4315 64.9034 33 64.9034Z" fill="white"/>
<path d="M60.8 29.5942C61.7941 29.5942 62.6 28.7896 62.6 27.7971C62.6 26.8046 61.7941 26 60.8 26C59.8059 26 59 26.8046 59 27.7971C59 28.7896 59.8059 29.5942 60.8 29.5942Z" fill="#CBD5E7"/>
<path d="M58.1 37.1965C58.7075 37.1965 59.2 36.7048 59.2 36.0982C59.2 35.4917 58.7075 35 58.1 35C57.4925 35 57 35.4917 57 36.0982C57 36.7048 57.4925 37.1965 58.1 37.1965Z" fill="#CBD5E7"/>
<path d="M9.1 27.1965C9.70751 27.1965 10.2 26.7048 10.2 26.0982C10.2 25.4917 9.70751 25 9.1 25C8.49249 25 8 25.4917 8 26.0982C8 26.7048 8.49249 27.1965 9.1 27.1965Z" fill="#CBD5E7"/>
<path d="M48.1192 10.5904C48.2033 10.6446 48.3713 10.753 48.5095 10.7234C48.8698 10.7182 49.2245 10.353 49.2189 9.99291L48.9136 2.90428C48.908 2.54417 48.542 2.18918 48.1817 2.19429C47.8213 2.1994 47.4666 2.56463 47.4723 2.92474L47.7775 10.0134C47.7533 10.2354 47.9512 10.4819 48.1192 10.5904Z" fill="#D2D2D2"/>
<path d="M52.8319 12.3245C53.0839 12.4872 53.5283 12.5363 53.7448 12.2007L58.6564 7.1715C58.957 6.89017 59.0055 6.44617 58.7235 6.1454C58.4416 5.84462 57.9431 5.8794 57.6425 6.16074L52.7309 11.19C52.4303 11.4713 52.4659 11.9695 52.7478 12.2703C52.7478 12.2703 52.7478 12.2703 52.8319 12.3245Z" fill="#D2D2D2"/>
<path d="M54.1786 16.877C54.2626 16.9312 54.4307 17.0396 54.5688 17.01L61.4395 16.6908C61.7999 16.6857 62.1546 16.3205 62.1489 15.9604C62.1433 15.6003 61.7773 15.2453 61.4169 15.2504L54.5462 15.5695C54.1859 15.5746 53.8312 15.9399 53.8368 16.3C53.8126 16.522 53.9265 16.7143 54.1786 16.877Z" fill="#D2D2D2"/>
<path d="M50.8929 57.2123H15.1019V12.6294H37.2586L50.8929 26.0626V57.2123Z" fill="white"/>
<path d="M50.893 58.3058H15.102C14.8089 58.3058 14.5279 58.1906 14.3207 57.9855C14.1135 57.7804 13.9971 57.5023 13.9971 57.2122V12.6293C13.9971 12.3392 14.1135 12.0611 14.3207 11.856C14.5279 11.6509 14.8089 11.5356 15.102 11.5356H37.2586C37.5511 11.5349 37.8318 11.649 38.0394 11.8528L51.6664 25.2897C51.7694 25.3915 51.8511 25.5126 51.9068 25.6459C51.9624 25.7791 51.9908 25.9219 51.9905 26.0661V57.2122C51.9905 57.501 51.8751 57.7781 51.6695 57.9829C51.4638 58.1878 51.1847 58.3039 50.893 58.3058ZM16.2068 56.1186H49.7881V26.5181L36.8019 13.7229H16.2068V56.1186Z" fill="#434E69"/>
<path d="M34.1466 45.3244C33.3323 45.3239 32.5257 45.168 31.7711 44.8651L29.123 47.5007C28.6558 47.9608 28.0235 48.2191 27.3644 48.2191C26.7053 48.2191 26.0731 47.9608 25.6058 47.5007C25.1409 47.0382 24.88 46.4124 24.88 45.76C24.88 45.1076 25.1409 44.4818 25.6058 44.0193L30.0953 39.5647C30.5615 39.1039 31.1933 38.8451 31.8521 38.8451C32.5109 38.8451 33.1428 39.1039 33.6089 39.5647C33.8083 39.7503 34.0718 39.8536 34.3455 39.8536C34.6192 39.8536 34.8826 39.7503 35.0821 39.5647C35.2552 39.39 35.3596 39.1599 35.3767 38.9158C35.3767 38.8939 35.3767 38.8721 35.3767 38.8538C35.3749 38.5806 35.2652 38.319 35.071 38.1248C34.838 37.8989 34.5812 37.6985 34.305 37.5269C33.5685 37.0523 32.7088 36.7991 31.83 36.7979C30.6271 36.8035 29.4748 37.2775 28.6222 38.1175L24.1179 42.5612C23.6943 42.9805 23.3585 43.4784 23.1297 44.0263C22.901 44.5743 22.7837 45.1616 22.7847 45.7545C22.7837 46.3489 22.9011 46.9377 23.1301 47.4872C23.3591 48.0366 23.6953 48.536 24.1194 48.9569C24.5436 49.3777 25.0473 49.7116 25.6019 49.9396C26.1565 50.1677 26.751 50.2853 27.3515 50.2857C28.5563 50.2818 29.7111 49.8091 30.5668 48.9698L34.2681 45.3025L34.1392 45.328L34.1466 45.3244Z" fill="#434E69"/>
<path d="M41.8808 31.3809C41.4567 30.96 40.9526 30.6263 40.3976 30.3992C39.8426 30.1721 39.2477 30.056 38.6471 30.0576C38.0466 30.0564 37.4518 30.1726 36.8968 30.3997C36.3419 30.6268 35.8378 30.9603 35.4135 31.3809L31.7305 35.0263L31.8557 35.0008C32.6716 35.0007 33.4798 35.158 34.2349 35.4637L36.8756 32.8427C37.1055 32.6116 37.3795 32.4281 37.6818 32.3029C37.984 32.1777 38.3084 32.1134 38.6361 32.1136C38.9631 32.1137 39.2869 32.1781 39.5885 32.3033C39.8901 32.4285 40.1636 32.6119 40.3928 32.8427C40.6262 33.0695 40.8116 33.3401 40.9381 33.6387C41.0645 33.9373 41.1296 34.2578 41.1294 34.5815C41.1297 34.9058 41.0647 35.227 40.9382 35.5261C40.8117 35.8253 40.6263 36.0965 40.3928 36.324L35.8996 40.7641C35.4335 41.2249 34.8016 41.4837 34.1429 41.4837C33.4841 41.4837 32.8522 41.2249 32.3861 40.7641C32.187 40.5786 31.9229 40.4767 31.6495 40.4798C31.376 40.4834 31.1135 40.5873 30.9129 40.7714C30.7398 40.9476 30.6354 41.1788 30.6183 41.4239C30.6095 41.5699 30.6318 41.7162 30.6838 41.8531C30.7359 41.99 30.8164 42.1145 30.9203 42.2186C31.2982 42.5947 31.741 42.9008 32.2277 43.1227L32.3603 43.181L32.4376 43.2138L32.5592 43.2575L32.6513 43.2903C32.7144 43.3165 32.7797 43.3372 32.8465 43.3523L33.049 43.4106C33.1742 43.4398 33.3068 43.4653 33.4431 43.4872C33.6014 43.5131 33.7614 43.5277 33.9219 43.5309H34.1465L34.3344 43.5091H34.4338C34.4988 43.5052 34.564 43.5052 34.629 43.5091H34.7211L35.303 43.4106C36.0874 43.207 36.803 42.8007 37.3765 42.2332L41.8808 37.7822C42.3057 37.3622 42.6426 36.8633 42.872 36.314C43.1015 35.7647 43.2189 35.1759 43.2177 34.5815C43.2193 33.9871 43.1021 33.3982 42.8726 32.8489C42.6431 32.2995 42.306 31.8006 41.8808 31.3809Z" fill="#434E69"/>
<path d="M37.2587 26.0626H50.893L37.2587 12.6294V26.0626Z" fill="#D9E2F3"/>
<path d="M50.893 27.1598H37.266C36.973 27.1598 36.692 27.0446 36.4848 26.8395C36.2775 26.6344 36.1611 26.3562 36.1611 26.0662V12.6293C36.1612 12.4132 36.2259 12.202 36.3472 12.0223C36.4685 11.8425 36.6408 11.7024 36.8425 11.6196C37.044 11.5363 37.266 11.514 37.4804 11.5555C37.6947 11.597 37.8918 11.7005 38.0468 11.8529L51.6738 25.2897C51.8289 25.4423 51.9348 25.637 51.9781 25.8492C52.0214 26.0614 52.0001 26.2816 51.9168 26.4818C51.8335 26.6826 51.6916 26.8544 51.5092 26.9751C51.3269 27.0959 51.1124 27.1602 50.893 27.1598ZM38.3709 24.9726H48.2265L38.3709 15.2613V24.9726Z" fill="#434E69"/>
<path d="M3.77748 33.1122C4.23842 33.2662 4.63166 33.5754 4.89015 33.987C5.14864 34.3985 5.25637 34.887 5.19498 35.3691C5.1336 35.8512 4.9069 36.2971 4.55352 36.6308C4.20015 36.9645 3.74198 37.1652 3.25714 37.1988C2.7723 37.2325 2.2908 37.0969 1.89474 36.8152C1.49868 36.5336 1.21258 36.1233 1.08521 35.6542C0.957836 35.1852 0.997086 34.6865 1.19627 34.2432C1.39545 33.7999 1.74223 33.4394 2.17748 33.2232C2.67512 32.976 3.25047 32.936 3.77748 33.1122ZM4.09548 32.1642C3.41604 31.9338 2.67774 31.9462 2.00643 32.1993C1.33512 32.4524 0.772378 32.9305 0.414139 33.5521C0.0559007 34.1736 -0.0756526 34.9002 0.0419089 35.608C0.15947 36.3157 0.518868 36.9608 1.05883 37.4332C1.59879 37.9055 2.28587 38.176 3.00295 38.1985C3.72003 38.2209 4.42271 37.994 4.99117 37.5563C5.55963 37.1186 5.95869 36.4974 6.12032 35.7984C6.28194 35.0994 6.19612 34.366 5.87748 33.7232C5.69705 33.3587 5.44625 33.0336 5.13955 32.7665C4.83284 32.4995 4.4763 32.2958 4.09048 32.1672L4.09548 32.1642Z" fill="#EBCCD8"/>
</svg>
