<svg width="222" height="215" viewBox="0 0 222 215" fill="none" xmlns="http://www.w3.org/2000/svg">
<g filter="url(#filter0_d)">
<path d="M62.7925 137.9C65.7525 128.67 67.7325 122.41 70.0225 114.84C70.6225 112.94 71.1925 110.97 71.8725 108.83C72.5125 106.7 73.1925 104.41 73.9325 101.9C74.3125 100.64 74.6725 99.3302 75.0725 97.9502C75.1925 97.5402 75.2525 97.3302 75.3725 96.9002C75.4325 96.7102 75.4625 96.5802 75.5425 96.3302C75.6325 96.0502 75.6825 95.9002 75.7725 95.6202C76.1325 94.6502 76.5925 93.6602 77.2325 92.6002C78.4925 90.4802 80.2025 88.3202 82.1725 86.5702C83.1625 85.7002 84.2025 84.9202 85.2525 84.2602C86.3125 83.6202 87.3825 83.1302 88.4225 82.7602C102.122 78.2002 115.292 72.2702 128.652 66.8102C135.262 64.1802 141.622 62.0002 147.342 61.0202C149.062 60.7202 149.892 60.6202 151.512 60.5302C152.202 60.4902 152.812 60.4302 153.572 60.4902C154.292 60.5802 154.972 60.7902 155.582 61.1302C156.822 61.8102 157.822 62.9202 158.382 64.2102C158.652 64.8602 158.822 65.5502 158.872 66.2502C158.912 66.9502 158.832 67.6602 158.652 68.3502C157.402 72.9602 156.262 76.8502 155.022 80.4802C153.802 84.1002 152.472 87.5502 151.092 91.3702C149.422 95.9602 148.552 98.3702 146.782 104.45C146.332 105.97 146.102 106.76 145.642 108.43C145.522 108.85 145.462 109.06 145.342 109.48C145.282 109.68 145.262 109.8 145.172 110.06C145.072 110.36 145.022 110.51 144.932 110.81C144.562 111.83 144.062 112.9 143.402 114.03C142.092 116.3 140.302 118.6 138.242 120.52C136.182 122.43 133.832 123.97 131.592 124.75C125.102 126.98 118.272 130.01 111.442 132.89C109.392 133.76 108.372 134.2 106.322 135.07C104.282 135.91 103.262 136.33 101.242 137.14C97.8625 138.52 94.5325 139.74 91.2825 140.87C84.7625 143.12 78.5725 144.74 73.0025 145.21C71.6125 145.31 70.2725 145.34 68.9625 145.32C68.3025 145.29 67.6825 145.29 67.0125 145.16C66.3725 145.02 65.7625 144.77 65.2225 144.42C64.6925 144.06 64.1925 143.65 63.7825 143.16C63.3825 142.66 63.0625 142.11 62.8325 141.53C62.6225 140.94 62.5025 140.32 62.4825 139.71C62.5025 139.11 62.6125 138.5 62.7925 137.9ZM63.2625 137.94C62.5625 140.19 63.6025 142.74 65.6725 143.81C66.1825 144.08 66.7325 144.25 67.3225 144.33C67.9025 144.38 68.5925 144.35 69.2525 144.32C70.5925 144.26 71.9725 144.07 73.4125 143.8C79.1325 142.75 85.5525 140.23 92.2525 137.17C95.6025 135.64 99.0525 133.91 102.492 132.22C104.562 131.19 105.602 130.67 107.692 129.61C109.772 128.59 110.812 128.07 112.882 127.05C119.812 123.62 126.642 120.49 133.132 118C133.652 117.78 134.162 117.53 134.672 117.22C135.182 116.89 135.692 116.52 136.182 116.1C137.162 115.24 138.012 114.26 138.622 113.27C138.932 112.78 139.152 112.29 139.342 111.81C139.392 111.67 139.412 111.6 139.462 111.46C139.502 111.35 139.562 111.11 139.612 110.95C139.742 110.51 139.802 110.3 139.932 109.87C140.452 108.15 140.722 107.34 141.232 105.76C143.332 99.4502 144.362 96.9102 146.352 92.0602C148.022 88.0202 149.642 84.3402 151.272 80.5202C152.892 76.7002 154.512 72.7902 156.102 68.1402C156.792 66.2602 156.102 64.0302 154.352 63.0002C153.922 62.7302 153.422 62.5702 152.892 62.4802C152.392 62.4102 151.662 62.4202 151.012 62.4302C149.402 62.4902 148.572 62.5702 146.862 62.8202C141.162 63.6602 134.822 65.8302 128.172 68.6602C114.472 74.9902 101.232 82.3602 87.2325 88.0302C84.9225 88.8902 82.5025 91.1702 81.1925 93.3102C80.8625 93.8502 80.6225 94.3802 80.4225 94.8902C80.3725 95.0402 80.3525 95.1202 80.3025 95.2702C80.2625 95.3902 80.2025 95.6102 80.1525 95.7802C80.0325 96.2102 79.9725 96.4202 79.8425 96.8502C79.4425 98.2502 78.9925 99.6102 78.5725 100.91C77.7225 103.51 76.8125 105.9 75.9025 108.14C75.0225 110.38 74.0625 112.48 73.1525 114.47C69.4125 122.46 66.0825 128.68 63.2625 137.94Z" fill="url(#paint0_radial)"/>
<path d="M61.5724 148.74C61.8624 138.7 62.1824 128.66 62.0524 118.61C62.0824 116.52 62.0624 114.4 62.1524 112.16C62.2024 109.92 62.2824 107.55 62.4224 104.96C62.5024 103.67 62.5524 102.31 62.6424 100.89C62.6724 100.46 62.6824 100.25 62.7124 99.8103C62.7224 99.6103 62.7324 99.4803 62.7524 99.2303C62.7824 98.9403 62.8024 98.7903 62.8324 98.5003C62.9924 97.5203 63.2524 96.5103 63.6824 95.5303C64.5124 93.5503 65.8224 91.6003 67.5424 89.9303C68.4124 89.1103 69.3725 88.3503 70.3925 87.7103C71.4225 87.0803 72.5124 86.5903 73.6124 86.2203C89.9424 79.9903 104.852 71.7203 120.062 63.1503C127.992 58.7003 135.642 54.6503 142.532 51.9503C144.602 51.1403 145.602 50.7803 147.552 50.2003C148.392 49.9603 149.082 49.7103 150.042 49.5403C150.952 49.4103 151.882 49.4003 152.792 49.6003C154.602 49.9703 156.252 51.0703 157.612 52.4703C158.282 53.1803 158.842 53.9803 159.272 54.8403C159.682 55.7103 159.932 56.6403 160.032 57.5903C160.602 64.0103 160.002 69.8403 159.812 74.6003C159.642 79.3603 159.372 83.4303 159.122 87.6103C158.812 92.6203 158.652 95.0303 158.362 101.29C158.282 102.86 158.242 103.67 158.162 105.39C158.142 105.82 158.122 106.04 158.102 106.48C158.092 106.68 158.092 106.81 158.062 107.08C158.032 107.39 158.012 107.54 157.982 107.85C157.822 108.89 157.552 109.96 157.112 111.02C156.242 113.15 154.892 115.29 153.092 117.19C151.282 119.07 149.012 120.66 146.632 121.49C139.722 123.87 132.052 127.93 124.142 132.18C121.772 133.46 120.572 134.13 118.182 135.46C115.782 136.76 114.582 137.41 112.172 138.73C108.162 140.94 104.152 143.02 100.202 145.03C92.3025 149.05 84.6324 152.48 77.7324 154.62C76.0024 155.14 74.3224 155.58 72.7024 155.95C71.8825 156.12 71.1224 156.3 70.2624 156.38C69.4124 156.43 68.5524 156.37 67.7824 156.1C67.0124 155.82 66.2324 155.46 65.5124 154.99C64.7924 154.51 64.1224 153.94 63.5424 153.3C62.9825 152.64 62.5124 151.92 62.1624 151.15C61.8124 150.38 61.6224 149.56 61.5724 148.74ZM62.1424 148.71C62.3224 151.82 65.0324 154.56 67.8424 155.34C68.5724 155.51 69.3225 155.51 70.0625 155.42C70.7825 155.31 71.5925 155.07 72.3825 154.85C73.9825 154.4 75.6424 153.81 77.3324 153.11C84.1424 150.37 91.7224 145.91 99.6624 140.92C103.632 138.42 107.682 135.73 111.752 133.14C114.192 131.57 115.422 130.78 117.862 129.22C120.302 127.7 121.522 126.95 123.932 125.48C131.982 120.59 139.772 116.46 146.702 113.97C147.242 113.75 147.772 113.5 148.292 113.2C148.802 112.88 149.282 112.51 149.732 112.1C150.622 111.26 151.332 110.29 151.762 109.3C151.982 108.8 152.102 108.3 152.192 107.82C152.212 107.67 152.212 107.6 152.232 107.45C152.252 107.34 152.252 107.09 152.272 106.92C152.302 106.47 152.312 106.24 152.342 105.8C152.462 104.03 152.532 103.19 152.652 101.58C153.172 95.1603 153.432 92.7303 153.952 87.7303C154.392 83.5603 154.812 79.5603 155.332 74.8203C155.832 70.0903 156.912 64.2303 156.942 57.7403C157.002 55.1103 155.092 52.5203 152.452 51.8803C151.802 51.7103 151.112 51.6803 150.412 51.7303C149.762 51.8003 148.872 52.0203 148.062 52.2103C146.082 52.7303 145.062 53.0603 142.962 53.8103C135.972 56.3303 128.262 60.4403 120.292 65.1503C104.892 74.6603 90.0424 84.5303 73.5224 91.9903C71.0824 92.8103 68.9624 94.9603 68.0724 97.0903C67.8424 97.6203 67.7125 98.1603 67.6325 98.6903C67.6125 98.8503 67.6124 98.9303 67.5924 99.0803C67.5724 99.2003 67.5725 99.4403 67.5625 99.6103C67.5425 100.06 67.5324 100.28 67.5024 100.72C67.4324 102.18 67.3125 103.56 67.2225 104.88C67.0225 107.52 66.7625 109.92 66.4725 112.17C66.2225 114.41 65.8724 116.52 65.5524 118.6C63.6524 128.66 62.7624 138.5 62.1424 148.71Z" fill="url(#paint1_radial)"/>
<path d="M66.5425 161.18C60.4425 148.16 57.6325 136.64 53.8425 122.91C53.1625 120.27 52.4625 117.64 51.9125 114.9C51.3225 112.16 50.8125 109.31 50.3925 106.25C50.1925 104.72 49.9725 103.13 49.8125 101.49C49.7625 101 49.7425 100.75 49.6925 100.24C49.6725 100.01 49.6525 99.8604 49.6325 99.5704C49.6125 99.2404 49.6125 99.0704 49.5925 98.7404C49.5925 97.6304 49.7225 96.5204 50.0225 95.4804C50.6125 93.3804 51.7825 91.5504 53.2525 90.0904C53.9925 89.3704 54.8325 88.7704 55.7425 88.3104C56.6625 87.8704 57.6625 87.6104 58.6925 87.4904C76.6225 85.6604 93.1125 71.0204 107.092 60.8104C115.012 54.8204 123.122 48.8704 131.522 43.5704C133.732 42.1804 134.812 41.5504 136.882 40.4104C137.772 39.9304 138.492 39.4704 139.542 39.0404C140.552 38.6504 141.632 38.4004 142.782 38.3604C145.062 38.2604 147.492 38.9104 149.692 40.1504C150.782 40.7804 151.832 41.5304 152.792 42.3604C153.742 43.2004 154.562 44.1304 155.242 45.1104C159.772 51.6604 162.202 59.5104 163.582 66.1304C164.982 72.7504 166.212 78.0804 167.342 83.3504C168.682 89.6704 169.292 92.6004 170.352 99.9604C170.612 101.8 170.732 102.75 170.972 104.74C171.022 105.24 171.052 105.49 171.102 105.99C171.122 106.22 171.152 106.37 171.172 106.67C171.192 107.02 171.202 107.19 171.222 107.55C171.232 108.72 171.102 109.9 170.802 111.01C170.202 113.24 169.052 115.29 167.552 116.97C166.042 118.63 164.072 119.8 161.852 120.12C155.372 120.99 147.942 124.85 139.602 130.17C137.102 131.77 135.822 132.63 133.252 134.4C130.672 136.12 129.362 137.02 126.742 138.83C122.382 141.89 117.942 144.9 113.572 147.88C105.622 153.41 97.2725 158.76 88.7125 163.3C86.8125 164.29 84.9625 165.19 83.2025 166.01C82.3025 166.41 81.4925 166.81 80.5125 167.13C79.5425 167.41 78.5325 167.57 77.4825 167.53C76.4325 167.48 75.3725 167.33 74.3225 167.01C73.2725 166.69 72.2725 166.2 71.3125 165.62C70.3525 165.03 69.4425 164.34 68.6325 163.6C67.7925 162.85 67.1125 162.03 66.5425 161.18ZM67.1125 161.05C69.1925 164.25 73.4125 166.79 77.1525 166.64C78.0825 166.61 78.9625 166.41 79.7825 166.11C80.5725 165.79 81.4225 165.32 82.2625 164.87C83.9725 163.95 85.7125 162.89 87.5125 161.7C95.8925 156.22 103.832 149.71 111.452 143.24C115.752 139.67 120.142 135.92 124.562 132.4C127.212 130.27 128.532 129.22 131.162 127.19C133.792 125.21 135.102 124.24 137.672 122.45C146.212 116.44 153.872 112.73 160.482 111.71C160.992 111.6 161.492 111.48 161.962 111.28C162.422 111.06 162.852 110.79 163.242 110.47C163.992 109.79 164.552 108.89 164.802 107.89C164.932 107.39 164.962 106.86 164.952 106.34C164.942 106.18 164.932 106.1 164.922 105.94C164.922 105.82 164.872 105.54 164.852 105.35C164.782 104.85 164.752 104.6 164.682 104.11C164.422 102.15 164.282 101.22 164.012 99.4304C162.952 92.2804 162.362 89.5504 161.152 83.5804C160.152 78.6104 159.102 73.5704 158.152 67.1104C157.182 60.6504 156.042 52.5204 152.172 45.8504C150.652 43.1304 147.082 40.9504 143.632 41.0004C142.772 41.0004 141.942 41.1504 141.132 41.4004C140.392 41.6504 139.422 42.1204 138.532 42.5504C136.372 43.6304 135.252 44.2404 132.952 45.5804C124.282 50.6704 115.942 56.8504 108.092 63.1104C94.0225 74.2204 77.9725 90.6304 59.7025 93.9804C57.3625 94.2704 55.5425 96.0104 55.0025 98.1904C54.8625 98.7304 54.8325 99.3104 54.8425 99.8804C54.8625 100.05 54.8625 100.14 54.8825 100.31C54.8925 100.44 54.9325 100.71 54.9525 100.9C55.0225 101.4 55.0525 101.65 55.1225 102.14C55.3625 103.77 55.5525 105.32 55.7725 106.81C56.2025 109.79 56.5925 112.52 56.9625 115.14C57.3725 117.76 57.6825 120.27 58.0425 122.81C59.8925 137.34 61.2725 147.33 67.1125 161.05Z" fill="url(#paint2_radial)"/>
<path d="M78.7925 173.8C63.6825 160.26 54.6425 147.55 45.4825 129.5C43.8025 126.03 42.1825 122.62 40.8225 119.09C39.4125 115.56 38.1625 111.91 37.0925 108.03C36.5725 106.09 36.0425 104.1 35.5925 102.05C35.4525 101.43 35.3925 101.12 35.2625 100.5C35.2025 100.22 35.1525 100.03 35.0925 99.6704C35.0225 99.2604 34.9925 99.0504 34.9225 98.6304C34.7625 97.2504 34.7625 95.8604 34.9725 94.5604C35.3725 91.9404 36.5125 89.6504 38.1425 88.1304C38.9625 87.3804 39.8925 86.8204 40.8825 86.4404C41.8925 86.0804 42.8725 85.9204 43.9125 85.9104C63.7625 86.7004 77.0625 71.9204 90.4825 59.5604C98.6525 51.5304 106.742 43.4004 115.142 35.6104C117.342 33.5804 118.412 32.6304 120.472 30.8904C121.362 30.1504 122.052 29.4604 123.122 28.7204C124.162 28.0604 125.312 27.5404 126.592 27.2604C129.132 26.6904 132.052 26.9604 134.962 27.8904C136.412 28.3704 137.862 29.0104 139.252 29.7804C140.642 30.5604 141.942 31.4604 143.152 32.4404C150.832 38.4404 158.853 45.8304 164.452 53.8704C170.003 61.7804 172.702 69.9604 175.762 76.9104C179.412 85.2504 181.003 89.0504 183.613 98.3404C184.253 100.66 184.562 101.86 185.143 104.33C185.283 104.95 185.352 105.26 185.492 105.89C185.552 106.18 185.602 106.36 185.662 106.73C185.732 107.16 185.772 107.38 185.842 107.82C186.012 109.27 186.033 110.73 185.822 112.11C185.423 114.88 184.253 117.3 182.592 119C180.923 120.68 179.012 121.7 176.792 121.77C170.332 121.92 163.882 123.97 156.322 128.46C154.052 129.82 152.832 130.89 150.362 132.88C147.872 134.82 146.582 135.89 143.972 138.12C139.642 141.87 135.092 145.83 130.622 149.83C122.262 157.26 113.912 164.73 105.122 171.65C103.182 173.15 101.302 174.56 99.5225 175.88C98.6025 176.53 97.8025 177.17 96.7825 177.75C95.7625 178.28 94.6725 178.67 93.4725 178.84C92.2725 179 91.0325 179.03 89.7525 178.88C88.4725 178.72 87.1625 178.4 85.8725 177.95C84.5825 177.48 83.3225 176.88 82.1125 176.18C80.9225 175.47 79.8125 174.66 78.7925 173.8ZM79.3125 173.5C83.1225 176.73 88.6525 178.73 92.8425 177.77C93.8925 177.54 94.8225 177.12 95.6725 176.59C96.4725 176.05 97.2925 175.3 98.1325 174.59C99.8225 173.16 101.522 171.56 103.292 169.83C111.602 161.71 119.272 152.92 127.062 144.32C131.382 139.59 135.772 134.74 140.172 130.43C142.802 127.83 144.102 126.57 146.642 124.29C149.202 122.06 150.452 121.02 152.842 119.29C160.792 113.46 167.503 112.45 174.533 112.43C175.072 112.4 175.592 112.32 176.083 112.16C176.553 111.97 176.982 111.7 177.363 111.36C178.103 110.63 178.592 109.6 178.732 108.41C178.812 107.82 178.762 107.18 178.673 106.55C178.633 106.36 178.612 106.26 178.572 106.07C178.552 105.93 178.452 105.59 178.393 105.36C178.232 104.75 178.152 104.44 177.992 103.84C177.362 101.44 177.033 100.29 176.342 98.0704C173.613 89.2004 171.972 85.7604 168.412 78.0704C165.462 71.6604 163.042 64.2204 158.852 56.0604C154.772 47.8604 147.282 39.9004 140.202 34.2304C137.172 31.4704 132.352 29.6704 128.412 30.4204C127.422 30.5904 126.522 30.9404 125.672 31.4004C124.902 31.8404 123.932 32.6004 123.032 33.2804C120.862 34.9804 119.742 35.9104 117.422 37.9004C108.572 45.5404 100.422 53.9904 92.2125 62.3004C79.5625 75.0504 65.3125 93.2004 45.5225 93.0604C43.0125 93.0304 41.2025 95.0304 40.9125 97.6604C40.8325 98.3104 40.8825 99.0104 40.9825 99.7104C41.0225 99.9204 41.0525 100.03 41.0925 100.24C41.1225 100.4 41.2125 100.73 41.2725 100.96C41.4325 101.57 41.5125 101.88 41.6725 102.48C42.2125 104.49 42.7225 106.41 43.2925 108.27C44.4025 111.99 45.5425 115.45 46.7425 118.79C47.9825 122.13 49.1725 125.38 50.4825 128.71C57.5425 147.58 64.4425 159.59 79.3125 173.5Z" fill="url(#paint3_radial)"/>
<path d="M96.4725 186.81C75.5025 172.35 54.1625 160.12 37.5125 140.5C34.4425 136.02 31.5825 131.75 29.1625 127.37C26.6925 123.01 24.5425 118.57 22.6825 113.94C21.7625 111.62 20.8625 109.28 20.0425 106.87C19.7925 106.15 19.6725 105.79 19.4325 105.06C19.3225 104.73 19.2425 104.51 19.1225 104.09C18.9825 103.6 18.9125 103.36 18.7825 102.87C18.3925 101.23 18.1525 99.5302 18.1525 97.8402C18.1325 94.4702 18.9525 91.1902 20.5325 88.7102C21.3325 87.4802 22.2925 86.4502 23.3825 85.6502C24.4925 84.8802 25.7225 84.3902 27.0025 84.1502C48.4625 81.6402 57.1525 74.7802 71.4925 58.4802C79.3925 48.0202 87.1825 37.4902 95.0925 27.0402C97.2625 24.2602 98.3125 22.9402 100.402 20.4902C101.302 19.4402 101.992 18.4802 103.112 17.4202C104.202 16.4502 105.432 15.6502 106.812 15.1402C109.562 14.0902 112.752 14.0502 116.012 14.8202C117.642 15.2302 119.272 15.8302 120.892 16.5902C122.502 17.3702 124.062 18.3302 125.562 19.3702C136.212 26.3802 146.962 33.2002 157.522 40.3502C167.952 48.4702 175.752 55.6402 183.812 66.0802C189.292 74.3102 194.402 83.5602 198.032 92.7702C199.152 95.5502 199.682 96.9702 200.712 99.8502C200.962 100.57 201.092 100.93 201.332 101.66C201.442 101.99 201.522 102.2 201.652 102.64C201.802 103.15 201.872 103.4 202.022 103.91C202.442 105.63 202.702 107.42 202.702 109.19C202.732 112.74 201.882 116.17 200.282 118.84C198.652 121.49 196.252 123.35 193.512 123.83C185.542 125.15 179.122 126.14 172.402 130.28C170.392 131.53 169.392 132.27 167.332 133.99C165.252 135.64 164.192 136.58 162.002 138.71C158.372 142.3 154.272 146.76 150.072 151.71C141.872 161.45 133.642 171.12 125.182 180.64C123.232 182.73 121.332 184.71 119.502 186.6C118.562 187.54 117.732 188.45 116.662 189.32C115.582 190.12 114.412 190.76 113.112 191.13C111.812 191.48 110.462 191.7 109.042 191.68C107.632 191.65 106.182 191.43 104.742 191.04C103.292 190.62 101.862 190.04 100.462 189.34C99.0825 188.62 97.7525 187.75 96.4725 186.81ZM97.0125 186.28C101.792 189.82 107.882 191.58 112.392 189.79C113.522 189.36 114.502 188.7 115.392 187.91C116.222 187.11 117.052 186.05 117.892 185.05C119.582 183.02 121.262 180.81 122.972 178.43C130.632 167.36 137.952 156.09 145.352 144.83C149.312 138.95 153.282 132.98 156.982 128.87C159.192 126.38 160.262 125.26 162.372 123.32C164.522 121.43 165.572 120.63 167.662 119.28C174.632 114.74 182.272 114.63 190.252 113.33C190.862 113.19 191.442 112.99 191.972 112.68C192.482 112.34 192.932 111.9 193.312 111.38C194.042 110.29 194.452 108.86 194.422 107.33C194.422 106.57 194.272 105.78 194.062 105C193.992 104.77 193.952 104.65 193.872 104.42C193.822 104.25 193.662 103.84 193.562 103.57C193.292 102.84 193.152 102.47 192.872 101.75C191.772 98.8502 191.202 97.4502 189.982 94.7102C186.222 85.9102 180.872 77.1702 175.292 69.4202C169.492 59.3502 161.532 51.5402 153.092 43.7302C143.132 36.2802 132.812 29.5202 122.632 22.3902C118.682 19.3202 113.262 17.6602 109.022 19.1102C107.952 19.4502 107.002 20.0102 106.122 20.6902C105.332 21.3502 104.352 22.4402 103.452 23.3902C101.282 25.8002 100.172 27.1002 97.9025 29.8402C89.6125 40.3602 81.7125 51.1002 73.8025 61.9102C60.6725 78.9302 51.3425 89.0702 29.5625 92.2902C26.7025 92.8002 24.9625 95.8802 25.0425 99.2702C25.0525 100.12 25.2125 100.98 25.4425 101.83C25.5225 102.09 25.5625 102.21 25.6525 102.47C25.7125 102.67 25.8625 103.05 25.9625 103.33C26.2325 104.06 26.3725 104.42 26.6525 105.14C27.5925 107.54 28.5025 109.89 29.5025 112.18C31.4825 116.75 33.5825 121.09 35.8825 125.34C38.2325 129.58 40.6525 133.78 43.3125 138.19C54.0425 160.03 77.8725 173.03 97.0125 186.28Z" fill="url(#paint4_radial)"/>
<path d="M115.992 201.34C91.4025 182.98 62.1625 172.54 36.1025 156.5C29.5525 152.05 23.6325 147.35 18.8525 142.42C14.0325 137.53 11.9325 132.6 9.81247 127.84C8.76247 125.45 7.81247 123.13 6.98247 120.81C6.73247 120.11 6.61247 119.77 6.36247 119.08C6.25247 118.77 6.17247 118.57 6.05247 118.16C5.90247 117.69 5.83247 117.46 5.69247 117C5.25247 115.4 4.88247 113.67 4.61247 111.81C4.05247 108.11 3.76247 103.97 4.24247 100.09C4.49247 98.1603 4.93247 96.3003 5.60247 94.6403C6.29247 92.9903 7.23247 91.5603 8.35247 90.4103C26.0925 77.7603 40.0825 74.4503 52.4225 55.4803C59.1825 42.7303 65.5025 29.7703 72.8825 17.3503C75.0725 13.7303 76.1825 12.0103 78.4825 8.82032C79.4725 7.46032 80.2625 6.22032 81.5525 4.82032C82.8025 3.54032 84.2325 2.45032 85.8225 1.68032C88.9925 0.120319 92.6425 -0.319681 96.1725 0.220319C97.9325 0.520319 99.6625 1.07032 101.332 1.82032C103.002 2.61032 104.572 3.63032 106.102 4.79032C117.482 13.5103 130.372 19.7903 143.102 26.2503C157.852 33.5003 171.992 41.0703 185.692 50.1603C196.672 58.8403 205.342 66.3603 211.132 79.3403C212.442 82.2003 213.012 83.6203 214.082 86.3803C214.342 87.0703 214.472 87.4203 214.732 88.1103C214.852 88.4303 214.922 88.6103 215.072 89.0403C215.232 89.5303 215.312 89.7703 215.472 90.2603C215.962 91.9403 216.372 93.7403 216.682 95.6903C217.302 99.5703 217.632 103.89 217.162 108C216.672 112.09 215.242 115.94 212.742 118.33C205.902 124.73 196.962 128.73 188.872 133.25C186.802 134.6 185.812 135.34 183.872 137.1C181.902 138.78 180.952 139.73 179.082 141.92C175.992 145.62 172.902 150.02 169.712 155.34C162.712 167.45 155.572 179.45 147.422 190.84C145.402 193.58 143.352 196.19 141.302 198.67C140.242 199.9 139.292 201.09 138.042 202.25C136.792 203.33 135.422 204.23 133.932 204.82C132.432 205.39 130.882 205.81 129.302 205.95C127.712 206.08 126.122 205.99 124.562 205.69C123.012 205.35 121.502 204.81 120.052 204.09C118.612 203.35 117.272 202.4 115.992 201.34ZM116.662 200.57C121.502 204.58 128.072 205.92 133.252 203.26C134.542 202.62 135.692 201.71 136.712 200.66C137.672 199.6 138.622 198.21 139.552 196.9C141.432 194.24 143.192 191.33 144.922 188.23C152.272 174.87 158.092 160.75 164.332 146.86C167.272 140.52 170.052 135 173.092 130.84C174.902 128.31 175.822 127.22 177.722 125.32C179.662 123.49 180.402 122.71 182.762 121.46C190.592 117.25 199.842 114.4 207.432 108.44C208.002 107.93 208.532 107.37 208.962 106.7C209.382 106 209.712 105.23 209.972 104.38C210.442 102.67 210.542 100.74 210.252 98.9303C210.122 98.0203 209.862 97.1703 209.552 96.3403C209.452 96.1003 209.392 95.9803 209.292 95.7403C209.222 95.5503 209.012 95.1503 208.872 94.8703C208.502 94.1203 208.322 93.7503 207.942 93.0003C206.462 89.9903 205.682 88.4903 203.982 85.5003C197.392 73.8803 189.312 64.6803 179.402 55.8303C166.892 46.5003 153.972 38.7003 140.222 31.3403C127.052 24.8803 113.932 18.5703 102.552 9.14032C98.4125 5.55032 92.6525 4.08032 87.9225 6.29032C86.7325 6.81032 85.6725 7.59032 84.6925 8.52032C83.8125 9.41032 82.7325 10.8503 81.7725 12.1303C79.4425 15.3303 78.3025 17.0503 76.0325 20.6603C68.2725 33.2503 61.7725 46.5303 55.0425 59.6803C43.2525 79.6903 30.7325 84.9203 12.3725 98.0003C9.76247 100.26 8.97247 104.95 9.60247 108.9C9.75247 109.89 10.0225 110.82 10.3425 111.71C10.4525 111.97 10.5025 112.1 10.6125 112.36C10.6925 112.56 10.8825 112.94 11.0125 113.22C11.3625 113.95 11.5325 114.32 11.8925 115.05C13.0925 117.49 14.3125 119.99 15.6825 122.46C18.3925 127.41 21.5025 132.38 25.1425 137.48C28.8425 142.54 34.1925 147.89 40.2025 152.72C64.4825 170.78 92.4525 182.51 116.662 200.57Z" fill="url(#paint5_radial)"/>
</g>
<defs>
<filter id="filter0_d" x="0" y="0" width="221.385" height="214.008" filterUnits="userSpaceOnUse" color-interpolation-filters="sRGB">
<feFlood flood-opacity="0" result="BackgroundImageFix"/>
<feColorMatrix in="SourceAlpha" type="matrix" values="0 0 0 0 0 0 0 0 0 0 0 0 0 0 0 0 0 0 127 0"/>
<feOffset dy="4"/>
<feGaussianBlur stdDeviation="2"/>
<feColorMatrix type="matrix" values="0 0 0 0 0 0 0 0 0 0 0 0 0 0 0 0 0 0 0.25 0"/>
<feBlend mode="normal" in2="BackgroundImageFix" result="effect1_dropShadow"/>
<feBlend mode="normal" in="SourceGraphic" in2="effect1_dropShadow" result="shape"/>
</filter>
<radialGradient id="paint0_radial" cx="0" cy="0" r="1" gradientUnits="userSpaceOnUse" gradientTransform="translate(111.204 102.598) rotate(59.0932) scale(43.6073 49.9267)">
<stop offset="0.5578" stop-color="#F4266E"/>
<stop offset="0.6305" stop-color="#F1266E"/>
<stop offset="0.6831" stop-color="#E82770"/>
<stop offset="0.7294" stop-color="#D82772"/>
<stop offset="0.7721" stop-color="#C22875"/>
<stop offset="0.8122" stop-color="#A52A7A"/>
<stop offset="0.8505" stop-color="#812B7F"/>
<stop offset="0.8867" stop-color="#582D85"/>
<stop offset="0.9028" stop-color="#432E88"/>
</radialGradient>
<radialGradient id="paint1_radial" cx="0" cy="0" r="1" gradientUnits="userSpaceOnUse" gradientTransform="translate(110.766 102.842) rotate(46.7579) scale(51.4336 59.1191)">
<stop offset="0.5578" stop-color="#F4266E"/>
<stop offset="0.6305" stop-color="#F1266E"/>
<stop offset="0.6831" stop-color="#E82770"/>
<stop offset="0.7294" stop-color="#D82772"/>
<stop offset="0.7721" stop-color="#C22875"/>
<stop offset="0.8122" stop-color="#A52A7A"/>
<stop offset="0.8505" stop-color="#812B7F"/>
<stop offset="0.8867" stop-color="#582D85"/>
<stop offset="0.9028" stop-color="#432E88"/>
</radialGradient>
<radialGradient id="paint2_radial" cx="0" cy="0" r="1" gradientUnits="userSpaceOnUse" gradientTransform="translate(110.832 103.382) rotate(34.486) scale(60.9166 68.8951)">
<stop offset="0.5578" stop-color="#F4266E"/>
<stop offset="0.6305" stop-color="#F1266E"/>
<stop offset="0.6831" stop-color="#E82770"/>
<stop offset="0.7294" stop-color="#D82772"/>
<stop offset="0.7721" stop-color="#C22875"/>
<stop offset="0.8122" stop-color="#A52A7A"/>
<stop offset="0.8505" stop-color="#812B7F"/>
<stop offset="0.8867" stop-color="#582D85"/>
<stop offset="0.9028" stop-color="#432E88"/>
</radialGradient>
<radialGradient id="paint3_radial" cx="0" cy="0" r="1" gradientUnits="userSpaceOnUse" gradientTransform="translate(110.408 102.882) rotate(22.5183) scale(72.849 79.7592)">
<stop offset="0.5578" stop-color="#F4266E"/>
<stop offset="0.6305" stop-color="#F1266E"/>
<stop offset="0.6831" stop-color="#E82770"/>
<stop offset="0.7294" stop-color="#D82772"/>
<stop offset="0.7721" stop-color="#C22875"/>
<stop offset="0.8122" stop-color="#A52A7A"/>
<stop offset="0.8505" stop-color="#812B7F"/>
<stop offset="0.8867" stop-color="#582D85"/>
<stop offset="0.9028" stop-color="#432E88"/>
</radialGradient>
<radialGradient id="paint4_radial" cx="0" cy="0" r="1" gradientUnits="userSpaceOnUse" gradientTransform="translate(110.651 103.055) rotate(11.0013) scale(87.9329 92.163)">
<stop offset="0.5578" stop-color="#F4266E"/>
<stop offset="0.6305" stop-color="#F1266E"/>
<stop offset="0.6831" stop-color="#E82770"/>
<stop offset="0.7294" stop-color="#D82772"/>
<stop offset="0.7721" stop-color="#C22875"/>
<stop offset="0.8122" stop-color="#A52A7A"/>
<stop offset="0.8505" stop-color="#812B7F"/>
<stop offset="0.8867" stop-color="#582D85"/>
<stop offset="0.9028" stop-color="#432E88"/>
</radialGradient>
<radialGradient id="paint5_radial" cx="0" cy="0" r="1" gradientUnits="userSpaceOnUse" gradientTransform="translate(110.679 103.002) scale(104.865)">
<stop offset="0.5578" stop-color="#F4266E"/>
<stop offset="0.6305" stop-color="#F1266E"/>
<stop offset="0.6831" stop-color="#E82770"/>
<stop offset="0.7294" stop-color="#D82772"/>
<stop offset="0.7721" stop-color="#C22875"/>
<stop offset="0.8122" stop-color="#A52A7A"/>
<stop offset="0.8505" stop-color="#812B7F"/>
<stop offset="0.8867" stop-color="#582D85"/>
<stop offset="0.9028" stop-color="#432E88"/>
</radialGradient>
</defs>
</svg>
