<svg width="13" height="11" viewBox="0 0 13 11" fill="none" xmlns="http://www.w3.org/2000/svg">
<path d="M6.99992 0.25C3.67179 0.25 0.999917 2.45312 0.999917 5.125C0.999917 6.29688 1.4921 7.35156 2.33585 8.19531C2.03117 9.39062 1.04679 10.4219 1.04679 10.4453C0.999917 10.4922 0.97648 10.5859 0.999917 10.6562C1.04679 10.7266 1.09367 10.75 1.18742 10.75C2.73429 10.75 3.90617 10.0234 4.46867 9.55469C5.2421 9.83594 6.08586 10 6.99992 10C10.3046 10 12.9999 7.82031 12.9999 5.125C12.9999 2.45312 10.3046 0.25 6.99992 0.25ZM7.74992 6.4375C7.74992 6.55469 7.65617 6.625 7.56242 6.625H4.18742C4.07023 6.625 3.99992 6.55469 3.99992 6.4375V6.0625C3.99992 5.96875 4.07023 5.875 4.18742 5.875H7.56242C7.65617 5.875 7.74992 5.96875 7.74992 6.0625V6.4375ZM9.99992 4.1875C9.99992 4.30469 9.90617 4.375 9.81242 4.375H4.18742C4.07023 4.375 3.99992 4.30469 3.99992 4.1875V3.8125C3.99992 3.71875 4.07023 3.625 4.18742 3.625H9.81242C9.90617 3.625 9.99992 3.71875 9.99992 3.8125V4.1875Z" fill="#999999"/>
</svg>
