<svg width="21" height="33" viewBox="0 0 21 33" fill="none" xmlns="http://www.w3.org/2000/svg">
<path d="M10.5 22.6875C13.6619 22.6875 16.2273 19.9805 16.2273 16.5V6.1875C16.2273 2.77148 13.6619 0 10.5 0C7.27841 0 4.77273 2.77148 4.77273 6.1875V16.5C4.77273 19.9805 7.27841 22.6875 10.5 22.6875ZM20.0455 12.375H19.0909C18.554 12.375 18.1364 12.8906 18.1364 13.4062V16.5C18.1364 21.334 14.2585 25.2012 9.72443 24.75C5.72727 24.2988 2.86364 20.4961 2.86364 16.1777V13.4062C2.86364 12.8906 2.38636 12.375 1.90909 12.375H0.954545C0.417614 12.375 0 12.8906 0 13.4062V16.0488C0 21.7852 3.75852 26.9414 9.06818 27.7148V29.9062H5.72727C5.19034 29.9062 4.77273 30.4219 4.77273 30.9375V31.9688C4.77273 32.5488 5.19034 33 5.72727 33H15.2727C15.75 33 16.2273 32.5488 16.2273 31.9688V30.9375C16.2273 30.4219 15.75 29.9062 15.2727 29.9062H11.9318V27.7793C17.0028 27.0059 21 22.2363 21 16.5V13.4062C21 12.8906 20.5227 12.375 20.0455 12.375Z" fill="white"/>
</svg>
