<svg width="10" height="8" viewBox="0 0 10 8" fill="none" xmlns="http://www.w3.org/2000/svg">
<path d="M2.8125 0.9375V1.95312H0.9375C0.410156 1.95312 0 2.38281 0 2.89062V4.62891C0 5.13672 0.410156 5.56641 0.9375 5.56641H2.8125V6.5625C2.8125 7.40234 3.80859 7.8125 4.39453 7.22656L7.20703 4.41406C7.57812 4.0625 7.57812 3.45703 7.20703 3.08594L4.39453 0.273438C3.80859 -0.3125 2.8125 0.117188 2.8125 0.9375ZM6.5625 3.75L3.75 6.5625V4.62891H0.9375V2.89062H3.75V0.9375L6.5625 3.75ZM8.125 7.5C9.16016 7.5 10 6.66016 10 5.625V1.875C10 0.839844 9.16016 0 8.125 0H6.48438C6.34766 0 6.25 0.117188 6.25 0.234375V0.703125C6.25 0.839844 6.34766 0.9375 6.48438 0.9375H8.125C8.63281 0.9375 9.0625 1.36719 9.0625 1.875V5.625C9.0625 6.15234 8.63281 6.5625 8.125 6.5625H6.48438C6.34766 6.5625 6.25 6.67969 6.25 6.79688V7.26562C6.25 7.40234 6.34766 7.5 6.48438 7.5H8.125Z" fill="#9A9A9A"/>
</svg>
