<svg width="66" height="71" viewBox="0 0 66 71" fill="none" xmlns="http://www.w3.org/2000/svg">
<path d="M32 70.9034C48.5685 70.9034 62 57.4935 62 40.9517C62 24.4098 48.5685 11 32 11C15.4315 11 2 24.4098 2 40.9517C2 57.4935 15.4315 70.9034 32 70.9034Z" fill="#F0F3F8"/>
<path d="M63.8 29.5942C64.7941 29.5942 65.6 28.7896 65.6 27.7971C65.6 26.8046 64.7941 26 63.8 26C62.8059 26 62 26.8046 62 27.7971C62 28.7896 62.8059 29.5942 63.8 29.5942Z" fill="#CBD5E7"/>
<path d="M61.1 37.1965C61.7075 37.1965 62.2 36.7048 62.2 36.0982C62.2 35.4917 61.7075 35 61.1 35C60.4925 35 60 35.4917 60 36.0982C60 36.7048 60.4925 37.1965 61.1 37.1965Z" fill="#CBD5E7"/>
<path d="M17.6948 10.8447C17.5993 10.8745 17.4084 10.934 17.2832 10.8685C16.9374 10.7672 16.6933 10.3205 16.795 9.97498L18.9846 3.2261C19.0863 2.88061 19.5339 2.63641 19.8797 2.73769C20.2256 2.83897 20.4697 3.28574 20.368 3.63123L18.1784 10.3801C18.1424 10.6005 17.8857 10.7852 17.6948 10.8447Z" fill="#D2D2D2"/>
<path d="M12.6904 11.2555C12.404 11.3449 11.9627 11.2734 11.8438 10.8921L8.45587 4.73268C8.24148 4.38122 8.31349 3.94043 8.66561 3.726C9.01773 3.51158 9.48878 3.67839 9.70316 4.02985L13.0911 10.1893C13.3055 10.5407 13.138 11.0113 12.7859 11.2257C12.7859 11.2257 12.7859 11.2257 12.6904 11.2555Z" fill="#D2D2D2"/>
<path d="M10.1755 15.2823C10.08 15.3121 9.88912 15.3717 9.76392 15.3061L3.22875 13.1614C2.88289 13.0601 2.63878 12.6133 2.74051 12.2678C2.84224 11.9224 3.28983 11.6781 3.63568 11.7794L10.1709 13.9242C10.5167 14.0255 10.7608 14.4722 10.6591 14.8177C10.6231 15.0381 10.4619 15.193 10.1755 15.2823Z" fill="#D2D2D2"/>
<g clip-path="url(#clip0_19080_136165)">
<path d="M20.7021 33.5063H53.4751V55.2026C53.4751 56.5165 52.9532 57.7766 52.0241 58.7057C51.095 59.6348 49.835 60.1567 48.521 60.1567H20.7021V33.5063Z" fill="#D9E2F3"/>
<path d="M50.1658 32.4504H26.918V16.2522H41.938L50.1658 25.1335V32.4504Z" fill="white"/>
<path d="M40.9531 16.6257V24.3514H49.5962L40.9531 16.6257Z" fill="#D9E2F3"/>
<path d="M18.5008 27.8311H11.1872C9.97114 27.8311 8.98535 28.8168 8.98535 30.0329V57.7488C8.98535 58.9648 9.97114 59.9506 11.1872 59.9506H18.5008C19.7168 59.9506 20.7026 58.9648 20.7026 57.7488V30.0329C20.7026 28.8168 19.7168 27.8311 18.5008 27.8311Z" fill="white"/>
<path d="M51.0642 32.6113V24.3835L41.6808 15H25.6113V32.6113H21.7099V30.6606C21.709 29.6216 21.2961 28.6253 20.5617 27.8903C19.8273 27.1553 18.8313 26.7415 17.7923 26.7398H11.9337C11.4178 26.7386 10.9068 26.839 10.4298 27.0354C9.95279 27.2319 9.51921 27.5204 9.15385 27.8846C8.7885 28.2487 8.49852 28.6814 8.30053 29.1577C8.10253 29.6341 8.00042 30.1448 8 30.6606V57.0792C8.00042 57.5951 8.10253 58.1058 8.30053 58.5821C8.49852 59.0585 8.7885 59.4911 9.15385 59.8553C9.51921 60.2194 9.95279 60.508 10.4298 60.7044C10.9068 60.9008 11.4178 61.0013 11.9337 61H48.6306C50.0593 60.9983 51.4289 60.43 52.4391 59.4198C53.4493 58.4096 54.0176 57.04 54.0193 55.6113V32.6113H51.0642ZM19.743 59.03H11.9337C11.4165 59.0291 10.9209 58.8233 10.5552 58.4577C10.1896 58.092 9.98377 57.5963 9.98292 57.0792V30.6606C9.98377 30.1435 10.1896 29.6478 10.5552 29.2822C10.9209 28.9165 11.4165 28.7107 11.9337 28.7099H17.8052C18.3223 28.7107 18.818 28.9165 19.1836 29.2822C19.5493 29.6478 19.755 30.1435 19.7559 30.6606L19.743 59.03ZM42.2602 18.3607L47.7036 23.8041H42.2602V18.3607ZM27.5814 16.9701H40.2901V25.7741H49.0942V32.6113H27.5814V16.9701ZM52.0299 55.5985C52.0291 56.5049 51.6687 57.3739 51.0277 58.0149C50.3868 58.6558 49.5177 59.0162 48.6113 59.0171H21.7099V34.5814H52.0299V55.5985Z" fill="#434E69"/>
<path d="M46.6637 38.4829H27.0791V40.453H46.6637V38.4829Z" fill="#434E69"/>
<path d="M46.6634 44.3545H44.6934V46.3245H46.6634V44.3545Z" fill="#434E69"/>
<path d="M40.7923 44.3545H38.8223V46.3245H40.7923V44.3545Z" fill="#434E69"/>
<path d="M34.9212 44.3545H32.9512V46.3245H34.9212V44.3545Z" fill="#434E69"/>
<path d="M29.0492 44.3545H27.0791V46.3245H29.0492V44.3545Z" fill="#F4266E"/>
<path d="M46.6634 50.2227H44.6934V52.1927H46.6634V50.2227Z" fill="#434E69"/>
<path d="M40.7923 50.2227H38.8223V52.1927H40.7923V50.2227Z" fill="#F4266E"/>
<path d="M34.9212 50.2227H32.9512V52.1927H34.9212V50.2227Z" fill="#434E69"/>
<path d="M29.0492 50.2227H27.0791V52.1927H29.0492V50.2227Z" fill="#434E69"/>
<path d="M18.7775 19.1122C19.2384 19.2662 19.6317 19.5754 19.8901 19.987C20.1486 20.3985 20.2564 20.887 20.195 21.3691C20.1336 21.8512 19.9069 22.2971 19.5535 22.6308C19.2001 22.9645 18.742 23.1652 18.2571 23.1988C17.7723 23.2325 17.2908 23.0969 16.8947 22.8152C16.4987 22.5336 16.2126 22.1233 16.0852 21.6542C15.9578 21.1852 15.9971 20.6865 16.1963 20.2432C16.3954 19.7999 16.7422 19.4394 17.1775 19.2232C17.6751 18.976 18.2505 18.936 18.7775 19.1122ZM19.0955 18.1642C18.416 17.9338 17.6777 17.9462 17.0064 18.1993C16.3351 18.4524 15.7724 18.9305 15.4141 19.5521C15.0559 20.1736 14.9243 20.9002 15.0419 21.608C15.1595 22.3157 15.5189 22.9608 16.0588 23.4332C16.5988 23.9055 17.2859 24.176 18.003 24.1985C18.72 24.2209 19.4227 23.994 19.9912 23.5563C20.5596 23.1186 20.9587 22.4974 21.1203 21.7984C21.2819 21.0994 21.1961 20.366 20.8775 19.7232C20.697 19.3587 20.4463 19.0336 20.1395 18.7665C19.8328 18.4995 19.4763 18.2958 19.0905 18.1672L19.0955 18.1642Z" fill="#EBCCD8"/>
</g>
<defs>
<clipPath id="clip0_19080_136165">
<rect width="46" height="46" fill="white" transform="translate(8 15)"/>
</clipPath>
</defs>
</svg>
