<svg width="415" height="100" viewBox="0 0 415 100" fill="none" xmlns="http://www.w3.org/2000/svg">
<rect y="23" width="400" height="58" rx="29" fill="#D2D2D2"/>
<circle cx="365" cy="50" r="50" fill="#F0F3F8"/>
<mask id="mask0" mask-type="alpha" maskUnits="userSpaceOnUse" x="0" y="23" width="400" height="58">
<rect y="23" width="400" height="58" rx="29" fill="#D9E2F3"/>
</mask>
<g mask="url(#mask0)">
<circle cx="365" cy="50" r="51" fill="#DDDDDD" stroke="white" stroke-width="2"/>
</g>
<path d="M362.579 55.217C365.162 55.217 367.258 53.0308 367.258 50.22V41.8916C367.258 39.1328 365.162 36.8945 362.579 36.8945C359.947 36.8945 357.9 39.1328 357.9 41.8916V50.22C357.9 53.0308 359.947 55.217 362.579 55.217ZM370.378 46.8886H369.598C369.16 46.8886 368.818 47.305 368.818 47.7215V50.22C368.818 54.1239 365.65 57.2471 361.945 56.8827C358.679 56.5183 356.34 53.4472 356.34 49.9597V47.7215C356.34 47.305 355.95 46.8886 355.56 46.8886H354.78C354.341 46.8886 354 47.305 354 47.7215V49.8556C354 54.4883 357.071 58.6525 361.409 59.2771V61.0469H358.679C358.241 61.0469 357.9 61.4633 357.9 61.8797V62.7126C357.9 63.1811 358.241 63.5454 358.679 63.5454H366.479C366.869 63.5454 367.258 63.1811 367.258 62.7126V61.8797C367.258 61.4633 366.869 61.0469 366.479 61.0469H363.749V59.3292C367.892 58.7045 371.158 54.8527 371.158 50.22V47.7215C371.158 47.305 370.768 46.8886 370.378 46.8886Z" fill="#9A9A9A"/>
<path d="M363.948 52.5257C363.948 50.956 365.221 49.6836 366.79 49.6836H378.159C379.728 49.6836 381.001 50.956 381.001 52.5257V63.8941C381.001 65.4638 379.728 66.7362 378.159 66.7362H366.79C365.221 66.7362 363.948 65.4638 363.948 63.8941V52.5257Z" fill="#FF0000"/>
<path fill-rule="evenodd" clip-rule="evenodd" d="M378.159 51.1046H366.79C366.006 51.1046 365.369 51.7409 365.369 52.5257V63.8941C365.369 64.6789 366.006 65.3152 366.79 65.3152H378.159C378.944 65.3152 379.58 64.6789 379.58 63.8941V52.5257C379.58 51.7409 378.944 51.1046 378.159 51.1046ZM366.79 49.6836C365.221 49.6836 363.948 50.956 363.948 52.5257V63.8941C363.948 65.4638 365.221 66.7362 366.79 66.7362H378.159C379.728 66.7362 381.001 65.4638 381.001 63.8941V52.5257C381.001 50.956 379.728 49.6836 378.159 49.6836H366.79Z" fill="#DDDDDD"/>
<path d="M373.74 58.1971L376.617 55.3461C376.777 55.1862 376.777 54.8932 376.617 54.7333L375.951 54.0672C375.791 53.9073 375.498 53.9073 375.338 54.0672L372.487 56.9448L369.61 54.0672C369.45 53.9073 369.157 53.9073 368.997 54.0672L368.331 54.7333C368.171 54.8932 368.171 55.1862 368.331 55.3461L371.208 58.1971L368.331 61.0747C368.171 61.2346 368.171 61.5277 368.331 61.6876L368.997 62.3537C369.157 62.5135 369.45 62.5135 369.61 62.3537L372.487 59.476L375.338 62.3537C375.498 62.5135 375.791 62.5135 375.951 62.3537L376.617 61.6876C376.777 61.5277 376.777 61.2346 376.617 61.0747L373.74 58.1971Z" fill="white"/>
<path d="M36.096 48.36C37.1733 48.36 38.0267 48.6747 38.656 49.304C39.2853 49.9227 39.6 50.856 39.6 52.104V57H37.6V52.36C37.6 51.6133 37.4347 51.0533 37.104 50.68C36.7733 50.296 36.2987 50.104 35.68 50.104C35.008 50.104 34.4693 50.328 34.064 50.776C33.6587 51.2133 33.456 51.8427 33.456 52.664V57H31.456V52.36C31.456 51.6133 31.2907 51.0533 30.96 50.68C30.6293 50.296 30.1547 50.104 29.536 50.104C28.8533 50.104 28.3093 50.3227 27.904 50.76C27.5093 51.1973 27.312 51.832 27.312 52.664V57H25.312V48.456H27.216V49.544C27.536 49.16 27.936 48.8667 28.416 48.664C28.896 48.4613 29.4293 48.36 30.016 48.36C30.656 48.36 31.2213 48.4827 31.712 48.728C32.2133 48.9627 32.608 49.3147 32.896 49.784C33.248 49.336 33.7013 48.9893 34.256 48.744C34.8107 48.488 35.424 48.36 36.096 48.36ZM50.2659 52.776C50.2659 52.9147 50.2552 53.112 50.2339 53.368H43.5299C43.6472 53.9973 43.9512 54.4987 44.4419 54.872C44.9432 55.2347 45.5619 55.416 46.2979 55.416C47.2365 55.416 48.0099 55.1067 48.6179 54.488L49.6899 55.72C49.3059 56.1787 48.8205 56.5253 48.2339 56.76C47.6472 56.9947 46.9859 57.112 46.2499 57.112C45.3112 57.112 44.4845 56.9253 43.7699 56.552C43.0552 56.1787 42.5005 55.6613 42.1059 55C41.7219 54.328 41.5299 53.5707 41.5299 52.728C41.5299 51.896 41.7165 51.1493 42.0899 50.488C42.4739 49.816 43.0019 49.2933 43.6739 48.92C44.3459 48.5467 45.1032 48.36 45.9459 48.36C46.7779 48.36 47.5192 48.5467 48.1699 48.92C48.8312 49.2827 49.3432 49.8 49.7059 50.472C50.0792 51.1333 50.2659 51.9013 50.2659 52.776ZM45.9459 49.96C45.3059 49.96 44.7619 50.152 44.3139 50.536C43.8765 50.9093 43.6099 51.4107 43.5139 52.04H48.3619C48.2765 51.4213 48.0152 50.92 47.5779 50.536C47.1405 50.152 46.5965 49.96 45.9459 49.96ZM60.219 52.776C60.219 52.9147 60.2083 53.112 60.187 53.368H53.483C53.6003 53.9973 53.9043 54.4987 54.395 54.872C54.8963 55.2347 55.515 55.416 56.251 55.416C57.1897 55.416 57.963 55.1067 58.571 54.488L59.643 55.72C59.259 56.1787 58.7737 56.5253 58.187 56.76C57.6003 56.9947 56.939 57.112 56.203 57.112C55.2643 57.112 54.4377 56.9253 53.723 56.552C53.0083 56.1787 52.4537 55.6613 52.059 55C51.675 54.328 51.483 53.5707 51.483 52.728C51.483 51.896 51.6697 51.1493 52.043 50.488C52.427 49.816 52.955 49.2933 53.627 48.92C54.299 48.5467 55.0563 48.36 55.899 48.36C56.731 48.36 57.4723 48.5467 58.123 48.92C58.7843 49.2827 59.2963 49.8 59.659 50.472C60.0323 51.1333 60.219 51.9013 60.219 52.776ZM55.899 49.96C55.259 49.96 54.715 50.152 54.267 50.536C53.8297 50.9093 53.563 51.4107 53.467 52.04H58.315C58.2297 51.4213 57.9683 50.92 57.531 50.536C57.0937 50.152 56.5497 49.96 55.899 49.96ZM67.2761 56.536C67.0415 56.728 66.7535 56.872 66.4121 56.968C66.0815 57.064 65.7295 57.112 65.3561 57.112C64.4175 57.112 63.6921 56.8667 63.1801 56.376C62.6681 55.8853 62.4121 55.1707 62.4121 54.232V50.12H61.0041V48.52H62.4121V46.568H64.4121V48.52H66.7001V50.12H64.4121V54.184C64.4121 54.6 64.5135 54.92 64.7161 55.144C64.9188 55.3573 65.2121 55.464 65.5961 55.464C66.0441 55.464 66.4175 55.3467 66.7161 55.112L67.2761 56.536ZM72.4094 53.336L70.9214 54.744V57H68.9214V45.128H70.9214V52.296L75.0654 48.456H77.4654L73.8974 52.04L77.8014 57H75.3694L72.4094 53.336ZM82.201 48.36C83.4597 48.36 84.4197 48.664 85.081 49.272C85.753 49.8693 86.089 50.776 86.089 51.992V57H84.201V55.96C83.9557 56.3333 83.6037 56.6213 83.145 56.824C82.697 57.016 82.153 57.112 81.513 57.112C80.873 57.112 80.313 57.0053 79.833 56.792C79.353 56.568 78.9797 56.264 78.713 55.88C78.457 55.4853 78.329 55.0427 78.329 54.552C78.329 53.784 78.6117 53.1707 79.177 52.712C79.753 52.2427 80.6543 52.008 81.881 52.008H84.089V51.88C84.089 51.2827 83.9077 50.824 83.545 50.504C83.193 50.184 82.665 50.024 81.961 50.024C81.481 50.024 81.0063 50.0987 80.537 50.248C80.0783 50.3973 79.689 50.6053 79.369 50.872L78.585 49.416C79.033 49.0747 79.5717 48.8133 80.201 48.632C80.8303 48.4507 81.497 48.36 82.201 48.36ZM81.929 55.656C82.4303 55.656 82.873 55.544 83.257 55.32C83.6517 55.0853 83.929 54.7547 84.089 54.328V53.336H82.025C80.873 53.336 80.297 53.7147 80.297 54.472C80.297 54.8347 80.441 55.1227 80.729 55.336C81.017 55.5493 81.417 55.656 81.929 55.656ZM91.2958 57.112C90.6024 57.112 89.9251 57.0213 89.2638 56.84C88.6024 56.6587 88.0744 56.4293 87.6798 56.152L88.4478 54.632C88.8318 54.888 89.2904 55.096 89.8238 55.256C90.3678 55.4053 90.9011 55.48 91.4238 55.48C92.6184 55.48 93.2158 55.1653 93.2158 54.536C93.2158 54.2373 93.0611 54.0293 92.7518 53.912C92.4531 53.7947 91.9678 53.6827 91.2958 53.576C90.5918 53.4693 90.0158 53.3467 89.5678 53.208C89.1304 53.0693 88.7464 52.8293 88.4158 52.488C88.0958 52.136 87.9358 51.6507 87.9358 51.032C87.9358 50.2213 88.2718 49.576 88.9438 49.096C89.6264 48.6053 90.5438 48.36 91.6958 48.36C92.2824 48.36 92.8691 48.4293 93.4558 48.568C94.0424 48.696 94.5224 48.872 94.8958 49.096L94.1278 50.616C93.4024 50.1893 92.5864 49.976 91.6798 49.976C91.0931 49.976 90.6451 50.0667 90.3358 50.248C90.0371 50.4187 89.8878 50.648 89.8878 50.936C89.8878 51.256 90.0478 51.4853 90.3678 51.624C90.6984 51.752 91.2051 51.8747 91.8878 51.992C92.5704 52.0987 93.1304 52.2213 93.5678 52.36C94.0051 52.4987 94.3784 52.7333 94.6878 53.064C95.0078 53.3947 95.1678 53.864 95.1678 54.472C95.1678 55.272 94.8211 55.912 94.1278 56.392C93.4344 56.872 92.4904 57.112 91.2958 57.112ZM101.626 48.36C102.458 48.36 103.199 48.5413 103.85 48.904C104.511 49.2667 105.029 49.7787 105.402 50.44C105.775 51.1013 105.962 51.864 105.962 52.728C105.962 53.592 105.775 54.36 105.402 55.032C105.029 55.6933 104.511 56.2053 103.85 56.568C103.199 56.9307 102.458 57.112 101.626 57.112C100.474 57.112 99.5621 56.728 98.8901 55.96V60.104H96.8901V48.456H98.7941V49.576C99.1248 49.1707 99.5301 48.8667 100.01 48.664C100.501 48.4613 101.039 48.36 101.626 48.36ZM101.402 55.4C102.138 55.4 102.741 55.1547 103.21 54.664C103.69 54.1733 103.93 53.528 103.93 52.728C103.93 51.928 103.69 51.2827 103.21 50.792C102.741 50.3013 102.138 50.056 101.402 50.056C100.922 50.056 100.49 50.168 100.106 50.392C99.7221 50.6053 99.4181 50.9147 99.1941 51.32C98.9701 51.7253 98.8581 52.1947 98.8581 52.728C98.8581 53.2613 98.9701 53.7307 99.1941 54.136C99.4181 54.5413 99.7221 54.856 100.106 55.08C100.49 55.2933 100.922 55.4 101.402 55.4ZM115.891 52.776C115.891 52.9147 115.88 53.112 115.859 53.368H109.155C109.272 53.9973 109.576 54.4987 110.067 54.872C110.568 55.2347 111.187 55.416 111.923 55.416C112.862 55.416 113.635 55.1067 114.243 54.488L115.315 55.72C114.931 56.1787 114.446 56.5253 113.859 56.76C113.272 56.9947 112.611 57.112 111.875 57.112C110.936 57.112 110.11 56.9253 109.395 56.552C108.68 56.1787 108.126 55.6613 107.731 55C107.347 54.328 107.155 53.5707 107.155 52.728C107.155 51.896 107.342 51.1493 107.715 50.488C108.099 49.816 108.627 49.2933 109.299 48.92C109.971 48.5467 110.728 48.36 111.571 48.36C112.403 48.36 113.144 48.5467 113.795 48.92C114.456 49.2827 114.968 49.8 115.331 50.472C115.704 51.1333 115.891 51.9013 115.891 52.776ZM111.571 49.96C110.931 49.96 110.387 50.152 109.939 50.536C109.502 50.9093 109.235 51.4107 109.139 52.04H113.987C113.902 51.4213 113.64 50.92 113.203 50.536C112.766 50.152 112.222 49.96 111.571 49.96ZM119.716 49.704C120.292 48.808 121.305 48.36 122.756 48.36V50.264C122.585 50.232 122.431 50.216 122.292 50.216C121.513 50.216 120.905 50.4453 120.468 50.904C120.031 51.352 119.812 52.0027 119.812 52.856V57H117.812V48.456H119.716V49.704ZM125.015 57.112C124.652 57.112 124.343 56.9893 124.087 56.744C123.831 56.488 123.703 56.168 123.703 55.784C123.703 55.3893 123.825 55.0693 124.071 54.824C124.327 54.5787 124.641 54.456 125.015 54.456C125.388 54.456 125.697 54.5787 125.943 54.824C126.199 55.0693 126.327 55.3893 126.327 55.784C126.327 56.168 126.199 56.488 125.943 56.744C125.687 56.9893 125.377 57.112 125.015 57.112ZM132.045 57.112C131.159 57.112 130.365 56.9253 129.661 56.552C128.957 56.1787 128.407 55.6613 128.013 55C127.618 54.328 127.421 53.5707 127.421 52.728C127.421 51.8853 127.618 51.1333 128.013 50.472C128.407 49.8107 128.951 49.2933 129.645 48.92C130.349 48.5467 131.149 48.36 132.045 48.36C132.887 48.36 133.623 48.5307 134.253 48.872C134.893 49.2133 135.373 49.704 135.693 50.344L134.157 51.24C133.911 50.8453 133.602 50.552 133.229 50.36C132.866 50.1573 132.466 50.056 132.029 50.056C131.282 50.056 130.663 50.3013 130.173 50.792C129.682 51.272 129.437 51.9173 129.437 52.728C129.437 53.5387 129.677 54.1893 130.157 54.68C130.647 55.16 131.271 55.4 132.029 55.4C132.466 55.4 132.866 55.304 133.229 55.112C133.602 54.9093 133.911 54.6107 134.157 54.216L135.693 55.112C135.362 55.752 134.877 56.248 134.237 56.6C133.607 56.9413 132.877 57.112 132.045 57.112ZM141.136 57.112C140.272 57.112 139.494 56.9253 138.8 56.552C138.107 56.1787 137.563 55.6613 137.168 55C136.784 54.328 136.592 53.5707 136.592 52.728C136.592 51.8853 136.784 51.1333 137.168 50.472C137.563 49.8107 138.107 49.2933 138.8 48.92C139.494 48.5467 140.272 48.36 141.136 48.36C142.011 48.36 142.795 48.5467 143.488 48.92C144.182 49.2933 144.72 49.8107 145.104 50.472C145.499 51.1333 145.696 51.8853 145.696 52.728C145.696 53.5707 145.499 54.328 145.104 55C144.72 55.6613 144.182 56.1787 143.488 56.552C142.795 56.9253 142.011 57.112 141.136 57.112ZM141.136 55.4C141.872 55.4 142.48 55.1547 142.96 54.664C143.44 54.1733 143.68 53.528 143.68 52.728C143.68 51.928 143.44 51.2827 142.96 50.792C142.48 50.3013 141.872 50.056 141.136 50.056C140.4 50.056 139.792 50.3013 139.312 50.792C138.843 51.2827 138.608 51.928 138.608 52.728C138.608 53.528 138.843 54.1733 139.312 54.664C139.792 55.1547 140.4 55.4 141.136 55.4ZM158.393 48.36C159.47 48.36 160.324 48.6747 160.953 49.304C161.582 49.9227 161.897 50.856 161.897 52.104V57H159.897V52.36C159.897 51.6133 159.732 51.0533 159.401 50.68C159.07 50.296 158.596 50.104 157.977 50.104C157.305 50.104 156.766 50.328 156.361 50.776C155.956 51.2133 155.753 51.8427 155.753 52.664V57H153.753V52.36C153.753 51.6133 153.588 51.0533 153.257 50.68C152.926 50.296 152.452 50.104 151.833 50.104C151.15 50.104 150.606 50.3227 150.201 50.76C149.806 51.1973 149.609 51.832 149.609 52.664V57H147.609V48.456H149.513V49.544C149.833 49.16 150.233 48.8667 150.713 48.664C151.193 48.4613 151.726 48.36 152.313 48.36C152.953 48.36 153.518 48.4827 154.009 48.728C154.51 48.9627 154.905 49.3147 155.193 49.784C155.545 49.336 155.998 48.9893 156.553 48.744C157.108 48.488 157.721 48.36 158.393 48.36Z" fill="#02122F"/>
</svg>
