<svg width="13.494mm" height="13.494mm" version="1.1" viewBox="0 0 13.494 13.494" xmlns="http://www.w3.org/2000/svg">
 <g transform="translate(-124.04 -109.85)">
  <g transform="matrix(.26458 0 0 .26458 124.04 109.85)" style="fill:none">
   <path d="m25.5 51c14.083 0 25.5-11.417 25.5-25.5s-11.417-25.5-25.5-25.5-25.5 11.417-25.5 25.5 11.417 25.5 25.5 25.5z" fill="#f0f3f8"/>
  </g>
  <g transform="matrix(.26458 0 0 .26458 127.16 112.77)" style="fill:none">
   <path d="m1.8409 11.653c0-3.634 1.372-7.0492 3.8648-9.6174 0.35955-0.3707 0.35955-0.97212 0-1.3428-0.35955-0.3707-0.94289-0.3707-1.3024 0-2.8396 2.927-4.4032 6.8203-4.4032 10.96 0 0.5237 0.41248 0.949 0.92046 0.949 0.50798 0 0.92046-0.4253 0.92046-0.949z" fill="#414e6a"/>
  </g>
  <g transform="matrix(.26458 0 0 .26458 124.94 116.98)" style="fill:none">
   <path d="m1.3296 2.6593c0.73434 0 1.3296-0.5953 1.3296-1.3296 0-0.73434-0.5953-1.3296-1.3296-1.3296s-1.3296 0.5953-1.3296 1.3296c0 0.73434 0.5953 1.3296 1.3296 1.3296z" fill="#cbd5e8"/>
  </g>
  <g transform="matrix(.26458 0 0 .26458 129.14 121.45)" style="fill:none">
   <path d="m1.3296 2.6593c0.73434 0 1.3296-0.5953 1.3296-1.3296 0-0.73434-0.5953-1.3296-1.3296-1.3296s-1.3296 0.5953-1.3296 1.3296c0 0.73434 0.5953 1.3296 1.3296 1.3296z" fill="#cbd5e8"/>
  </g>
  <g transform="matrix(.26458 0 0 .26458 125.8 112.82)" style="fill:none">
   <path d="m1.8089 2.3405c0.51633 0 0.9349-0.41857 0.9349-0.9349 0-0.51634-0.41857-0.93491-0.9349-0.93491-0.51634 0-0.93491 0.41857-0.93491 0.93491 0 0.51633 0.41857 0.9349 0.93491 0.9349z" fill="#cbd5e8"/>
  </g>
  <g transform="matrix(.26458 0 0 .26458 135.52 119.07)" style="fill:none">
   <path d="m0.9349 1.8698c0.51634 0 0.93491-0.41857 0.93491-0.93491 0-0.51633-0.41857-0.9349-0.93491-0.9349-0.51633 0-0.9349 0.41857-0.9349 0.9349 0 0.51634 0.41857 0.93491 0.9349 0.93491z" fill="#cbd5e8"/>
  </g>
  <g transform="matrix(.26458 0 0 .26458 135.39 111.92)" style="fill:none">
   <path d="m2.4972 4.9945c-1.3795 0-2.4972-1.1219-2.4972-2.4972 0-1.3795 1.1219-2.4972 2.4972-2.4972s2.4972 1.1219 2.4972 2.4972c0.00416 1.3754-1.1177 2.4972-2.4972 2.4972zm0-4.1676c-0.91828 0-1.6662 0.74792-1.6662 1.6662 0 0.91829 0.74792 1.6662 1.6662 1.6662s1.6662-0.74792 1.6662-1.6662c0-0.91828-0.74376-1.6662-1.6662-1.6662z" fill="#f71e6c" opacity=".3"/>
  </g>
  <g transform="matrix(.26458 0 0 .26458 132.81 112.78)" style="fill:none">
   <path d="m1.5985 0.6916c-0.35955-0.3707-0.94289-0.3707-1.3024 0-0.35955 0.3707-0.35955 0.97152 0 1.3422 2.4916 2.57 3.8636 5.9852 3.8636 9.6192 0 0.5237 0.41248 0.949 0.92046 0.949s0.92046-0.4253 0.92046-0.949c0-4.14-1.563-8.0332-4.4021-10.961z" fill="#414e6a"/>
  </g>
  <g transform="matrix(.26458 0 0 .26458 127.48 112.58)" style="fill:none">
   <path d="m24.011 22.665c-1.8542-1.6169-2.9185-3.9804-2.9185-6.4846v-3.5278c0-4.5635-3.3642-8.331-7.6703-8.806v-2.898c0-0.52372-0.4124-0.94899-0.9204-0.94899s-0.9205 0.42526-0.9205 0.94899v2.898c-4.306 0.47509-7.6708 4.2426-7.6708 8.806v3.5278c0 2.5042-1.0643 4.8677-2.9305 6.4935-0.47749 0.4217-0.75132 1.035-0.75132 1.6832 0 1.2213 0.9636 2.2142 2.1481 2.2142h5.6154c0.42743 2.1631 2.2868 3.7959 4.5097 3.7959s4.0822-1.6328 4.5096-3.7959h5.6154c1.1845 0 2.1476-0.9935 2.1476-2.2142 0-0.6482-0.2739-1.2615-0.7634-1.6921zm-11.509 5.8042c-1.2006 0-2.2235-0.793-2.6032-1.8979h5.2063c-0.3802 1.1049-1.4031 1.8979-2.6031 1.8979zm10.125-3.7959h-20.25c-0.16683 0-0.3072-0.1441-0.3072-0.3162 0-0.1263 0.06789-0.2052 0.11046-0.2431 2.2695-1.9775 3.5714-4.8701 3.5714-7.9336v-3.5278c0-3.8375 3.0277-6.9591 6.7504-6.9591 3.7221 0 6.7498 3.1216 6.7498 6.9591v3.5278c0 3.0629 1.3019 5.9555 3.5737 7.9359 0.0408 0.0356 0.1081 0.1139 0.1081 0.2403 0 0.1726-0.1397 0.3167-0.3066 0.3167z" fill="#414e6a"/>
  </g>
 </g>
</svg>
