<svg width="22" height="20" viewBox="0 0 22 20" fill="none" xmlns="http://www.w3.org/2000/svg">
<path fill-rule="evenodd" clip-rule="evenodd" d="M10.442 16.618C10.4467 16.036 10.6677 15.477 11.0612 15.0523V14.9479C11.3914 14.6138 11.8041 14.1754 11.8041 12.6305C11.7932 12.4289 11.7932 12.2268 11.8041 12.0251C11.5169 12.4072 11.1451 12.7157 10.7186 12.926C10.292 13.1363 9.82269 13.2425 9.34824 13.236C8.49984 13.236 7.68619 12.8951 7.08629 12.2882C6.48638 11.6814 6.14936 10.8583 6.14936 10.0001C6.15481 9.14548 6.49424 8.32776 7.09356 7.72542C7.69287 7.12308 8.5034 6.78503 9.34824 6.78504C10.177 6.78476 10.9732 7.112 11.5669 7.69699C12.1606 8.28198 12.5049 9.07845 12.5265 9.91657C13.042 9.05811 13.8056 8.38041 14.7141 7.97502C14.8534 7.52521 15.1262 7.12965 15.4954 6.84207C15.8646 6.55448 16.3124 6.38879 16.7779 6.3675C17.1524 6.36786 17.5208 6.4637 17.849 6.64614C18.1773 6.82858 18.4548 7.09175 18.6559 7.41134C18.6809 7.35192 18.6938 7.28802 18.6938 7.22346C18.6938 7.15889 18.6809 7.09499 18.6559 7.03557C18.2128 5.61509 17.4659 4.31072 16.4683 3.21511C16.3837 3.14561 16.278 3.10766 16.1691 3.10766C16.0601 3.10766 15.9544 3.14561 15.8698 3.21511L14.1775 4.19632C13.4633 3.56942 12.6365 3.08744 11.7422 2.7767V0.689015C11.744 0.58038 11.7077 0.474619 11.6397 0.390529C11.5717 0.306439 11.4764 0.249462 11.3707 0.229722C9.93688 -0.0942336 8.45002 -0.0942336 7.01615 0.229722C6.91231 0.253096 6.81924 0.311079 6.75187 0.394367C6.68451 0.477656 6.64675 0.581422 6.64467 0.689015V2.7767C5.76002 3.10854 4.93679 3.58844 4.2094 4.19632L2.51709 3.21511C2.43575 3.14723 2.3336 3.11011 2.22816 3.11011C2.12272 3.11011 2.02057 3.14723 1.93923 3.21511C0.934903 4.30569 0.187084 5.61168 -0.248391 7.03557C-0.280763 7.14159 -0.275835 7.25568 -0.234448 7.35844C-0.193061 7.46121 -0.11777 7.54629 -0.0213724 7.59924L1.67093 8.60133C1.50597 9.53338 1.50597 10.4877 1.67093 11.4197L-0.0213724 12.4218C-0.11777 12.4747 -0.193061 12.5598 -0.234448 12.6626C-0.275835 12.7654 -0.280763 12.8794 -0.248391 12.9855C0.187084 14.4094 0.934903 15.7153 1.93923 16.8059C2.02057 16.8738 2.12272 16.9109 2.22816 16.9109C2.3336 16.9109 2.43575 16.8738 2.51709 16.8059L4.23004 15.8247C4.93657 16.4514 5.7566 16.9336 6.64467 17.2443V19.2276C6.64675 19.3352 6.68451 19.439 6.75187 19.5223C6.81924 19.6056 6.91231 19.6635 7.01615 19.6869C8.45002 20.0109 9.93688 20.0109 11.3707 19.6869C11.4801 19.6717 11.5803 19.6166 11.6525 19.5321C11.7246 19.4476 11.7639 19.3393 11.7629 19.2276V18.7057C11.3684 18.522 11.0342 18.2277 10.8001 17.8576C10.566 17.4876 10.4417 17.0574 10.442 16.618ZM21.8135 16.117C21.3558 15.6714 21.006 15.1251 20.7912 14.5203C20.5764 13.9156 20.5025 13.2689 20.5752 12.6306C20.5753 11.7996 20.2889 10.9947 19.7652 10.3544C19.2416 9.71418 18.5135 9.2788 17.7066 9.1233V8.66401C17.7116 8.58815 17.7013 8.51205 17.6765 8.4403C17.6517 8.36854 17.6128 8.3026 17.5621 8.24646C17.5015 8.15224 17.4191 8.07445 17.3219 8.01987C17.2248 7.96529 17.116 7.93556 17.0049 7.9333C16.8133 7.9333 16.6296 8.01029 16.4941 8.14732C16.3587 8.28436 16.2826 8.47021 16.2826 8.66401V9.1233C15.4812 9.28676 14.7602 9.72501 14.2413 10.364C13.7224 11.003 13.4374 11.8036 13.4345 12.6306C13.5072 13.2689 13.4333 13.9156 13.2185 14.5203C13.0038 15.1251 12.6539 15.6714 12.1962 16.117C12.1301 16.182 12.0777 16.26 12.0422 16.3461C12.0067 16.4322 11.9889 16.5248 11.9899 16.6181C11.9886 16.7389 12.0207 16.8577 12.0827 16.9611C12.1447 17.0644 12.2341 17.148 12.3407 17.2026C12.4464 17.2868 12.5777 17.3311 12.7122 17.3279H21.2769C21.465 17.328 21.6456 17.2538 21.7805 17.1213C21.9154 16.9887 21.9939 16.8082 21.9993 16.6181C22.0002 16.4337 21.9341 16.2553 21.8135 16.117ZM18.0119 19.0768C17.7448 19.347 17.3826 19.4988 17.0049 19.4988C16.8162 19.5015 16.6288 19.4663 16.4536 19.3951C16.2785 19.324 16.1191 19.2183 15.9846 19.0843C15.8502 18.9503 15.7435 18.7905 15.6706 18.6144C15.5978 18.4382 15.5602 18.2492 15.5603 18.0583H18.4289C18.4289 18.4403 18.2789 18.8067 18.0119 19.0768Z" fill="#D2D2D2"/>
</svg>
