<svg width="12" height="12" viewBox="0 0 12 12" fill="none" xmlns="http://www.w3.org/2000/svg">
<path d="M10.4688 0.4375H1.53125C0.845703 0.4375 0.3125 0.996094 0.3125 1.65625V10.5938C0.3125 11.2793 0.845703 11.8125 1.53125 11.8125H10.4688C11.1289 11.8125 11.6875 11.2793 11.6875 10.5938V1.65625C11.6875 0.996094 11.1289 0.4375 10.4688 0.4375ZM6.40625 7.75H5.1875V8.96875C5.1875 9.19727 4.98438 9.375 4.78125 9.375H3.96875C3.74023 9.375 3.5625 9.19727 3.5625 8.96875V3.28125C3.5625 3.07812 3.74023 2.875 3.96875 2.875H6.40625C7.72656 2.875 8.84375 3.99219 8.84375 5.3125C8.84375 6.6582 7.72656 7.75 6.40625 7.75ZM6.40625 4.5H5.1875V6.125H6.40625C6.83789 6.125 7.21875 5.76953 7.21875 5.3125C7.21875 4.88086 6.83789 4.5 6.40625 4.5Z" fill="#566F9F"/>
</svg>
