<svg width="13" height="13" viewBox="0 0 13 13" fill="none"
    xmlns="http://www.w3.org/2000/svg">
    <path
        d="M12.5236 1.44727L11.5587 0.482422C11.254 0.177734 10.8224 0 10.4161 0C10.0099 0 9.57825 0.177734 9.27356 0.482422L7.36926 2.38672L6.50598 3.25L0.310668 9.44531L0.0059804 12.3398C-0.0448009 12.6953 0.234496 13 0.589965 13C0.615355 13 0.640746 13 0.666137 13L3.56067 12.6953L9.75598 6.5L10.6193 5.63672L12.5236 3.73242C13.1583 3.09766 13.1583 2.08203 12.5236 1.44727ZM3.00207 11.5273L1.3009 11.7051L1.47864 10.0039L7.34387 4.11328L8.13098 3.32617L9.67981 4.875L8.8927 5.66211L3.00207 11.5273ZM11.6603 2.86914L10.5431 4.01172L8.99426 2.46289L10.1368 1.3457C10.2384 1.24414 10.3654 1.21875 10.4161 1.21875C10.4669 1.21875 10.5939 1.24414 10.6954 1.3457L11.6603 2.31055C11.8126 2.46289 11.8126 2.7168 11.6603 2.86914Z"
        fill="current" />
</svg>