<svg width="11" height="11" viewBox="0 0 11 11" fill="none" xmlns="http://www.w3.org/2000/svg">
<path d="M0.404022 0.713755L2.44611 0.225142C2.6621 0.164065 2.89772 0.286218 2.9959 0.510166L3.9384 2.79036C4.01695 2.99395 3.95804 3.2179 3.80096 3.36041L2.60319 4.37836C3.31007 5.92564 4.5471 7.22861 6.07867 7.98189L7.06044 6.73999C7.19789 6.57712 7.41388 6.51605 7.61023 6.59748L9.8094 7.57471C10.0254 7.6765 10.1236 7.92081 10.0843 8.14476L9.61305 10.2621C9.55414 10.486 9.37742 10.6285 9.1418 10.6285C4.11512 10.6285 0.0309486 6.41425 0.0309486 1.18201C0.0309486 0.958062 0.188032 0.774832 0.404022 0.713755Z" fill="#999999"/>
</svg>
