<svg width="108" height="27" viewBox="0 0 108 27" fill="none" xmlns="http://www.w3.org/2000/svg">
<path d="M36.1538 3V20.6219C36.1538 21.3371 36.265 21.8218 36.4884 22.0775C36.7118 22.3331 37.0955 22.461 37.6406 22.461V22.9976C37.3271 22.9807 36.8686 22.959 36.2661 22.9337C35.6625 22.9084 35.0484 22.8951 34.4202 22.8951C33.7757 22.8951 33.1276 22.9084 32.4749 22.9337C31.8221 22.959 31.3308 22.9807 31.0009 22.9976V22.461C31.5788 22.461 31.9871 22.3331 32.2269 22.0775C32.4655 21.8218 32.586 21.3371 32.586 20.6219V6.06542C32.586 5.29967 32.4749 4.73289 32.2514 4.3675C32.028 4.00211 31.6116 3.81881 30.9998 3.81881V3.28218C31.5285 3.33283 32.0397 3.35936 32.5357 3.35936C33.213 3.35936 33.8564 3.32921 34.4682 3.27012C35.08 3.20862 35.6426 3.11939 36.1538 3ZM44.2312 9.79409V10.3054C43.7188 10.4079 43.2065 10.6286 42.6953 10.9699C42.1829 11.3111 41.6624 11.7453 41.1348 12.2722L39.2269 14.315L39.4749 13.8303L43.7118 21.1345C43.8931 21.4408 44.0838 21.7133 44.2815 21.9521C44.4792 22.1908 44.719 22.3609 44.9998 22.4634V23C44.7518 22.9831 44.3809 22.9614 43.8849 22.9361C43.389 22.9108 42.8941 22.8975 42.3981 22.8975C41.7864 22.8975 41.1757 22.9108 40.5651 22.9361C39.9545 22.9614 39.4994 22.9831 39.2023 23V22.4634C39.5322 22.4634 39.7556 22.3826 39.8714 22.221C39.9872 22.0594 39.9708 21.8508 39.8223 21.5951L37.3692 17.0235C37.1715 16.7003 36.9762 16.4917 36.7867 16.3976C36.5972 16.3048 36.3445 16.2493 36.031 16.2312V15.7465C36.3773 15.7127 36.6791 15.6536 36.9353 15.568C37.1914 15.4824 37.4266 15.322 37.6418 15.0832L39.5252 13.1936C40.0867 12.6485 40.3674 12.1637 40.3674 11.738C40.3674 11.3123 40.1896 10.9723 39.8351 10.7166C39.4795 10.461 39.0128 10.3247 38.4349 10.3078V9.7965C38.897 9.81339 39.4012 9.83027 39.9463 9.84715C40.4914 9.86403 40.9535 9.87248 41.3336 9.87248C41.6635 9.87248 42.0145 9.86886 42.3865 9.85921C42.7584 9.85077 43.1082 9.84233 43.4393 9.83389C43.768 9.82303 44.0323 9.81098 44.2312 9.79409Z" fill="#02122F"/>
<path d="M49.1479 22.9975C48.0403 22.9975 47.2384 22.6941 46.7432 22.0871C46.2468 21.4802 45.9998 20.743 45.9998 19.8756C45.9998 19.1299 46.1613 18.5229 46.4833 18.0536C46.8052 17.5855 47.2232 17.1997 47.7359 16.8963C48.2487 16.5928 48.7896 16.3409 49.3598 16.1419C49.9299 15.9429 50.4755 15.7426 50.9964 15.5436C51.5174 15.3445 51.9389 15.1148 52.2608 14.8543C52.5828 14.5939 52.7443 14.2646 52.7443 13.8653V11.8356C52.7443 11.3847 52.6741 10.9817 52.5336 10.6254C52.3931 10.2704 52.1777 9.9964 51.8885 9.80597C51.5994 9.61553 51.2236 9.5197 50.76 9.5197C50.4286 9.5197 50.0985 9.56762 49.7683 9.66222C49.437 9.75805 49.1642 9.91777 48.95 10.1438C49.4124 10.3171 49.7719 10.5824 50.0282 10.9375C50.2846 11.2938 50.4122 11.6968 50.4122 12.1477C50.4122 12.7374 50.2179 13.2055 49.8292 13.5532C49.4405 13.9009 48.9816 14.0742 48.4536 14.0742C47.8589 14.0742 47.4081 13.8788 47.1026 13.4881C46.797 13.0974 46.6437 12.6256 46.6437 12.0703C46.6437 11.5678 46.7631 11.1513 47.0031 10.8208C47.2419 10.4915 47.5767 10.1795 48.0076 9.8846C48.47 9.60693 49.0284 9.3907 49.6817 9.23466C50.335 9.07863 51.0409 9 51.8019 9C52.5617 9 53.2478 9.08232 53.86 9.24695C54.4712 9.41158 54.9839 9.71136 55.3972 10.1451C55.7777 10.5444 56.0247 11.0346 56.1406 11.6157C56.2565 12.1968 56.3139 12.9303 56.3139 13.8149V20.8929C56.3139 21.3094 56.3549 21.6043 56.438 21.7775C56.5211 21.9508 56.6616 22.038 56.8595 22.038C57.0245 22.038 57.1814 21.995 57.3301 21.9078C57.4788 21.8218 57.6193 21.7173 57.7516 21.5957L57.9998 22.038C57.6532 22.3501 57.2517 22.5884 56.7974 22.753C56.3432 22.9177 55.8339 23 55.2719 23C54.2803 23 53.6236 22.7875 53.3004 22.3624C52.9785 21.9373 52.8087 21.447 52.7923 20.8917C52.3791 21.6031 51.871 22.1326 51.268 22.4791C50.664 22.8243 49.958 22.9975 49.1479 22.9975ZM51.0573 21.3328C51.3711 21.3328 51.6649 21.2554 51.9377 21.0981C52.2105 20.9421 52.4786 20.6644 52.7432 20.2651V14.9305C52.5453 15.2782 52.2679 15.5681 51.912 15.8016C51.556 16.0362 51.1931 16.2869 50.8208 16.5559C50.4485 16.825 50.1395 17.1678 49.8913 17.5843C49.6431 18.0008 49.519 18.5561 49.519 19.2491C49.519 19.9948 49.6677 20.528 49.965 20.8487C50.2636 21.1731 50.6265 21.3328 51.0573 21.3328Z" fill="#02122F"/>
<path d="M63.6423 9C64.3809 9 65.0274 9.08975 65.5817 9.26925C66.136 9.44876 66.5359 9.62462 66.7825 9.79563C67.3804 10.1898 67.7491 9.93269 67.8911 9.02547H68.4454C68.4106 9.50455 68.3832 10.0916 68.367 10.7853C68.3495 11.4791 68.3408 12.3996 68.3408 13.547H67.7865C67.6981 12.9139 67.5311 12.2881 67.2858 11.6719C67.0391 11.0558 66.6829 10.55 66.217 10.1559C65.7511 9.76167 65.1482 9.56519 64.4096 9.56519C63.8989 9.56519 63.4691 9.7071 63.1166 9.98848C62.7641 10.2711 62.5884 10.6786 62.5884 11.2086C62.5884 11.7229 62.7466 12.1716 63.063 12.5573C63.3794 12.943 63.788 13.3105 64.29 13.6622C64.7907 14.0139 65.3139 14.3863 65.8595 14.7793C66.7389 15.4136 67.4813 16.0503 68.0892 16.6931C68.6958 17.3347 68.9998 18.1704 68.9998 19.1977C68.9998 19.9679 68.7706 20.641 68.3134 21.2147C67.8563 21.7884 67.2534 22.2298 66.506 22.5379C65.7586 22.846 64.9278 23 64.0135 23C63.4853 23 63.0157 22.9491 62.6021 22.846C62.1886 22.7429 61.8323 22.6143 61.5334 22.4603C61.3042 22.3572 61.0887 22.2589 60.8869 22.1643C60.6851 22.071 60.4958 21.9885 60.3201 21.9206C60.1445 21.8696 59.99 21.929 59.858 22.1001C59.726 22.2711 59.6251 22.5112 59.5541 22.8193H58.9998C59.0346 22.2711 59.0608 21.604 59.0795 20.8156C59.0969 20.0285 59.1056 18.983 59.1056 17.6816H59.6599C59.7658 18.6058 59.9589 19.4245 60.2404 20.1352C60.5219 20.846 60.9043 21.4027 61.3877 21.8053C61.871 22.208 62.4826 22.4093 63.2212 22.4093C63.6784 22.4093 64.1007 22.2674 64.4881 21.9861C64.8742 21.7035 65.0685 21.2377 65.0685 20.5864C65.0685 19.8332 64.8181 19.2086 64.3162 18.7113C63.8154 18.2153 63.1776 17.6756 62.4041 17.0934C61.8411 16.6483 61.3092 16.2068 60.8084 15.7702C60.3077 15.3335 59.8979 14.8545 59.5815 14.3317C59.2651 13.809 59.1069 13.2147 59.1069 12.5464C59.1069 11.7762 59.3174 11.1249 59.7397 10.5937C60.1619 10.0625 60.72 9.66465 61.4151 9.39903C62.1076 9.13341 62.8513 9 63.6423 9Z" fill="#02122F"/>
<path d="M75.3714 9.07639V24.497C75.3714 25.2883 75.5776 25.8159 75.991 26.0773C76.4045 26.3387 76.9729 26.4688 77.6962 26.4688V27C77.2486 26.9833 76.6326 26.9618 75.8496 26.9367C75.0653 26.9117 74.2346 26.8985 73.3564 26.8985C72.7185 26.8985 72.0952 26.9117 71.4842 26.9367C70.8731 26.9618 70.412 26.9833 70.1022 27V26.4688C70.6706 26.4688 71.0707 26.3507 71.3036 26.1143C71.5366 25.878 71.6525 25.4232 71.6525 24.7488V12.1094C71.6525 11.3515 71.5317 10.7905 71.2914 10.4288C71.0499 10.0671 70.6194 9.88568 69.9998 9.88568V9.35451C70.5511 9.40464 71.0853 9.4309 71.6013 9.4309C72.3075 9.4309 72.9783 9.40225 73.6162 9.34257C74.2517 9.28289 74.8372 9.19456 75.3714 9.07639ZM79.3758 9C80.6845 9 81.7823 9.52281 82.669 10.5672C83.5558 11.6129 83.9998 13.1885 83.9998 15.294C83.9998 16.9293 83.7497 18.302 83.2508 19.4145C82.7508 20.5269 82.058 21.3649 81.1712 21.9294C80.2845 22.494 79.2294 22.7757 78.0072 22.7757C77.3352 22.7757 76.7241 22.6623 76.1728 22.4344C75.6215 22.2064 75.1994 21.8829 74.9067 21.4615L75.1653 21.1333C75.3373 21.4365 75.5824 21.6728 75.902 21.8411C76.2204 22.0094 76.5863 22.0942 76.9998 22.0942C77.7743 22.0942 78.3854 21.8375 78.8342 21.3231C79.2819 20.8086 79.6051 20.0841 79.8027 19.1495C80.0003 18.2137 80.1003 17.0976 80.1003 15.8001C80.1003 14.3511 80.0052 13.2135 79.8161 12.3875C79.6258 11.5615 79.3685 10.9719 79.0416 10.6174C78.7147 10.2641 78.3183 10.0862 77.8536 10.0862C77.2339 10.0862 76.6692 10.3225 76.1618 10.794C75.6532 11.2655 75.3653 11.9399 75.297 12.816L75.1677 11.9316C75.4775 10.9707 76.0069 10.2426 76.757 9.74483C77.5023 9.24947 78.3768 9 79.3758 9Z" fill="#02122F"/>
<path d="M91.2241 9C92.7137 9 93.883 9.44516 94.7297 10.3355C95.5764 11.2258 95.9998 12.6826 95.9998 14.7021H87.643L87.5927 14.2145H92.8C92.8168 13.3752 92.7664 12.6001 92.6477 11.8893C92.529 11.1785 92.3431 10.6096 92.0888 10.1814C91.8346 9.75325 91.4964 9.53977 91.073 9.53977C90.4806 9.53977 89.9769 9.917 89.5619 10.6702C89.1469 11.4235 88.8975 12.6741 88.8123 14.4207L88.8891 14.5748C88.8723 14.7798 88.8591 14.9945 88.8507 15.2164C88.8423 15.4396 88.8375 15.6701 88.8375 15.9102C88.8375 17.0917 89.003 18.0511 89.3328 18.7874C89.6626 19.5237 90.0824 20.0586 90.5897 20.3933C91.0982 20.7269 91.6139 20.8943 92.1392 20.8943C92.6477 20.8943 93.2018 20.7657 93.8026 20.5086C94.4035 20.2514 94.9672 19.6947 95.4913 18.8383L95.9482 18.9924C95.7455 19.6437 95.4229 20.2769 94.9827 20.8931C94.5426 21.5093 93.9837 22.0151 93.3061 22.4093C92.6285 22.8035 91.8154 23 90.8679 23C89.7166 23 88.6996 22.7513 87.8193 22.2552C86.939 21.7591 86.2482 21.0059 85.7493 19.9943C85.2492 18.9839 84.9998 17.6994 84.9998 16.1407C84.9998 14.5481 85.266 13.2211 85.7997 12.1586C86.3334 11.0972 87.0698 10.3051 88.01 9.78236C88.9515 9.262 90.0212 9 91.2241 9Z" fill="#02122F"/>
<path d="M105.699 9C106.239 9 106.677 9.11826 107.014 9.35604C107.35 9.59381 107.599 9.89632 107.76 10.266C107.92 10.6358 108 11.0217 108 11.4263C108 12.0774 107.818 12.6089 107.456 13.021C107.094 13.4343 106.617 13.6409 106.027 13.6409C105.438 13.6409 104.978 13.4878 104.649 13.1791C104.321 12.8716 104.156 12.4633 104.156 11.9529C104.156 11.4611 104.261 11.0528 104.473 10.7267C104.683 10.4017 104.949 10.1254 105.269 9.89632C105.033 9.8266 104.798 9.83532 104.561 9.92246C104.123 9.99342 103.73 10.2088 103.385 10.5686C103.039 10.9296 102.765 11.3553 102.564 11.8471C102.362 12.3388 102.26 12.823 102.26 13.2973V20.2837C102.26 21.1277 102.459 21.6991 102.855 21.9979C103.251 22.2966 103.845 22.446 104.638 22.446V23C104.25 22.9826 103.685 22.9602 102.943 22.934C102.202 22.9079 101.426 22.8942 100.617 22.8942C99.9429 22.8942 99.2599 22.9079 98.5686 22.934C97.8773 22.9602 97.3544 22.9826 97.0009 23V22.446C97.5908 22.446 98.0087 22.3141 98.2522 22.0502C98.4958 21.7862 98.6188 21.2858 98.6188 20.5476V12.2429C98.6188 11.4524 98.5053 10.8673 98.2773 10.4901C98.0492 10.1129 97.6242 9.92371 96.9998 9.92371V9.36973C97.5394 9.42202 98.0624 9.4494 98.5674 9.4494C99.2755 9.4494 99.9369 9.41953 100.552 9.35728C101.167 9.29628 101.736 9.20416 102.259 9.08092V11.5333C102.461 11.059 102.731 10.6283 103.069 10.2412C103.405 9.85524 103.793 9.55148 104.232 9.33114C104.671 9.11079 105.159 9 105.699 9Z" fill="#02122F"/>
<path d="M7.03537 17.1249C7.37313 16.0373 7.59907 15.2996 7.86037 14.4076C7.92884 14.1837 7.99388 13.9515 8.07147 13.6993C8.1445 13.4484 8.22209 13.1785 8.30653 12.8827C8.34989 12.7342 8.39097 12.5799 8.43662 12.4173C8.45031 12.3689 8.45716 12.3442 8.47085 12.2935C8.4777 12.2711 8.48112 12.2558 8.49025 12.2264C8.50052 12.1934 8.50622 12.1757 8.51649 12.1427C8.55757 12.0284 8.61006 11.9117 8.68309 11.7868C8.82687 11.537 9.02199 11.2825 9.24678 11.0762C9.35975 10.9737 9.47842 10.8818 9.59823 10.804C9.71919 10.7286 9.84128 10.6709 9.95996 10.6273C11.5232 10.0899 13.026 9.39114 14.5505 8.74774C15.3048 8.43782 16.0305 8.18093 16.6832 8.06545C16.8795 8.03009 16.9742 8.01831 17.159 8.0077C17.2377 8.00299 17.3074 7.99592 17.3941 8.00299C17.4762 8.0136 17.5538 8.03834 17.6234 8.07841C17.7649 8.15854 17.879 8.28934 17.9429 8.44135C17.9737 8.51795 17.9931 8.59926 17.9988 8.68175C18.0034 8.76423 17.9943 8.8479 17.9737 8.92921C17.8311 9.47245 17.701 9.93084 17.5595 10.3586C17.4203 10.7852 17.2686 11.1917 17.1111 11.6419C16.9205 12.1828 16.8213 12.4667 16.6193 13.1832C16.5679 13.3623 16.5417 13.4554 16.4892 13.6522C16.4755 13.7017 16.4687 13.7265 16.455 13.7759C16.4481 13.7995 16.4458 13.8137 16.4356 13.8443C16.4242 13.8796 16.4185 13.8973 16.4082 13.9327C16.366 14.0529 16.3089 14.179 16.2336 14.3121C16.0841 14.5796 15.8799 14.8506 15.6448 15.0769C15.4097 15.302 15.1416 15.4834 14.886 15.5754C14.1454 15.8381 13.3661 16.1952 12.5867 16.5346C12.3528 16.6371 12.2364 16.6889 12.0025 16.7915C11.7697 16.8904 11.6533 16.9399 11.4228 17.0354C11.0371 17.198 10.6572 17.3418 10.2863 17.4749C9.54232 17.7401 8.83599 17.931 8.20041 17.9863C8.0418 17.9981 7.8889 18.0017 7.73942 17.9993C7.66411 17.9958 7.59336 17.9958 7.51691 17.9805C7.44388 17.964 7.37427 17.9345 7.31266 17.8933C7.25218 17.8508 7.19512 17.8025 7.14834 17.7448C7.1027 17.6859 7.06618 17.621 7.03994 17.5527C7.01597 17.4832 7.00228 17.4101 7 17.3382C7.00228 17.2675 7.01483 17.1956 7.03537 17.1249ZM7.089 17.1297C7.00913 17.3948 7.1278 17.6953 7.364 17.8214C7.4222 17.8532 7.48496 17.8732 7.55228 17.8826C7.61846 17.8885 7.6972 17.885 7.77251 17.8815C7.92541 17.8744 8.08288 17.852 8.2472 17.8202C8.89989 17.6965 9.63247 17.3995 10.397 17.0389C10.7792 16.8586 11.1729 16.6548 11.5655 16.4556C11.8017 16.3342 11.9203 16.273 12.1588 16.1481C12.3962 16.0279 12.5148 15.9666 12.751 15.8464C13.5418 15.4422 14.3212 15.0734 15.0617 14.7799C15.121 14.754 15.1792 14.7246 15.2374 14.688C15.2956 14.6491 15.3538 14.6055 15.4097 14.556C15.5216 14.4547 15.6186 14.3392 15.6882 14.2226C15.7235 14.1648 15.7486 14.1071 15.7703 14.0505C15.776 14.034 15.7783 14.0258 15.784 14.0093C15.7886 13.9963 15.7954 13.968 15.8011 13.9492C15.816 13.8973 15.8228 13.8726 15.8376 13.8219C15.897 13.6192 15.9278 13.5238 15.986 13.3376C16.2256 12.594 16.3431 12.2947 16.5702 11.7232C16.7608 11.2471 16.9456 10.8135 17.1316 10.3633C17.3165 9.91317 17.5013 9.45242 17.6828 8.90446C17.7615 8.68292 17.6828 8.42014 17.4831 8.29877C17.434 8.26695 17.377 8.2481 17.3165 8.23749C17.2594 8.22924 17.1761 8.23042 17.102 8.2316C16.9182 8.23867 16.8235 8.2481 16.6284 8.27756C15.978 8.37654 15.2546 8.63225 14.4957 8.96574C12.9325 9.71166 11.4217 10.5801 9.82417 11.2483C9.56058 11.3496 9.28444 11.6183 9.13496 11.8705C9.0973 11.9341 9.06992 11.9966 9.04709 12.0567C9.04139 12.0743 9.03911 12.0838 9.0334 12.1014C9.02884 12.1156 9.02199 12.1415 9.01628 12.1615C9.00259 12.2122 8.99574 12.237 8.98091 12.2876C8.93527 12.4526 8.88392 12.6129 8.83599 12.7661C8.739 13.0724 8.63516 13.3541 8.53133 13.618C8.43091 13.882 8.32137 14.1295 8.21753 14.364C7.79077 15.3055 7.41079 16.0385 7.089 17.1297Z" fill="url(#paint0_radial_25988_176755)"/>
<path d="M7.00012 18.141C7.03244 17.0145 7.06811 15.888 7.05362 14.7604C7.05696 14.5259 7.05473 14.288 7.06476 14.0367C7.07033 13.7853 7.07925 13.5194 7.09485 13.2288C7.10377 13.0841 7.10934 12.9315 7.11937 12.7721C7.12272 12.7239 7.12383 12.7003 7.12717 12.651C7.12829 12.6285 7.1294 12.6139 7.13163 12.5859C7.13498 12.5534 7.1372 12.5365 7.14055 12.504C7.15838 12.394 7.18736 12.2807 7.23528 12.1707C7.32778 11.9486 7.47378 11.7298 7.66547 11.5424C7.76243 11.4504 7.86942 11.3651 7.9831 11.2933C8.09789 11.2226 8.21937 11.1677 8.34197 11.1261C10.1619 10.4271 11.8236 9.49923 13.5188 8.53766C14.4026 8.03836 15.2551 7.58395 16.023 7.281C16.2537 7.19012 16.3652 7.14973 16.5825 7.08465C16.6761 7.05772 16.753 7.02967 16.86 7.0106C16.9614 6.99601 17.0651 6.99489 17.1665 7.01733C17.3682 7.05885 17.5521 7.18227 17.7037 7.33935C17.7784 7.41901 17.8408 7.50877 17.8887 7.60527C17.9344 7.70288 17.9622 7.80723 17.9734 7.91382C18.0369 8.63415 17.97 9.28829 17.9489 9.82237C17.9299 10.3564 17.8998 10.8131 17.872 11.2821C17.8374 11.8442 17.8196 12.1146 17.7873 12.817C17.7784 12.9932 17.7739 13.0841 17.765 13.277C17.7627 13.3253 17.7605 13.35 17.7583 13.3993C17.7572 13.4218 17.7572 13.4364 17.7538 13.4667C17.7505 13.5015 17.7483 13.5183 17.7449 13.5531C17.7271 13.6698 17.697 13.7898 17.648 13.9087C17.551 14.1477 17.4005 14.3878 17.1999 14.601C16.9982 14.812 16.7452 14.9904 16.48 15.0835C15.7099 15.3505 14.855 15.8061 13.9735 16.2829C13.7094 16.4265 13.5756 16.5017 13.3092 16.6509C13.0418 16.7968 12.908 16.8697 12.6394 17.0178C12.1925 17.2658 11.7456 17.4992 11.3054 17.7247C10.4249 18.1758 9.57014 18.5606 8.80114 18.8007C8.60833 18.8591 8.4211 18.9084 8.24055 18.95C8.14916 18.969 8.06446 18.9892 7.96861 18.9982C7.87388 19.0038 7.77804 18.9971 7.69222 18.9668C7.6064 18.9354 7.51947 18.895 7.43923 18.8422C7.35899 18.7884 7.28432 18.7244 7.21968 18.6526C7.15727 18.5786 7.10488 18.4978 7.06588 18.4114C7.02687 18.325 7.00569 18.233 7.00012 18.141ZM7.06365 18.1376C7.08371 18.4866 7.38574 18.794 7.69891 18.8815C7.78027 18.9006 7.86385 18.9006 7.94632 18.8905C8.02657 18.8781 8.11684 18.8512 8.20489 18.8265C8.3832 18.776 8.56821 18.7098 8.75656 18.6313C9.51553 18.3239 10.3603 17.8235 11.2452 17.2636C11.6877 16.9831 12.139 16.6812 12.5926 16.3906C12.8646 16.2145 13.0016 16.1258 13.2736 15.9508C13.5455 15.7803 13.6815 15.6961 13.9501 15.5312C14.8472 14.9825 15.7154 14.5191 16.4878 14.2397C16.548 14.2151 16.607 14.187 16.665 14.1533C16.7218 14.1174 16.7753 14.0759 16.8255 14.0299C16.9247 13.9357 17.0038 13.8268 17.0517 13.7158C17.0762 13.6597 17.0896 13.6036 17.0996 13.5497C17.1019 13.5329 17.1019 13.525 17.1041 13.5082C17.1063 13.4958 17.1063 13.4678 17.1085 13.4487C17.1119 13.3982 17.113 13.3724 17.1163 13.3231C17.1297 13.1245 17.1375 13.0302 17.1509 12.8496C17.2088 12.1292 17.2378 11.8566 17.2958 11.2956C17.3448 10.8277 17.3916 10.3789 17.4496 9.84705C17.5053 9.31634 17.6257 8.65884 17.629 7.93065C17.6357 7.63556 17.4228 7.34496 17.1286 7.27315C17.0562 7.25408 16.9793 7.25071 16.9012 7.25632C16.8288 7.26417 16.7296 7.28886 16.6393 7.31018C16.4187 7.36852 16.305 7.40555 16.071 7.4897C15.2919 7.77245 14.4327 8.23359 13.5444 8.76206C11.8281 9.8291 10.1731 10.9365 8.33194 11.7736C8.06 11.8656 7.82373 12.1068 7.72454 12.3458C7.69891 12.4052 7.68442 12.4658 7.6755 12.5253C7.67327 12.5433 7.67327 12.5522 7.67105 12.5691C7.66882 12.5825 7.66882 12.6095 7.6677 12.6285C7.66547 12.679 7.66436 12.7037 7.66101 12.7531C7.65321 12.9169 7.63984 13.0717 7.62981 13.2198C7.60752 13.516 7.57854 13.7853 7.54622 14.0378C7.51836 14.2891 7.47935 14.5259 7.44369 14.7592C7.23194 15.888 7.13275 16.992 7.06365 18.1376Z" fill="url(#paint1_radial_25988_176755)"/>
<path d="M7.09035 20.262C6.33807 18.7502 5.99153 17.4126 5.52413 15.8184C5.44027 15.5119 5.35394 15.2065 5.28611 14.8883C5.21335 14.5702 5.15046 14.2393 5.09866 13.884C5.07399 13.7063 5.04686 13.5217 5.02713 13.3313C5.02097 13.2744 5.0185 13.2454 5.01233 13.1861C5.00987 13.1594 5.0074 13.142 5.00493 13.1084C5.00247 13.07 5.00247 13.0503 5 13.012C5 12.8831 5.01603 12.7542 5.05303 12.6335C5.12579 12.3896 5.27008 12.1771 5.45137 12.0076C5.54263 11.924 5.64622 11.8543 5.75844 11.8009C5.8719 11.7498 5.99523 11.7197 6.12225 11.7057C8.33346 11.4932 10.3671 9.79337 12.0911 8.60787C13.0679 7.91236 14.068 7.2215 15.104 6.60611C15.3765 6.44471 15.5097 6.37156 15.765 6.2392C15.8747 6.18346 15.9635 6.13005 16.093 6.08012C16.2176 6.03484 16.3508 6.00581 16.4926 6.00117C16.7738 5.98956 17.0734 6.06503 17.3448 6.20901C17.4792 6.28216 17.6087 6.36924 17.7271 6.46561C17.8442 6.56315 17.9453 6.67113 18.0292 6.78492C18.5879 7.54545 18.8875 8.45693 19.0577 9.22558C19.2304 9.99424 19.3821 10.6131 19.5214 11.225C19.6867 11.9588 19.7619 12.2991 19.8926 13.1536C19.9247 13.3673 19.9395 13.4776 19.9691 13.7087C19.9753 13.7667 19.979 13.7957 19.9851 13.8538C19.9876 13.8805 19.9913 13.8979 19.9938 13.9327C19.9962 13.9734 19.9975 13.9931 19.9999 14.0349C20.0012 14.1708 19.9851 14.3078 19.9481 14.4367C19.8741 14.6956 19.7323 14.9336 19.5473 15.1287C19.3611 15.3214 19.1182 15.4573 18.8444 15.4944C18.0452 15.5955 17.1289 16.0437 16.1004 16.6614C15.7921 16.8471 15.6343 16.947 15.3173 17.1525C14.9991 17.3522 14.8376 17.4567 14.5145 17.6669C13.9768 18.0222 13.4292 18.3717 12.8903 18.7177C11.9099 19.3598 10.8801 19.981 9.82445 20.5081C9.59013 20.6231 9.36198 20.7276 9.14493 20.8228C9.03394 20.8692 8.93404 20.9157 8.81319 20.9528C8.69356 20.9854 8.569 21.0039 8.43951 20.9993C8.31002 20.9935 8.1793 20.9761 8.04981 20.9389C7.92032 20.9018 7.797 20.8449 7.6786 20.7775C7.56021 20.709 7.44799 20.6289 7.34809 20.543C7.2445 20.4559 7.16064 20.3607 7.09035 20.262ZM7.16064 20.2469C7.41716 20.6184 7.93758 20.9134 8.39882 20.896C8.51351 20.8925 8.62203 20.8692 8.72316 20.8344C8.82059 20.7973 8.92541 20.7427 9.029 20.6904C9.23989 20.5836 9.45447 20.4605 9.67646 20.3224C10.7099 19.6861 11.6891 18.9302 12.6288 18.1789C13.1591 17.7644 13.7005 17.329 14.2456 16.9203C14.5724 16.673 14.7352 16.5511 15.0596 16.3154C15.3839 16.0855 15.5455 15.9728 15.8624 15.765C16.9156 15.0672 17.8603 14.6364 18.6754 14.5179C18.7383 14.5052 18.8 14.4912 18.858 14.468C18.9147 14.4425 18.9677 14.4111 19.0158 14.374C19.1083 14.295 19.1774 14.1905 19.2082 14.0744C19.2242 14.0163 19.2279 13.9548 19.2267 13.8944C19.2255 13.8759 19.2242 13.8666 19.223 13.848C19.223 13.8341 19.2168 13.8015 19.2144 13.7795C19.2057 13.7214 19.202 13.6924 19.1934 13.6355C19.1613 13.4079 19.1441 13.2999 19.1108 13.0921C18.98 12.2619 18.9073 11.9449 18.7581 11.2517C18.6347 10.6747 18.5052 10.0895 18.3881 9.33937C18.2685 8.58929 18.1279 7.64531 17.6506 6.87084C17.4632 6.55502 17.0229 6.3019 16.5974 6.3077C16.4914 6.3077 16.389 6.32512 16.2891 6.35415C16.1978 6.38317 16.0782 6.43775 15.9685 6.48767C15.7021 6.61307 15.564 6.6839 15.2803 6.83949C14.2111 7.4305 13.1826 8.14807 12.2145 8.87493C10.4793 10.1649 8.49994 12.0703 6.24681 12.4593C5.95823 12.493 5.73378 12.695 5.66718 12.9481C5.64992 13.0108 5.64622 13.0782 5.64745 13.1443C5.64992 13.1641 5.64992 13.1745 5.65239 13.1943C5.65362 13.2094 5.65855 13.2407 5.66102 13.2628C5.66965 13.3208 5.67335 13.3499 5.68198 13.4068C5.71158 13.596 5.73501 13.776 5.76214 13.949C5.81517 14.295 5.86327 14.612 5.9089 14.9162C5.95946 15.2204 5.99769 15.5119 6.04209 15.8068C6.27024 17.4939 6.44043 18.6538 7.16064 20.2469Z" fill="url(#paint2_radial_25988_176755)"/>
<path d="M8.94666 21.3869C7.24741 19.7837 6.23079 18.2787 5.20067 16.1414C5.01174 15.7305 4.82956 15.3267 4.67661 14.9087C4.51805 14.4908 4.37747 14.0586 4.25714 13.5991C4.19866 13.3694 4.13906 13.1338 4.08845 12.8911C4.07271 12.8176 4.06596 12.7809 4.05134 12.7075C4.0446 12.6744 4.03897 12.6519 4.03223 12.6092C4.02435 12.5607 4.02098 12.5358 4.01311 12.4861C3.99511 12.3227 3.99511 12.1581 4.01873 12.0042C4.06371 11.6939 4.19192 11.4228 4.37522 11.2428C4.46744 11.154 4.57203 11.0877 4.68336 11.0427C4.79694 11.0001 4.90715 10.9811 5.02411 10.9799C7.25641 11.0735 8.75211 9.32338 10.2613 7.85985C11.1801 6.90902 12.0899 5.94635 13.0345 5.02395C13.2819 4.78358 13.4023 4.67109 13.6339 4.46506C13.734 4.37743 13.8116 4.29573 13.9319 4.20811C14.0489 4.12996 14.1782 4.06839 14.3222 4.03523C14.6078 3.96774 14.9362 3.99971 15.2635 4.10983C15.4265 4.16666 15.5896 4.24245 15.7459 4.33362C15.9022 4.42598 16.0484 4.53255 16.1845 4.64859C17.0482 5.35905 17.9501 6.23409 18.5799 7.1861C19.204 8.12271 19.5076 9.0913 19.8518 9.91425C20.2622 10.9018 20.441 11.3517 20.7346 12.4518C20.8065 12.7265 20.8414 12.8686 20.9066 13.161C20.9224 13.2344 20.9302 13.2711 20.946 13.3457C20.9527 13.3801 20.9584 13.4014 20.9651 13.4452C20.973 13.4961 20.9775 13.5222 20.9853 13.5743C21.0045 13.746 21.0067 13.9188 20.9831 14.0822C20.9381 14.4102 20.8065 14.6968 20.6199 14.8981C20.432 15.097 20.2173 15.2178 19.9676 15.2261C19.2411 15.2438 18.5158 15.4866 17.6656 16.0182C17.4103 16.1793 17.2731 16.306 16.9953 16.5416C16.7153 16.7713 16.5702 16.898 16.2767 17.1621C15.7898 17.6061 15.2781 18.075 14.7754 18.5486C13.8352 19.4284 12.8962 20.3129 11.9077 21.1323C11.6895 21.3099 11.4781 21.4769 11.2779 21.6332C11.1745 21.7102 11.0845 21.7859 10.9698 21.8546C10.8551 21.9174 10.7325 21.9636 10.5976 21.9837C10.4626 22.0026 10.3232 22.0062 10.1792 21.9884C10.0353 21.9695 9.88794 21.9316 9.74287 21.8783C9.5978 21.8227 9.4561 21.7516 9.32002 21.6687C9.1862 21.5847 9.06137 21.4887 8.94666 21.3869ZM9.00514 21.3514C9.43361 21.7338 10.0555 21.9707 10.5267 21.857C10.6448 21.8298 10.7494 21.78 10.845 21.7173C10.9349 21.6533 11.0271 21.5645 11.1216 21.4805C11.3117 21.3111 11.5028 21.1217 11.7019 20.9168C12.6364 19.9553 13.499 18.9145 14.375 17.8962C14.8609 17.3361 15.3545 16.7618 15.8494 16.2515C16.1451 15.9436 16.2913 15.7944 16.577 15.5245C16.8649 15.2604 17.0054 15.1373 17.2742 14.9324C18.1683 14.2421 18.9229 14.1225 19.7134 14.1201C19.7742 14.1166 19.8326 14.1071 19.8877 14.0882C19.9406 14.0657 19.989 14.0337 20.0317 13.9934C20.1149 13.907 20.17 13.785 20.1858 13.6441C20.1948 13.5743 20.1891 13.4985 20.179 13.4239C20.1745 13.4014 20.1723 13.3896 20.1678 13.3671C20.1655 13.3505 20.1543 13.3102 20.1475 13.283C20.1295 13.2108 20.1205 13.1741 20.1025 13.103C20.0317 12.8188 19.9946 12.6827 19.917 12.4198C19.61 11.3695 19.4255 10.9622 19.0252 10.0516C18.6934 9.2926 18.4213 8.41163 17.9501 7.44541C17.4913 6.47446 16.6489 5.53192 15.8527 4.86054C15.512 4.53373 14.9699 4.3206 14.5269 4.4094C14.4155 4.42953 14.3143 4.47098 14.2187 4.52544C14.1321 4.57754 14.023 4.66754 13.9218 4.74805C13.6778 4.94935 13.5518 5.05947 13.2909 5.2951C12.2957 6.19975 11.3791 7.20031 10.4559 8.18429C9.03326 9.694 7.43072 11.8431 5.20517 11.8266C4.9229 11.823 4.71935 12.0598 4.68673 12.3712C4.67774 12.4482 4.68336 12.5311 4.69461 12.614C4.6991 12.6388 4.70248 12.6519 4.70698 12.6767C4.71035 12.6957 4.72047 12.7348 4.72722 12.762C4.74521 12.8342 4.75421 12.8709 4.7722 12.942C4.83293 13.18 4.89028 13.4073 4.95439 13.6276C5.07921 14.068 5.20742 14.4777 5.34237 14.8732C5.48182 15.2687 5.61564 15.6535 5.76296 16.0478C6.55692 18.2822 7.33288 19.7043 9.00514 21.3514Z" fill="url(#paint3_radial_25988_176755)"/>
<path d="M10.9119 23.4233C8.52575 21.7115 6.09748 20.2637 4.20289 17.941C3.85355 17.4107 3.52811 16.9052 3.25274 16.3866C2.97168 15.8705 2.72703 15.3449 2.51539 14.7968C2.4107 14.5221 2.30829 14.2451 2.21498 13.9598C2.18653 13.8746 2.17288 13.8319 2.14557 13.7455C2.13305 13.7065 2.12395 13.6804 2.11029 13.6307C2.09436 13.5727 2.0864 13.5443 2.07161 13.4863C2.02723 13.2921 1.99992 13.0909 1.99992 12.8908C1.99764 12.4918 2.09095 12.1036 2.27074 11.81C2.36177 11.6644 2.47101 11.5424 2.59504 11.4477C2.72134 11.3566 2.86131 11.2985 3.00696 11.2701C5.44888 10.973 6.43771 10.1609 8.06946 8.23125C8.96839 6.99296 9.85482 5.74639 10.7549 4.50929C11.0018 4.18018 11.1213 4.02392 11.3591 3.73388C11.4615 3.60958 11.54 3.49593 11.6675 3.37044C11.7915 3.25561 11.9315 3.16091 12.0885 3.10053C12.4014 2.97623 12.7644 2.97149 13.1354 3.06265C13.3208 3.11119 13.5063 3.18222 13.6907 3.27219C13.8739 3.36452 14.0514 3.47817 14.2221 3.60129C15.4339 4.43116 16.6572 5.23853 17.8588 6.08496C19.0456 7.04623 19.9332 7.89504 20.8503 9.13096C21.4739 10.1052 22.0553 11.2003 22.4684 12.2906C22.5958 12.6197 22.6561 12.7878 22.7733 13.1287C22.8018 13.214 22.8166 13.2566 22.8439 13.343C22.8564 13.3821 22.8655 13.4069 22.8803 13.459C22.8974 13.5194 22.9053 13.549 22.9224 13.6094C22.9702 13.813 22.9998 14.0249 22.9998 14.2344C23.0032 14.6547 22.9065 15.0608 22.7244 15.3768C22.5389 15.6906 22.2658 15.9107 21.9541 15.9676C21.0472 16.1238 20.3166 16.241 19.552 16.7311C19.3232 16.8791 19.2095 16.9667 18.9751 17.1703C18.7384 17.3657 18.6178 17.477 18.3686 17.7291C17.9555 18.1541 17.489 18.6821 17.011 19.2681C16.078 20.4211 15.1415 21.5659 14.1788 22.6929C13.9569 22.9403 13.7407 23.1747 13.5325 23.3985C13.4255 23.5097 13.3311 23.6175 13.2093 23.7205C13.0864 23.8152 12.9533 23.8909 12.8054 23.9347C12.6575 23.9762 12.5038 24.0022 12.3423 23.9999C12.1818 23.9963 12.0168 23.9703 11.853 23.9241C11.688 23.8744 11.5252 23.8057 11.3659 23.7228C11.2089 23.6376 11.0576 23.5346 10.9119 23.4233ZM10.9734 23.3606C11.5173 23.7797 12.2103 23.988 12.7235 23.7761C12.852 23.7252 12.9635 23.6471 13.0648 23.5536C13.1593 23.4588 13.2537 23.3334 13.3493 23.215C13.5416 22.9747 13.7328 22.713 13.9273 22.4313C14.799 21.1208 15.6319 19.7866 16.474 18.4536C16.9246 17.7575 17.3763 17.0508 17.7973 16.5642C18.0488 16.2694 18.1706 16.1369 18.4107 15.9072C18.6553 15.6835 18.7748 15.5887 19.0126 15.4289C19.8057 14.8915 20.6751 14.8784 21.5831 14.7246C21.6525 14.708 21.7185 14.6843 21.7788 14.6476C21.8369 14.6074 21.8881 14.5553 21.9313 14.4937C22.0144 14.3647 22.061 14.1954 22.0576 14.0143C22.0576 13.9243 22.0405 13.8308 22.0166 13.7384C22.0087 13.7112 22.0041 13.697 21.995 13.6698C21.9893 13.6496 21.9711 13.6011 21.9598 13.5691C21.929 13.4827 21.9131 13.4389 21.8812 13.3537C21.7561 13.0104 21.6912 12.8446 21.5524 12.5203C21.1245 11.4785 20.5158 10.4438 19.8808 9.52636C19.2208 8.33424 18.3151 7.40967 17.3547 6.4851C16.2213 5.60315 15.047 4.80288 13.8887 3.95881C13.4392 3.59537 12.8224 3.39886 12.34 3.57051C12.2182 3.61076 12.1101 3.67706 12.01 3.75756C11.9201 3.83569 11.8086 3.96473 11.7062 4.07719C11.4592 4.36249 11.3329 4.51639 11.0746 4.84076C10.1313 6.08615 9.23239 7.35758 8.33231 8.6373C6.83825 10.6522 5.7766 11.8526 3.29826 12.2338C2.97282 12.2942 2.77483 12.6588 2.78393 13.0601C2.78507 13.1607 2.80327 13.2625 2.82944 13.3631C2.83855 13.3939 2.8431 13.4081 2.85334 13.4389C2.86017 13.4626 2.87724 13.5076 2.88862 13.5407C2.91934 13.6271 2.93527 13.6698 2.96713 13.755C3.07409 14.0391 3.17764 14.3173 3.29143 14.5884C3.51673 15.1294 3.75569 15.6432 4.01741 16.1463C4.28481 16.6483 4.56018 17.1455 4.86287 17.6676C6.08383 20.253 8.79543 21.792 10.9734 23.3606Z" fill="url(#paint4_radial_25988_176755)"/>
<path d="M13.121 24.4562C10.24 22.3172 6.81427 21.101 3.7611 19.2323C2.99371 18.7139 2.30013 18.1663 1.7401 17.592C1.1754 17.0223 0.929362 16.448 0.680985 15.8934C0.557967 15.615 0.446666 15.3447 0.349424 15.0744C0.320134 14.9929 0.306075 14.9533 0.276785 14.8729C0.263898 14.8368 0.254525 14.8135 0.240466 14.7657C0.222892 14.7109 0.214691 14.6842 0.198288 14.6306C0.146738 14.4442 0.103389 14.2426 0.0717564 14.0259C0.00614722 13.5949 -0.027829 13.1126 0.0284075 12.6605C0.0576973 12.4357 0.109247 12.219 0.187744 12.0256C0.268584 11.8334 0.378714 11.6668 0.509932 11.5328C2.58834 10.0591 4.2274 9.67348 5.67314 7.46347C6.46514 5.97809 7.20558 4.46825 8.07022 3.02132C8.3268 2.59959 8.45685 2.3992 8.72631 2.02757C8.8423 1.86913 8.93485 1.72467 9.08599 1.56157C9.23244 1.41245 9.39998 1.28546 9.58626 1.19576C9.95765 1.01402 10.3853 0.962757 10.7989 1.02567C11.0051 1.06062 11.2077 1.12469 11.4034 1.21207C11.5991 1.3041 11.783 1.42293 11.9623 1.55807C13.2955 2.57396 14.8057 3.30558 16.2971 4.05817C18.0252 4.90279 19.6819 5.7847 21.287 6.84369C22.5734 7.85491 23.5891 8.73099 24.2675 10.2432C24.421 10.5764 24.4877 10.7418 24.6131 11.0633C24.6436 11.1437 24.6588 11.1845 24.6893 11.2649C24.7033 11.3022 24.7115 11.3231 24.7291 11.3732C24.7478 11.4303 24.7572 11.4583 24.776 11.5153C24.8334 11.7111 24.8814 11.9208 24.9177 12.1479C24.9904 12.6 25.029 13.1032 24.974 13.5821C24.9165 14.0585 24.749 14.5071 24.4561 14.7855C23.6547 15.5311 22.6073 15.9971 21.6595 16.5237C21.417 16.681 21.301 16.7672 21.0737 16.9722C20.8429 17.1679 20.7316 17.2786 20.5125 17.5337C20.1505 17.9648 19.7885 18.4774 19.4148 19.0972C18.5946 20.508 17.7581 21.906 16.8033 23.2329C16.5666 23.5521 16.3264 23.8562 16.0863 24.1451C15.9621 24.2884 15.8508 24.4271 15.7043 24.5622C15.5579 24.688 15.3974 24.7929 15.2228 24.8616C15.0471 24.928 14.8655 24.9769 14.6803 24.9933C14.4941 25.0084 14.3078 24.9979 14.125 24.963C13.9434 24.9234 13.7665 24.8604 13.5966 24.7766C13.4279 24.6904 13.2709 24.5797 13.121 24.4562ZM13.1995 24.3665C13.7665 24.8337 14.5362 24.9898 15.1431 24.6799C15.2943 24.6053 15.429 24.4993 15.5485 24.377C15.661 24.2535 15.7723 24.0915 15.8812 23.9389C16.1015 23.629 16.3077 23.29 16.5104 22.9289C17.3715 21.3724 18.0534 19.7274 18.7844 18.1093C19.1289 17.3706 19.4546 16.7276 19.8107 16.2429C20.0228 15.9482 20.1306 15.8212 20.3532 15.5998C20.5805 15.3866 20.6672 15.2958 20.9437 15.1502C21.861 14.6597 22.9448 14.3277 23.834 13.6333C23.9008 13.5739 23.9629 13.5087 24.0133 13.4306C24.0625 13.3491 24.1011 13.2594 24.1316 13.1603C24.1866 12.9611 24.1984 12.7363 24.1644 12.5254C24.1492 12.4194 24.1187 12.3204 24.0824 12.2237C24.0707 12.1957 24.0636 12.1817 24.0519 12.1538C24.0437 12.1316 24.0191 12.085 24.0027 12.0524C23.9594 11.965 23.9383 11.9219 23.8937 11.8346C23.7204 11.4839 23.629 11.3091 23.4298 10.9608C22.6577 9.60707 21.7111 8.53527 20.55 7.50424C19.0844 6.4173 17.5707 5.5086 15.9597 4.65115C14.4167 3.89856 12.8796 3.16345 11.5463 2.06485C11.0613 1.64661 10.3865 1.47536 9.8323 1.73282C9.69288 1.7934 9.56869 1.88427 9.45387 1.99262C9.35077 2.0963 9.22424 2.26406 9.11177 2.41318C8.83878 2.78599 8.70522 2.98637 8.43927 3.40693C7.53012 4.87367 6.76858 6.42079 5.9801 7.95277C4.59879 10.2839 3.13196 10.8932 0.980912 12.4171C0.675127 12.6803 0.582571 13.2267 0.656381 13.6869C0.673955 13.8022 0.705588 13.9106 0.743079 14.0143C0.755967 14.0446 0.761825 14.0597 0.774712 14.09C0.784085 14.1133 0.806345 14.1576 0.821576 14.1902C0.862581 14.2752 0.882499 14.3183 0.924676 14.4034C1.06527 14.6876 1.2082 14.9789 1.36871 15.2667C1.68621 15.8433 2.05058 16.4223 2.47704 17.0165C2.91053 17.606 3.53733 18.2293 4.24145 18.792C7.08608 20.8959 10.363 22.2625 13.1995 24.3665Z" fill="url(#paint5_radial_25988_176755)"/>
<path d="M64.1248 0.356688C64.8305 0.356688 65.3857 0.540694 65.7905 0.908705C66.1952 1.27672 66.3976 1.78344 66.3976 2.42887C66.3976 3.07431 66.1952 3.58103 65.7905 3.94904C65.3857 4.31706 64.8305 4.50106 64.1248 4.50106H62.7783V6.30149H62V0.356688H64.1248ZM64.1015 3.76221C64.5944 3.76221 64.9706 3.64897 65.2301 3.4225C65.4895 3.19037 65.6192 2.85916 65.6192 2.42887C65.6192 1.99858 65.4895 1.67021 65.2301 1.44374C64.9706 1.21161 64.5944 1.09554 64.1015 1.09554H62.7783V3.76221H64.1015Z" fill="#02122F"/>
<path d="M69.1837 6.35244C68.7738 6.35244 68.4054 6.25336 68.0785 6.0552C67.7516 5.85704 67.4947 5.58528 67.3079 5.23991C67.1263 4.88889 67.0355 4.49257 67.0355 4.05096C67.0355 3.60934 67.1263 3.21585 67.3079 2.87049C67.4947 2.51946 67.7516 2.2477 68.0785 2.0552C68.4054 1.85704 68.7738 1.75796 69.1837 1.75796C69.5936 1.75796 69.9594 1.85704 70.2811 2.0552C70.608 2.2477 70.8623 2.51946 71.0439 2.87049C71.2307 3.21585 71.3241 3.60934 71.3241 4.05096C71.3241 4.49257 71.2307 4.88889 71.0439 5.23991C70.8623 5.58528 70.608 5.85704 70.2811 6.0552C69.9594 6.25336 69.5936 6.35244 69.1837 6.35244ZM69.1837 5.63907C69.4483 5.63907 69.6844 5.57396 69.892 5.44374C70.1047 5.30785 70.2708 5.12102 70.3901 4.88323C70.5095 4.63977 70.5691 4.36235 70.5691 4.05096C70.5691 3.73956 70.5095 3.46497 70.3901 3.22718C70.2708 2.98372 70.1047 2.79689 69.892 2.66667C69.6844 2.53645 69.4483 2.47134 69.1837 2.47134C68.9191 2.47134 68.6804 2.53645 68.4676 2.66667C68.2601 2.79689 68.094 2.98372 67.9695 3.22718C67.8502 3.46497 67.7905 3.73956 67.7905 4.05096C67.7905 4.36235 67.8502 4.63977 67.9695 4.88323C68.094 5.12102 68.2601 5.30785 68.4676 5.44374C68.6804 5.57396 68.9191 5.63907 69.1837 5.63907Z" fill="#02122F"/>
<path d="M78.4857 1.80042L76.9446 6.30149H76.2285L75.0377 2.88747L73.8312 6.30149H73.1152L71.5819 1.80042H72.2901L73.4888 5.38429L74.7341 1.80042H75.3646L76.5865 5.40127L77.8163 1.80042H78.4857Z" fill="#02122F"/>
<path d="M82.8581 4.07643C82.8581 4.13871 82.8529 4.22081 82.8425 4.32272H79.4957C79.5424 4.71904 79.7006 5.03892 79.9705 5.28238C80.2455 5.52017 80.5853 5.63907 80.9901 5.63907C81.483 5.63907 81.88 5.45789 82.1809 5.09554L82.5934 5.62208C82.4066 5.85987 82.1731 6.04105 81.8929 6.1656C81.6179 6.29016 81.3092 6.35244 80.9667 6.35244C80.5309 6.35244 80.1443 6.25619 79.807 6.06369C79.4697 5.86553 79.2077 5.59094 79.0209 5.23991C78.8393 4.88889 78.7485 4.49257 78.7485 4.05096C78.7485 3.615 78.8367 3.22151 79.0131 2.87049C79.1947 2.51946 79.4412 2.2477 79.7525 2.0552C80.069 1.85704 80.4245 1.75796 80.8188 1.75796C81.2132 1.75796 81.5634 1.85704 81.8696 2.0552C82.1809 2.2477 82.4222 2.51946 82.5934 2.87049C82.7699 3.22151 82.8581 3.6235 82.8581 4.07643ZM80.8188 2.44586C80.4608 2.44586 80.1599 2.56476 79.916 2.80255C79.6773 3.04034 79.5372 3.35173 79.4957 3.73673H82.142C82.1005 3.3574 81.9578 3.04883 81.7139 2.81104C81.4752 2.56759 81.1769 2.44586 80.8188 2.44586Z" fill="#02122F"/>
<path d="M84.6117 2.55626C84.7414 2.29582 84.9334 2.09766 85.1877 1.96178C85.4419 1.8259 85.7506 1.75796 86.1139 1.75796V2.54777C86.0724 2.54211 86.0153 2.53928 85.9426 2.53928C85.5379 2.53928 85.2188 2.67233 84.9853 2.93843C84.757 3.19887 84.6428 3.57254 84.6428 4.05945V6.30149H83.8956V1.80042H84.6117V2.55626Z" fill="#02122F"/>
<path d="M90.725 4.07643C90.725 4.13871 90.7198 4.22081 90.7094 4.32272H87.3626C87.4093 4.71904 87.5676 5.03892 87.8374 5.28238C88.1124 5.52017 88.4523 5.63907 88.857 5.63907C89.3499 5.63907 89.7469 5.45789 90.0478 5.09554L90.4604 5.62208C90.2736 5.85987 90.0401 6.04105 89.7599 6.1656C89.4848 6.29016 89.1761 6.35244 88.8336 6.35244C88.3978 6.35244 88.0112 6.25619 87.6739 6.06369C87.3367 5.86553 87.0746 5.59094 86.8878 5.23991C86.7062 4.88889 86.6154 4.49257 86.6154 4.05096C86.6154 3.615 86.7036 3.22151 86.88 2.87049C87.0616 2.51946 87.3081 2.2477 87.6194 2.0552C87.936 1.85704 88.2914 1.75796 88.6858 1.75796C89.0801 1.75796 89.4304 1.85704 89.7365 2.0552C90.0478 2.2477 90.2891 2.51946 90.4604 2.87049C90.6368 3.22151 90.725 3.6235 90.725 4.07643ZM88.6858 2.44586C88.3277 2.44586 88.0268 2.56476 87.7829 2.80255C87.5442 3.04034 87.4041 3.35173 87.3626 3.73673H90.0089C89.9674 3.3574 89.8247 3.04883 89.5808 2.81104C89.3422 2.56759 89.0438 2.44586 88.6858 2.44586Z" fill="#02122F"/>
<path d="M95.6542 0V6.30149H94.9381V5.58811C94.7721 5.83722 94.5619 6.02689 94.3077 6.15711C94.0534 6.28733 93.7732 6.35244 93.4671 6.35244C93.0675 6.35244 92.7095 6.25619 92.393 6.06369C92.0765 5.8712 91.8274 5.60226 91.6458 5.2569C91.4694 4.90587 91.3812 4.50389 91.3812 4.05096C91.3812 3.59802 91.4694 3.19887 91.6458 2.8535C91.8274 2.50814 92.0765 2.23921 92.393 2.04671C92.7095 1.85421 93.0675 1.75796 93.4671 1.75796C93.7629 1.75796 94.0353 1.82024 94.2843 1.9448C94.5334 2.06369 94.741 2.24204 94.907 2.47983V0H95.6542ZM93.5294 5.63907C93.7888 5.63907 94.0249 5.57396 94.2376 5.44374C94.4504 5.30785 94.6164 5.12102 94.7358 4.88323C94.8551 4.63977 94.9148 4.36235 94.9148 4.05096C94.9148 3.73956 94.8551 3.46497 94.7358 3.22718C94.6164 2.98372 94.4504 2.79689 94.2376 2.66667C94.0249 2.53645 93.7888 2.47134 93.5294 2.47134C93.2647 2.47134 93.026 2.53645 92.8133 2.66667C92.6057 2.79689 92.4397 2.98372 92.3152 3.22718C92.1958 3.46497 92.1361 3.73956 92.1361 4.05096C92.1361 4.36235 92.1958 4.63977 92.3152 4.88323C92.4397 5.12102 92.6057 5.30785 92.8133 5.44374C93.026 5.57396 93.2647 5.63907 93.5294 5.63907Z" fill="#02122F"/>
<path d="M101.345 1.75796C101.745 1.75796 102.103 1.85421 102.419 2.04671C102.736 2.23921 102.982 2.50814 103.159 2.8535C103.34 3.19887 103.431 3.59802 103.431 4.05096C103.431 4.50389 103.34 4.90587 103.159 5.2569C102.982 5.60226 102.736 5.8712 102.419 6.06369C102.103 6.25619 101.745 6.35244 101.345 6.35244C101.039 6.35244 100.759 6.28733 100.505 6.15711C100.25 6.02689 100.04 5.83722 99.8743 5.58811V6.30149H99.1582V0H99.9054V2.47983C100.071 2.24204 100.279 2.06369 100.528 1.9448C100.777 1.82024 101.05 1.75796 101.345 1.75796ZM101.283 5.63907C101.548 5.63907 101.784 5.57396 101.991 5.44374C102.204 5.30785 102.37 5.12102 102.489 4.88323C102.614 4.63977 102.676 4.36235 102.676 4.05096C102.676 3.73956 102.614 3.46497 102.489 3.22718C102.37 2.98372 102.204 2.79689 101.991 2.66667C101.784 2.53645 101.548 2.47134 101.283 2.47134C101.024 2.47134 100.788 2.53645 100.575 2.66667C100.362 2.79689 100.196 2.98372 100.077 3.22718C99.9573 3.46497 99.8976 3.73956 99.8976 4.05096C99.8976 4.36235 99.9573 4.63977 100.077 4.88323C100.196 5.12102 100.362 5.30785 100.575 5.44374C100.788 5.57396 101.024 5.63907 101.283 5.63907Z" fill="#02122F"/>
<path d="M108 1.80042L106 6.75159C105.823 7.21019 105.616 7.53291 105.377 7.71974C105.144 7.90658 104.861 8 104.529 8C104.326 8 104.129 7.9632 103.937 7.8896C103.75 7.82166 103.595 7.71974 103.47 7.58386L103.789 6.9724C104.002 7.1932 104.248 7.30361 104.529 7.30361C104.71 7.30361 104.861 7.24982 104.98 7.14225C105.105 7.04034 105.216 6.862 105.315 6.60722L105.447 6.29299L103.626 1.80042H104.404L105.844 5.40127L107.268 1.80042H108Z" fill="#02122F"/>
<defs>
<radialGradient id="paint0_radial_25988_176755" cx="0" cy="0" r="1" gradientUnits="userSpaceOnUse" gradientTransform="translate(12.5595 12.965) rotate(59.8995) scale(5.09623 5.74445)">
<stop offset="0.5578" stop-color="#F4266E"/>
<stop offset="0.6305" stop-color="#F1266E"/>
<stop offset="0.6831" stop-color="#E82770"/>
<stop offset="0.7294" stop-color="#D82772"/>
<stop offset="0.7721" stop-color="#C22875"/>
<stop offset="0.8122" stop-color="#A52A7A"/>
<stop offset="0.8505" stop-color="#812B7F"/>
<stop offset="0.8867" stop-color="#582D85"/>
<stop offset="0.9028" stop-color="#432E88"/>
</radialGradient>
<radialGradient id="paint1_radial_25988_176755" cx="0" cy="0" r="1" gradientUnits="userSpaceOnUse" gradientTransform="translate(12.4827 12.9912) rotate(46.9503) scale(5.75279 6.60953)">
<stop offset="0.5578" stop-color="#F4266E"/>
<stop offset="0.6305" stop-color="#F1266E"/>
<stop offset="0.6831" stop-color="#E82770"/>
<stop offset="0.7294" stop-color="#D82772"/>
<stop offset="0.7721" stop-color="#C22875"/>
<stop offset="0.8122" stop-color="#A52A7A"/>
<stop offset="0.8505" stop-color="#812B7F"/>
<stop offset="0.8867" stop-color="#582D85"/>
<stop offset="0.9028" stop-color="#432E88"/>
</radialGradient>
<radialGradient id="paint2_radial_25988_176755" cx="0" cy="0" r="1" gradientUnits="userSpaceOnUse" gradientTransform="translate(12.5523 13.5509) rotate(32.8926) scale(7.37449 8.14922)">
<stop offset="0.5578" stop-color="#F4266E"/>
<stop offset="0.6305" stop-color="#F1266E"/>
<stop offset="0.6831" stop-color="#E82770"/>
<stop offset="0.7294" stop-color="#D82772"/>
<stop offset="0.7721" stop-color="#C22875"/>
<stop offset="0.8122" stop-color="#A52A7A"/>
<stop offset="0.8505" stop-color="#812B7F"/>
<stop offset="0.8867" stop-color="#582D85"/>
<stop offset="0.9028" stop-color="#432E88"/>
</radialGradient>
<radialGradient id="paint3_radial_25988_176755" cx="0" cy="0" r="1" gradientUnits="userSpaceOnUse" gradientTransform="translate(12.5021 12.9895) rotate(23.5825) scale(8.25749 9.36987)">
<stop offset="0.5578" stop-color="#F4266E"/>
<stop offset="0.6305" stop-color="#F1266E"/>
<stop offset="0.6831" stop-color="#E82770"/>
<stop offset="0.7294" stop-color="#D82772"/>
<stop offset="0.7721" stop-color="#C22875"/>
<stop offset="0.8122" stop-color="#A52A7A"/>
<stop offset="0.8505" stop-color="#812B7F"/>
<stop offset="0.8867" stop-color="#582D85"/>
<stop offset="0.9028" stop-color="#432E88"/>
</radialGradient>
<radialGradient id="paint4_radial_25988_176755" cx="0" cy="0" r="1" gradientUnits="userSpaceOnUse" gradientTransform="translate(12.5253 13.5081) rotate(11.4339) scale(10.0208 10.8942)">
<stop offset="0.5578" stop-color="#F4266E"/>
<stop offset="0.6305" stop-color="#F1266E"/>
<stop offset="0.6831" stop-color="#E82770"/>
<stop offset="0.7294" stop-color="#D82772"/>
<stop offset="0.7721" stop-color="#C22875"/>
<stop offset="0.8122" stop-color="#A52A7A"/>
<stop offset="0.8505" stop-color="#812B7F"/>
<stop offset="0.8867" stop-color="#582D85"/>
<stop offset="0.9028" stop-color="#432E88"/>
</radialGradient>
<radialGradient id="paint5_radial_25988_176755" cx="0" cy="0" r="1" gradientUnits="userSpaceOnUse" gradientTransform="translate(12.4985 12.9997) scale(12.2859 12.2168)">
<stop offset="0.5578" stop-color="#F4266E"/>
<stop offset="0.6305" stop-color="#F1266E"/>
<stop offset="0.6831" stop-color="#E82770"/>
<stop offset="0.7294" stop-color="#D82772"/>
<stop offset="0.7721" stop-color="#C22875"/>
<stop offset="0.8122" stop-color="#A52A7A"/>
<stop offset="0.8505" stop-color="#812B7F"/>
<stop offset="0.8867" stop-color="#582D85"/>
<stop offset="0.9028" stop-color="#432E88"/>
</radialGradient>
</defs>
</svg>
