<svg width="3.7042mm" height="3.7052mm" version="1.1" viewBox="0 0 3.7042 3.7052" xmlns="http://www.w3.org/2000/svg">
 <g transform="translate(-13.856 -179.08)">
  <g transform="matrix(.26458 0 0 .26458 13.856 179.08)" style="fill:none">
   <path d="m12.742 4.1289h-0.4102v-0.53594c0-0.62343-0.5086-1.132-1.132-1.132h-0.7492c-2.4828-2.4828-2.4008-2.4609-2.6305-2.4609h-4.1016c-0.22695 0-0.41016 0.1832-0.41016 0.41016v2.0508h-0.50859c-0.62344 0-1.132 0.5086-1.132 1.132v0.53594h-0.4375c-0.67813 0-1.2305 0.55234-1.2305 1.2305v4.9219c0 0.6781 0.55234 1.2304 1.2305 1.2304h2.0781v-2.4609h-0.41015c-0.22696 0-0.41016-0.1832-0.41016-0.41015 0-0.22696 0.1832-0.41016 0.41016-0.41016h8.2032c0.2269 0 0.4101 0.1832 0.4101 0.41016 0 0.22695-0.1832 0.41015-0.4101 0.41015h-0.4102v2.4609h2.0508c0.6781 0 1.2578-0.5523 1.2578-1.2304v-4.9219c0-0.67813-0.5797-1.2305-1.2578-1.2305zm-9.4336 0h-0.82031v-0.53594c0-0.17226 0.13945-0.31171 0.31172-0.31171h0.50859zm6.5625 0.82031h-5.7422v-4.1289h3.2812v2.0508c0 0.22695 0.18321 0.41016 0.41016 0.41016h2.0508v1.668zm0.82031-1.668h0.5086c0.1723 0 0.3117 0.13945 0.3117 0.31171v0.53594h-0.8203zm1.2305 4.1289h-0.8203c-0.227 0-0.4102-0.1832-0.4102-0.41016 0-0.22695 0.1832-0.41015 0.4102-0.41015h0.8203c0.2269 0 0.4101 0.1832 0.4101 0.41015 0 0.22696-0.1832 0.41016-0.4101 0.41016z" fill="#293d63"/>
  </g>
  <g transform="matrix(.26458 0 0 .26458 14.915 181.46)" style="fill:none">
   <path d="m0.12891 4.5898c0 0.22695 0.1832 0.41016 0.41016 0.41016h4.9219c0.22695 0 0.41015-0.18321 0.41015-0.41016v-4.5391h-5.7422zm1.2305-3.7187h3.2812c0.22696 0 0.41016 0.18321 0.41016 0.41016s-0.1832 0.41016-0.41016 0.41016h-3.2812c-0.22695 0-0.41015-0.18321-0.41015-0.41016s0.1832-0.41016 0.41015-0.41016zm0 1.6406h3.2812c0.22696 0 0.41016 0.1832 0.41016 0.41015 0 0.22696-0.1832 0.41016-0.41016 0.41016h-3.2812c-0.22695 0-0.41015-0.1832-0.41015-0.41016 0-0.22695 0.1832-0.41015 0.41015-0.41015z" fill="#293d63"/>
  </g>
 </g>
</svg>
