<svg width="22" height="22" viewBox="0 0 22 22" fill="none" xmlns="http://www.w3.org/2000/svg">
<mask id="mask0_17319_90353" style="mask-type:alpha" maskUnits="userSpaceOnUse" x="0" y="0" width="22" height="22">
<circle cx="11" cy="11" r="11" fill="#F0F3F8"/>
</mask>
<g mask="url(#mask0_17319_90353)">
<circle cx="11" cy="11" r="11" fill="white"/>
<path d="M10.9777 -0.0453491C8.79774 -0.0453491 6.66672 0.60245 4.85414 1.81613C3.04156 3.02981 1.62882 4.75486 0.794582 6.77314C-0.0396579 8.79141 -0.257933 11.0123 0.167359 13.1549C0.592651 15.2974 1.64241 17.2655 3.18388 18.8103C4.72536 20.355 6.68932 21.407 8.8274 21.8331C10.9655 22.2593 13.1817 22.0406 15.1957 21.2046C17.2097 20.3686 18.9312 18.9529 20.1423 17.1365C21.3534 15.3201 21.9999 13.1846 21.9999 11C21.9999 8.0706 20.8386 5.26117 18.7716 3.18976C16.7045 1.11836 13.901 -0.0453491 10.9777 -0.0453491V-0.0453491ZM7.59759 15.6975C7.59625 16.0858 7.44136 16.4578 7.16685 16.732C6.89234 17.0061 6.52059 17.16 6.13304 17.16H4.75971C4.74576 17.1601 4.7323 17.1549 4.72198 17.1455C4.71166 17.1361 4.70523 17.1232 4.70396 17.1092V10.9594C4.70396 10.5823 4.85346 10.2206 5.11956 9.95393C5.38567 9.68726 5.74658 9.53745 6.12291 9.53745H7.55705C7.571 9.5374 7.58446 9.54258 7.59478 9.55198C7.6051 9.56138 7.61153 9.57432 7.6128 9.58824L7.59759 15.6975ZM12.422 13.3411C12.422 13.729 12.2682 14.101 11.9945 14.3753C11.7208 14.6496 11.3496 14.8037 10.9625 14.8037H9.58411C9.57067 14.8037 9.55778 14.7983 9.54828 14.7888C9.53878 14.7793 9.53344 14.7664 9.53344 14.7529V8.58781C9.53344 8.21069 9.68293 7.84901 9.94904 7.58235C10.2151 7.31569 10.5761 7.16588 10.9524 7.16588H12.3713C12.3848 7.16588 12.3977 7.17123 12.4072 7.18075C12.4167 7.19027 12.422 7.20319 12.422 7.21666V13.3411ZM17.2211 10.9848C17.2211 11.374 17.0668 11.7473 16.7921 12.0226C16.5175 12.2978 16.1449 12.4524 15.7565 12.4524H14.3832C14.3761 12.4524 14.369 12.451 14.3625 12.4481C14.356 12.4453 14.3502 12.4411 14.3454 12.4358C14.3407 12.4305 14.337 12.4243 14.3348 12.4175C14.3326 12.4108 14.3318 12.4036 14.3325 12.3966V6.25178C14.3318 6.06462 14.368 5.87917 14.4391 5.70607C14.5101 5.53296 14.6145 5.37561 14.7463 5.24303C14.8781 5.11046 15.0348 5.00526 15.2073 4.93349C15.3798 4.86171 15.5647 4.82477 15.7514 4.82477H17.1856C17.1995 4.82604 17.2124 4.83248 17.2218 4.84282C17.2312 4.85316 17.2363 4.86665 17.2363 4.88063L17.2211 10.9848Z" fill="#F4266E"/>
</g>
</svg>
