<svg width="13" height="11" viewBox="0 0 13 11" fill="none" xmlns="http://www.w3.org/2000/svg">
<path d="M11.25 0.5C10.4062 0.5 9.75 1.17969 9.75 2C9.75 2.84375 10.4062 3.5 11.25 3.5C12.0703 3.5 12.75 2.84375 12.75 2C12.75 1.17969 12.0703 0.5 11.25 0.5ZM0.375 3.92188L5.34375 7.78906C5.71875 8.07031 6.25781 8.07031 6.63281 7.78906L11.1797 4.25C9.96094 4.22656 9 3.24219 9 2H1.125C0.492188 2 0 2.51562 0 3.125C0 3.42969 0.140625 3.73438 0.375 3.92188ZM6 8.75C5.60156 8.75 5.20312 8.63281 4.875 8.375L0 4.57812V9.875C0 10.5078 0.492188 11 1.125 11H10.875C11.4844 11 12 10.5078 12 9.875V4.57812L7.10156 8.375C6.77344 8.63281 6.375 8.75 6 8.75Z" fill="#9A9A9A"/>
</svg>
