<svg width="10" height="11" viewBox="0 0 10 11" fill="none" xmlns="http://www.w3.org/2000/svg">
<path d="M8.92857 1.375H7.85714V0.257812C7.85714 0.128906 7.72321 0 7.58929 0H6.69643C6.54018 0 6.42857 0.128906 6.42857 0.257812V1.375H3.57143V0.257812C3.57143 0.128906 3.4375 0 3.30357 0H2.41071C2.25446 0 2.14286 0.128906 2.14286 0.257812V1.375H1.07143C0.46875 1.375 0 1.84766 0 2.40625V9.96875C0 10.5488 0.46875 11 1.07143 11H8.92857C9.50893 11 10 10.5488 10 9.96875V2.40625C10 1.84766 9.50893 1.375 8.92857 1.375ZM8.79464 9.96875H1.20536C1.11607 9.96875 1.07143 9.92578 1.07143 9.83984V3.4375H8.92857V9.83984C8.92857 9.92578 8.86161 9.96875 8.79464 9.96875Z" fill="#0D2145"/>
</svg>
