<svg width="563" height="424" viewBox="0 0 563 424" fill="none" xmlns="http://www.w3.org/2000/svg">
<g clip-path="url(#clip0_102_2)">
<path d="M236.639 18.6299L516.796 42.4359C520.374 42.7177 523.852 43.7529 527.002 45.4733C530.152 47.1938 532.902 49.5607 535.073 52.4189C543.528 63.5389 556.373 84.7189 561.851 115.444C566.301 140.417 557.47 186.494 541.306 211.936C539.433 214.846 536.984 217.342 534.111 219.27C531.237 221.198 527.999 222.518 524.596 223.148L251.02 274.716L236.639 18.6299Z" fill="#F5DBE5"/>
<path d="M251.235 274.578C304.592 269.43 342.325 208.023 335.513 137.422C328.701 66.8209 279.925 13.7607 226.568 18.9087C173.211 24.0567 135.478 85.4635 142.29 156.065C149.102 226.666 197.878 279.726 251.235 274.578Z" fill="#F0F4FF"/>
<path d="M247.249 259.559C292.844 255.16 324.943 201.199 318.945 139.033C312.947 76.867 271.124 30.0377 225.529 34.4368C179.935 38.8358 147.835 92.7974 153.833 154.963C159.831 217.129 201.655 263.959 247.249 259.559Z" fill="#F5DBE5"/>
<path d="M325.059 26.1101C325.059 26.1101 367.417 61.9731 374.703 143.244C380.852 211.483 334.528 258.944 334.528 258.944L489.472 229.762C489.472 229.762 523.072 185.989 523.072 130.697C523.072 69.6971 482.459 39.5191 482.459 39.5191L325.059 26.1101Z" fill="#F4266E"/>
<g style="mix-blend-mode:multiply" opacity="0.58">
<path d="M317.419 181.235C314.345 193.192 309.456 207.191 309.456 207.191L249.09 240.274L251.019 274.739L524.597 223.164C528 222.534 531.238 221.214 534.112 219.286C536.985 217.358 539.434 214.862 541.307 211.952C547.971 201.454 553.39 187.447 557.14 172.864L317.419 181.235Z" fill="#F5DBE5"/>
</g>
<path d="M401.044 72.141C401.044 72.141 424.187 69.192 427.83 86.732C430.489 99.549 413.28 105.109 413.28 105.109" stroke="#1C3177" stroke-width="6.916" stroke-miterlimit="10" stroke-linecap="round"/>
<path d="M419.706 158.542C419.706 158.542 444.078 164.885 439.413 182.771C436.515 193.875 416.931 196.042 416.931 196.042" stroke="#1C3177" stroke-width="6.916" stroke-miterlimit="10" stroke-linecap="round"/>
<path d="M461.687 105.124C454.823 104.763 451.347 113.686 451.447 123.232C451.547 132.778 453.415 147.806 462.477 148.252C471.539 148.698 473.239 138.022 472.524 126.687C471.809 115.352 469.147 105.513 461.687 105.124Z" fill="#1C3177"/>
<path d="M470.769 115.015C470.769 115.015 462.74 117.787 462.869 124.668C462.998 131.549 466.769 137.063 472.094 138.215C473.923 130.518 473.463 122.454 470.769 115.015V115.015Z" fill="#FF97C9"/>
<path d="M309.457 207.168C309.457 207.168 169.881 205.056 138.373 212.543C106.865 220.03 112.381 240.681 121.832 249.927C131.283 259.173 131.478 272.965 108.832 274.727C86.1861 276.489 24.5421 281.213 16.6641 303.053C8.7861 324.893 40.4911 343.393 105.054 341.227C169.617 339.061 245.863 327.995 262.011 341.404C278.159 354.813 238.576 356.763 255.911 374.088C273.246 391.413 364.231 384.716 394.952 372.322C425.673 359.928 441.837 339.262 424.098 318.405C406.359 297.548 382.667 292.586 388.681 281.013C393.8 271.168 393.581 256.677 380.787 250.249C359.931 253.859 251.258 274.693 251.258 274.693C251.258 274.693 247.023 262.513 259.398 257.261C271.773 252.009 295.445 243.714 309.457 207.168Z" fill="#D9E2F3"/>
<path d="M106.868 416.778C101.188 407.017 124.461 395.005 148.372 394.615C172.283 394.225 191.303 405.366 189.603 412.977C187.903 420.588 161.085 423.905 146.774 423.997C132.463 424.089 110.15 422.422 106.868 416.778Z" fill="#D9E2F3"/>
</g>
<defs>
<clipPath id="clip0_102_2">
<rect width="562.999" height="424.001" fill="white"/>
</clipPath>
</defs>
</svg>
