<svg width="15" height="10" viewBox="0 0 15 10" fill="none" xmlns="http://www.w3.org/2000/svg">
<path d="M14.5158 4.8361C14.4503 4.77147 14.3618 4.73549 14.2698 4.73609C14.1821 4.73793 14.0986 4.77379 14.0368 4.8361L11.6318 7.23609V5.9161C11.6316 5.82415 11.5949 5.73605 11.5299 5.67103C11.4649 5.60601 11.3768 5.56936 11.2848 5.5691H10.9368C10.8913 5.5691 10.8462 5.57808 10.8042 5.59553C10.7621 5.61298 10.7239 5.63856 10.6918 5.6708C10.6597 5.70303 10.6342 5.74128 10.6169 5.78338C10.5995 5.82547 10.5907 5.87058 10.5908 5.9161V8.6571C10.5908 8.74905 10.6272 8.83727 10.692 8.90247C10.7569 8.96768 10.8449 9.00458 10.9368 9.0051H13.6788C13.7709 9.00484 13.8592 8.96806 13.9242 8.90282C13.9893 8.83759 14.0258 8.74922 14.0258 8.6571V8.3101C14.0256 8.21824 13.9889 8.13023 13.9238 8.06538C13.8588 8.00052 13.7707 7.9641 13.6788 7.9641H12.3588L14.7588 5.56409C14.7922 5.53346 14.8189 5.49622 14.8371 5.45473C14.8554 5.41325 14.8648 5.36842 14.8648 5.3231C14.865 5.27933 14.8563 5.23598 14.8391 5.19573C14.8219 5.15548 14.7966 5.11919 14.7648 5.0891L14.5158 4.8361Z" fill="#1ABA17"/>
<path d="M1.53 0H0.971C0.434731 0 0 0.434732 0 0.971V8.029C0 8.56527 0.434731 9 0.971 9H1.53C2.06627 9 2.501 8.56527 2.501 8.029V0.971C2.501 0.434732 2.06627 0 1.53 0Z" fill="#9A9A9A"/>
<path d="M11.0754 0H4.53642C4.2789 0 4.03192 0.102295 3.84982 0.284393C3.66773 0.466491 3.56543 0.713468 3.56543 0.970993V8.02899C3.56543 8.28652 3.66773 8.53351 3.84982 8.71561C4.03192 8.8977 4.2789 9 4.53642 9H9.50842V5.873C9.50961 5.50727 9.64933 5.15558 9.89946 4.88875C10.1496 4.62192 10.4915 4.45978 10.8564 4.435V4.429H10.9154C10.9294 4.429 10.9424 4.429 10.9564 4.429H11.3294C11.3404 4.429 11.3494 4.429 11.3594 4.429H12.0464V0.970993C12.0464 0.713468 11.9441 0.466491 11.762 0.284393C11.5799 0.102295 11.3329 0 11.0754 0ZM6.10243 7.12399C6.10243 7.19083 6.07587 7.25493 6.02861 7.30219C5.98135 7.34944 5.91727 7.37599 5.85043 7.37599H5.05643C4.98959 7.37599 4.92549 7.34944 4.87823 7.30219C4.83098 7.25493 4.80443 7.19083 4.80443 7.12399V6.32401C4.80443 6.25717 4.83098 6.19307 4.87823 6.14581C4.92549 6.09855 4.98959 6.07199 5.05643 6.07199H5.85043C5.91727 6.07199 5.98135 6.09855 6.02861 6.14581C6.07587 6.19307 6.10243 6.25717 6.10243 6.32401V7.12399ZM6.10243 4.897C6.10243 4.96384 6.07587 5.02794 6.02861 5.0752C5.98135 5.12245 5.91727 5.149 5.85043 5.149H5.05643C4.98959 5.149 4.92549 5.12245 4.87823 5.0752C4.83098 5.02794 4.80443 4.96384 4.80443 4.897V4.097C4.80443 4.03017 4.83098 3.96607 4.87823 3.91881C4.92549 3.87155 4.98959 3.845 5.05643 3.845H5.85043C5.91727 3.845 5.98135 3.87155 6.02861 3.91881C6.07587 3.96607 6.10243 4.03017 6.10243 4.097V4.897ZM6.10243 2.67C6.10243 2.73683 6.07587 2.80093 6.02861 2.84819C5.98135 2.89545 5.91727 2.922 5.85043 2.922H5.05643C4.98959 2.922 4.92549 2.89545 4.87823 2.84819C4.83098 2.80093 4.80443 2.73683 4.80443 2.67V1.87599C4.8043 1.84281 4.81071 1.80994 4.82332 1.77925C4.83592 1.74856 4.85447 1.72067 4.87788 1.69716C4.9013 1.67365 4.92912 1.655 4.95976 1.64227C4.9904 1.62955 5.02325 1.623 5.05643 1.623H5.85043C5.88361 1.623 5.91646 1.62955 5.9471 1.64227C5.97774 1.655 6.00556 1.67365 6.02898 1.69716C6.05239 1.72067 6.07092 1.74856 6.08353 1.77925C6.09613 1.80994 6.10256 1.84281 6.10243 1.87599V2.67ZM8.45543 7.12399C8.45543 7.15717 8.44887 7.19003 8.43614 7.22067C8.42342 7.25131 8.40478 7.27914 8.38127 7.30255C8.35777 7.32596 8.32985 7.3445 8.29916 7.3571C8.26847 7.36971 8.2356 7.37612 8.20242 7.37599H7.40843C7.3416 7.37599 7.2775 7.34944 7.23024 7.30219C7.18298 7.25493 7.15643 7.19083 7.15643 7.12399V6.33C7.1563 6.29682 7.16272 6.26395 7.17532 6.23326C7.18793 6.20257 7.20646 6.17466 7.22987 6.15115C7.25329 6.12765 7.28111 6.10901 7.31175 6.09628C7.34239 6.08356 7.37525 6.077 7.40843 6.077H8.20242C8.26952 6.077 8.33387 6.10366 8.38132 6.15111C8.42876 6.19855 8.45543 6.2629 8.45543 6.33V7.12399ZM8.45543 4.897C8.45543 4.93018 8.44887 4.96303 8.43614 4.99367C8.42342 5.02431 8.40478 5.05213 8.38127 5.07555C8.35777 5.09896 8.32985 5.11749 8.29916 5.1301C8.26847 5.1427 8.2356 5.14913 8.20242 5.149H7.40843C7.3416 5.149 7.2775 5.12245 7.23024 5.0752C7.18298 5.02794 7.15643 4.96384 7.15643 4.897V4.103C7.1563 4.06982 7.16272 4.03695 7.17532 4.00626C7.18793 3.97557 7.20646 3.94767 7.22987 3.92416C7.25329 3.90066 7.28111 3.882 7.31175 3.86928C7.34239 3.85655 7.37525 3.85001 7.40843 3.85001H8.20242C8.26952 3.85001 8.33387 3.87666 8.38132 3.9241C8.42876 3.97155 8.45543 4.0359 8.45543 4.103V4.897ZM8.45543 2.67C8.45543 2.70318 8.44887 2.73602 8.43614 2.76666C8.42342 2.7973 8.40478 2.82513 8.38127 2.84854C8.35777 2.87195 8.32985 2.8905 8.29916 2.90311C8.26847 2.91571 8.2356 2.92213 8.20242 2.922H7.40843C7.3416 2.922 7.2775 2.89545 7.23024 2.84819C7.18298 2.80093 7.15643 2.73683 7.15643 2.67V1.87599C7.15643 1.80906 7.18295 1.74487 7.23018 1.69745C7.27741 1.65003 7.34151 1.62327 7.40843 1.623H8.20242C8.26952 1.623 8.33387 1.64965 8.38132 1.6971C8.42876 1.74454 8.45543 1.80889 8.45543 1.87599V2.67ZM10.8074 2.67C10.8074 2.70318 10.8009 2.73602 10.7881 2.76666C10.7754 2.7973 10.7568 2.82513 10.7333 2.84854C10.7098 2.87195 10.6819 2.8905 10.6512 2.90311C10.6205 2.91571 10.5876 2.92213 10.5544 2.922H9.76143C9.72825 2.92213 9.69538 2.91571 9.66469 2.90311C9.634 2.8905 9.6061 2.87195 9.5826 2.84854C9.55909 2.82513 9.54044 2.7973 9.52771 2.76666C9.51498 2.73602 9.50842 2.70318 9.50842 2.67V1.87599C9.50842 1.80889 9.53509 1.74454 9.58253 1.6971C9.62998 1.64965 9.69433 1.623 9.76143 1.623H10.5544C10.6215 1.623 10.6859 1.64965 10.7333 1.6971C10.7808 1.74454 10.8074 1.80889 10.8074 1.87599V2.67Z" fill="#9A9A9A"/>
</svg>
