<svg width="14" height="14" viewBox="0 0 14 14" fill="none" xmlns="http://www.w3.org/2000/svg">
<g clip-path="url(#clip0_22405_71716)">
<path d="M7.07671 14C10.8772 14 13.9581 10.866 13.9581 7C13.9581 3.13401 10.8772 0 7.07671 0C3.27622 0 0.195312 3.13401 0.195312 7C0.195312 10.866 3.27622 14 7.07671 14Z" fill="#D2D2D2"/>
<path d="M0.401872 5.31992C0.838957 3.518 1.96163 1.96641 3.52304 1.00629C5.08445 0.0461696 6.95678 -0.24388 8.72837 0.199915C9.60563 0.421097 10.4315 0.815906 11.1587 1.3618C11.886 1.90769 12.5004 2.59396 12.9669 3.38143C13.4334 4.16889 13.7428 5.04213 13.8774 5.95125C14.0121 6.86037 13.9694 7.78758 13.7518 8.67992C13.3126 10.48 12.189 12.0292 10.6278 12.9873C9.06666 13.9453 7.19554 14.234 5.42531 13.7899C3.65574 13.3431 2.1328 12.2002 1.19095 10.6121C0.249088 9.02404 -0.0347143 7.12066 0.401872 5.31992Z" fill="#F1F2F2"/>
<path d="M13.4373 4.33984H8.10914V5.41985H13.7814C13.6979 5.05356 13.5828 4.6955 13.4373 4.34985V4.33984ZM12.0807 2.19984H8.14847V3.26984H12.936C12.698 2.88765 12.4248 2.52937 12.12 2.19984H12.0807ZM2.15182 11.8498H12.0905C12.3955 11.5179 12.6717 11.1599 12.9163 10.7798H1.31621C1.56105 11.1624 1.84083 11.5207 2.15182 11.8498ZM8.7678 0.209846C8.56464 0.16318 8.35819 0.123177 8.14847 0.0898438V1.08984H10.8519C10.2112 0.669455 9.50723 0.358674 8.7678 0.169846V0.209846ZM13.978 6.44984H8.14847V7.51984H13.978C14.0075 7.16381 14.0075 6.80588 13.978 6.44984ZM0.775541 9.69984H13.4767C13.6088 9.37509 13.7173 9.04085 13.801 8.69984V8.63985H0.382324C0.471726 9.00768 0.586712 9.36859 0.7264 9.71985L0.775541 9.69984ZM5.42541 13.8098C5.82495 13.9121 6.23309 13.9757 6.64439 13.9998H7.5193C8.66922 13.9284 9.7823 13.5601 10.7536 12.9298H3.39048C4.01943 13.3295 4.70607 13.6265 5.42541 13.8098Z" fill="#EF3827"/>
<path d="M7.58792 7.16L7.44047 7.05L7.29302 7.16L7.352 6.98L7.20455 6.87H7.38149L7.44047 6.68999L7.49945 6.87H7.67639L7.52894 6.98L7.58792 7.16ZM6.86047 1.52L6.91945 1.7L6.76216 1.59L6.61471 1.7L6.67369 1.52L6.52623 1.41H6.71302V1.23L6.772 1.41H6.95878L6.86047 1.52ZM6.86047 3.13L6.91945 3.31L6.76216 3.2L6.61471 3.31L6.67369 3.13L6.52623 3.02H6.71302V2.84L6.772 3.02H6.95878L6.86047 3.13ZM6.86047 4.71L6.91945 4.89L6.772 4.78L6.62455 4.89L6.68353 4.71L6.53604 4.6H6.71302L6.772 4.42L6.83098 4.6H7.01776L6.86047 4.71ZM6.90961 6.45L6.76216 6.34L6.61471 6.45L6.66385 6.27L6.51639 6.16H6.70318L6.76216 5.98L6.81133 6.16H6.99808L6.85063 6.27L6.90961 6.45ZM6.17232 2.3L6.2313 2.48L6.08385 2.37L5.93639 2.48L5.99537 2.3L5.84792 2.18999H6.02486L6.08385 2.00999L6.14283 2.18999H6.32961L6.17232 2.3ZM6.17232 3.86L6.2313 4.04L6.08385 3.93L5.93639 4.04L5.99537 3.86L5.84792 3.75H6.02486L6.08385 3.57L6.14283 3.75H6.32961L6.17232 3.86ZM6.17232 5.46L6.2313 5.63L6.08385 5.52L5.93639 5.63L5.99537 5.46L5.84792 5.35H6.02486L6.08385 5.17L6.14283 5.35H6.32961L6.17232 5.46ZM6.2313 7.16L6.08385 7.05L5.93639 7.16L5.99537 6.98L5.84792 6.87H6.02486L6.08385 6.68999L6.14283 6.87H6.32961L6.17232 6.98L6.2313 7.16ZM5.50385 1.52L5.56283 1.7L5.41537 1.59L5.25808 1.7L5.31706 1.52L5.16961 1.41H5.35639L5.41537 1.23L5.46452 1.41H5.6513L5.50385 1.52ZM5.50385 3.13L5.56283 3.31L5.41537 3.2L5.25808 3.31L5.31706 3.13L5.16961 3.02H5.35639L5.41537 2.84L5.46452 3.02H5.6513L5.50385 3.13ZM5.50385 4.71L5.55299 4.89L5.40553 4.78L5.25808 4.89L5.31706 4.71L5.16961 4.6H5.34655L5.40553 4.42L5.46452 4.6H5.6513L5.50385 4.71ZM5.50385 6.45L5.35639 6.34L5.20894 6.45L5.25808 6.27L5.11063 6.16H5.29741L5.35639 5.98L5.41537 6.16H5.59232L5.44486 6.27L5.50385 6.45ZM4.77639 0.739998L4.82553 0.919998L4.67808 0.809998L4.53063 0.919998L4.58961 0.739998L4.44216 0.629997H4.6191L4.70757 0.419998L4.76655 0.599998H4.95334L4.77639 0.739998ZM4.77639 2.3L4.82553 2.48L4.70757 2.42L4.56012 2.53L4.6191 2.35L4.47165 2.24H4.64859L4.70757 2.06L4.76655 2.24H4.95334L4.77639 2.3ZM4.77639 3.86L4.82553 4.04L4.67808 3.93L4.53063 4.04L4.58961 3.86L4.44216 3.75H4.6191L4.67808 3.57L4.73706 3.75H4.92385L4.77639 3.86ZM4.77639 5.46L4.82553 5.63L4.67808 5.52L4.53063 5.63L4.58961 5.46L4.44216 5.35H4.6191L4.67808 5.17L4.73706 5.35H4.92385L4.77639 5.46ZM4.82553 7.16L4.67808 7.05L4.53063 7.16L4.58961 6.98L4.44216 6.87H4.6191L4.67808 6.68999L4.73706 6.87H4.92385L4.77639 6.98L4.82553 7.16ZM4.09808 1.46L4.15706 1.64L4.00961 1.53L3.85232 1.64L3.9113 1.46L3.76385 1.35H3.95063L4.00961 1.17L4.05875 1.35H4.24553L4.09808 1.46ZM4.09808 3.07L4.15706 3.25L4.00961 3.14L3.85232 3.25L3.9113 3.07L3.76385 2.96H3.95063L4.00961 2.79L4.05875 2.96H4.24553L4.09808 3.07ZM4.09808 4.65L4.14722 4.83L3.99977 4.72L3.85232 4.83L3.9113 4.65L3.76385 4.54H3.94079L3.99977 4.36L4.05875 4.54H4.24553L4.09808 4.65ZM4.09808 6.39L3.95063 6.28L3.80315 6.39L3.85232 6.21L3.70486 6.1H3.89165L3.95063 5.93L4.00961 6.1H4.18655L4.0391 6.21L4.09808 6.39ZM3.37063 2.3L3.41977 2.48L3.27232 2.37L3.12486 2.48L3.18385 2.3L3.03636 2.18999H3.21334L3.27232 2.00999L3.3313 2.18999H3.51808L3.37063 2.3ZM3.37063 3.86L3.41977 4.04L3.27232 3.93L3.12486 4.04L3.18385 3.86L3.03636 3.75H3.21334L3.27232 3.57L3.3313 3.75H3.51808L3.37063 3.86ZM3.37063 5.46L3.41977 5.63L3.27232 5.52L3.12486 5.63L3.18385 5.46L3.03636 5.35H3.21334L3.27232 5.17L3.3313 5.35H3.51808L3.37063 5.46ZM3.41977 7.16L3.27232 7.05L3.12486 7.16L3.18385 6.98L3.03636 6.87H3.21334L3.27232 6.68999L3.3313 6.87H3.51808L3.37063 6.98L3.41977 7.16ZM2.69232 3.06L2.7513 3.24L2.60381 3.13L2.45636 3.24L2.50553 3.06L2.35805 2.95H2.54483L2.60381 2.77L2.65299 2.95H2.83977L2.69232 3.06ZM2.69232 4.64V4.81L2.54483 4.7L2.39738 4.81L2.45636 4.64L2.30891 4.53H2.48585L2.54483 4.35L2.60381 4.53H2.7906L2.69232 4.64ZM2.69232 6.37L2.54483 6.25999L2.39738 6.37L2.45636 6.2L2.29907 6.09H2.48585L2.54483 5.91L2.60381 6.09H2.78079L2.63334 6.2L2.69232 6.37ZM5.93639 0.629997L5.99537 0.449997L6.05436 0.629997H6.24114L6.08385 0.739998L6.14283 0.919998L5.99537 0.809998L5.84792 0.919998L5.9069 0.739998L5.75945 0.629997H5.93639ZM7.31267 5.35L7.37165 5.17L7.43063 5.35H7.6076L7.46012 5.46L7.5191 5.63L7.37165 5.52L7.2242 5.63L7.28318 5.46L7.13572 5.35H7.31267ZM7.31267 3.75L7.37165 3.57L7.43063 3.75H7.6076L7.46012 3.86L7.5191 4.04L7.37165 3.93L7.2242 4.04L7.28318 3.86L7.13572 3.75H7.31267ZM7.31267 2.18999L7.37165 2.00999L7.43063 2.18999H7.6076L7.46012 2.3L7.5191 2.48L7.37165 2.37L7.2242 2.48L7.28318 2.3L7.13572 2.18999H7.31267ZM7.31267 0.629997L7.37165 0.449997L7.43063 0.629997H7.6076L7.46012 0.739998L7.5191 0.919998L7.37165 0.809998L7.2242 0.919998L7.28318 0.739998L7.13572 0.629997H7.31267ZM1.96483 3.86L2.014 4.04L1.86652 3.93L1.71907 4.04L1.77805 3.86L1.6306 3.75H1.80754L1.86652 3.57L1.92553 3.75H2.11229L1.96483 3.86ZM1.96483 5.46L2.014 5.63L1.86652 5.52L1.71907 5.63L1.77805 5.46L1.6306 5.35H1.80754L1.86652 5.17L1.92553 5.35H2.11229L1.96483 5.46ZM2.014 7.16L1.86652 7.05L1.71907 7.16L1.77805 6.98L1.6306 6.87H1.80754L1.86652 6.68999L1.92553 6.87H2.11229L1.96483 6.98L2.014 7.16ZM1.27671 4.61L1.32585 4.79L1.1784 4.68L1.03095 4.79L1.08993 4.61L0.942476 4.5H1.12923L1.1784 4.32L1.23738 4.5H1.42416L1.27671 4.61ZM1.27671 6.35L1.12923 6.24L0.981777 6.35L1.04076 6.17L0.883465 6.06H1.07025L1.12923 5.88L1.18824 6.06H1.36518L1.21773 6.17L1.27671 6.35ZM0.60821 7.16L0.450947 7.05L0.303465 7.16L0.362446 6.98L0.214993 6.87H0.401776V6.68999L0.460757 6.87H0.647541L0.500088 6.98L0.60821 7.16ZM8.00082 0.0800018L7.36184 0H6.13302C4.85812 0.159796 3.65263 0.679397 2.65299 1.5V1.57H2.58416C2.35621 1.76008 2.13955 1.96378 1.93534 2.18H2.0435L1.89604 2.29L1.94518 2.47L1.79773 2.36H1.73875C1.60112 2.52 1.4733 2.69 1.3455 2.87L1.25703 3V3.13L1.1784 3.07C0.74175 3.73054 0.425404 4.46557 0.244484 5.24H0.362446V5.06L0.421457 5.24H0.60821L0.460757 5.35L0.519738 5.52L0.362446 5.41L0.214993 5.52L0.273974 5.35L0.185503 5.28C0.0233549 5.99075 -0.0329627 6.72223 0.0183997 7.45H7.88286L8.00082 0.0800018Z" fill="#223C72"/>
</g>
<defs>
<clipPath id="clip0_22405_71716">
<rect width="14" height="14" fill="white"/>
</clipPath>
</defs>
</svg>
