<svg width="21" height="19" viewBox="0 0 21 19" fill="none" xmlns="http://www.w3.org/2000/svg">
<path d="M8.46792 6.74548C6.603 6.74548 5.08398 8.2645 5.08398 10.1294C5.08398 11.9943 6.603 13.5134 8.46792 13.5134C10.3328 13.5134 11.8519 11.9943 11.8519 10.1294C11.8519 8.2645 10.3328 6.74548 8.46792 6.74548ZM8.46792 11.8289C7.53546 11.8289 6.78347 11.0619 6.78347 10.1294C6.78347 9.19696 7.53546 8.44497 8.46792 8.44497C9.40039 8.44497 10.1524 9.19696 10.1524 10.1294C10.1524 11.0619 9.40039 11.8289 8.46792 11.8289Z" fill="#9A9A9A"/>
<path d="M16.5151 11.453L15.4021 10.8063C15.4322 10.4905 15.4021 10.1746 15.4021 9.8588H13.7327C13.7628 10.3852 13.7026 10.7913 13.5372 11.6786L15.0863 12.566C14.8457 13.1976 14.3193 14.1301 13.8831 14.6414L12.3491 13.739C11.2211 14.7166 11.0557 14.8069 9.65696 15.2881V17.0779C9.34112 17.138 8.79969 17.1831 8.46882 17.1831C8.13794 17.1831 7.59651 17.138 7.28068 17.0779V15.2881C5.88198 14.8069 5.71655 14.7166 4.58857 13.739L3.05451 14.6414C2.61836 14.1301 2.09197 13.1976 1.85134 12.566L3.40043 11.6786C3.12971 10.2198 3.12971 10.0393 3.40043 8.58042L1.85134 7.69308C2.13709 6.94109 2.52812 6.23422 3.05451 5.6176L4.58857 6.51998C5.71655 5.55744 5.88198 5.45216 7.28068 4.97089V3.18116C7.59651 3.121 8.13794 3.07588 8.46882 3.07588C8.79969 3.07588 9.34112 3.121 9.65696 3.18116V4.97089C10.5142 5.27168 10.9053 5.42208 11.3564 5.72287V2.48933C11.3414 2.12838 11.0707 1.76742 10.7248 1.67719C9.25088 1.28615 7.68675 1.28615 6.21286 1.67719C5.83686 1.78246 5.58119 2.11334 5.58119 2.50437V3.79779C5.25031 3.94818 4.72392 4.24898 4.42313 4.45954L3.31019 3.81283C2.97932 3.63235 2.5582 3.67747 2.28749 3.94819C1.21967 5.01601 0.422561 6.35454 0.0315276 7.85852C-0.0737505 8.23451 0.0916865 8.62554 0.422561 8.80602L1.5355 9.45273C1.52046 9.64824 1.50542 9.94904 1.50542 10.1295C1.50542 10.31 1.52046 10.6108 1.5355 10.8063L0.422561 11.453C0.0916865 11.6335 -0.0737505 12.0245 0.0315276 12.4005C0.422561 13.9045 1.21967 15.243 2.28749 16.3108C2.5582 16.5816 2.97932 16.6267 3.31019 16.4462L4.42313 15.7995C4.72392 16.0101 5.25031 16.3108 5.58119 16.4612V17.7547C5.58119 18.1156 5.86694 18.4916 6.21286 18.5818C7.68675 18.9729 9.25088 18.9729 10.7248 18.5818C11.1008 18.4766 11.3564 18.1457 11.3564 17.7547V16.4612C11.6873 16.3108 12.2137 16.0101 12.5145 15.7995L13.6274 16.4462C13.9583 16.6267 14.3794 16.5816 14.6501 16.3108C15.718 15.243 16.5151 13.9045 16.9061 12.4005C17.0114 12.0245 16.8459 11.6335 16.5151 11.453Z" fill="#9A9A9A"/>
<path d="M20.4404 0.759826C20.29 0.609429 20.0644 0.50415 19.8238 0.50415H13.3567C13.116 0.50415 12.8904 0.609429 12.7401 0.759826C12.5746 0.925263 12.4844 1.15086 12.4844 1.39149V7.85858C12.4844 7.9789 12.4994 8.08418 12.5445 8.18945C12.6799 8.50529 12.9957 8.73088 13.3567 8.73088H19.8238C20.1847 8.73088 20.5006 8.50529 20.6359 8.18945C20.681 8.08418 20.7111 7.9789 20.7111 7.85858V1.39149C20.7111 1.15086 20.6058 0.925263 20.4404 0.759826ZM19.4478 3.55722L16.0638 6.92612C16.0037 6.98627 15.9285 7.01635 15.8533 7.01635C15.7781 7.01635 15.7029 6.98627 15.6427 6.92612L13.7327 5.01607C13.6876 4.97095 13.6575 4.89575 13.6575 4.82055C13.6575 4.79047 13.6725 4.77543 13.6876 4.74535C13.6876 4.73031 13.7026 4.71528 13.7026 4.6852C13.7176 4.65512 13.7176 4.62504 13.7327 4.61L14.1538 4.18888L13.7477 4.61C13.7176 4.62504 13.7176 4.65512 13.7026 4.6852C13.7026 4.65512 13.7176 4.62504 13.7327 4.61L14.1538 4.18888C14.1688 4.17384 14.1989 4.17384 14.2139 4.1588C14.1989 4.17384 14.1688 4.17384 14.1538 4.18888C14.1688 4.17384 14.1989 4.17384 14.2139 4.1588C14.2591 4.12873 14.3042 4.11369 14.3643 4.11369C14.4095 4.11369 14.4546 4.14377 14.4847 4.1588C14.5147 4.17384 14.5448 4.17384 14.5599 4.18888C14.5448 4.17384 14.5147 4.17384 14.4997 4.1588C14.5298 4.17384 14.5599 4.15881 14.5899 4.18888L15.8683 5.46726L14.5749 4.18888L15.8533 5.46726V5.4823L18.6055 2.73003C18.6657 2.66987 18.7409 2.63979 18.8161 2.63979C18.8913 2.63979 18.9665 2.66987 19.0267 2.73003L19.4478 3.1361C19.5079 3.19626 19.523 3.27146 19.523 3.34666C19.523 3.42186 19.5079 3.49706 19.4478 3.55722Z" fill="#9A9A9A"/>
</svg>
