<svg width="12" height="11" viewBox="0 0 12 11" fill="none" xmlns="http://www.w3.org/2000/svg">
<path d="M0.75 10.2143C0.75 10.6562 1.07812 11 1.5 11H5.25V7.07143H0.75V10.2143ZM6.75 11H10.5C10.8984 11 11.25 10.6562 11.25 10.2143V7.07143H6.75V11ZM11.25 3.14286H10.2422C10.4062 2.84821 10.5 2.52902 10.5 2.16071C10.5 0.982143 9.5625 0 8.4375 0C7.45312 0 6.82031 0.540178 6.02344 1.6942C5.20312 0.540178 4.57031 0 3.60938 0C2.46094 0 1.54688 0.982143 1.54688 2.16071C1.54688 2.52902 1.61719 2.84821 1.78125 3.14286H0.75C0.328125 3.14286 0 3.51116 0 3.92857V5.89286C0 6.11384 0.164062 6.28571 0.375 6.28571H11.625C11.8125 6.28571 12 6.11384 12 5.89286V3.92857C12 3.51116 11.6484 3.14286 11.25 3.14286ZM3.58594 3.14286C3.07031 3.14286 2.64844 2.72545 2.64844 2.16071C2.64844 1.62054 3.07031 1.17857 3.58594 1.17857C4.05469 1.17857 4.40625 1.27679 5.625 3.14286H3.58594ZM8.4375 3.14286H6.39844C7.61719 1.27679 7.94531 1.17857 8.4375 1.17857C8.95312 1.17857 9.375 1.62054 9.375 2.16071C9.375 2.72545 8.95312 3.14286 8.4375 3.14286Z" fill="#61A6E7"/>
</svg>
