<svg width="17" height="12" viewBox="0 0 17 12" fill="none" xmlns="http://www.w3.org/2000/svg">
<path d="M16.7344 5.625L13.6354 0.6875C13.3993 0.3125 12.8681 0 12.4549 0H4.51562C4.10243 0 3.57118 0.3125 3.33507 0.6875L0.236111 5.625C0.0885417 5.84375 0 6.21875 0 6.46875V10.5C0 11.3438 0.619792 12 1.41667 12H15.5833C16.3507 12 17 11.3438 17 10.5V6.46875C17 6.21875 16.8819 5.84375 16.7344 5.625ZM4.78125 2H12.1892L14.7274 6H11.0972L10.1528 8H6.84722L5.90278 6H2.24306L4.78125 2Z" fill="#9A9A9A"/>
</svg>
