<svg width="51" height="51" viewBox="0 0 51 51" fill="none" xmlns="http://www.w3.org/2000/svg">
<path d="M25.5 51C39.5833 51 51 39.5833 51 25.5C51 11.4167 39.5833 0 25.5 0C11.4167 0 0 11.4167 0 25.5C0 39.5833 11.4167 51 25.5 51Z" fill="#F0F3F8"/>
<path d="M33.7139 27.9046C33.3526 28.1641 32.9264 28.3013 32.4812 28.3013C31.3142 28.3013 30.3647 27.3519 30.3647 26.1848C30.3647 25.0178 31.3142 24.0684 32.4812 24.0684C32.9265 24.0684 33.3527 24.2056 33.7139 24.4651L34.7345 25.1983V17.3697H29.4556C29.5471 17.0596 29.594 16.7358 29.594 16.4055C29.594 14.5277 28.0663 13 26.1885 13C24.3107 13 22.783 14.5277 22.7829 16.4055C22.7829 16.7358 22.8298 17.0596 22.9213 17.3697H17.6424V22.8612C17.3299 22.7682 17.0034 22.7205 16.6702 22.7205C14.7924 22.7205 13.2646 24.2482 13.2646 26.1261C13.2646 28.0039 14.7924 29.5316 16.6702 29.5316C17.0034 29.5316 17.3299 29.4839 17.6424 29.3909V35H25.2019L24.4687 33.9794C24.2092 33.6182 24.072 33.1919 24.072 32.7467C24.072 31.5797 25.0215 30.6302 26.1885 30.6302C27.3555 30.6302 28.305 31.5797 28.305 32.7467C28.305 33.1919 28.1678 33.6182 27.9083 33.9794L27.1751 35H34.7345V27.1714L33.7139 27.9046ZM33.4455 33.7109H29.4557C29.5471 33.4008 29.594 33.077 29.5939 32.7467C29.5939 30.8689 28.0662 29.3412 26.1884 29.3412C24.3106 29.3412 22.7829 30.8689 22.7829 32.7467C22.7829 33.077 22.8298 33.4008 22.9213 33.7109H18.9315V27.1012L17.909 27.8414C17.5465 28.1038 17.1181 28.2425 16.6701 28.2425C15.5031 28.2425 14.5537 27.293 14.5537 26.126C14.5537 24.959 15.5031 24.0095 16.6701 24.0095C17.1181 24.0095 17.5465 24.1482 17.909 24.4107L18.9315 25.1508V18.6588H25.2019L24.4687 17.6382C24.2091 17.2769 24.072 16.8507 24.072 16.4055C24.072 15.2385 25.0214 14.289 26.1884 14.289C27.3555 14.289 28.3049 15.2385 28.3049 16.4055C28.3049 16.8507 28.1678 17.2769 27.9082 17.6382L27.1751 18.6588H33.4455V22.9177C33.1354 22.8262 32.8116 22.7793 32.4813 22.7793C30.6035 22.7793 29.0758 24.307 29.0758 26.1848C29.0758 28.0627 30.6035 29.5904 32.4813 29.5904C32.8116 29.5904 33.1354 29.5434 33.4455 29.452V33.7109Z" fill="#414E6A"/>
</svg>
