<svg width="12" height="13" viewBox="0 0 12 13" fill="none" xmlns="http://www.w3.org/2000/svg">
<path d="M12 11.375V5.21094C12 4.85938 11.8125 4.53125 11.5547 4.32031C10.9688 3.875 10.5 3.5 7.71094 1.48438C7.3125 1.20312 6.53906 0.5 6 0.523438C5.4375 0.5 4.66406 1.20312 4.26562 1.48438C1.47656 3.5 1.00781 3.875 0.421875 4.32031C0.164062 4.53125 0 4.85938 0 5.21094V11.375C0 12.0078 0.492188 12.5 1.125 12.5H10.875C11.4844 12.5 12 12.0078 12 11.375ZM10.4531 6.78125L10.6641 7.08594C10.6875 7.10938 10.6875 7.15625 10.6875 7.20312C10.6875 7.25 10.6641 7.32031 10.6172 7.34375C10.0781 7.74219 9.32812 8.30469 8.15625 9.14844C7.66406 9.5 6.82031 10.2734 6 10.25C5.15625 10.2734 4.3125 9.5 3.82031 9.14844C2.64844 8.30469 1.89844 7.74219 1.35938 7.34375C1.3125 7.32031 1.28906 7.25 1.28906 7.20312C1.28906 7.15625 1.28906 7.10938 1.3125 7.08594L1.52344 6.78125C1.59375 6.6875 1.71094 6.66406 1.80469 6.73438C2.32031 7.13281 3.09375 7.69531 4.26562 8.53906C4.66406 8.82031 5.4375 9.52344 6 9.5C6.53906 9.52344 7.3125 8.82031 7.71094 8.53906C8.88281 7.69531 9.65625 7.13281 10.1719 6.73438C10.2656 6.66406 10.3828 6.6875 10.4531 6.78125Z" fill="#243656"/>
</svg>
