<svg width="68" height="70" viewBox="0 0 68 70" fill="none" xmlns="http://www.w3.org/2000/svg">
<path d="M36.3008 68.1809C52.8693 68.1809 66.3008 54.7495 66.3008 38.1809C66.3008 21.6124 52.8693 8.18091 36.3008 8.18091C19.7322 8.18091 6.30078 21.6124 6.30078 38.1809C6.30078 54.7495 19.7322 68.1809 36.3008 68.1809Z" fill="white"/>
<path d="M61.7985 10.4496C62.3693 10.2383 62.6608 9.60432 62.4495 9.03354C62.2382 8.46277 61.6042 8.17133 61.0335 8.3826C60.4627 8.59387 60.1713 9.22784 60.3825 9.79861C60.5938 10.3694 61.2278 10.6608 61.7985 10.4496Z" fill="#CBD5E7"/>
<path d="M56.0677 15.5326C56.0086 16.0149 55.784 16.4618 55.4323 16.7971C55.0806 17.1324 54.6235 17.3353 54.139 17.3713C53.6544 17.4073 53.1723 17.2742 52.7749 16.9946C52.3775 16.715 52.0893 16.3062 51.9596 15.8379C51.8298 15.3696 51.8664 14.8709 52.0633 14.4266C52.2601 13.9823 52.6048 13.62 53.0388 13.4015C53.4728 13.1829 53.9692 13.1217 54.4433 13.2281C54.9174 13.3345 55.34 13.6021 55.6389 13.9852C55.8088 14.2022 55.9341 14.4506 56.0077 14.7161C56.0813 14.9817 56.1017 15.2591 56.0677 15.5326V15.5326ZM57.0604 15.6535C57.1475 14.9416 56.985 14.2216 56.6007 13.616C56.2164 13.0105 55.634 12.557 54.9528 12.3327C54.2716 12.1084 53.5337 12.1272 52.8648 12.386C52.1959 12.6448 51.6374 13.1275 51.2846 13.7519C50.9317 14.3762 50.8062 15.1036 50.9295 15.8102C51.0528 16.5167 51.4173 17.1586 51.9608 17.6265C52.5043 18.0944 53.1932 18.3594 53.9102 18.3763C54.6272 18.3932 55.3279 18.161 55.8929 17.7192C56.2152 17.4695 56.4846 17.1581 56.6855 16.8033C56.8864 16.4485 57.0148 16.0573 57.0632 15.6525L57.0604 15.6535Z" fill="#EBCCD8"/>
<path d="M16.788 67.576C20.5369 67.576 23.576 64.5369 23.576 60.788C23.576 57.0391 20.5369 54 16.788 54C13.0391 54 10 57.0391 10 60.788C10 64.5369 13.0391 67.576 16.788 67.576Z" fill="#F4266E"/>
<path d="M17.5853 58.3049V63.2699H16.6633V59.0789H15.6133V58.3049H17.5853Z" fill="white"/>
<g style="mix-blend-mode:multiply">
<path d="M49.2376 62.2389C44.4926 61.5884 39.9055 60.0798 35.7006 57.7869C31.2968 55.4058 27.3771 52.222 24.1436 48.3999C21.0123 44.4738 18.65 39.992 17.1806 35.1899C15.7553 30.8865 15.1631 26.351 15.4356 21.8259C15.4755 21.2587 15.6856 20.7167 16.0382 20.2707C16.3909 19.8247 16.8699 19.4954 17.4126 19.3259L23.7496 19.1919C23.8768 19.1773 24.0049 19.1736 24.1326 19.1809C24.5713 19.2023 24.9933 19.3558 25.3431 19.6214C25.6929 19.8869 25.9542 20.2521 26.0926 20.6689L28.4116 27.9999C28.5461 28.4383 28.5305 28.9091 28.3676 29.3377C28.2046 29.7664 27.9034 30.1285 27.5116 30.3669L22.4326 33.5299C22.2209 33.6584 22.0597 33.8558 21.9763 34.0891C21.8929 34.3224 21.8923 34.5772 21.9746 34.8109C23.3241 38.6932 25.3344 42.3132 27.9166 45.5109C30.6589 48.609 33.8809 51.2466 37.4596 53.3229C37.6192 53.4187 37.7998 53.474 37.9856 53.4839C38.1455 53.4936 38.3056 53.4704 38.4562 53.4157C38.6067 53.361 38.7444 53.276 38.8606 53.1659L43.1376 49.0529C43.3579 48.8452 43.6184 48.6848 43.903 48.5816C44.1877 48.4784 44.4904 48.4346 44.7926 48.4529C45.1198 48.4716 45.439 48.5617 45.7276 48.7169L52.6766 52.4579C53.1187 52.6872 53.4632 53.0684 53.6469 53.5313C53.8306 53.9942 53.8412 54.5078 53.6766 54.9779L52.2636 60.7909C52.0023 61.3104 51.5539 61.7117 51.0086 61.9139C50.4485 62.148 49.8445 62.2589 49.2376 62.2389V62.2389Z" fill="#D0D3D9"/>
</g>
<path d="M41.1535 52.305C40.8599 52.5972 40.4784 52.7848 40.0677 52.839C39.657 52.8932 39.2399 52.811 38.8805 52.605C35.3158 50.5285 32.1118 47.8872 29.3935 44.784C26.7968 41.5417 24.7703 37.8816 23.4005 33.96C23.2601 33.5703 23.254 33.1449 23.3832 32.7513C23.5124 32.3577 23.7694 32.0187 24.1135 31.788L26.7005 30.065L23.2855 19.124L19.5595 19.624C19.2516 19.6631 18.9668 19.8077 18.7536 20.0333C18.5404 20.2589 18.4121 20.5514 18.3905 20.861C18.1108 25.3926 18.6927 29.9362 20.1055 34.251C21.5745 38.8177 23.8939 43.0653 26.9415 46.77C30.0207 50.4493 33.7679 53.5131 37.9855 55.8C41.9659 57.983 46.3243 59.3912 50.8295 59.95L50.9575 59.96C51.2454 59.9648 51.5272 59.8769 51.7613 59.7093C51.9954 59.5416 52.1694 59.3031 52.2575 59.029L53.4625 55.384L43.3585 50.043L41.1535 52.305Z" fill="#D9E2F3"/>
<path d="M53.5752 51.511L46.8292 47.881C46.5709 47.7472 46.2768 47.6989 45.9893 47.7429C45.7017 47.7869 45.4356 47.9211 45.2292 48.126L44.4512 48.926L53.9452 53.944L54.2172 53.122C54.3174 52.8209 54.308 52.494 54.1905 52.1992C54.073 51.9044 53.855 51.6606 53.5752 51.511V51.511Z" fill="white"/>
<path d="M27.19 19.7199C27.1056 19.4575 26.943 19.2273 26.7241 19.06C26.5051 18.8927 26.2402 18.7963 25.965 18.7839C25.8865 18.7806 25.8078 18.7843 25.73 18.7949L24.793 18.9209L28.005 29.1999L28.98 28.5509C29.2226 28.3879 29.4059 28.1508 29.5025 27.875C29.5991 27.5992 29.6038 27.2996 29.516 27.0209L27.19 19.7199Z" fill="white"/>
<path d="M54.2868 50.1909L47.5418 46.5609C46.9952 46.2776 46.3728 46.175 45.7641 46.2679C45.1555 46.3608 44.592 46.6444 44.1548 47.0779L40.0808 51.2559C40.0266 51.311 39.9558 51.3469 39.8792 51.3581C39.8027 51.3693 39.7246 51.3552 39.6568 51.3179C36.2331 49.3275 33.1551 46.7946 30.5428 43.8179C28.0572 40.7072 26.1185 37.1965 24.8098 33.4359C24.787 33.3632 24.7881 33.285 24.8132 33.2129C24.8382 33.1409 24.8858 33.0788 24.9488 33.0359L29.8128 29.7999C30.3253 29.4555 30.7127 28.9545 30.9171 28.3719C31.1214 27.7892 31.1319 27.156 30.9468 26.5669L28.6198 19.2669C28.4147 18.6307 27.9929 18.0866 27.4279 17.7294C26.8629 17.3722 26.1905 17.2244 25.5278 17.3119L19.3588 18.1429C18.7066 18.2294 18.1044 18.5392 17.6548 19.0196C17.2052 19.5 16.9359 20.1214 16.8928 20.7779C16.6026 25.4971 17.2093 30.2286 18.6808 34.7219C20.209 39.4667 22.6203 43.8799 25.7878 47.7289C28.9874 51.5518 32.8807 54.7353 37.2628 57.1119C41.4087 59.3864 45.9482 60.8543 50.6408 61.4379C50.7128 61.4479 50.8558 61.4569 50.8758 61.4579C51.493 61.4793 52.1004 61.3001 52.607 60.9471C53.1137 60.594 53.4922 60.0863 53.6858 59.4999L55.6398 53.5909C55.8507 52.9556 55.8306 52.2663 55.5831 51.6443C55.3356 51.0224 54.8765 50.5077 54.2868 50.1909V50.1909ZM50.9578 59.9599L50.8298 59.9499C46.3246 59.3911 41.9663 57.9829 37.9858 55.7999C33.7682 53.513 30.0211 50.4492 26.9418 46.7699C23.8946 43.0661 21.5752 38.8195 20.1058 34.2539C18.693 29.9391 18.1111 25.3955 18.3908 20.8639C18.4124 20.5543 18.5408 20.2618 18.7539 20.0362C18.9671 19.8106 19.2519 19.666 19.5598 19.6269L23.2858 19.1269L26.7008 30.0649L24.1138 31.7879C23.7698 32.0186 23.5127 32.3576 23.3835 32.7512C23.2543 33.1448 23.2604 33.5702 23.4008 33.9599C24.7699 37.8806 26.7954 41.54 29.3908 44.7819C32.1103 47.8843 35.3153 50.5246 38.8808 52.5999C39.2402 52.8059 39.6573 52.8881 40.068 52.8339C40.4787 52.7797 40.8602 52.5921 41.1538 52.2999L43.3538 50.0379L53.4608 55.3789L52.2608 59.0289C52.1725 59.3035 51.9981 59.5424 51.7634 59.7101C51.5287 59.8778 51.2462 59.9654 50.9578 59.9599V59.9599ZM27.1908 19.7199L29.5168 27.0199C29.6047 27.2986 29.6 27.5983 29.5034 27.8741C29.4067 28.1499 29.2234 28.387 28.9808 28.5499L28.0058 29.1989L24.7938 18.9209L25.7308 18.7949C25.8087 18.7843 25.8873 18.7807 25.9658 18.7839C26.2411 18.7964 26.506 18.8927 26.725 19.06C26.9439 19.2273 27.1065 19.4576 27.1908 19.7199V19.7199ZM46.8298 47.8809L53.5758 51.5109C53.8547 51.6608 54.0718 51.9042 54.1888 52.1983C54.3059 52.4924 54.3155 52.8184 54.2158 53.1189L53.9438 53.9409L44.4498 48.9229L45.2278 48.1229C45.4348 47.918 45.7014 47.7842 45.9894 47.7407C46.2773 47.6972 46.5716 47.7463 46.8298 47.8809V47.8809Z" fill="#424F69"/>
<path d="M42.4827 19.6L46.9017 24.783C46.9616 24.8561 46.999 24.945 47.0095 25.039C47.02 25.133 47.0031 25.228 46.9608 25.3125C46.9185 25.3971 46.8527 25.4676 46.7712 25.5156C46.6898 25.5636 46.5961 25.587 46.5017 25.583L44.6407 25.565L44.5827 31.633C44.5827 31.7656 44.6354 31.8927 44.7291 31.9865C44.8229 32.0803 44.9501 32.133 45.0827 32.133L54.0017 32.22C54.1343 32.22 54.2615 32.2726 54.3552 32.3664C54.449 32.4602 54.5017 32.5874 54.5017 32.72L54.4657 36.492C54.4623 36.6244 54.4064 36.7501 54.3104 36.8414C54.2144 36.9327 54.0861 36.9822 53.9537 36.979L40.2627 36.849C40.1301 36.849 40.0029 36.7963 39.9091 36.7025C39.8154 36.6087 39.7627 36.4816 39.7627 36.349L39.8627 25.526L37.5727 25.504C37.4777 25.5058 37.3842 25.48 37.3036 25.4298C37.223 25.3795 37.1587 25.307 37.1185 25.221C37.0782 25.1349 37.0638 25.039 37.077 24.945C37.0902 24.8509 37.1304 24.7627 37.1927 24.691L41.7077 19.591C41.7568 19.5366 41.817 19.4933 41.8841 19.4639C41.9513 19.4346 42.0239 19.4198 42.0972 19.4207C42.1705 19.4215 42.2428 19.438 42.3092 19.4689C42.3757 19.4998 42.4348 19.5445 42.4827 19.6V19.6Z" fill="white"/>
<path d="M36.6304 24.193L41.1444 19.093C41.2647 18.9581 41.4124 18.8505 41.5777 18.7774C41.743 18.7043 41.922 18.6675 42.1027 18.6693C42.2834 18.6711 42.4617 18.7115 42.6255 18.7879C42.7893 18.8642 42.9348 18.9748 43.0524 19.112L47.4694 24.3C47.6244 24.479 47.7239 24.6992 47.7556 24.9339C47.7874 25.1685 47.7502 25.4073 47.6484 25.621C47.547 25.8399 47.3841 26.0246 47.1795 26.1525C46.975 26.2803 46.7376 26.3459 46.4964 26.341L45.3854 26.331L45.3374 31.39L54.0004 31.47C54.1665 31.4708 54.3309 31.5046 54.4839 31.5695C54.6368 31.6344 54.7753 31.7291 54.8914 31.848C55.0074 31.9619 55.0988 32.0985 55.1598 32.2492C55.2209 32.3998 55.2504 32.5615 55.2464 32.724L55.2104 36.494C55.2094 36.6562 55.1762 36.8165 55.1127 36.9657C55.0491 37.1149 54.9566 37.2499 54.8404 37.363C54.722 37.4801 54.5814 37.5725 54.4268 37.6346C54.2723 37.6968 54.1069 37.7275 53.9404 37.725L40.2534 37.6C39.9237 37.5979 39.6082 37.4661 39.375 37.2331C39.1418 37.0001 39.0097 36.6847 39.0074 36.355V36.346L39.1074 26.273L37.5664 26.258C37.325 26.2578 37.0888 26.1875 36.8866 26.0556C36.6844 25.9237 36.5248 25.7359 36.4274 25.515C36.3305 25.2991 36.2984 25.0597 36.335 24.826C36.3716 24.5922 36.4752 24.374 36.6334 24.198L36.6304 24.193ZM40.6114 25.532L40.5114 36.098L53.7174 36.223L53.7494 32.967L45.0824 32.885C44.9162 32.8841 44.7519 32.8503 44.599 32.7854C44.446 32.7205 44.3075 32.6259 44.1914 32.507C44.0743 32.394 43.9822 32.2576 43.9212 32.1067C43.8603 31.9557 43.8317 31.7937 43.8374 31.631L43.8944 25.563C43.8965 25.3642 43.9774 25.1743 44.1193 25.035C44.2612 24.8957 44.4525 24.8184 44.6514 24.82L45.9584 24.833L42.0894 20.293L38.1344 24.759L39.8704 24.775C40.0682 24.7766 40.2573 24.8563 40.3965 24.9969C40.5357 25.1374 40.6137 25.3272 40.6134 25.525L40.6114 25.532Z" fill="#424F69"/>
<path d="M12.7487 48.7568C13.7146 48.8998 14.6136 48.2327 14.7565 47.2668C14.8995 46.3008 14.2324 45.4019 13.2665 45.2589C12.3006 45.1159 11.4017 45.783 11.2587 46.7489C11.1157 47.7148 11.7828 48.6138 12.7487 48.7568Z" fill="#CBD5E7"/>
<path d="M1.08963 2.34162C1.69168 2.43075 2.252 2.01494 2.34112 1.41288C2.43025 0.810824 2.01444 0.250508 1.41239 0.16138C0.810329 0.0722523 0.250013 0.488064 0.160885 1.09012C0.0717578 1.69218 0.487569 2.25249 1.08963 2.34162Z" fill="#CBD5E7"/>
</svg>
