<svg width="60" height="62" viewBox="0 0 60 62" fill="none" xmlns="http://www.w3.org/2000/svg">
<g clip-path="url(#clip0_6558_20776)">
<path d="M30 61.9034C46.5685 61.9034 60 48.4935 60 31.9517C60 15.4098 46.5685 2 30 2C13.4315 2 0 15.4098 0 31.9517C0 48.4935 13.4315 61.9034 30 61.9034Z" fill="#F0F3F8"/>
<path d="M51.0998 43.4299C52.0939 43.4299 52.8998 42.6253 52.8998 41.6328C52.8998 40.6403 52.0939 39.8357 51.0998 39.8357C50.1057 39.8357 49.2998 40.6403 49.2998 41.6328C49.2998 42.6253 50.1057 43.4299 51.0998 43.4299Z" fill="#CBD5E7"/>
<path d="M13.3998 55.2109C14.0073 55.2109 14.4998 54.7192 14.4998 54.1126C14.4998 53.5061 14.0073 53.0144 13.3998 53.0144C12.7923 53.0144 12.2998 53.5061 12.2998 54.1126C12.2998 54.7192 12.7923 55.2109 13.3998 55.2109Z" fill="#CBD5E7"/>
<path d="M55.8002 10.1835C56.4077 10.1835 56.9002 9.69182 56.9002 9.08529C56.9002 8.47875 56.4077 7.98706 55.8002 7.98706C55.1927 7.98706 54.7002 8.47875 54.7002 9.08529C54.7002 9.69182 55.1927 10.1835 55.8002 10.1835Z" fill="#CBD5E7"/>
<path d="M5.1 47.9227C5.6 47.9227 6.2 48.1224 6.6 48.5217C7.4 49.3205 7.4 50.7182 6.6 51.5169C6.2 51.9163 5.7 52.1159 5.1 52.1159C4.5 52.1159 4 51.9163 3.6 51.5169C2.8 50.7182 2.8 49.3205 3.6 48.5217C4 48.2222 4.6 47.9227 5.1 47.9227ZM5.1 46.9243C4.3 46.9243 3.5 47.2238 2.9 47.8229C1.7 49.0209 1.7 51.0177 2.9 52.2158C3.5 52.8148 4.3 53.1143 5.1 53.1143C5.9 53.1143 6.7 52.8148 7.3 52.2158C8.5 51.0177 8.5 49.0209 7.3 47.8229C6.7 47.3237 5.9 46.9243 5.1 46.9243Z" fill="#EBCCD8"/>
<path d="M31.8994 9.48469C31.7994 9.48469 31.5994 9.48469 31.4994 9.38485C31.1994 9.18517 31.0994 8.68598 31.2994 8.38646L35.3994 2.5958C35.5994 2.29628 36.0994 2.19644 36.3994 2.39612C36.6994 2.5958 36.7994 3.09499 36.5994 3.39451L32.4994 9.18517C32.3994 9.38485 32.0994 9.48469 31.8994 9.48469Z" fill="#D2D2D2"/>
<path d="M26.9995 8.38654C26.6995 8.38654 26.2995 8.18686 26.2995 7.7875L24.8995 0.898614C24.7995 0.499258 24.9995 0.0999021 25.3995 6.31572e-05C25.7995 -0.0997758 26.1995 0.199741 26.2995 0.599097L27.6995 7.48799C27.7995 7.88734 27.4995 8.2867 27.0995 8.38654C27.0995 8.38654 27.0995 8.38654 26.9995 8.38654Z" fill="#D2D2D2"/>
<path d="M23.3998 11.4815C23.2998 11.4815 23.0998 11.4815 22.9998 11.3817L17.3998 7.38813C17.0998 7.18846 16.9998 6.68926 17.1998 6.38974C17.3998 6.09023 17.8998 5.99039 18.1998 6.19007L23.7998 10.1836C24.0998 10.3833 24.1998 10.8825 23.9998 11.182C23.8998 11.3817 23.6998 11.4815 23.3998 11.4815Z" fill="#D2D2D2"/>
<path opacity="0.25" d="M41.1002 58.206C37.5002 58.1062 31.6002 56.4089 27.4002 54.3123C22.8002 52.016 18.7002 49.0209 15.5002 45.4267C12.2002 41.8325 9.8002 37.2399 8.0002 32.5474C6.4002 28.2544 5.7002 24.2608 5.7002 19.2689C5.7002 18.2705 6.5002 16.8727 7.6002 16.673L13.9002 16.2737C14.0002 16.2737 14.2002 16.2737 14.3002 16.2737C15.2002 16.2737 16.0002 16.8727 16.3002 17.6714L18.9002 24.8598C19.2002 25.7584 18.9002 26.7568 18.1002 27.256L13.2002 30.6505C12.8002 30.95 12.6002 31.4492 12.8002 31.9484C14.6002 36.2415 16.7002 39.7358 19.2002 42.3317C21.7002 45.0273 25.0002 47.5233 29.1002 49.7197C29.3002 49.8196 29.4002 49.8196 29.6002 49.8196C29.9002 49.8196 30.2002 49.7197 30.5002 49.4202L34.6002 45.1271C35.0002 44.7278 35.6002 44.4283 36.2002 44.4283C36.5002 44.4283 36.9002 44.5281 37.1002 44.6279L44.2002 48.0225C45.1002 48.5217 45.6002 49.5201 45.3002 50.5184L44.0002 56.6086C43.9002 57.1078 43.4002 57.5072 42.8002 57.8067C42.3002 58.0064 41.5002 58.206 41.1002 58.206Z" fill="#424F69"/>
<path d="M32.6005 48.6215C32.0005 49.2205 31.1005 49.4202 30.3005 49.0209C26.3005 46.8244 23.0005 44.3284 20.5005 41.6328C18.0005 38.9371 15.9005 35.4428 14.1005 31.0498C13.8005 30.2511 14.0005 29.3526 14.7005 28.8534L17.2005 27.0563L13.3005 16.2737L9.60054 16.9726C9.00054 16.9726 8.50054 17.5716 8.50054 18.1706C8.40054 22.7632 9.20054 27.256 10.8005 31.4492C12.5005 36.0418 15.0005 40.1352 18.2005 43.6296C21.3005 47.1239 25.2005 50.0193 29.6005 52.2157C33.7005 54.2125 38.0005 55.4106 42.6005 55.8099H42.7005C43.3005 55.8099 43.8005 55.4106 44.0005 54.8115L45.1005 51.1175L34.8005 46.2254L32.6005 48.6215Z" fill="white"/>
<path d="M19.3998 25.459C19.8998 25.0597 20.0998 24.4606 19.8998 23.8616L17.2998 16.6732C17.0998 16.174 16.5998 15.7747 15.9998 15.7747C15.8998 15.7747 15.7998 15.7747 15.7998 15.7747L14.7998 15.9743L18.3998 26.0581L19.3998 25.459Z" fill="#D9E2F3"/>
<path d="M45.6005 45.926L38.7005 42.6313C37.6005 42.1321 36.2005 42.3318 35.3005 43.3302L31.4005 47.6232C31.3005 47.7231 31.1005 47.8229 31.0005 47.7231C27.1005 45.5266 23.9005 43.2303 21.6005 40.6345C19.3005 38.0387 17.2005 34.6442 15.4005 30.5508C15.3005 30.4509 15.4005 30.2513 15.5005 30.1514L20.2005 26.7569C21.2005 26.058 21.6005 24.6603 21.2005 23.4622L18.6005 16.2738C18.1005 14.9759 16.8005 14.1772 15.4005 14.4767L9.30052 15.5749C8.00052 15.6748 7.00052 16.773 7.00052 18.1707C6.90052 22.963 7.70052 27.5556 9.40052 32.0484C11.2005 36.8406 13.8005 41.1337 17.0005 44.7279C20.3005 48.3221 24.3005 51.3173 28.9005 53.6136C33.1005 55.7102 37.7005 57.0081 42.4005 57.4075C42.5005 57.4075 42.6005 57.4075 42.6005 57.4075C43.9005 57.4075 45.0005 56.5089 45.3005 55.3108L47.0005 49.3205C47.5005 47.9227 46.8005 46.525 45.6005 45.926ZM42.7005 55.81H42.6005C38.0005 55.4107 33.6005 54.2126 29.6005 52.2158C25.2005 50.0194 21.3005 47.124 18.2005 43.6297C15.1005 40.1353 12.6005 36.0419 10.8005 31.4493C9.20052 27.2561 8.40052 22.7633 8.50052 18.1707C8.50052 17.5717 9.00052 16.9727 9.60052 16.8728L13.3005 16.174L17.2005 26.9566L14.7005 28.7537C14.0005 29.2529 13.8005 30.1514 14.1005 30.9501C15.9005 35.2432 18.1005 38.8374 20.5005 41.5331C23.0005 44.2287 26.3005 46.7247 30.3005 48.9211C31.0005 49.3205 32.0005 49.1208 32.6005 48.5218L34.7005 46.1256L45.0005 51.1176L43.9005 54.8116C43.8005 55.4107 43.3005 55.81 42.7005 55.81ZM17.3005 16.6732L19.9005 23.8616C20.1005 24.4606 19.9005 25.0596 19.4005 25.459L18.5005 26.1579L14.8005 15.9743L15.7005 15.7746C15.8005 15.7746 15.9005 15.7746 15.9005 15.7746C16.6005 15.7746 17.1005 16.174 17.3005 16.6732ZM38.1005 43.9292L45.0005 47.2239C45.6005 47.5234 45.9005 48.2223 45.7005 48.8213L45.5005 49.62L35.8005 45.0274L36.5005 44.2287C36.9005 43.8294 37.5005 43.7295 38.1005 43.9292Z" fill="#424F69"/>
<path d="M44.8998 47.3237L38.0998 43.9291C37.5998 43.6296 36.8998 43.8293 36.4998 44.2286L35.7998 45.0274L45.4998 49.6199L45.6998 48.8212C45.7998 48.2222 45.4998 47.6232 44.8998 47.3237Z" fill="#D9E2F3"/>
<path d="M51.0006 22.2642H36.0006C35.8006 22.2642 35.6006 22.4638 35.6006 22.5637V33.3463C35.6006 33.3463 35.6006 33.3463 35.6006 33.4461V36.641L39.0006 33.7456H51.0006C51.6006 33.7456 52.0006 33.3463 52.0006 32.8471V23.1627C52.1006 22.6635 51.6006 22.2642 51.0006 22.2642Z" fill="#D9E2F3"/>
<path d="M35.6004 37.3397C35.5004 37.3397 35.4004 37.3397 35.3004 37.2399C35.0004 37.14 34.9004 36.8405 34.9004 36.541V33.3462V33.2463V22.5636C34.9004 21.9645 35.4004 21.4653 36.0004 21.4653H51.0004C52.0004 21.4653 52.8004 22.1642 52.8004 23.1626V32.847C52.8004 33.7455 52.0004 34.5442 51.0004 34.5442H39.3004L36.1004 37.3397C36.0004 37.3397 35.8004 37.3397 35.6004 37.3397ZM36.4004 22.9629V34.9436L38.5004 33.0467C38.6004 32.9468 38.8004 32.9468 39.0004 32.9468H51.0004C51.2004 32.9468 51.3004 32.847 51.3004 32.7471V23.0628C51.3004 22.9629 51.2004 22.8631 51.0004 22.8631H36.4004V22.9629Z" fill="#424F69"/>
<path d="M28.8002 13.7778H42.5002C43.4002 13.7778 44.1002 14.4767 44.1002 15.3753V26.8567C44.1002 26.8567 44.1002 26.8567 44.1002 26.9566V30.7505L41.1002 27.7553C40.8002 27.4558 40.4002 27.2561 40.0002 27.2561H28.8002C27.9002 27.2561 27.2002 26.5572 27.2002 25.6587V15.2754C27.2002 14.4767 27.9002 13.7778 28.8002 13.7778Z" fill="white"/>
<path d="M44 31.4492C43.8 31.4492 43.6 31.3494 43.5 31.2495L40.5 28.2544C40.3 28.0547 40.1 28.0547 39.9 28.0547H28.8C27.5 28.0547 26.5 27.0563 26.5 25.7584V15.2753C26.5 13.9774 27.5 12.979 28.8 12.979H42.5C43.8 12.979 44.8 13.9774 44.8 15.2753V26.7568V26.8566V30.6505C44.8 30.95 44.6 31.2495 44.3 31.3494C44.2 31.4492 44.1 31.4492 44 31.4492ZM28.8 14.4766C28.3 14.4766 28 14.8759 28 15.2753V25.6586C28 26.1577 28.4 26.4573 28.8 26.4573H40C40.6 26.4573 41.2 26.6569 41.6 27.1561L43.3 28.8534V26.8566V26.7568V15.2753C43.3 14.7761 42.9 14.4766 42.5 14.4766H28.8Z" fill="#424F69"/>
<path d="M30.7996 19.1689H35.8996C36.2996 19.1689 36.5996 18.8694 36.5996 18.4701V18.1706C36.5996 17.7712 36.2996 17.4717 35.8996 17.4717H30.7996C30.3996 17.4717 30.0996 17.7712 30.0996 18.1706V18.4701C30.0996 18.8694 30.3996 19.1689 30.7996 19.1689Z" fill="#F4266E"/>
<path d="M30.7996 22.3638H39.7996C40.1996 22.3638 40.4996 22.0642 40.4996 21.6649V21.3654C40.4996 20.966 40.1996 20.6665 39.7996 20.6665H30.7996C30.3996 20.6665 30.0996 20.966 30.0996 21.3654V21.6649C30.0996 22.0642 30.3996 22.3638 30.7996 22.3638Z" fill="#D9E2F3"/>
</g>
<defs>
<clipPath id="clip0_6558_20776">
<rect width="60" height="62" fill="white"/>
</clipPath>
</defs>
</svg>
