<svg width="11" height="11" viewBox="0 0 11 11" fill="none" xmlns="http://www.w3.org/2000/svg">
<path d="M10.6777 0L7.17578 0.0214844C7.00391 0.0214844 6.875 0.150391 6.875 0.322266V1.03125C6.875 1.20312 7.00391 1.35352 7.17578 1.35352L8.76562 1.28906L8.80859 1.33203L2.81445 7.32617C2.77148 7.36914 2.72852 7.43359 2.72852 7.49805C2.72852 7.58398 2.77148 7.64844 2.81445 7.69141L3.30859 8.18555C3.35156 8.22852 3.41602 8.27148 3.50195 8.27148C3.56641 8.27148 3.63086 8.22852 3.67383 8.18555L9.66797 2.19141L9.71094 2.23438L9.64648 3.82422C9.64648 3.99609 9.79688 4.14648 9.96875 4.14648V4.125H10.6777C10.8496 4.125 10.9785 3.99609 10.9785 3.82422L11 0.322266C11 0.150391 10.8496 0 10.6777 0ZM9.28125 6.1875H8.9375C8.74414 6.1875 8.59375 6.35938 8.59375 6.53125V9.83984C8.59375 9.92578 8.5293 9.96875 8.46484 9.96875H1.16016C1.07422 9.96875 1.03125 9.92578 1.03125 9.83984V2.53516C1.03125 2.4707 1.07422 2.40625 1.16016 2.40625H4.46875C4.64062 2.40625 4.8125 2.25586 4.8125 2.0625V1.71875C4.8125 1.54688 4.64062 1.375 4.46875 1.375H1.03125C0.451172 1.375 0 1.84766 0 2.40625V9.96875C0 10.5488 0.451172 11 1.03125 11H8.59375C9.15234 11 9.625 10.5488 9.625 9.96875V6.53125C9.625 6.35938 9.45312 6.1875 9.28125 6.1875Z" fill="#02122F"/>
</svg>
