<svg width="8" height="11" viewBox="0 0 8 11" fill="none" xmlns="http://www.w3.org/2000/svg">
<path d="M4.66667 2.92188V0H0.5H0.479167C0.208333 0 0 0.236328 0 0.515625V10.4844V10.5059C0 10.7852 0.208333 11 0.479167 11H0.5H7.5C7.77083 11 8 10.7852 8 10.5059V10.4844V3.4375H5.16667C4.875 3.4375 4.66667 3.22266 4.66667 2.92188ZM5.39583 5.17773L5.64583 5.43555C5.6875 5.47852 5.72917 5.58594 5.72917 5.67188C5.72917 5.75781 5.6875 5.86523 5.64583 5.9082L4.6875 6.875L5.64583 7.86328C5.6875 7.90625 5.72917 8.01367 5.72917 8.09961C5.72917 8.18555 5.6875 8.29297 5.64583 8.33594L5.39583 8.59375C5.35417 8.63672 5.25 8.67969 5.16667 8.67969C5.08333 8.67969 4.97917 8.63672 4.9375 8.59375L4 7.60547L3.04167 8.59375C3 8.63672 2.89583 8.67969 2.8125 8.67969C2.72917 8.67969 2.625 8.63672 2.58333 8.59375L2.33333 8.33594C2.29167 8.29297 2.25 8.18555 2.25 8.09961C2.25 8.01367 2.29167 7.90625 2.33333 7.86328L3.29167 6.875L2.33333 5.9082C2.29167 5.86523 2.25 5.75781 2.25 5.67188C2.25 5.58594 2.29167 5.47852 2.33333 5.43555L2.58333 5.17773C2.625 5.13477 2.72917 5.0918 2.8125 5.0918C2.89583 5.0918 3 5.13477 3.04167 5.17773L4 6.16602L4.9375 5.17773C4.97917 5.13477 5.08333 5.0918 5.16667 5.0918C5.25 5.0918 5.35417 5.13477 5.39583 5.17773ZM7.85417 2.25586L5.8125 0.150391C5.72917 0.0859375 5.5625 0 5.45833 0H5.33333V2.75H8V2.62109C7.97917 2.51367 7.91667 2.3418 7.85417 2.25586Z" fill="current"/>
</svg>
