<svg width="14" height="13" viewBox="0 0 14 13" fill="none" xmlns="http://www.w3.org/2000/svg">
<path d="M9 3.35938C9 3.21875 8.92969 3.07812 8.83594 2.96094L6.53906 0.664062C6.42188 0.570312 6.28125 0.5 6.14062 0.5H6V3.5H9V3.35938ZM13.3828 7.71875L11.1328 5.46875C10.8984 5.23438 10.4766 5.39844 10.4766 5.72656V7.25H8.97656V8.75H10.4766V10.2969C10.4766 10.625 10.8984 10.7891 11.1328 10.5547L13.3828 8.28125C13.5234 8.14062 13.5234 7.88281 13.3828 7.71875ZM4.5 8.375V7.625C4.5 7.4375 4.66406 7.25 4.875 7.25H9V4.25H5.8125C5.48438 4.25 5.25 4.01562 5.25 3.6875V0.5H0.5625C0.234375 0.5 0 0.757812 0 1.0625V11.9375C0 12.2656 0.234375 12.5 0.5625 12.5H8.4375C8.74219 12.5 9 12.2656 9 11.9375V8.75H4.875C4.66406 8.75 4.5 8.58594 4.5 8.375Z" fill="#9A9A9A"/>
</svg>
