<svg width="15" height="14" viewBox="0 0 15 14" fill="none" xmlns="http://www.w3.org/2000/svg">
<g clip-path="url(#clip0_27491_8794)">
<path d="M12.875 4.5H8.375L6.875 3H3.125C2.49219 3 2 3.51562 2 4.125V10.875C2 11.5078 2.49219 12 3.125 12H12.875C13.4844 12 14 11.5078 14 10.875V5.625C14 5.01562 13.4844 4.5 12.875 4.5ZM10.2734 9H8.75V10.125C8.75 10.3359 8.5625 10.5 8.375 10.5H7.625C7.41406 10.5 7.25 10.3359 7.25 10.125V9H5.70312C5.51562 9 5.32812 8.83594 5.32812 8.625C5.32812 8.53125 5.375 8.4375 5.44531 8.36719L7.71875 6.11719C7.78906 6.04688 7.88281 6.02344 7.97656 6.02344C8.09375 6.02344 8.1875 6.04688 8.28125 6.11719L10.5312 8.36719C10.6016 8.4375 10.6484 8.53125 10.6484 8.625C10.6484 8.83594 10.4609 9 10.2734 9Z" fill="#9A9A9A"/>
</g>
<defs>
<clipPath id="clip0_27491_8794">
<rect width="15" height="14" fill="white"/>
</clipPath>
</defs>
</svg>
