<svg width="14" height="14" viewBox="0 0 14 14" fill="none" xmlns="http://www.w3.org/2000/svg">
<path d="M7 7.875C9.16016 7.875 10.9375 6.125 10.9375 3.9375C10.9375 1.77734 9.16016 0 7 0C4.8125 0 3.0625 1.77734 3.0625 3.9375C3.0625 6.125 4.8125 7.875 7 7.875ZM10.5 8.75H8.96875C8.36719 9.05078 7.71094 9.1875 7 9.1875C6.28906 9.1875 5.60547 9.05078 5.00391 8.75H3.5C1.55859 8.75 0 10.3359 0 12.25V12.6875C0 13.4258 0.574219 14 1.3125 14H12.6875C13.3984 14 14 13.4258 14 12.6875V12.25C14 10.3359 12.4141 8.75 10.5 8.75Z" fill="current"/>
</svg>
