<svg width="28" height="28" viewBox="0 0 28 28" fill="none" xmlns="http://www.w3.org/2000/svg">
<circle cx="14" cy="14" r="14" fill="#566F9F"/>
<path d="M21.5137 17.0417L15.3335 10.8622V8.12182C15.3335 7.6892 15.2375 7.25324 15.0482 6.84659L14.9076 6.57995C14.7416 6.22198 14.3943 6 14.0003 6C13.6063 6 13.259 6.22198 13.1004 6.56461L12.945 6.86124C12.7631 7.25321 12.6671 7.68851 12.6671 8.12179V10.8622L6.48894 17.0404C6.17431 17.355 6.00098 17.773 6.00098 18.2183V18.9996C6.00098 19.1216 6.06763 19.2336 6.17431 19.2916C6.28095 19.3502 6.41163 19.3462 6.51428 19.2796L12.7964 15.2539C12.8584 16.2625 12.9424 17.1044 13.045 18.129L13.151 19.1789L10.8172 20.7208C10.7232 20.7834 10.6672 20.8874 10.6672 20.9994V21.666C10.6672 21.7667 10.7132 21.8627 10.7919 21.926C10.8712 21.99 10.9745 22.014 11.0725 21.992L14.0003 21.3407L16.928 21.992C16.952 21.9973 16.976 22 17 22C17.0754 22 17.1487 21.9747 17.2087 21.9267C17.2873 21.8627 17.3333 21.7667 17.3333 21.666V20.9994C17.3333 20.8874 17.2773 20.7828 17.1833 20.7215L14.8495 19.1816L14.9555 18.1283C15.0582 17.1051 15.1421 16.2638 15.2041 15.2552L21.4863 19.2795C21.5896 19.3462 21.7196 19.3495 21.8256 19.2915C21.9329 19.2335 21.9996 19.1216 21.9996 18.9996V18.2183C21.9996 17.773 21.827 17.355 21.5137 17.0417Z" fill="white"/>
</svg>
