<svg width="13" height="15" viewBox="0 0 13 15" fill="none" xmlns="http://www.w3.org/2000/svg">
<path d="M8.72266 9.5L6.125 12.125L3.5 9.5C1.55859 9.60938 0 11.1953 0 13.1641C0 14.0391 0.710938 14.75 1.58594 14.75H10.6367C11.5117 14.75 12.25 14.0391 12.25 13.1641C12.25 11.1953 10.6641 9.60938 8.72266 9.5ZM6.125 9.0625C8.03906 9.0625 9.625 7.50391 9.625 5.5625V2.55469C9.625 2.19922 9.37891 1.87109 9.05078 1.73438L6.72656 0.886719C6.53516 0.804688 6.31641 0.777344 6.125 0.777344C5.90625 0.777344 5.6875 0.804688 5.49609 0.886719L3.17188 1.73438C2.84375 1.87109 2.625 2.19922 2.625 2.55469V5.5625C2.625 7.50391 4.18359 9.0625 6.125 9.0625ZM5.03125 2.71875C5.03125 2.63672 5.08594 2.58203 5.16797 2.58203H5.74219V1.98047C5.74219 1.92578 5.79688 1.84375 5.87891 1.84375H6.34375C6.42578 1.84375 6.48047 1.92578 6.48047 1.98047V2.58203H7.08203C7.13672 2.58203 7.21875 2.63672 7.21875 2.71875V3.18359C7.21875 3.26562 7.13672 3.32031 7.08203 3.32031H6.48047V3.89453C6.48047 3.97656 6.42578 4.03125 6.34375 4.03125H5.87891C5.79688 4.03125 5.74219 3.97656 5.74219 3.89453V3.32031H5.16797C5.08594 3.32031 5.03125 3.26562 5.03125 3.18359V2.71875ZM3.9375 5.125H8.3125V5.5625C8.3125 6.79297 7.32812 7.75 6.125 7.75C4.89453 7.75 3.9375 6.79297 3.9375 5.5625V5.125Z" fill="#999999"/>
</svg>
