<svg width="52.074" height="51" version="1.1" viewBox="0 0 13.778 13.494" xmlns="http://www.w3.org/2000/svg">
 <g transform="translate(-97.693 -162.31)">
  <g transform="matrix(.26458 0 0 .26458 97.977 162.31)" style="fill:none">
   <path d="m25.5 51c14.083 0 25.5-11.417 25.5-25.5s-11.417-25.5-25.5-25.5-25.5 11.417-25.5 25.5 11.417 25.5 25.5 25.5z" fill="#f0f3f8"/>
  </g>
  <circle cx="104.96" cy="169.15" r="4.4585" style="display:none;fill:#fff;paint-order:stroke fill markers;stop-color:#000000;stroke-width:.034582;stroke:#fff"/>
  <path d="m101.67 171.19-0.67789-2.361 0.58439-1.6012 0.71296-0.97009 0.72465-0.4909 1.122-0.32726 0.82984-0.14025 0.95841 0.0468 0.94672 0.35064 0.94672 0.75971 0.54934 0.64283 0.36232 1.1337 0.11688 1.4376-0.64284 1.4376-0.87659 1.0168-1.8116 0.78309-1.9285-0.18701-0.4792-0.35064-0.70128-0.0468-1.0987 0.0584-0.30389-0.25713 0.42077-0.51427z" style="fill:#fff"/>
  <g transform="matrix(.26458 0 0 .26458 104.63 166.31)" style="fill:none">
   <path d="m3.054 0.54433c-0.65236 0-1.2133 0.22022-1.6704 0.65235-0.46953 0.43213-0.70637 0.95152-0.70637 1.5665 0 0.6025 0.23684 1.1219 0.70637 1.554 0.45706 0.43213 1.018 0.63989 1.6704 0.63989 0.63989 0 1.2008-0.20776 1.6579-0.63989 0.45707-0.43213 0.69391-0.95152 0.69391-1.554 0-0.61496-0.23684-1.1344-0.69391-1.5665-0.45706-0.43213-1.018-0.65235-1.6579-0.65235z" fill="#414e6a"/>
  </g>
  <g transform="matrix(.26458 0 0 .26458 103.9 167.8)" style="fill:none">
   <path d="m5.8826 11.509c-0.52331-0.015433-0.8695-0.11708-1.0763-0.29366-0.20265-0.17635-0.2973-0.49098-0.28346-0.96027 0.0053887-0.18272 0.038394-0.45617 0.11526-0.80719 0.07724-0.36353 0.16533-0.67271 0.24867-0.96124l1.0958-3.4678c0.10056-0.30881 0.17743-0.65988 0.22644-1.0533 0.052556-0.37257 0.073104-0.64633 0.077759-0.80415 0.021558-0.73099-0.22246-1.3368-0.7157-1.8086-0.50984-0.47229-1.2463-0.73096-2.1974-0.75901-0.52331-0.015433-1.0867 0.059403-1.6905 0.23697-0.59102 0.16548-1.2247 0.36711-1.8848 0.622l-0.29363 1.0763c0.19753-0.073149 0.4366-0.14508 0.70059-0.21628 0.27645-0.070831 0.53921-0.10049 0.80086-0.092772 0.52332 0.015433 0.87366 0.11722 1.0472 0.29277 0.17735 0.18814 0.25953 0.50233 0.24643 0.94674-0.0073493 0.2492-0.040352 0.52258-0.11562 0.81966-0.062816 0.29745-0.14688 0.6109-0.24817 0.94462l-1.0961 3.4803c-0.10216 0.3628-0.16582 0.68931-0.22449 0.98693-0.045825 0.28547-0.07089 0.57156-0.079341 0.85813-0.021189 0.71849 0.22283 1.3242 0.74513 1.7969 0.52194 0.4851 1.2584 0.74382 2.222 0.77224 0.62715 0.0185 1.1777-0.0443 1.6521-0.20069 0.47398-0.14399 1.1205-0.35773 1.9147-0.65024l0.30609-1.0759c-0.14733 0.06218-0.36978 0.13456-0.67102 0.20051s-0.58562 0.12409-0.82237 0.1171z" fill="#414e6a"/>
  </g>
  <g transform="matrix(.26458 0 0 .26458 100.2 164.69)" style="fill:none">
   <path d="m18.011 0.88504c-8.6136 0-15.619 7.0097-15.619 15.619 0 2.9044 0.80193 5.626 2.1814 7.9529l-4.018 4.8324 1.5083 0.3615c0.11634 0.0291 1.5706 0.3656 3.5692 0.3656 1.1468 0 2.4682-0.108 3.8227-0.457 2.4557 1.6163 5.3975 2.5595 8.5554 2.5595 8.6094 0 15.611-7.0055 15.611-15.615 0-8.6095-7.0014-15.619-15.611-15.619zm0 29.31c-2.2271 0-4.3296-0.5319-6.1953-1.4875-0.7105-0.3532-1.3836-0.7771-2.0152-1.2549-0.79363 0.2701-1.6039 0.4321-2.3684 0.5236h-0.00415c-1.259 0.1537-2.4266 0.1205-3.3075 0.0373l1.5831-1.903 1.2673-1.5208c-0.40305-0.5443-0.76454-1.1177-1.072-1.7202-1.0138-1.8989-1.579-4.0637-1.579-6.3656 0-7.5499 6.1412-13.691 13.691-13.691 7.5457 0 13.687 6.1413 13.687 13.691 0 7.5498-6.1413 13.691-13.687 13.691z" fill="#414e6a"/>
  </g>
  <g transform="matrix(.26458 0 0 .26458 98.97 170)" style="fill:none">
   <path d="m3.0137 2.515c0.73434 0 1.3296-0.5953 1.3296-1.3296 0-0.73434-0.5953-1.3296-1.3296-1.3296s-1.3296 0.5953-1.3296 1.3296c0 0.73434 0.5953 1.3296 1.3296 1.3296z" fill="#cbd5e8"/>
  </g>
  <g transform="matrix(.26458 0 0 .26458 101.6 174.01)" style="fill:none">
   <path d="m1.9958 2.6662c0.73434 0 1.3296-0.59529 1.3296-1.3296 0-0.73434-0.5953-1.3296-1.3296-1.3296s-1.3296 0.5953-1.3296 1.3296c0 0.73434 0.5953 1.3296 1.3296 1.3296z" fill="#cbd5e8"/>
  </g>
  <g transform="matrix(.26458 0 0 .26458 108.91 171.76)" style="fill:none">
   <path d="m1.8088 2.3407c0.51634 0 0.93491-0.41857 0.93491-0.9349 0-0.51633-0.41857-0.9349-0.93491-0.9349-0.51633 0-0.9349 0.41857-0.9349 0.9349 0 0.51633 0.41857 0.9349 0.9349 0.9349z" fill="#cbd5e8"/>
   <circle cx="104.63" cy="169.19" r="5.4183" style="fill:#2a2a2a;paint-order:stroke fill markers;stop-color:#000000;stroke-width:.049847;stroke:#fff"/>
  </g>
  <g transform="matrix(.26458 0 0 .26458 105.72 163.81)" style="fill:none">
   <path d="m0.97787 1.9931c0.51633 0 0.9349-0.41857 0.9349-0.9349 0-0.51633-0.41857-0.9349-0.9349-0.9349-0.51633 0-0.9349 0.41857-0.9349 0.9349 0 0.51633 0.41857 0.9349 0.9349 0.9349z" fill="#cbd5e8"/>
  </g>
  <g transform="matrix(.26458 0 0 .26458 97.635 165.94)" style="fill:none">
   <path d="m2.7148 5.892c-1.3795 0-2.4972-1.1219-2.4972-2.4972 0-1.3795 1.1219-2.4972 2.4972-2.4972s2.4972 1.1219 2.4972 2.4972c0.00415 1.3753-1.1177 2.4972-2.4972 2.4972zm0-4.1676c-0.91828 0-1.6662 0.74792-1.6662 1.6662s0.74793 1.6662 1.6662 1.6662 1.6662-0.74793 1.6662-1.6662-0.74376-1.6662-1.6662-1.6662z" fill="#f71e6c" opacity=".3"/>
  </g>
 </g>
</svg>
